<svg xmlns="http://www.w3.org/2000/svg" xmlns:xlink="http://www.w3.org/1999/xlink" width="754.982" height="606.656" viewBox="0 0 754.982 606.656">
  <defs>
    <linearGradient id="linear-gradient" x1="-2.392" y1="1" x2="-2.392" gradientUnits="objectBoundingBox">
      <stop offset="0" stop-color="gray" stop-opacity="0.251"/>
      <stop offset="0.54" stop-color="gray" stop-opacity="0.122"/>
      <stop offset="1" stop-color="gray" stop-opacity="0.102"/>
    </linearGradient>
  </defs>
  <g id="undraw_business_plan_5i9d" transform="translate(-0.048 0.023)">
    <ellipse id="Elipse_168" data-name="Elipse 168" cx="311.441" cy="21.772" rx="311.441" ry="21.772" transform="translate(52.037 563.09)" fill="#00c6e2" opacity="0.1"/>
    <path id="Trazado_500" data-name="Trazado 500" d="M102.58,103.022C83.174,125.916,78.264,154.938,78,182.765c-.188,19.622,2.473,40.906,18.727,55.377,21.4,19.039,62.472,22.792,73.072,47.121,9.4,21.619-12.473,43.369-33.485,58.627S91.171,377.83,95.1,400.549c2.487,14.507,16.131,25.9,29.739,35.456,25.871,18.216,54.952,34.152,87.735,41.9,59.478,14.048,123.722-.5,179.455-22.515,34.309-13.553,74.142-30.188,108.212-16.249,8.995,3.68,16.63,9.239,24.924,13.844,24.114,13.312,53.564,18.216,82.226,22.377,42.009,6.121,86.159,11.228,126.636.189s75.458-43.325,69.261-77.761c-5.842-32.439-43.036-53.584-72.674-75.742-10.455-7.818-21.1-18.18-18.5-29.554,2.068-9.021,11.8-15.3,20.477-21.131,45.668-30.851,79.232-73.44,94.662-120.139,7.288-22.034,9.92-47.42-6.341-66-13.116-14.988-35.6-22.187-56.977-28.111-39.674-11-80.338-20.285-122.066-22.792S557.034,36.6,519.992,52.462c-17.765,7.614-33.868,17.64-51.807,24.971C417.253,98.243,357.24,95.445,300.437,92.158c-20.3-1.173-41.511-3.257-59.131-12.19-15.184-7.709-23.861-13.232-42.66-14.092C161.8,64.193,123.679,78.088,102.58,103.022Z" transform="translate(-77.94 -33.72)" fill="#00c6e2" opacity="0.1"/>
    <path id="Trazado_501" data-name="Trazado 501" d="M351.3,308.4l-.8,1.654-5.155,10.675-54.077,111.9L199.506,659.209l-13.116.1L278.2,432.63l62.566-129.48,4.577,2.281L350.5,308Z" transform="translate(-51.607 -82.268)" fill="#535461"/>
    <path id="Trazado_502" data-name="Trazado 502" d="M574.843,659.311l-10.8-.1L472.278,432.63,419.625,323.669l-6.573-13.611-.8-1.654.8-.4,6.573-3.279,3.16-1.574,61.626,129.48Z" transform="translate(-114.158 -82.268)" fill="#535461"/>
    <rect id="Rectángulo_90" data-name="Rectángulo 90" width="11.735" height="386.596" transform="translate(293.739 190.447)" fill="#535461"/>
    <path id="Trazado_503" data-name="Trazado 503" d="M484.711,207.69a15,15,0,0,0-14.931,15.047v5.377a14.937,14.937,0,1,0,29.873,0l0-5.377A15.011,15.011,0,0,0,484.711,207.69Zm11.2,20.4a11.208,11.208,0,1,1-22.415,0v-5.377a11.208,11.208,0,1,1,22.415,0Z" transform="translate(-186.445 -80.934)" fill="#535461"/>
    <path id="Trazado_504" data-name="Trazado 504" d="M457.026,421.3H444.893L392.241,312.334V421.3H380.513V309.4L326.436,421.3H313.37l62.566-129.48,4.577,2.281V261.38h11.728v32.009l3.16-1.574Z" transform="translate(-86.773 -70.933)" opacity="0.1"/>
    <path id="Trazado_505" data-name="Trazado 505" d="M499.648,229.08v4.838a14.937,14.937,0,1,1-29.873,0l0-4.838h3.731v4.838a11.208,11.208,0,1,0,22.415,0V229.08Z" transform="translate(-186.444 -86.738)" opacity="0.1"/>
    <rect id="Rectángulo_91" data-name="Rectángulo 91" width="451.251" height="205.332" transform="translate(72.644 143.42)" fill="#535461"/>
    <rect id="Rectángulo_92" data-name="Rectángulo 92" width="434.179" height="187.057" transform="translate(80.648 149.869)" fill="#fff"/>
    <g id="Grupo_50" data-name="Grupo 50" transform="translate(123.525 170.205)" opacity="0.2">
      <rect id="Rectángulo_93" data-name="Rectángulo 93" width="20.527" height="9.421" fill="#00c6e2"/>
    </g>
    <g id="Grupo_51" data-name="Grupo 51" transform="translate(123.525 188.428)" opacity="0.2">
      <rect id="Rectángulo_94" data-name="Rectángulo 94" width="20.527" height="9.421" fill="#00c6e2"/>
    </g>
    <g id="Grupo_52" data-name="Grupo 52" transform="translate(123.525 206.644)" opacity="0.2">
      <rect id="Rectángulo_95" data-name="Rectángulo 95" width="20.527" height="9.421" fill="#00c6e2"/>
    </g>
    <g id="Grupo_53" data-name="Grupo 53" transform="translate(123.525 224.861)" opacity="0.2">
      <rect id="Rectángulo_96" data-name="Rectángulo 96" width="20.527" height="9.421" fill="#00c6e2"/>
    </g>
    <g id="Grupo_54" data-name="Grupo 54" transform="translate(123.525 243.084)" opacity="0.2">
      <rect id="Rectángulo_97" data-name="Rectángulo 97" width="20.527" height="9.421" fill="#00c6e2"/>
    </g>
    <g id="Grupo_55" data-name="Grupo 55" transform="translate(123.525 261.3)" opacity="0.2">
      <rect id="Rectángulo_98" data-name="Rectángulo 98" width="20.527" height="9.421" fill="#00c6e2"/>
    </g>
    <g id="Grupo_56" data-name="Grupo 56" transform="translate(123.525 279.516)" opacity="0.2">
      <rect id="Rectángulo_99" data-name="Rectángulo 99" width="20.527" height="9.421" fill="#00c6e2"/>
    </g>
    <g id="Grupo_57" data-name="Grupo 57" transform="translate(123.525 297.732)" opacity="0.2">
      <rect id="Rectángulo_100" data-name="Rectángulo 100" width="20.527" height="9.421" fill="#00c6e2"/>
    </g>
    <g id="Grupo_58" data-name="Grupo 58" transform="translate(162.172 307.161)" opacity="0.2">
      <rect id="Rectángulo_101" data-name="Rectángulo 101" width="20.527" height="9.421" fill="#00c6e2"/>
    </g>
    <g id="Grupo_59" data-name="Grupo 59" transform="translate(198.332 307.161)" opacity="0.2">
      <rect id="Rectángulo_102" data-name="Rectángulo 102" width="20.527" height="9.421" fill="#00c6e2"/>
    </g>
    <g id="Grupo_60" data-name="Grupo 60" transform="translate(234.485 307.161)" opacity="0.2">
      <rect id="Rectángulo_103" data-name="Rectángulo 103" width="20.527" height="9.421" fill="#00c6e2"/>
    </g>
    <g id="Grupo_61" data-name="Grupo 61" transform="translate(270.645 307.161)" opacity="0.2">
      <rect id="Rectángulo_104" data-name="Rectángulo 104" width="20.527" height="9.421" fill="#00c6e2"/>
    </g>
    <g id="Grupo_62" data-name="Grupo 62" transform="translate(306.798 307.161)" opacity="0.2">
      <rect id="Rectángulo_105" data-name="Rectángulo 105" width="20.527" height="9.421" fill="#00c6e2"/>
    </g>
    <g id="Grupo_63" data-name="Grupo 63" transform="translate(342.958 307.161)" opacity="0.2">
      <rect id="Rectángulo_106" data-name="Rectángulo 106" width="20.527" height="9.421" fill="#00c6e2"/>
    </g>
    <g id="Grupo_64" data-name="Grupo 64" transform="translate(379.11 307.161)" opacity="0.2">
      <rect id="Rectángulo_107" data-name="Rectángulo 107" width="20.527" height="9.421" fill="#00c6e2"/>
    </g>
    <g id="Grupo_65" data-name="Grupo 65" transform="translate(415.27 307.161)" opacity="0.2">
      <rect id="Rectángulo_108" data-name="Rectángulo 108" width="20.527" height="9.421" fill="#00c6e2"/>
    </g>
    <g id="Grupo_66" data-name="Grupo 66" transform="translate(451.423 307.161)" opacity="0.2">
      <rect id="Rectángulo_109" data-name="Rectángulo 109" width="20.527" height="9.421" fill="#00c6e2"/>
    </g>
    <rect id="Rectángulo_110" data-name="Rectángulo 110" width="20.527" height="59.049" transform="translate(162.172 238.683)" fill="#00c6e2"/>
    <rect id="Rectángulo_111" data-name="Rectángulo 111" width="20.527" height="86.381" transform="translate(198.332 211.359)" fill="#00c6e2"/>
    <rect id="Rectángulo_112" data-name="Rectángulo 112" width="20.527" height="109.311" transform="translate(234.485 188.428)" fill="#00c6e2"/>
    <rect id="Rectángulo_113" data-name="Rectángulo 113" width="20.527" height="97.42" transform="translate(270.645 200.313)" fill="#00c6e2"/>
    <rect id="Rectángulo_114" data-name="Rectángulo 114" width="20.527" height="118.106" transform="translate(306.798 179.634)" fill="#00c6e2"/>
    <g id="Grupo_67" data-name="Grupo 67" transform="translate(342.958 224.861)" opacity="0.2">
      <rect id="Rectángulo_115" data-name="Rectángulo 115" width="20.527" height="72.872" fill="#00c6e2"/>
    </g>
    <g id="Grupo_68" data-name="Grupo 68" transform="translate(379.11 224.861)" opacity="0.2">
      <rect id="Rectángulo_116" data-name="Rectángulo 116" width="20.527" height="72.872" fill="#00c6e2"/>
    </g>
    <g id="Grupo_69" data-name="Grupo 69" transform="translate(415.27 224.861)" opacity="0.2">
      <rect id="Rectángulo_117" data-name="Rectángulo 117" width="20.527" height="72.872" fill="#00c6e2"/>
    </g>
    <g id="Grupo_70" data-name="Grupo 70" transform="translate(451.423 224.861)" opacity="0.2">
      <rect id="Rectángulo_118" data-name="Rectángulo 118" width="20.527" height="72.872" fill="#00c6e2"/>
    </g>
    <path id="Trazado_506" data-name="Trazado 506" d="M553.724,308.39l-175.774,10.9v3.454l179.52-7.177Z" transform="translate(-104.659 -83.69)" fill="#535461"/>
    <path id="Trazado_507" data-name="Trazado 507" d="M906.57,362.373s9.2-15.243,6.753-39.157-11.287-62.62-11.287-62.62,3.839-21.684-16.984-24.73c0,0-12.943-2.426-22.2-8.292-3.442-2.186-6.37-4.831-7.954-8.015,0,0-.123.357-.362,1.013a11.584,11.584,0,0,1-.564-1.013s-.051.131-.13.364l-3.536-5.552s-.484.517-1.3,1.37a37.158,37.158,0,0,1-3.615-6.558,18.7,18.7,0,0,0,2.581-.831,5.057,5.057,0,0,0,2.1-1.355,5.4,5.4,0,0,0,.954-2.4,29.364,29.364,0,0,0,.477-8.423,41.84,41.84,0,0,1-.484-6.594c.159-2.368.991-4.656,1.106-7.031.2-4.182-1.858-8.161-4.4-11.476-1.518-1.975-3.225-3.811-4.541-5.924-1.142-1.836-1.974-3.862-3.2-5.647-2.892-4.153-7.715-6.6-12.661-7.469s-10.036-.328-14.989.5c-4.338.729-8.677,1.785-13.015,2.04-3.789.219-6.876-1.071-10.347,1.457a10.1,10.1,0,0,0-4.035,7.286,3.883,3.883,0,0,0,.108,1.457,10.493,10.493,0,0,0,.723,1.421c1.54,3.06-.8,6.7-.5,10.114a6.728,6.728,0,0,0,5.929,5.887c-.137.291-.289.576-.419.874a30.43,30.43,0,0,0,1.518,27.461,29.975,29.975,0,0,0,22.972,14.851l1.345,1.042c3.037,2.368,6.45,5.2,9.74,8.285l-.065.051-.535-.306a28.811,28.811,0,0,1-3.152,2.186,29.335,29.335,0,0,1-13.478,4.6s-9.891,5.283-13.3,22.7c-4.888,4.416-15.35,12.387-29.175,14.464-19.428,2.915-43.383,3.869-43.383,3.869s-.2.35-.47.991l-2.213-.408a4.039,4.039,0,0,1-.094.729l-.868-.393c-6.862-3.024-20.571-7.432-22.306,4.714-2.328,16.292,13.087,14.42,13.087,14.42a71.481,71.481,0,0,1,9.349-2.864l.86-.168a4.841,4.841,0,0,0,.607,1.2h2.1a24.975,24.975,0,0,0,2.625,4.3l48.864-1.078a50.911,50.911,0,0,1,16.059-.67c-3.362,25.328-7.332,53.1-7.332,53.1s-8.315,43.988-2.495,48.586a88.029,88.029,0,0,1,10.311-2.783,47.638,47.638,0,0,0,.853,8.1l3.724,24.563s1.446,25.094,6.283,40.075l4.266,20.475,3.572,15.476,2.01,26.268a251.231,251.231,0,0,1,5.972,33.838c1.887,17.648,12.133,46.167,13.5,49.919-3.5,4.991-10.687,13.458-19.7,14.332-12.87,1.253-13.181,9.072-4.186,11.884s27.924,0,27.924,0l26.7-6.652c-.8,4.962-1.222,8.882-.636,9.3,1.706,1.253,27.613,8.015,28.546-2.813q.109-1.341.2-2.6a55.474,55.474,0,0,0-2.711-20.475c-.21-.649-.4-1.3-.564-1.96a12.066,12.066,0,0,0,1.056-1.377s1.865-29.233,3.261-39.711c.109-.838.181-1.858.217-3.009.644-12.562-3.9-45.606-3.9-45.606s-5.618-21.495-5.408-31.375a9.493,9.493,0,0,1,.412-2.419,2.7,2.7,0,0,0-.072-.525,1.411,1.411,0,0,1,.108-.415s-2.849-19.673-2.451-31.375a24.453,24.453,0,0,1,.723-5.173,34.252,34.252,0,0,0,.687-6.755c.362-8.015-.058-21.859-.636-34.844.065-.219.13-.437.181-.692a6.825,6.825,0,0,0-.354-3.06c-.043-.838-.08-1.669-.123-2.492.239-.823.434-1.7.607-2.6h.376v.051s24.309-1.173,29.9-7.738c0,0-5.647-17.684-8.778-32.06ZM801.814,307.368l-.383-.138c.615-2.186,1.345-4.729,2.169-7.4C802.9,302.719,802.291,305.342,801.814,307.368Zm24.671-72.493.108.1-.116-.066Zm30.368,379.274c-1.309-4.539-6.508-23.047-6.341-31.871a9.051,9.051,0,0,1,.4-2.259,17,17,0,0,0,.723-4.933c.521-9.21-2.979-25.714-2.979-25.714s-7.831-22.26-7.231-39.937c0-.444.051-.889.08-1.333.13-1.676.231-3.49.3-5.407v-.036c.3-6.827.231-15.047.036-22.712l-.043-.284c-.268-10.15-.766-19.287-.976-22.9.723,5.224,5.351,37.744,7.346,43.063,0,0,1.092,15,6.052,27.688l5.437,32.978s1.4,39.245,3.716,50.342c1.041,4.94,1.923,8.27,2.581,10.442-.94,4.423-2.458,11.833-3.478,17.968-.6-4-2.711-19.244-5.618-25.094Z" transform="translate(-249.395 -65.712)" fill="url(#linear-gradient)"/>
    <path id="Trazado_508" data-name="Trazado 508" d="M873.595,785.822s-9.074,16.577-21.836,17.815-13.066,8.984-4.15,11.775,27.678,0,27.678,0l26.753-6.66s-3.232-26.654-7.534-28.045S873.595,785.822,873.595,785.822Z" transform="translate(-289.383 -236.373)" fill="#4c4c78"/>
    <path id="Trazado_509" data-name="Trazado 509" d="M928.956,787.5s-6.768,30.676-5.061,31.922,27.368,7.9,28.293-2.791q.109-1.348.2-2.579a55.086,55.086,0,0,0-2.69-20.293,16.351,16.351,0,0,1-1.041-6.259C949.078,783.167,928.956,787.5,928.956,787.5Z" transform="translate(-312.134 -237.747)" fill="#4c4c78"/>
    <path id="Trazado_510" data-name="Trazado 510" d="M899.779,241.344s-20.759,51.384-17.064,34.88c2.444-10.93-13.355-25.451-24.28-33.984-5.56-4.372-9.855-7.148-9.855-7.148s38.973-45.788,36.211-26.034A29.959,29.959,0,0,0,886.916,225,41.7,41.7,0,0,0,899.779,241.344Z" transform="translate(-291.353 -79.963)" fill="#ffb9b9"/>
    <path id="Trazado_511" data-name="Trazado 511" d="M725.573,348.266a11.81,11.81,0,0,0-4.75.3,70.978,70.978,0,0,0-9.262,2.834s-15.278,1.858-12.972-14.289c1.714-12.037,15.3-7.665,22.1-4.678,2.314,1.027,3.847,1.887,3.847,1.887Z" transform="translate(-249.748 -113.889)" fill="#ffb9b9"/>
    <path id="Trazado_512" data-name="Trazado 512" d="M733.858,349.493a11.81,11.81,0,0,0-4.75.3c-1.663-4.226-.4-14.245-.13-16.132,2.314,1.027,3.847,1.887,3.847,1.887Z" transform="translate(-258.032 -115.117)" opacity="0.1"/>
    <path id="Trazado_513" data-name="Trazado 513" d="M734.272,333.959l-4-.729s-2.046,13.844.629,17.487h4.6Z" transform="translate(-258.381 -115)" fill="#cbcdda"/>
    <path id="Trazado_514" data-name="Trazado 514" d="M837.49,367.869s-12.22-7.367-13.68,1.931-3.384,25.182-3.384,25.182l-3.384,20.22-4.382,40.513.615,6.893s13.015-4.416,16.066-2.864,5.539-17.043,5.539-17.043l5.061-19.214.766-40.746Z" transform="translate(-281.405 -123.648)" fill="#4c4c78"/>
    <path id="Trazado_515" data-name="Trazado 515" d="M837.49,367.869s-12.22-7.367-13.68,1.931-3.384,25.182-3.384,25.182l-3.384,20.22-4.382,40.513.615,6.893s13.015-4.416,16.066-2.864,5.539-17.043,5.539-17.043l5.061-19.214.766-40.746Z" transform="translate(-281.405 -123.648)" opacity="0.1"/>
    <path id="Trazado_516" data-name="Trazado 516" d="M808.407,303.4s-12.682,14.413-31.937,17.313-43.014,3.84-43.014,3.84-5.994,10.806,2.654,22.311l48.445-1.078s10.723-2.346,19.031,0Z" transform="translate(-258.909 -106.906)" fill="#4c4c78"/>
    <path id="Trazado_517" data-name="Trazado 517" d="M808.407,303.4s-12.682,14.413-31.937,17.313-43.014,3.84-43.014,3.84-5.994,10.806,2.654,22.311l48.445-1.078s10.723-2.346,19.031,0Z" transform="translate(-258.909 -106.906)" opacity="0.05"/>
    <path id="Trazado_518" data-name="Trazado 518" d="M692.29,384.58" transform="translate(-248.069 -128.934)" fill="none" stroke="blue" stroke-miterlimit="10" stroke-width="1"/>
    <path id="Trazado_519" data-name="Trazado 519" d="M884.863,224.556c-4.729,10.2-12.95,17.721-24.873,17.721-.528,0-1.041,0-1.555-.036-5.56-4.372-9.855-7.148-9.855-7.148s38.973-45.788,36.211-26.034C883.937,215.106,882.961,220.017,884.863,224.556Z" transform="translate(-291.353 -79.963)" opacity="0.1"/>
    <path id="Trazado_520" data-name="Trazado 520" d="M882.681,202.962a29.761,29.761,0,1,1-8.673-21.2,29.825,29.825,0,0,1,8.673,21.2Z" transform="translate(-284.34 -71.521)" fill="#ffb9b9"/>
    <path id="Trazado_521" data-name="Trazado 521" d="M904.083,408.232s-66.261,5.895-68.69-2.63,6.76-31.609,6.76-31.609l-2.993-32.228-.108-1.231s8.3-34.866,8-37.649c-.289-2.507,13.362-31.762,16.167-37.744.333-.692.506-1.071.506-1.071l.528.306.231.138,3.247,1.909,12.82-3.06L896,255.21l1.446,89.193Z" transform="translate(-287.588 -93.829)" fill="#cbcdda"/>
    <path id="Trazado_522" data-name="Trazado 522" d="M876.736,268.793a5.265,5.265,0,0,0-6.3,3.33,47.549,47.549,0,0,1-2.458,5.734l-1.764,10.609-3.232,16.759-2.386,74.139,1.077,13.167,5.922-10.609,1.077-69.3V304A62.8,62.8,0,0,1,873.6,282.36l.824-1.945,5.148-6.667Z" transform="translate(-294.679 -97.473)" opacity="0.1"/>
    <path id="Trazado_523" data-name="Trazado 523" d="M875.466,267.513a5.263,5.263,0,0,0-6.305,3.33,47.182,47.182,0,0,1-2.465,5.734l-1.764,10.616L861.7,303.952l-2.379,74.139,1.077,13.174,5.922-10.646,1.077-69.258v-8.642a63.131,63.131,0,0,1,4.931-21.641l.832-1.945,5.148-6.66Z" transform="translate(-294.327 -97.126)" fill="#4c4c78"/>
    <path id="Trazado_524" data-name="Trazado 524" d="M900.312,241.31s-15.683,16.759-21.222,18.748c0,0,2.769,12.708,5.539,15.185,0,0,16.457-16.912,19.371-18.282l2.444-6.026Z" transform="translate(-299.802 -90.057)" opacity="0.1"/>
    <path id="Trazado_525" data-name="Trazado 525" d="M900.312,240s-15.683,16.759-21.222,18.748c0,0,2.769,12.708,5.539,15.185,0,0,16.457-16.912,19.371-18.282l2.444-6.019Z" transform="translate(-299.802 -89.702)" fill="#cbcdda"/>
    <path id="Trazado_526" data-name="Trazado 526" d="M866.2,267.37l-.159.437-5.025,13.575-8.988,25.612s-.08.262-.239.729c-1.49,4.663-9.494,29.969-11.07,37.321l-.108-1.231s8.3-34.866,8-37.649c-.289-2.507,13.362-31.762,16.167-37.744.448-.306.8-.568,1.034-.765Z" transform="translate(-289.145 -97.129)" opacity="0.1"/>
    <path id="Trazado_527" data-name="Trazado 527" d="M856.979,267.36l-5.192,14.019L842.8,306.991s-.08.262-.239.729c-1.576,4.969-10.564,33.335-11.287,38.523-.817,5.7-12.118,36.5-12.118,36.5L812.7,436.07c-5.784-4.525,2.429-48.09,2.429-48.09s9.226-64.609,11.41-86.1S840.5,274.1,840.5,274.1a29.3,29.3,0,0,0,13.355-4.554,28.2,28.2,0,0,0,3.124-2.186Z" transform="translate(-280.844 -97.126)" fill="#4c4c78"/>
    <path id="Trazado_528" data-name="Trazado 528" d="M926.786,659.475c-1.381,10.383-3.225,39.347-3.225,39.347-6.457,9.757-20.759,4.488-20.759,4.488s-1.533-2.915-3.839-13.946-3.688-49.89-3.688-49.89l-5.387-32.643c-4.917-12.555-5.994-27.426-5.994-27.426-2.169-5.734-7.382-43.383-7.382-43.383s2.169,33.773.774,51.6,7.064,41.8,7.064,41.8,4.772,22.471,2.307,29.444,6.153,35.784,6.153,35.784c-.723,8.372-25.206,4.962-25.206,4.962s-11.518-31.149-13.536-49.9a249.465,249.465,0,0,0-5.922-33.518l-2-26.034-3.543-15.389-4.223-20.293c-4.772-14.872-6.226-39.74-6.226-39.74l-3.695-24.4c-2.415-12.066.723-26.231,2.805-33.641.9-3.213,1.627-5.173,1.627-5.173,2.119,1.516,14.251,3.293,20.528,4.736a35.713,35.713,0,0,0,10.484.845,232.012,232.012,0,0,0,46.847-8.656c1.034-.313,1.583-.5,1.583-.5l.325,2.791.766,6.645,1.367,11.8s4.15,62.9,1.692,71.407,1.692,37.161,1.692,37.161c-2.307,6.8,4.917,34.428,4.917,34.428S928.174,649.092,926.786,659.475Z" transform="translate(-285.54 -146.13)" opacity="0.1"/>
    <path id="Trazado_529" data-name="Trazado 529" d="M926.786,658.239c-1.381,10.383-3.225,39.347-3.225,39.347-6.457,9.764-20.759,4.488-20.759,4.488s-1.533-2.915-3.839-13.939-3.688-49.9-3.688-49.9l-5.387-32.687c-4.881-12.555-5.994-27.463-5.994-27.463-2.169-5.734-7.382-43.383-7.382-43.383s2.169,33.773.774,51.6,7.064,41.831,7.064,41.831,4.772,22.471,2.307,29.444,6.153,35.791,6.153,35.791c-.723,8.365-25.206,4.955-25.206,4.955s-11.518-31.113-13.536-49.868a249.461,249.461,0,0,0-5.922-33.518l-2-26.027-3.543-15.338-4.223-20.293c-4.772-14.879-6.226-39.747-6.226-39.747l-3.695-24.4c-2.415-12.066.723-26.231,2.805-33.641.9-3.206,1.627-5.166,1.627-5.166,2.119,1.516,14.251,3.286,20.528,4.729a35.465,35.465,0,0,0,10.484.845,232.011,232.011,0,0,0,46.847-8.656l1.583-.488.325,2.783.766,6.653,1.367,11.8s4.15,62.9,1.692,71.407,1.692,37.161,1.692,37.161c-2.307,6.791,4.917,34.421,4.917,34.421S928.174,647.841,926.786,658.239Z" transform="translate(-285.54 -145.805)" fill="#474463"/>
    <path id="Trazado_530" data-name="Trazado 530" d="M883.669,202.972a30.053,30.053,0,0,1-3.933,14.923c-4.628.823-9.552-.087-13.015-3.17-2.372-2.106-3.9-4.984-5.943-7.425a44.8,44.8,0,0,0-4.244-4.219,13.477,13.477,0,0,0-3.348-2.456,4.517,4.517,0,0,0-4.013-.044c-1.634.918-2.169,2.966-3.116,4.6a6.11,6.11,0,0,1-3.406,2.995,3.6,3.6,0,0,1-4.071-1.392c-1.005-1.741-.268-4.459-1.952-5.523a10.709,10.709,0,0,0-1.374-.568c-2.169-.991-2.422-3.927-2.61-6.332-.094-1.18-.347-2.514-1.33-3.148s-2.278-.313-3.449-.291a4.441,4.441,0,0,1-1.034-.08A29.677,29.677,0,0,1,883.7,202.972Z" transform="translate(-285.329 -71.531)" opacity="0.1"/>
    <path id="Trazado_531" data-name="Trazado 531" d="M822.769,159.025a10.016,10.016,0,0,0-4,7.243,3.757,3.757,0,0,0,.109,1.421,9.623,9.623,0,0,0,.723,1.414c1.518,3.038-.8,6.638-.506,10.026a6.634,6.634,0,0,0,6.507,5.829c1.171,0,2.458-.35,3.449.291s1.236,1.967,1.33,3.148c.188,2.4.427,5.341,2.6,6.332a12.093,12.093,0,0,1,1.374.568c1.692,1.064.954,3.789,1.959,5.523a3.6,3.6,0,0,0,4.071,1.392,6.088,6.088,0,0,0,3.4-2.987c.933-1.639,1.49-3.643,3.124-4.6a4.5,4.5,0,0,1,4.013.036,13.5,13.5,0,0,1,3.348,2.463,43.951,43.951,0,0,1,4.244,4.219c2.039,2.434,3.572,5.312,5.943,7.418,4.469,3.957,11.309,4.372,16.818,2.091a5.1,5.1,0,0,0,2.09-1.341,5.369,5.369,0,0,0,.947-2.383,29.113,29.113,0,0,0,.477-8.343,41.694,41.694,0,0,1-.484-6.558c.152-2.346.983-4.612,1.1-6.959.2-4.153-1.844-8.1-4.338-11.381-1.5-1.96-3.2-3.774-4.5-5.873-1.135-1.822-1.959-3.825-3.174-5.589-2.849-4.117-7.65-6.558-12.552-7.41s-9.942-.328-14.851.5c-4.281.729-8.59,1.763-12.928,2.018C829.269,157.8,826.211,156.512,822.769,159.025Z" transform="translate(-283.09 -66.523)" fill="#472727"/>
    <path id="Trazado_532" data-name="Trazado 532" d="M869.208,267.36l-5.192,14.019-8.988,25.612s-.08.262-.239.729v.036L866.1,269.531A28.2,28.2,0,0,0,869.208,267.36Z" transform="translate(-293.073 -97.126)" opacity="0.1"/>
    <path id="Trazado_533" data-name="Trazado 533" d="M946.2,485.067s.535,16.963-4,21.225l-12.068-22.93,10.123-4.962Z" transform="translate(-313.938 -154.393)" fill="#ffb9b9"/>
    <path id="Trazado_534" data-name="Trazado 534" d="M960.795,428.5c-5.539,6.507-29.645,7.673-29.645,7.673l-23.861-37.889s-5.647-3.949-16.254-21.735-10.26-31.485-9.667-41.715S888.6,295.2,888.6,295.2c1.034-6.616,15.907-48.09,15.907-48.09,1.562,3.14,4.468,5.764,7.867,7.928,9.183,5.829,22,8.219,22,8.219,20.65,3.024,16.84,24.519,16.84,24.519s.231,83.554-1.041,93.551S960.795,428.5,960.795,428.5Z" transform="translate(-300.366 -91.631)" opacity="0.1"/>
    <path id="Trazado_535" data-name="Trazado 535" d="M869.01,454.6l-.694,6.2-8.38-3.1-6.146-9.378,4.613-3.643Z" transform="translate(-236.441 -120.673)" fill="#cbcdda"/>
    <path id="Trazado_536" data-name="Trazado 536" d="M919.222,455.886l-4.382.452-42.248,4.255a67.919,67.919,0,0,1-20.318-1.006l-19.595-3.949c.9-3.206,1.627-5.166,1.627-5.166,2.119,1.516,14.251,3.286,20.527,4.729a35.471,35.471,0,0,0,10.484.845,232.013,232.013,0,0,0,46.847-8.656l1.909,2.3Z" transform="translate(-286.949 -145.978)" opacity="0.1"/>
    <g id="Grupo_71" data-name="Grupo 71" transform="translate(547.35 300.938)" opacity="0.1">
      <path id="Trazado_537" data-name="Trazado 537" d="M835.368,451.853a3.818,3.818,0,0,1-.4-.233.222.222,0,0,1-.043.109Z" transform="translate(-834.92 -448.064)"/>
      <path id="Trazado_538" data-name="Trazado 538" d="M951.923,610.962s-7.231-27.63-4.917-34.421c0,0-4.15-28.636-1.685-37.161s-1.7-71.407-1.7-71.407l-1.367-11.8-.766-6.652-.318-2.783-1.591.488-.983.291.123,1.078.766,6.645,1.367,11.8s4.15,62.9,1.7,71.407,1.685,37.161,1.685,37.161c-2.307,6.8,4.917,34.421,4.917,34.421s5.061,36.884,3.695,47.26-3.232,39.347-3.232,39.347c-4.714,7.133-13.615,6.244-18.076,5.246l.08.175s14.3,5.275,20.759-4.488c0,0,1.844-28.978,3.232-39.347S951.923,610.962,951.923,610.962Z" transform="translate(-861.678 -446.74)"/>
      <path id="Trazado_539" data-name="Trazado 539" d="M901.943,690.048c2.458-6.973-2.307-29.444-2.307-29.444s-8.453-24.045-7.071-41.831c.578-7.425.542-17.611.3-26.96-1.96-12.059-3.839-25.5-3.839-25.5s2.169,33.773.781,51.588,7.064,41.839,7.064,41.839,4.772,22.464,2.307,29.437,6.139,35.755,6.139,35.755c-.615,6.7-16.413,5.829-22.682,5.246l.239.641s24.446,3.41,25.213-4.955C908.1,725.839,899.484,697.021,901.943,690.048Z" transform="translate(-848.133 -479.186)"/>
    </g>
    <path id="Trazado_540" data-name="Trazado 540" d="M962.063,428.5c-5.531,6.507-29.645,7.673-29.645,7.673l-23.861-37.889s-5.647-3.949-16.261-21.735-10.253-31.485-9.667-41.715,7.231-39.631,7.231-39.631c1.034-6.616,15.907-48.09,15.907-48.09,1.555,3.14,4.461,5.764,7.867,7.928,9.183,5.829,22,8.219,22,8.219,20.643,3.024,16.833,24.519,16.833,24.519s.231,83.554-1.041,93.551S962.063,428.5,962.063,428.5Z" transform="translate(-300.716 -91.631)" fill="#4c4c78"/>
    <path id="Trazado_541" data-name="Trazado 541" d="M910.278,267.664l-5.192,1.945,3.456,2.441L882.73,334.8c.6-10.2,7.231-39.631,7.231-39.631,1.034-6.616,15.907-48.09,15.907-48.09,1.555,3.14,4.461,5.764,7.867,7.928Z" transform="translate(-300.81 -91.623)" opacity="0.1"/>
    <path id="Trazado_542" data-name="Trazado 542" d="M851.5,392.477l26.406-6.857,3.463,10.806-26.984,6.631Z" transform="translate(-235.807 -104.647)" opacity="0.1"/>
    <path id="Trazado_543" data-name="Trazado 543" d="M944.5,280.815s-12,11.374-7.469,36.724,11.764,52.87,11.764,52.87l-19.522,54.5s13.608,14.3,20.3,16.03l19.486-43.58s9.11-15.1,6.688-38.808-11.186-62.059-11.186-62.059S964.562,273.149,944.5,280.815Z" transform="translate(-313.7 -100.358)" opacity="0.1"/>
    <path id="Trazado_544" data-name="Trazado 544" d="M945.756,280.815s-12,11.374-7.491,36.724,11.757,52.87,11.757,52.87l-19.522,54.5s13.608,14.3,20.3,16.03l19.522-43.58s9.11-15.1,6.688-38.808-11.186-62.059-11.186-62.059S965.821,273.149,945.756,280.815Z" transform="translate(-314.04 -100.358)" fill="#4c4c78"/>
    <path id="Trazado_545" data-name="Trazado 545" d="M930.281,480.705s15.22,21.233,14.071,26.887-5.611,2.63-5.611,2.63l-5.994-8.285-5.387-15.5S927.888,479.751,930.281,480.705Z" transform="translate(-313.171 -154.993)" opacity="0.1"/>
    <path id="Trazado_546" data-name="Trazado 546" d="M927.731,480.705s15.184,21.233,14.071,26.887-5.611,2.63-5.611,2.63l-6-8.285-5.38-15.5S925.338,479.751,927.731,480.705Z" transform="translate(-312.464 -154.993)" opacity="0.1"/>
    <path id="Trazado_547" data-name="Trazado 547" d="M929.011,480.705s15.184,21.233,14.063,26.887-5.611,2.63-5.611,2.63l-5.994-8.285-5.38-15.5S926.611,479.751,929.011,480.705Z" transform="translate(-312.819 -154.993)" fill="#474463"/>
  </g>
</svg>
