<svg xmlns="http://www.w3.org/2000/svg" width="854" height="314.227" viewBox="0 0 854 314.227">
  <g id="Grupo_382" data-name="Grupo 382" transform="translate(2798 -8263)">
    <text id="Desarrollo_agil_" data-name="Desarrollo agil " transform="translate(-2470 8286)" fill="#613fff" font-size="24" font-family="LucidaGrande-Bold, Lucida Grande" font-weight="700"><tspan x="0" y="0">DESARROLLO</tspan><tspan y="0" font-family="ArialHebrew-Bold, Arial Hebrew"> </tspan><tspan y="0">AGIL</tspan><tspan y="0" font-family="ArialHebrew-Bold, Arial Hebrew"> </tspan></text>
    <text id="PLANIFICACION" transform="translate(-2717 8302)" fill="#3280f3" font-size="20" font-family="LucidaGrande-Bold, Lucida Grande" font-weight="700"><tspan x="-80.215" y="0">PLANIFICACION</tspan></text>
    <g id="CodeFirst-v2---Homepage" transform="translate(-3219.538 5240.227)">
      <g id="masters-of-agile-development" transform="translate(272 2796)">
        <g id="scheme" transform="translate(135 220)">
          <g id="agile-development" transform="translate(279 60)">
            <path id="Stroke-1" d="M39.609,70.484,68,46,44.059,75.035" fill="none" stroke="#613fff" stroke-linecap="round" stroke-linejoin="round" stroke-width="2" fill-rule="evenodd"/>
            <path id="Stroke-3" d="M38.55,80.669,34.1,76.117l5.509-5.633,4.45,4.55Z" fill="none" stroke="#613fff" stroke-linecap="round" stroke-linejoin="round" stroke-width="2" fill-rule="evenodd"/>
            <path id="Stroke-4" d="M34.1,76.118a9.492,9.492,0,0,0-8.372,7.04C23.936,89.88,21,92.856,21,92.856S37.045,96.991,38.551,80.67" fill="none" stroke="#613fff" stroke-linecap="round" stroke-linejoin="round" stroke-width="2" fill-rule="evenodd"/>
            <circle id="Oval-Copy-17" cx="45" cy="45" r="45" transform="translate(0 25)" fill="none" stroke="#613fff" stroke-width="2" opacity="0.2"/>
            <path id="Stroke-1-2" data-name="Stroke-1" d="M158.621,87.345l-.96,5.928a.886.886,0,0,0,.96.784h14.754a.886.886,0,0,0,.96-.784l-.962-5.928" fill="none" stroke="#613fff" stroke-linecap="round" stroke-linejoin="round" stroke-width="2" fill-rule="evenodd"/>
            <path id="Stroke-3-2" data-name="Stroke-3" d="M185.748,48h-39.5A3.23,3.23,0,0,0,143,51.262V78.724A3.241,3.241,0,0,0,146.246,82h39.5A3.243,3.243,0,0,0,189,78.724V51.262A3.233,3.233,0,0,0,185.748,48Z" fill="none" stroke="#613fff" stroke-linecap="round" stroke-linejoin="round" stroke-width="2" fill-rule="evenodd"/>
            <path id="Stroke-5" d="M143,76h46" fill="none" stroke="#613fff" stroke-linecap="round" stroke-linejoin="round" stroke-width="2" fill-rule="evenodd"/>
            <path id="Stroke-7" d="M165.969,63.737a1.645,1.645,0,1,1,1.646-1.646A1.647,1.647,0,0,1,165.969,63.737Z" fill="none" stroke="#613fff" stroke-linecap="round" stroke-linejoin="round" stroke-width="2" fill-rule="evenodd"/>
            <path id="Stroke-9" d="M173,62.1a7.029,7.029,0,1,1-7.03-7.03A7.029,7.029,0,0,1,173,62.1Z" fill="none" stroke="#613fff" stroke-linecap="round" stroke-linejoin="round" stroke-width="2" fill-rule="evenodd"/>
            <path id="Stroke-11" d="M165,55.069V53.047" fill="none" stroke="#613fff" stroke-linecap="round" stroke-linejoin="round" stroke-width="2" fill-rule="evenodd"/>
            <path id="Stroke-13" d="M165,71.2V69.181" fill="none" stroke="#613fff" stroke-linecap="round" stroke-linejoin="round" stroke-width="2" fill-rule="evenodd"/>
            <path id="Stroke-15" d="M173.025,62h2.022" fill="none" stroke="#613fff" stroke-linecap="round" stroke-linejoin="round" stroke-width="2" fill-rule="evenodd"/>
            <path id="Stroke-17" d="M156.891,62h2.022" fill="none" stroke="#613fff" stroke-linecap="round" stroke-linejoin="round" stroke-width="2" fill-rule="evenodd"/>
            <path id="Stroke-19" d="M169.5,56.014l1.01-1.75" fill="none" stroke="#613fff" stroke-linecap="round" stroke-linejoin="round" stroke-width="2" fill-rule="evenodd"/>
            <path id="Stroke-21" d="M161.43,69.987l1.01-1.75" fill="none" stroke="#613fff" stroke-linecap="round" stroke-linejoin="round" stroke-width="2" fill-rule="evenodd"/>
            <path id="Stroke-23" d="M162.441,56.014l-1.01-1.75" fill="none" stroke="#613fff" stroke-linecap="round" stroke-linejoin="round" stroke-width="2" fill-rule="evenodd"/>
            <path id="Stroke-25" d="M170.508,69.987l-1.01-1.75" fill="none" stroke="#613fff" stroke-linecap="round" stroke-linejoin="round" stroke-width="2" fill-rule="evenodd"/>
            <path id="Stroke-27" d="M172.08,65.653l1.75,1.01" fill="none" stroke="#613fff" stroke-linecap="round" stroke-linejoin="round" stroke-width="2" fill-rule="evenodd"/>
            <path id="Stroke-29" d="M158.108,57.586l1.75,1.01" fill="none" stroke="#613fff" stroke-linecap="round" stroke-linejoin="round" stroke-width="2" fill-rule="evenodd"/>
            <path id="Stroke-31" d="M172.08,58.6l1.75-1.01" fill="none" stroke="#613fff" stroke-linecap="round" stroke-linejoin="round" stroke-width="2" fill-rule="evenodd"/>
            <path id="Stroke-33" d="M158.108,66.664l1.75-1.01" fill="none" stroke="#613fff" stroke-linecap="round" stroke-linejoin="round" stroke-width="2" fill-rule="evenodd"/>
            <circle id="Oval-Copy-14" cx="45" cy="45" r="45" transform="translate(120 25)" fill="none" stroke="#613fff" stroke-width="2" opacity="0.2"/>
            <path id="Stroke-1-3" data-name="Stroke-1" d="M172.589,205H147.606A6.553,6.553,0,0,0,141,211.353v10.468a6.576,6.576,0,0,0,6.606,6.38h1.839v6.218a1.408,1.408,0,0,0,2.39,1.162l7.767-7.38h12.988a6.408,6.408,0,0,0,6.411-6.38V211.353A6.385,6.385,0,0,0,172.589,205Z" fill="none" stroke="#613fff" stroke-linecap="round" stroke-linejoin="round" stroke-width="2" fill-rule="evenodd"/>
            <path id="Stroke-3-3" data-name="Stroke-3" d="M183.217,216A6.548,6.548,0,0,0,189,209.589v-8.133A6.668,6.668,0,0,0,182.344,195H162a6.1,6.1,0,0,0-6,5.84" fill="none" stroke="#613fff" stroke-linecap="round" stroke-linejoin="round" stroke-width="2" fill-rule="evenodd"/>
            <path id="Stroke-5-2" data-name="Stroke-5" d="M149,220h21" fill="none" stroke="#613fff" stroke-linecap="round" stroke-linejoin="round" stroke-width="2" fill-rule="evenodd"/>
            <path id="Stroke-7-2" data-name="Stroke-7" d="M149,214h21" fill="none" stroke="#613fff" stroke-linecap="round" stroke-linejoin="round" stroke-width="2" fill-rule="evenodd"/>
            <circle id="Oval-Copy-15" cx="45" cy="45" r="45" transform="translate(120 170)" fill="none" stroke="#613fff" stroke-width="2" opacity="0.2"/>
            <path id="Stroke-1-4" data-name="Stroke-1" d="M290.091,51.155h-2.408V49.82A2.866,2.866,0,0,0,284.774,47h-1.461a2.866,2.866,0,0,0-2.909,2.82v1.335H277.9c-3.836,0-3.9,5.845,0,5.845h12.192C293.975,57,293.965,51.155,290.091,51.155Z" fill="none" stroke="#613fff" stroke-linecap="round" stroke-linejoin="round" stroke-width="2" fill-rule="evenodd"/>
            <path id="Stroke-3-4" data-name="Stroke-3" d="M296.957,53H301V93H267V53h4" fill="none" stroke="#613fff" stroke-linecap="round" stroke-linejoin="round" stroke-width="2" fill-rule="evenodd"/>
            <path id="Stroke-5-3" data-name="Stroke-5" d="M277,76.36,282.023,82,293,68" fill="none" stroke="#613fff" stroke-linecap="round" stroke-linejoin="round" stroke-width="2" fill-rule="evenodd"/>
            <circle id="Oval-Copy-13" cx="45" cy="45" r="45" transform="translate(240 25)" fill="none" stroke="#613fff" stroke-width="2" opacity="0.2"/>
            <path id="Path-7-Copy-2" d="M43,120v91h70" fill="none" stroke="#dee3ea" stroke-linejoin="bevel" stroke-width="2" stroke-dasharray="9 4" fill-rule="evenodd"/>
            <path id="Path-7-Copy-3" d="M215-121v-92h75" transform="translate(505) rotate(180)" fill="none" stroke="#dee3ea" stroke-linejoin="bevel" stroke-width="2" stroke-dasharray="9 4" fill-rule="evenodd"/>
            <path id="Path-8-Copy-2" d="M101,70h12" fill="none" stroke="#613fff" stroke-linejoin="bevel" stroke-width="2" stroke-dasharray="9 4" fill-rule="evenodd"/>
            <path id="Path-8-Copy-3" d="M220,70h12" fill="none" stroke="#613fff" stroke-linejoin="bevel" stroke-width="2" stroke-dasharray="9 4" fill-rule="evenodd"/>
          </g>
          <g id="product-launch" transform="translate(733 65)">
            <g id="Grupo_380" data-name="Grupo 380">
              <path id="Stroke-1-5" data-name="Stroke-1" d="M84.806,81.447l.364-25.709c0-2.264-2-4.65-2.8-5.525a.451.451,0,0,0-.671,0c-.81.875-2.8,3.26-2.8,5.525L79.1,69.561" fill="none" stroke="#09e4a2" stroke-linecap="round" stroke-linejoin="round" stroke-width="2" fill-rule="evenodd"/>
              <path id="Stroke-3-5" data-name="Stroke-3" d="M51.063,69.663l.214-13.922c0-2.264-2-4.652-2.8-5.528a.451.451,0,0,0-.671,0c-.81.875-2.8,3.263-2.8,5.528l.361,25.706" fill="none" stroke="#09e4a2" stroke-linecap="round" stroke-linejoin="round" stroke-width="2" fill-rule="evenodd"/>
              <path id="Stroke-5-4" data-name="Stroke-5" d="M73.5,61.362l.368-12.02c0-5.721-5.583-11.754-7.849-13.965a1.358,1.358,0,0,0-1.877,0C61.881,37.588,56.3,43.62,56.3,49.342l.363,12.02" fill="none" stroke="#09e4a2" stroke-linecap="round" stroke-linejoin="round" stroke-width="2" fill-rule="evenodd"/>
              <path id="Stroke-7-3" data-name="Stroke-7" d="M60.064,62.7a10.784,10.784,0,0,1-4.4,8.564c-4.722,3.734-4.387,6.565-4.387,6.565L60.064,78.9Z" fill="none" stroke="#09e4a2" stroke-linecap="round" stroke-linejoin="round" stroke-width="2" fill-rule="evenodd"/>
              <path id="Stroke-9-2" data-name="Stroke-9" d="M68.851,62.617A15.917,15.917,0,0,0,74.5,71.26c4.722,3.734,4.387,6.565,4.387,6.565L68.851,78.936" fill="none" stroke="#09e4a2" stroke-linecap="round" stroke-linejoin="round" stroke-width="2" fill-rule="evenodd"/>
              <path id="Stroke-11-2" data-name="Stroke-11" d="M66.262,53.908c-.246-.336-1.329,0-1.844,0s-1.6-.336-1.844,0Z" fill="none" stroke="#09e4a2" stroke-linecap="round" stroke-linejoin="round" stroke-width="2" fill-rule="evenodd"/>
              <path id="Stroke-13-2" data-name="Stroke-13" d="M50.021,87.187c0,1.09-.843,6.813-1.883,6.813s-1.883-5.723-1.883-6.813a1.885,1.885,0,1,1,3.766,0Z" fill="none" stroke="#09e4a2" stroke-linecap="round" stroke-linejoin="round" stroke-width="2" fill-rule="evenodd"/>
              <path id="Stroke-15-2" data-name="Stroke-15" d="M82.66,87.187c0,1.09-.843,6.813-1.883,6.813s-1.883-5.723-1.883-6.813a1.885,1.885,0,1,1,3.766,0Z" fill="none" stroke="#09e4a2" stroke-linecap="round" stroke-linejoin="round" stroke-width="2" fill-rule="evenodd"/>
              <path id="Stroke-17-2" data-name="Stroke-17" d="M67.6,86.213C67.6,87.459,66.473,94,65.085,94s-2.511-6.541-2.511-7.787a2.525,2.525,0,0,1,5.021,0Z" fill="none" stroke="#09e4a2" stroke-linecap="round" stroke-linejoin="round" stroke-width="2" fill-rule="evenodd"/>
              <path id="Stroke-19-2" data-name="Stroke-19" d="M64.457,48.809c-2.428,0-4.394,3.467-4.394,6.714V80.888c0,.31,1.965.559,4.394.559s4.394-.249,4.394-.559V55.522C68.851,52.275,66.883,48.809,64.457,48.809Z" fill="none" stroke="#09e4a2" stroke-linecap="round" stroke-linejoin="round" stroke-width="2" fill-rule="evenodd"/>
              <circle id="Oval-Copy-12" cx="65" cy="65" r="65" fill="none" stroke="#09e4a2" stroke-width="2" opacity="0.2"/>
            </g>
            <g id="support" transform="translate(20 145)">
              <path id="Stroke-1-6" data-name="Stroke-1" d="M36.609,66.677a12.1,12.1,0,0,0,3.458,5.5v2.248C39.4,76.558,34.154,80,27.012,82.766A1.6,1.6,0,0,0,26,84.26V85.4A1.585,1.585,0,0,0,27.571,87H63.429A1.585,1.585,0,0,0,65,85.4V84.26a1.6,1.6,0,0,0-1.01-1.494C56.848,80,51.6,76.562,50.933,74.421V72.174a12.166,12.166,0,0,0,3.5-5.5V55.528c0-5.191-2.339-8.528-8.93-8.528-6.42,0-8.892,3.337-8.892,8.528Z" fill="none" stroke="#09e4a2" stroke-linecap="round" stroke-linejoin="round" stroke-width="2" fill-rule="evenodd"/>
              <path id="Stroke-3-6" data-name="Stroke-3" d="M57,66c0,5.067-3.837,5.9-10,6" fill="none" stroke="#09e4a2" stroke-linecap="round" stroke-linejoin="round" stroke-width="2" fill-rule="evenodd"/>
              <path id="Stroke-5-5" data-name="Stroke-5" d="M37,67H35.208A2.195,2.195,0,0,1,33,64.818V58.182A2.195,2.195,0,0,1,35.208,56H37" fill="none" stroke="#09e4a2" stroke-linecap="round" stroke-linejoin="round" stroke-width="2" fill-rule="evenodd"/>
              <path id="Stroke-7-4" data-name="Stroke-7" d="M54,56h1.792A2.195,2.195,0,0,1,58,58.182v6.636A2.195,2.195,0,0,1,55.792,67H54" fill="none" stroke="#09e4a2" stroke-linecap="round" stroke-linejoin="round" stroke-width="2" fill-rule="evenodd"/>
              <path id="Stroke-9-3" data-name="Stroke-9" d="M35,56V52.818a10.5,10.5,0,1,1,21,0V56" fill="none" stroke="#09e4a2" stroke-linecap="round" stroke-linejoin="round" stroke-width="2" fill-rule="evenodd"/>
              <path id="Stroke-11-3" data-name="Stroke-11" d="M47,72.5A1.5,1.5,0,1,1,45.5,71,1.5,1.5,0,0,1,47,72.5Z" fill="none" stroke="#09e4a2" stroke-linecap="round" stroke-linejoin="round" stroke-width="2" fill-rule="evenodd"/>
              <circle id="Oval-Copy-16" cx="45" cy="45" r="45" transform="translate(0 20)" fill="none" stroke="#09e4a2" stroke-width="2" opacity="0.2"/>
            </g>
          </g>
          <path id="arrow" d="M262.925,129.381a1,1,0,0,1-.218.326l-5,5a1,1,0,0,1-1.414-1.414L259.586,130H172a1,1,0,1,1,0-2h87.586l-3.293-3.293a1,1,0,1,1,1.414-1.414l5,5a1,1,0,0,1,.218,1.088Z" fill="#dee3ea" fill-rule="evenodd"/>
          <path id="arrow-2" data-name="arrow" d="M716.925,129.381a1,1,0,0,1-.218.326l-5,5a1,1,0,0,1-1.414-1.414L713.586,130H626a1,1,0,1,1,0-2h87.586l-3.293-3.293a1,1,0,0,1,1.414-1.414l5,5a1,1,0,0,1,.218.326,1,1,0,0,1,0,.762Z" fill="#dee3ea" fill-rule="evenodd"/>
          <g id="research-_-plan" data-name="research-&amp;-plan" transform="translate(26 65)">
            <circle id="Oval-Copy-11" cx="65" cy="65" r="65" fill="none" stroke="#3280f3" stroke-width="2" opacity="0.2"/>
            <path id="Stroke-1-7" data-name="Stroke-1" d="M41.682,55.627l7.892-8.071" fill="none" stroke="#3280f3" stroke-linecap="round" stroke-linejoin="round" stroke-width="2" fill-rule="evenodd"/>
            <path id="Stroke-2" d="M46.011,60.053l3.157-3.228" fill="none" stroke="#3280f3" stroke-linecap="round" stroke-linejoin="round" stroke-width="2" fill-rule="evenodd"/>
            <path id="Stroke-3-7" data-name="Stroke-3" d="M69.99,84.572l3.157-3.228" fill="none" stroke="#3280f3" stroke-linecap="round" stroke-linejoin="round" stroke-width="2" fill-rule="evenodd"/>
            <path id="Stroke-4-2" data-name="Stroke-4" d="M74.5,89.186,82.4,81.115" fill="none" stroke="#3280f3" stroke-linecap="round" stroke-linejoin="round" stroke-width="2" fill-rule="evenodd"/>
            <path id="Stroke-5-6" data-name="Stroke-5" d="M43.72,74.258c-.158.162-6.415,16.448-6.415,16.448a1.844,1.844,0,0,0,2.306,2.359s16.01-6.317,16.169-6.479" fill="none" stroke="#3280f3" stroke-linecap="round" stroke-linejoin="round" stroke-width="2" fill-rule="evenodd"/>
            <path id="Stroke-7-5" data-name="Stroke-7" d="M39.737,84.392l6.08,6.217" fill="none" stroke="#3280f3" stroke-linecap="round" stroke-linejoin="round" stroke-width="2" fill-rule="evenodd"/>
            <path id="Stroke-9-4" data-name="Stroke-9" d="M90.553,43.989l-5.609-5.735a4.255,4.255,0,0,0-6.114,0L43.67,74.205,55.831,86.638l34.722-35.5A5.133,5.133,0,0,0,90.553,43.989Z" fill="none" stroke="#3280f3" stroke-linecap="round" stroke-linejoin="round" stroke-width="2" fill-rule="evenodd"/>
            <path id="Stroke-11-4" data-name="Stroke-11" d="M62.995,48,51.456,36.2,37,50.982,48.54,62.78" fill="none" stroke="#3280f3" stroke-linecap="round" stroke-linejoin="round" stroke-width="2" fill-rule="evenodd"/>
            <path id="Stroke-13-3" data-name="Stroke-13" d="M67.033,81.69,78.945,93.87,93.4,79.09,81.488,66.908" fill="none" stroke="#3280f3" stroke-linecap="round" stroke-linejoin="round" stroke-width="2" fill-rule="evenodd"/>
            <path id="Stroke-15-3" data-name="Stroke-15" d="M50.619,81.31,79.281,52" fill="none" stroke="#3280f3" stroke-linecap="round" stroke-linejoin="round" stroke-width="2" fill-rule="evenodd"/>
          </g>
        </g>
      </g>
    </g>
    <text id="DISEÑO" transform="translate(-2495 8327)" fill="#613fff" font-size="14" font-family="LucidaGrande, Lucida Grande"><tspan x="-25.433" y="0">DISEÑO</tspan></text>
    <text id="dESARROLLO" transform="translate(-2366 8327)" fill="#613fff" font-size="14" font-family="LucidaGrande, Lucida Grande"><tspan x="-44.83" y="0">DESARROLLO</tspan></text>
    <text id="TEST" transform="translate(-2253 8327)" fill="#613fff" font-size="14" font-family="LucidaGrande, Lucida Grande"><tspan x="-16.417" y="0">TEST</tspan></text>
    <text id="feedback" transform="translate(-2366 8475)" fill="#613fff" font-size="14" font-family="LucidaGrande, Lucida Grande"><tspan x="-34.853" y="0">FEEDBACK</tspan></text>
    <text id="SOPORTE" transform="translate(-2015 8480)" fill="#04dd9b" font-size="14" font-family="LucidaGrande, Lucida Grande"><tspan x="-31.162" y="0">SOPORTE</tspan></text>
    <text id="PRODUCCION" transform="translate(-2015 8302)" fill="#09e4a2" font-size="20" font-family="LucidaGrande-Bold, Lucida Grande" font-weight="700"><tspan x="-70.039" y="0">PRODUCCION</tspan></text>
  </g>
</svg>
