<?xml version="1.0" encoding="UTF-8"?> <svg xmlns="http://www.w3.org/2000/svg" width="57" height="56" viewBox="0 0 57 56" fill="none"><path d="M20.1705 23.5882C22.1261 23.5882 23.6832 22.0228 23.6832 20.1371C23.6832 18.2159 22.0899 16.686 20.1705 16.686C18.215 16.686 16.6578 18.2515 16.6578 20.1371H17.0562H16.6578C16.6216 22.0583 18.215 23.5882 20.1705 23.5882Z" fill="#48C1EE"></path><path d="M36.793 23.5882C38.7485 23.5882 40.3057 22.0228 40.3057 20.1371C40.3057 18.2159 38.7123 16.686 36.793 16.686C34.8375 16.686 33.2803 18.2515 33.2803 20.1371H33.6786H33.2803C33.2803 22.0583 34.8375 23.5882 36.793 23.5882Z" fill="#48C1EE"></path><path d="M17.7086 33.3722L17.5275 33.1943L17.274 32.9097L14.377 35.4713L14.8115 35.9694C16.5498 37.855 18.6139 39.3849 20.9316 40.4167C23.2493 41.4484 25.7842 42.0177 28.464 42.0177C31.1438 42.0177 33.6787 41.4484 35.9964 40.4167C38.3141 39.3849 40.4144 37.855 42.1165 35.9694L42.2975 35.7915L42.551 35.5069L39.654 32.9452L39.2194 33.4433C37.8433 34.9376 36.2137 36.1473 34.3668 36.9656C32.5561 37.7839 30.5644 38.2108 28.4278 38.2108C26.3274 38.2108 24.3357 37.7839 22.4888 36.9656C20.7143 36.0405 19.0847 34.8665 17.7086 33.3722Z" fill="#48C1EE"></path><path d="M51.9298 26.5413H56.9997C56.2754 12.3456 44.7596 0.889454 30.3828 0V4.98094C41.9711 5.90597 51.2418 15.1207 51.9298 26.5413Z" fill="#48C1EE"></path><path d="M28.5362 51.0191C22.054 51.0191 16.1874 48.4219 11.9504 44.2592C7.71347 40.0966 5.06989 34.3329 5.06989 27.9644C5.06989 15.9034 14.5578 5.97713 26.6169 5.01652V0C11.7694 0.996188 0 13.1283 0 27.9644C0 43.4053 12.7834 56 28.5362 56C43.4924 56 55.7687 44.6506 56.9638 30.277H51.8939C50.6989 41.8755 40.6677 51.0191 28.5362 51.0191Z" fill="#48C1EE"></path></svg> 