<svg xmlns="http://www.w3.org/2000/svg" xmlns:xlink="http://www.w3.org/1999/xlink" width="446.77" height="253.132" viewBox="0 0 446.77 253.132">
  <defs>
    <linearGradient id="linear-gradient" x1="0.5" y1="1" x2="0.5" gradientUnits="objectBoundingBox">
      <stop offset="0" stop-color="gray" stop-opacity="0.251"/>
      <stop offset="0.54" stop-color="gray" stop-opacity="0.122"/>
      <stop offset="1" stop-color="gray" stop-opacity="0.102"/>
    </linearGradient>
    <linearGradient id="linear-gradient-2" x1="0.5" y1="1" x2="0.5" y2="-0.001" xlink:href="#linear-gradient"/>
  </defs>
  <g id="Grupo_416" data-name="Grupo 416" transform="translate(-4030 -3340)">
    <g id="undraw_contact_us_15o2" transform="translate(4030 3340)">
      <g id="Grupo_40" data-name="Grupo 40" transform="translate(173.306 17.606)" opacity="0.1">
        <ellipse id="Elipse_121" data-name="Elipse 121" cx="4.639" cy="6.558" rx="4.639" ry="6.558" transform="translate(17.484 135.382)" fill="#3f3d56"/>
        <path id="Trazado_294" data-name="Trazado 294" d="M528.327,447.558a8.42,8.42,0,0,0,.97-4.01c0-3.622-2.079-6.558-4.643-6.558S520,439.935,520,443.557a8.419,8.419,0,0,0,.97,4.01,8.764,8.764,0,0,0,0,8.015,8.764,8.764,0,0,0,0,8.015,8.391,8.391,0,0,0-.97,4.01c0,3.618,2.079,6.558,4.639,6.558s4.643-2.94,4.643-6.558a8.392,8.392,0,0,0-.97-4.01,8.764,8.764,0,0,0,0-8.015,8.764,8.764,0,0,0,0-8.015Z" transform="translate(-502.532 -333.678)" fill="#3f3d56"/>
        <ellipse id="Elipse_122" data-name="Elipse 122" cx="4.639" cy="6.558" rx="4.639" ry="6.558" transform="translate(17.484 95.306)" fill="#3f3d56"/>
        <ellipse id="Elipse_123" data-name="Elipse 123" cx="4.639" cy="6.558" rx="4.639" ry="6.558" transform="translate(17.484 87.291)" fill="#3f3d56"/>
        <path id="Trazado_295" data-name="Trazado 295" d="M481.907,241.264a23.54,23.54,0,0,1-1.728-2.747l12.188-2.161-13.183.106a25.806,25.806,0,0,1-.408-19.015l17.687,9.908-16.306-12.949c4.133-7.845,11.992-12.523,20.341-12.109s15.778,5.851,19.228,14.072a25.567,25.567,0,0,1-2.881,24.887,24.372,24.372,0,0,1,2.536,4.375l-15.829,8.9,16.872-6.114a25.547,25.547,0,0,1-3.583,22.536,25.393,25.393,0,0,1-2.387,32.464,21.036,21.036,0,0,1-30.161,0,25.393,25.393,0,0,1-2.387-32.464,25.517,25.517,0,0,1,0-29.675Z" transform="translate(-477.149 -202.271)" fill="#6c63ff"/>
        <path id="Trazado_296" data-name="Trazado 296" d="M521.6,324.12a25.123,25.123,0,0,1-4.757,14.838,25.393,25.393,0,0,1-2.387,32.464,21.036,21.036,0,0,1-30.161,0,25.393,25.393,0,0,1-2.387-32.464C478.927,334.873,521.6,321.426,521.6,324.12Z" transform="translate(-477.149 -270.29)" opacity="0.1"/>
      </g>
      <g id="Grupo_41" data-name="Grupo 41" transform="translate(233.054 39.54)" opacity="0.1">
        <ellipse id="Elipse_124" data-name="Elipse 124" cx="3.469" cy="4.899" rx="3.469" ry="4.899" transform="translate(13.065 101.084)" fill="#3f3d56"/>
        <path id="Trazado_297" data-name="Trazado 297" d="M661.972,435.216a6.283,6.283,0,0,0,.722-2.993c0-2.707-1.553-4.9-3.465-4.9s-3.469,2.2-3.469,4.9a6.236,6.236,0,0,0,.726,2.993,6.546,6.546,0,0,0,0,5.99,6.546,6.546,0,0,0,0,5.991,6.236,6.236,0,0,0-.726,2.993c0,2.707,1.553,4.9,3.469,4.9s3.465-2.2,3.465-4.9a6.283,6.283,0,0,0-.722-2.993,6.594,6.594,0,0,0,0-5.991A6.594,6.594,0,0,0,661.972,435.216Z" transform="translate(-642.699 -350.198)" fill="#3f3d56"/>
        <ellipse id="Elipse_125" data-name="Elipse 125" cx="3.469" cy="4.899" rx="3.469" ry="4.899" transform="translate(13.065 71.136)" fill="#3f3d56"/>
        <ellipse id="Elipse_126" data-name="Elipse 126" cx="3.469" cy="4.899" rx="3.469" ry="4.899" transform="translate(13.065 65.146)" fill="#3f3d56"/>
        <path id="Trazado_298" data-name="Trazado 298" d="M627.275,281.156a17.288,17.288,0,0,1-1.292-2.051l9.111-1.615-9.853.079a19.294,19.294,0,0,1-.318-14.213l13.22,7.408-12.192-9.683a16.365,16.365,0,0,1,15.184-8.957A16.664,16.664,0,0,1,655.458,262.6a19.111,19.111,0,0,1-2.078,18.548,18.417,18.417,0,0,1,1.9,3.27l-11.821,6.633,12.608-4.569a19.1,19.1,0,0,1-2.678,16.84,18.975,18.975,0,0,1-1.772,24.267,15.719,15.719,0,0,1-22.544,0,18.975,18.975,0,0,1-1.772-24.267,19.067,19.067,0,0,1,0-22.175Z" transform="translate(-623.72 -252.103)" fill="#6c63ff"/>
        <path id="Trazado_299" data-name="Trazado 299" d="M656.946,342.964a18.782,18.782,0,0,1-3.555,11.087,18.975,18.975,0,0,1-1.772,24.267,15.719,15.719,0,0,1-22.544,0,18.975,18.975,0,0,1-1.772-24.267C625.069,351,656.946,340.953,656.946,342.964Z" transform="translate(-623.732 -302.824)" opacity="0.1"/>
      </g>
      <g id="Grupo_42" data-name="Grupo 42" transform="translate(400.928 0)" opacity="0.1">
        <ellipse id="Elipse_127" data-name="Elipse 127" cx="4.639" cy="6.558" rx="4.639" ry="6.558" transform="translate(17.797 135.382)" fill="#3f3d56"/>
        <path id="Trazado_300" data-name="Trazado 300" d="M1080.16,407.558a8.42,8.42,0,0,1-.97-4.01c0-3.622,2.079-6.558,4.643-6.558s4.639,2.936,4.639,6.558a8.419,8.419,0,0,1-.97,4.01,8.764,8.764,0,0,1,0,8.015,8.764,8.764,0,0,1,0,8.015,8.392,8.392,0,0,1,.97,4.01c0,3.618-2.079,6.558-4.639,6.558s-4.643-2.94-4.643-6.558a8.392,8.392,0,0,1,.97-4.01,8.765,8.765,0,0,1,0-8.015A8.765,8.765,0,0,1,1080.16,407.558Z" transform="translate(-1061.396 -293.678)" fill="#3f3d56"/>
        <ellipse id="Elipse_128" data-name="Elipse 128" cx="4.639" cy="6.558" rx="4.639" ry="6.558" transform="translate(17.797 95.306)" fill="#3f3d56"/>
        <ellipse id="Elipse_129" data-name="Elipse 129" cx="4.639" cy="6.558" rx="4.639" ry="6.558" transform="translate(17.797 87.291)" fill="#3f3d56"/>
        <path id="Trazado_301" data-name="Trazado 301" d="M1075.342,201.264a23.549,23.549,0,0,0,1.729-2.747l-12.188-2.161,13.183.106a25.806,25.806,0,0,0,.407-19.015l-17.687,9.908,16.305-12.949c-4.133-7.845-11.991-12.523-20.341-12.109s-15.778,5.851-19.228,14.072a25.567,25.567,0,0,0,2.881,24.887,24.387,24.387,0,0,0-2.535,4.375l15.828,8.9-16.872-6.114a25.547,25.547,0,0,0,3.583,22.536,25.393,25.393,0,0,0,2.387,32.464,21.036,21.036,0,0,0,30.161,0,25.393,25.393,0,0,0,2.387-32.464,25.517,25.517,0,0,0,0-29.675Z" transform="translate(-1035.541 -162.271)" fill="#6c63ff"/>
        <path id="Trazado_302" data-name="Trazado 302" d="M1035.81,284.12a25.124,25.124,0,0,0,4.757,14.838,25.393,25.393,0,0,0,2.387,32.464,21.036,21.036,0,0,0,30.161,0,25.393,25.393,0,0,0,2.387-32.464C1078.481,294.873,1035.81,281.426,1035.81,284.12Z" transform="translate(-1035.7 -230.29)" opacity="0.1"/>
      </g>
      <g id="Grupo_43" data-name="Grupo 43" transform="translate(361.882 36.899)" opacity="0.1">
        <ellipse id="Elipse_130" data-name="Elipse 130" cx="3.469" cy="4.899" rx="3.469" ry="4.899" transform="translate(13.229 101.084)" fill="#3f3d56"/>
        <path id="Trazado_303" data-name="Trazado 303" d="M972.951,429.216a6.282,6.282,0,0,1-.722-2.993c0-2.707,1.553-4.9,3.465-4.9s3.469,2.2,3.469,4.9a6.236,6.236,0,0,1-.726,2.993,6.546,6.546,0,0,1,0,5.991,6.546,6.546,0,0,1,0,5.99,6.235,6.235,0,0,1,.726,2.993c0,2.707-1.553,4.9-3.469,4.9s-3.465-2.2-3.465-4.9a6.282,6.282,0,0,1,.722-2.993,6.594,6.594,0,0,1,0-5.99A6.594,6.594,0,0,1,972.951,429.216Z" transform="translate(-958.992 -344.198)" fill="#3f3d56"/>
        <ellipse id="Elipse_131" data-name="Elipse 131" cx="3.469" cy="4.899" rx="3.469" ry="4.899" transform="translate(13.229 71.136)" fill="#3f3d56"/>
        <ellipse id="Elipse_132" data-name="Elipse 132" cx="3.469" cy="4.899" rx="3.469" ry="4.899" transform="translate(13.229 65.146)" fill="#3f3d56"/>
        <path id="Trazado_304" data-name="Trazado 304" d="M969.434,275.156a17.289,17.289,0,0,0,1.292-2.051l-9.111-1.615,9.853.079a19.3,19.3,0,0,0,.318-14.213l-13.22,7.408,12.192-9.683a16.366,16.366,0,0,0-15.184-8.957A16.663,16.663,0,0,0,941.251,256.6a19.111,19.111,0,0,0,2.078,18.547,18.414,18.414,0,0,0-1.9,3.27l11.821,6.633-12.584-4.564a19.1,19.1,0,0,0,2.678,16.84,18.975,18.975,0,0,0,1.772,24.267,15.719,15.719,0,0,0,22.544,0,18.975,18.975,0,0,0,1.772-24.267,19.067,19.067,0,0,0,0-22.175Z" transform="translate(-939.756 -246.103)" fill="#6c63ff"/>
        <path id="Trazado_305" data-name="Trazado 305" d="M939.788,336.964a18.781,18.781,0,0,0,3.555,11.087,18.975,18.975,0,0,0,1.773,24.267,15.719,15.719,0,0,0,22.544,0,18.975,18.975,0,0,0,1.772-24.267C971.665,345,939.788,334.953,939.788,336.964Z" transform="translate(-939.77 -296.824)" opacity="0.1"/>
      </g>
      <g id="Grupo_44" data-name="Grupo 44" transform="translate(2.979 0.074)" opacity="0.1">
        <ellipse id="Elipse_133" data-name="Elipse 133" cx="4.639" cy="6.558" rx="4.639" ry="6.558" transform="translate(17.488 135.308)" fill="#3f3d56"/>
        <path id="Trazado_306" data-name="Trazado 306" d="M110.517,407.558a8.42,8.42,0,0,0,.97-4.01c0-3.622-2.079-6.558-4.639-6.558s-4.639,2.936-4.639,6.558a8.421,8.421,0,0,0,.966,4.01,8.793,8.793,0,0,0,0,8.015,8.793,8.793,0,0,0,0,8.015,8.388,8.388,0,0,0-.966,4.01c0,3.618,2.075,6.558,4.639,6.558s4.651-2.931,4.651-6.549a8.391,8.391,0,0,0-.97-4.01,8.764,8.764,0,0,0,0-8.015,8.764,8.764,0,0,0,0-8.015Z" transform="translate(-84.721 -293.751)" fill="#3f3d56"/>
        <ellipse id="Elipse_134" data-name="Elipse 134" cx="4.639" cy="6.558" rx="4.639" ry="6.558" transform="translate(17.488 95.232)" fill="#3f3d56"/>
        <ellipse id="Elipse_135" data-name="Elipse 135" cx="4.639" cy="6.558" rx="4.639" ry="6.558" transform="translate(17.488 87.217)" fill="#3f3d56"/>
        <path id="Trazado_307" data-name="Trazado 307" d="M64.075,201.358a24.1,24.1,0,0,1-1.728-2.747l12.192-2.161-13.2.128a25.806,25.806,0,0,1-.408-19.015l17.691,9.908L62.322,174.521c4.143-7.821,11.994-12.477,20.329-12.057s15.75,5.847,19.2,14.051a25.565,25.565,0,0,1-2.841,24.855,24.375,24.375,0,0,1,2.536,4.375l-15.833,8.878,16.876-6.114A25.575,25.575,0,0,1,99,231.046a25.393,25.393,0,0,1-2.387,32.464,21.036,21.036,0,0,1-30.161,0,25.393,25.393,0,0,1-2.387-32.464,25.517,25.517,0,0,1,0-29.675Z" transform="translate(-59.309 -162.439)" fill="#6c63ff"/>
        <path id="Trazado_308" data-name="Trazado 308" d="M103.758,284.12A25.123,25.123,0,0,1,99,298.958a25.393,25.393,0,0,1-2.387,32.464,21.036,21.036,0,0,1-30.161,0,25.393,25.393,0,0,1-2.387-32.464C61.087,294.873,103.758,281.426,103.758,284.12Z" transform="translate(-59.309 -230.364)" opacity="0.1"/>
      </g>
      <g id="Grupo_45" data-name="Grupo 45" transform="translate(53.352 36.899)" opacity="0.1">
        <ellipse id="Elipse_136" data-name="Elipse 136" cx="3.469" cy="4.899" rx="3.469" ry="4.899" transform="translate(13.065 101.084)" fill="#3f3d56"/>
        <path id="Trazado_309" data-name="Trazado 309" d="M221.142,429.216a6.283,6.283,0,0,0,.722-2.993c0-2.707-1.549-4.9-3.465-4.9s-3.469,2.2-3.469,4.9a6.282,6.282,0,0,0,.726,2.993,6.546,6.546,0,0,0,0,5.991,6.546,6.546,0,0,0,0,5.99,6.282,6.282,0,0,0-.726,2.993c0,2.707,1.553,4.9,3.469,4.9s3.465-2.2,3.465-4.9a6.282,6.282,0,0,0-.722-2.993,6.594,6.594,0,0,0,0-5.99,6.594,6.594,0,0,0,0-5.991Z" transform="translate(-201.865 -344.198)" fill="#3f3d56"/>
        <ellipse id="Elipse_137" data-name="Elipse 137" cx="3.469" cy="4.899" rx="3.469" ry="4.899" transform="translate(13.065 71.136)" fill="#3f3d56"/>
        <ellipse id="Elipse_138" data-name="Elipse 138" cx="3.469" cy="4.899" rx="3.469" ry="4.899" transform="translate(13.065 65.146)" fill="#3f3d56"/>
        <path id="Trazado_310" data-name="Trazado 310" d="M186.435,275.156a17.834,17.834,0,0,1-1.292-2.051l9.111-1.615-9.853.079a19.3,19.3,0,0,1-.318-14.213l13.22,7.408-12.192-9.683a16.365,16.365,0,0,1,15.184-8.957A16.663,16.663,0,0,1,214.618,256.6a19.111,19.111,0,0,1-2.078,18.548,17.928,17.928,0,0,1,1.9,3.27l-11.821,6.633,12.608-4.569a19.1,19.1,0,0,1-2.678,16.84,18.975,18.975,0,0,1-1.772,24.267,15.719,15.719,0,0,1-22.544,0,18.975,18.975,0,0,1-1.772-24.267,19.067,19.067,0,0,1,0-22.175Z" transform="translate(-182.88 -246.103)" fill="#6c63ff"/>
        <path id="Trazado_311" data-name="Trazado 311" d="M216.106,336.964a18.781,18.781,0,0,1-3.555,11.087,18.975,18.975,0,0,1-1.772,24.267,15.719,15.719,0,0,1-22.544,0,18.975,18.975,0,0,1-1.772-24.267C184.22,345,216.106,334.953,216.106,336.964Z" transform="translate(-182.892 -296.824)" opacity="0.1"/>
      </g>
      <ellipse id="Elipse_139" data-name="Elipse 139" cx="223.385" cy="3.9" rx="223.385" ry="3.9" transform="translate(0 213.311)" fill="#6c63ff" opacity="0.1"/>
      <ellipse id="Elipse_140" data-name="Elipse 140" cx="223.385" cy="3.9" rx="223.385" ry="3.9" transform="translate(0 245.332)" fill="#6c63ff" opacity="0.1"/>
      <ellipse id="Elipse_141" data-name="Elipse 141" cx="223.385" cy="3.9" rx="223.385" ry="3.9" transform="translate(0 146.483)" fill="#6c63ff" opacity="0.1"/>
      <ellipse id="Elipse_142" data-name="Elipse 142" cx="223.385" cy="3.9" rx="223.385" ry="3.9" transform="translate(0 179.895)" fill="#6c63ff" opacity="0.1"/>
      <path id="Trazado_312" data-name="Trazado 312" d="M828.311,259.362a6.953,6.953,0,0,0-4.321.511,5.95,5.95,0,0,1-5.193,0,6.8,6.8,0,0,0-6.115.128,3.547,3.547,0,0,1-1.757.475c-2.478,0-4.537-2.694-4.965-6.246a5.1,5.1,0,0,0,1.223-1.439c1.451-2.527,3.7-4.151,6.225-4.151s4.745,1.6,6.2,4.1a4.69,4.69,0,0,0,4.113,2.438h.065C825.775,255.159,827.483,256.866,828.311,259.362Z" transform="translate(-498.618 -210.624)" fill="#6c63ff" opacity="0.1"/>
      <path id="Trazado_313" data-name="Trazado 313" d="M835.844,235.563l-4,2.738,2.446-4.771a3.777,3.777,0,0,0-2.421-.929H831.8a4.293,4.293,0,0,1-.815-.066l-1.378.929.583-1.144a4.865,4.865,0,0,1-2.377-1.945l-2.446,1.664,1.533-3.011a6.94,6.94,0,0,0-5.438-2.967c-2.527,0-4.773,1.62-6.229,4.146a4.576,4.576,0,0,1-4.113,2.394h-.135c-2.788,0-5.047,3.411-5.047,7.619s2.258,7.623,5.047,7.623a3.6,3.6,0,0,0,1.757-.475,6.8,6.8,0,0,1,6.115-.132,5.913,5.913,0,0,0,5.193,0,6.816,6.816,0,0,1,6.058.128,3.568,3.568,0,0,0,1.736.467c2.788,0,5.047-3.416,5.047-7.623A10.277,10.277,0,0,0,835.844,235.563Z" transform="translate(-498.606 -197.983)" fill="#6c63ff" opacity="0.1"/>
      <path id="Trazado_314" data-name="Trazado 314" d="M420.537,258.045a4.879,4.879,0,0,0-3.029.357,4.152,4.152,0,0,1-3.632,0,4.748,4.748,0,0,0-4.276.092,2.541,2.541,0,0,1-1.223.33c-1.732,0-3.175-1.884-3.477-4.371a3.569,3.569,0,0,0,.868-1.008,4.717,4.717,0,0,1,8.695-.035,3.288,3.288,0,0,0,2.882,1.708h.045C418.76,255.109,419.954,256.306,420.537,258.045Z" transform="translate(-261.045 -211.688)" fill="#6c63ff" opacity="0.1"/>
      <path id="Trazado_315" data-name="Trazado 315" d="M425.8,241.4l-2.8,1.919,1.7-3.341a2.629,2.629,0,0,0-1.692-.651h-.049a2.835,2.835,0,0,1-.579-.048l-.95.651.408-.8a3.425,3.425,0,0,1-1.663-1.36l-1.7,1.162,1.076-2.1a4.866,4.866,0,0,0-3.807-2.082,5.18,5.18,0,0,0-4.358,2.905,3.208,3.208,0,0,1-2.882,1.677h-.094c-1.953,0-3.534,2.386-3.534,5.335s1.582,5.335,3.534,5.335a2.5,2.5,0,0,0,1.223-.335,4.755,4.755,0,0,1,4.272-.088,4.085,4.085,0,0,0,3.636.026,4.77,4.77,0,0,1,4.239.088,2.487,2.487,0,0,0,1.223.326c1.948,0,3.53-2.39,3.53-5.335a7.185,7.185,0,0,0-.734-3.279Z" transform="translate(-261.033 -202.843)" fill="#6c63ff" opacity="0.1"/>
      <path id="Trazado_316" data-name="Trazado 316" d="M321.59,336.455a4.871,4.871,0,0,1,3.025.357,4.16,4.16,0,0,0,3.636,0,4.763,4.763,0,0,1,4.276.088,2.484,2.484,0,0,0,1.223.334c1.733,0,3.176-1.888,3.473-4.375a3.5,3.5,0,0,1-.864-1.008,4.721,4.721,0,0,0-8.7-.031,3.288,3.288,0,0,1-2.878,1.708h-.045C323.363,333.536,322.165,334.729,321.59,336.455Z" transform="translate(-211.695 -255.586)" fill="#6c63ff" opacity="0.1"/>
      <path id="Trazado_317" data-name="Trazado 317" d="M307.58,319.841l2.8,1.919-1.7-3.336a2.645,2.645,0,0,1,1.7-.656h.045a3.221,3.221,0,0,0,.583-.044l.95.647-.408-.8a3.422,3.422,0,0,0,1.659-1.36l1.7,1.162-1.06-2.108a4.861,4.861,0,0,1,3.807-2.078,5.185,5.185,0,0,1,4.358,2.905,3.208,3.208,0,0,0,2.878,1.677h.1c1.948,0,3.53,2.39,3.53,5.335s-1.582,5.335-3.53,5.335a2.491,2.491,0,0,1-1.223-.33,4.748,4.748,0,0,0-4.276-.092,4.155,4.155,0,0,1-1.826.44,4.2,4.2,0,0,1-1.81-.414,4.762,4.762,0,0,0-4.235.088,2.486,2.486,0,0,1-1.223.326c-1.953,0-3.534-2.386-3.534-5.335a7.239,7.239,0,0,1,.722-3.284Z" transform="translate(-202.968 -246.763)" fill="#6c63ff" opacity="0.1"/>
      <path id="Trazado_325" data-name="Trazado 325" d="M714.777,595.568a4.907,4.907,0,0,1-4.381-2.361,5.789,5.789,0,0,1-.433-5.267,4.232,4.232,0,0,1,1.064,1.1,18.4,18.4,0,0,0,1.089,1.827,4.345,4.345,0,0,0,3.55,1.32c1.28-.057,2.446-.356,3.669-.44a5.11,5.11,0,0,1-4.557,3.821Z" transform="translate(-441.493 -400.58)" opacity="0.1"/>
      <path id="Trazado_326" data-name="Trazado 326" d="M714.713,623.571a4.908,4.908,0,0,1-5.518,2.818,5.315,5.315,0,0,1-3.956-5.019,5.665,5.665,0,0,1,.326-2.2,5.163,5.163,0,0,1,1.1,1.061c.477.625.791,1.32,1.345,1.924a5.992,5.992,0,0,0,4.154,1.576A19.546,19.546,0,0,0,714.713,623.571Z" transform="translate(-438.951 -418.064)" opacity="0.1"/>
      <path id="Trazado_332" data-name="Trazado 332" d="M125.186,472.5c-1.158.136-2.283.524-3.449.6a3.574,3.574,0,0,1-3.171-1.2,17.785,17.785,0,0,1-.929-1.761,3.7,3.7,0,0,0-1.264-1.285,5.775,5.775,0,0,0,.512,5.794,4.823,4.823,0,0,0,5.079,1.95,5.24,5.24,0,0,0,3.785-4.144C125.565,472.465,125.373,472.478,125.186,472.5Z" transform="translate(-89.807 -333.914)" opacity="0.1"/>
      <path id="Trazado_334" data-name="Trazado 334" d="M104.777,523.568a4.907,4.907,0,0,1-4.382-2.361,5.789,5.789,0,0,1-.433-5.267,4.234,4.234,0,0,1,1.064,1.1,18.4,18.4,0,0,0,1.088,1.827,4.346,4.346,0,0,0,3.551,1.32c1.28-.057,2.446-.357,3.669-.44A5.11,5.11,0,0,1,104.777,523.568Z" transform="translate(-80.151 -360.271)" opacity="0.1"/>
      <path id="Trazado_335" data-name="Trazado 335" d="M104.713,551.571A4.908,4.908,0,0,1,99.2,554.39a5.315,5.315,0,0,1-3.956-5.019,5.664,5.664,0,0,1,.326-2.2,5.162,5.162,0,0,1,1.1,1.061c.477.625.791,1.32,1.345,1.923a5.992,5.992,0,0,0,4.154,1.576A19.525,19.525,0,0,0,104.713,551.571Z" transform="translate(-77.609 -377.755)" opacity="0.1"/>
      <path id="Trazado_341" data-name="Trazado 341" d="M479.232,390.14c1.158.136,2.283.524,3.445.6a3.59,3.59,0,0,0,3.176-1.2,17.741,17.741,0,0,0,.925-1.761,3.713,3.713,0,0,1,1.268-1.285,5.775,5.775,0,0,1-.51,5.8,4.823,4.823,0,0,1-5.082,1.949,5.242,5.242,0,0,1-3.783-4.151C478.853,390.1,479.041,390.118,479.232,390.14Z" transform="translate(-304.743 -287.805)" opacity="0.1"/>
      <path id="Trazado_342" data-name="Trazado 342" d="M469.781,421.169a4.917,4.917,0,0,0,4.409-2.408,5.8,5.8,0,0,0,.364-5.321,3.893,3.893,0,0,0-1.011,1.092,18.713,18.713,0,0,1-.995,1.791,3.906,3.906,0,0,1-3.326,1.254c-1.211-.066-2.381-.44-3.587-.55-.167,0-.338-.026-.505-.031a5.133,5.133,0,0,0,4.651,4.173Z" transform="translate(-296.723 -302.887)" opacity="0.1"/>
      <path id="Trazado_344" data-name="Trazado 344" d="M500.34,469.212a4.854,4.854,0,0,0,6.5,2.454,5.583,5.583,0,0,0,2.655-6.856,4.964,4.964,0,0,0-1.1,1.061c-.477.625-.815,1.32-1.345,1.923a6,6,0,0,1-4.158,1.576A20.4,20.4,0,0,1,500.34,469.212Z" transform="translate(-317.58 -331.646)" opacity="0.1"/>
      <ellipse id="Elipse_143" data-name="Elipse 143" cx="40.747" cy="43.998" rx="40.747" ry="43.998" transform="translate(277.099 60.996)" fill="#3f3d56"/>
      <path id="Trazado_345" data-name="Trazado 345" d="M822.234,386.65a30.816,30.816,0,0,0-6.522-4.705c-1.953-1.012-2.67-.995-4.052.084-1.15.88-1.9,1.73-3.216,1.417s-3.938-2.443-6.469-5.167-4.5-5.533-4.778-6.981.493-2.236,1.317-3.477c.995-1.492,1.023-2.267.077-4.375a34.061,34.061,0,0,0-4.362-7.042c-1.431-1.541-1.741-1.2-2.523-.88a14.265,14.265,0,0,0-2.311,1.32,7.334,7.334,0,0,0-2.772,3.165c-.558,1.285-1.19,3.671,2.059,9.917A55.191,55.191,0,0,0,797.69,382.9h0a51.844,51.844,0,0,0,12.054,9.745c5.78,3.521,7.994,2.821,9.184,2.223a7.085,7.085,0,0,0,2.927-2.993,16.01,16.01,0,0,0,1.223-2.5C823.347,388.529,823.665,388.186,822.234,386.65Z" transform="translate(-486.895 -270.309)" fill="#5ae4a2"/>
      <path id="Trazado_346" data-name="Trazado 346" d="M772.464,300.86c-22.518-.012-40.78,19.693-40.784,44.008s18.259,44.031,40.777,44.023,40.758-19.715,40.75-44.03C813.2,320.566,794.964,300.872,772.464,300.86Zm0,82.142c-19.512,0-35.33-17.079-35.33-38.148s15.818-38.148,35.33-38.148,35.33,17.08,35.33,38.148S791.976,383,772.464,383Z" transform="translate(-454.617 -239.86)" opacity="0.1"/>
      <ellipse id="Elipse_144" data-name="Elipse 144" cx="40.747" cy="43.998" rx="40.747" ry="43.998" transform="translate(183.486 127.824)" fill="#3f3d56"/>
      <path id="Trazado_347" data-name="Trazado 347" d="M590.992,522.321l-12.2,13.4a.251.251,0,0,0,0,.343l8.56,9.829a1.688,1.688,0,0,1,.316,1.731,1.48,1.48,0,0,1-1.356.985,1.431,1.431,0,0,1-1.044-.467l-8.516-9.793a.22.22,0,0,0-.326,0l-2.075,2.262a8.8,8.8,0,0,1-6.522,2.962,9,9,0,0,1-6.636-3.046l-1.993-2.2a.22.22,0,0,0-.326,0l-8.5,9.771a1.4,1.4,0,0,1-2.083,0,1.675,1.675,0,0,1,0-2.249l8.528-9.807a.28.28,0,0,0,0-.343l-12.2-13.4a.212.212,0,0,0-.245-.053.243.243,0,0,0-.138.225v26.819a3.79,3.79,0,0,0,3.624,3.913h39.9a3.79,3.79,0,0,0,3.624-3.913v-26.8a.244.244,0,0,0-.14-.235A.213.213,0,0,0,590.992,522.321Z" transform="translate(-343.585 -363.791)" fill="#5ae4a2"/>
      <path id="Trazado_348" data-name="Trazado 348" d="M569.838,535.021a5.949,5.949,0,0,0,4.451-1.981l17.769-19.53a3.392,3.392,0,0,0-2.242-.88H549.892a3.369,3.369,0,0,0-2.242.88l17.773,19.53A5.928,5.928,0,0,0,569.838,535.021Z" transform="translate(-345.605 -358.418)" fill="#5ae4a2"/>
      <path id="Trazado_349" data-name="Trazado 349" d="M541.554,452.69c-22.518-.012-40.78,19.693-40.784,44.008s18.259,44.031,40.777,44.023,40.758-19.715,40.75-44.03C582.29,472.4,564.054,452.7,541.554,452.69Zm0,82.141c-19.512,0-35.33-17.079-35.33-38.148s15.818-38.148,35.33-38.148,35.33,17.079,35.33,38.148S561.066,534.831,541.554,534.831Z" transform="translate(-317.835 -324.861)" opacity="0.1"/>
      <ellipse id="Elipse_145" data-name="Elipse 145" cx="40.747" cy="43.998" rx="40.747" ry="43.998" transform="translate(86.782 94.967)" fill="#3f3d56"/>
      <path id="Trazado_350" data-name="Trazado 350" d="M341.244,430.16,325,470.628l1.516,1.637,14.732-7.016,14.732,7.016,1.516-1.637Z" transform="translate(-213.715 -312.248)" fill="#5ae4a2"/>
      <path id="Trazado_351" data-name="Trazado 351" d="M305.584,378c-22.516-.012-40.777,19.689-40.784,44s18.241,44.026,40.757,44.03,40.774-19.711,40.77-44.023c0-24.29-18.234-43.992-40.737-44.008Zm0,82.141c-19.515,0-35.334-17.084-35.33-38.155s15.822-38.145,35.337-38.141,35.334,17.1,35.323,38.17-15.815,38.141-35.326,38.144Z" transform="translate(-178.055 -283.046)" opacity="0.1"/>
      <path id="Trazado_352" data-name="Trazado 352" d="M812.654,579.571q-.555-1.461-1.137-2.914a8.839,8.839,0,0,0-1.39-2.592,2.572,2.572,0,0,0-.815-.66,3.252,3.252,0,0,0-1.064-.229,7.87,7.87,0,0,0-1.671-.048c-.216-.07-.461-.163-.7-.269a6.2,6.2,0,0,0,4.337-5.832v-.268a6.059,6.059,0,0,0-5.784-6.3,5.4,5.4,0,0,0-3.037.938,5.34,5.34,0,0,0-6.115,3.182,7.577,7.577,0,0,0-2.079,5.414v.277c.106,3.42,2.152,6.162,4.737,6.439a2.713,2.713,0,0,0-.75.541,5.276,5.276,0,0,0-1.007,3.319l-.061.88-1.37.528a.269.269,0,0,0-.165.22.283.283,0,0,0,.1.26l1.309,1.008v.251a1.187,1.187,0,0,0,.024.286,2.029,2.029,0,0,0-.505.779,3.877,3.877,0,0,0-.118,1.426l.049,1.228a10.36,10.36,0,0,0,.346,2.733c.171.546.913,1.862,1.447,1.871a61.379,61.379,0,0,0-.624,7.527c-.061.066.11.128.408.18.294,2.43,1.251,9.243,2.951,12.241a27.569,27.569,0,0,1,.64,2.975s.485,6.475,1.125,8.4a45.87,45.87,0,0,1,1.1,6.849.652.652,0,0,0-.452.5c-.322,1.048-2.409,2.641-2.409,2.641a10.027,10.027,0,0,0-1.8,1.246c-.656.638-.632,1.215,2.283.854,5.625-.7,6.587-2.641,6.587-2.641s-.09-.326-.224-.748a8.486,8.486,0,0,0-.738-1.879c-.082-.084-.163.057-.261.277a40.652,40.652,0,0,1-.383-8.5,14.828,14.828,0,0,0-.644-5.075,10.362,10.362,0,0,1,0-3.323c.322-1.4-1.284-8.227-1.284-8.227l-.921-5.026a1.5,1.5,0,0,1,.257.585l.024.1.024.145a.282.282,0,0,0,.065.136c.628,2.817,2.348,10.621,2.348,11.765,0,1.4,1.606,4.9,1.606,4.9s.64,5.775,1.765,8.046a12.506,12.506,0,0,1,.836,5.383h0A5.285,5.285,0,0,1,809,633.16a4.346,4.346,0,0,0-.607,1.14l-.037.084s-.481,1.052-.159,1.228a7.359,7.359,0,0,0,3.856.524,3.91,3.91,0,0,0,.644-1.224,5.926,5.926,0,0,0-.073-.625c-.118-.827-.338-2.13-.342-2.143a6.418,6.418,0,0,0-.408-2.13l-.163-4.9a24.3,24.3,0,0,0-1.125-9.8,17.441,17.441,0,0,1-.64-4.023c.175-.876-.322-10.15-.322-10.15l-.049-.132a10.811,10.811,0,0,1,.049-1.968,28.133,28.133,0,0,0-.644-6.646,6.19,6.19,0,0,1-.228-1.448c.037-.365.147-1.435.3-2.764a42.712,42.712,0,0,0,4.737-.44.569.569,0,0,0,.408-.176.653.653,0,0,0,.094-.357A18.2,18.2,0,0,0,812.654,579.571Zm-3.233,5.55c.167-1.254.346-2.469.526-3.372l.024.079a25.961,25.961,0,0,1,.775,2.773A8.326,8.326,0,0,1,809.422,585.122Z" transform="translate(-491.057 -385.196)" fill="url(#linear-gradient)"/>
      <path id="Trazado_353" data-name="Trazado 353" d="M802.37,648.243s.962,9.344,3.045,12.976a26.889,26.889,0,0,1,.64,2.94s.481,6.4,1.121,8.3a49.158,49.158,0,0,1,1.121,7.1s2.242,2.764,3.045.519a39.311,39.311,0,0,1-.481-9,14.567,14.567,0,0,0-.64-5.018,10.12,10.12,0,0,1,0-3.284c.318-1.387-1.284-8.13-1.284-8.13l-1.28-6.748Z" transform="translate(-496.492 -434.149)" fill="#be6f72"/>
      <path id="Trazado_354" data-name="Trazado 354" d="M813.773,721.594s-.962,1.9-6.567,2.593c-2.911.357-2.931-.211-2.275-.845a10.079,10.079,0,0,1,1.794-1.232s2.083-1.554,2.4-2.592,1.443-.172,1.443-.172c1.6,2.592,1.924-.7,2.242-.348a8.144,8.144,0,0,1,.738,1.853C813.684,721.268,813.773,721.594,813.773,721.594Z" transform="translate(-497.802 -473.937)" fill="#ff6f61"/>
      <path id="Trazado_355" data-name="Trazado 355" d="M813.773,723.984s-.962,1.9-6.567,2.592c-2.911.357-2.931-.211-2.275-.845.457.313,1.378.44,3.233-.365,2.67-1.18,4.606-1.862,5.385-2.126C813.684,723.658,813.773,723.984,813.773,723.984Z" transform="translate(-497.802 -476.327)" opacity="0.1"/>
      <path id="Trazado_356" data-name="Trazado 356" d="M816.933,671.078a14.57,14.57,0,0,0-.64-5.018,10.119,10.119,0,0,1,0-3.284c.318-1.387-1.284-8.13-1.284-8.13l-1.28-6.748-1.109.07,1.268,6.677s1.6,6.743,1.284,8.13a10.118,10.118,0,0,0,0,3.284,14.142,14.142,0,0,1,.64,5.018,39.314,39.314,0,0,0,.481,9,1.519,1.519,0,0,1-.465.713c.6.29,1.223.277,1.586-.713A39.314,39.314,0,0,1,816.933,671.078Z" transform="translate(-502.563 -434.149)" opacity="0.1"/>
      <path id="Trazado_357" data-name="Trazado 357" d="M804.342,562.42a5.4,5.4,0,0,0-3.025.929A5.328,5.328,0,0,0,795.2,566.5a7.458,7.458,0,0,0-2.075,5.352c0,3.68,2.295,6.66,5.124,6.66,2.038,0,3.824-1.567,4.643-3.834a5.238,5.238,0,0,0,1.443.2,6.247,6.247,0,0,0,0-12.456Z" transform="translate(-491.016 -386.293)" fill="#3f3d56"/>
      <path id="Trazado_358" data-name="Trazado 358" d="M822.893,650.65l.481,1.382s.481,9.168.318,10.035a17.523,17.523,0,0,0,.644,3.961,23.792,23.792,0,0,1,1.121,9.683l.159,4.842s.64,1.9.322,2.249-2.735-.308-2.735-.308.322-3.631-.815-5.88-1.761-7.958-1.761-7.958-1.6-3.46-1.6-4.842-2.564-12.628-2.564-12.628Z" transform="translate(-504.838 -435.688)" fill="#be6f72"/>
      <path id="Trazado_359" data-name="Trazado 359" d="M801.562,636.409s.163-6.228.815-8.13a13.714,13.714,0,0,0,.713-2.76s9.7,1.893,10.5,1.2a16.157,16.157,0,0,0,.322,2.593,26.766,26.766,0,0,1,.64,6.576c-.175,2.078,0,2.073,0,2.073s-6.571,1.039-6.73,0-.64-1.034-.64-1.034S801.244,636.735,801.562,636.409Z" transform="translate(-496.006 -421.619)" fill="#3f3d56"/>
      <g id="Grupo_46" data-name="Grupo 46" transform="translate(305.556 205.102)" opacity="0.1">
        <path id="Trazado_360" data-name="Trazado 360" d="M806.867,649.807s-4.052-.119-5.275-.357v.357c-.318.343,5.609.519,5.609.519a.392.392,0,0,1,.22.1C807.205,649.807,806.867,649.807,806.867,649.807Z" transform="translate(-801.58 -640.119)"/>
        <path id="Trazado_361" data-name="Trazado 361" d="M822.929,630.843a16.149,16.149,0,0,1-.322-2.593.658.658,0,0,1-.273.106,9.393,9.393,0,0,0,.273,1.968,29.565,29.565,0,0,1,.64,6.576c-.175,2.078,0,2.073,0,2.073s-5.2.823-6.457.273a2.237,2.237,0,0,0,.049.247c.159,1.039,6.73,0,6.73,0s-.163,0,0-2.073A27.677,27.677,0,0,0,822.929,630.843Z" transform="translate(-810.59 -628.25)"/>
        <path id="Trazado_362" data-name="Trazado 362" d="M806.867,649.807s-4.052-.119-5.275-.357v.357c-.318.343,5.609.519,5.609.519a.392.392,0,0,1,.22.1C807.205,649.807,806.867,649.807,806.867,649.807Z" transform="translate(-801.58 -640.119)"/>
        <path id="Trazado_363" data-name="Trazado 363" d="M822.929,630.843a16.149,16.149,0,0,1-.322-2.593.658.658,0,0,1-.273.106,9.393,9.393,0,0,0,.273,1.968,29.565,29.565,0,0,1,.64,6.576c-.175,2.078,0,2.073,0,2.073s-5.2.823-6.457.273a2.237,2.237,0,0,0,.049.247c.159,1.039,6.73,0,6.73,0s-.163,0,0-2.073A27.677,27.677,0,0,0,822.929,630.843Z" transform="translate(-810.59 -628.25)"/>
      </g>
      <path id="Trazado_364" data-name="Trazado 364" d="M813.889,584.918a2.279,2.279,0,0,0,.611.854,1.32,1.32,0,0,0,.575.268c-.359.224-.75.392-1.109.616a19.937,19.937,0,0,0-1.63,1.32,3.182,3.182,0,0,1-1.871.783,2.639,2.639,0,0,0,.261-2.461,2.419,2.419,0,0,1-.285-.854,1.529,1.529,0,0,1,.787-1.144c.306-.224.62-.44.938-.656.249-.167.624-.519.938-.506s.351.313.408.621A5.143,5.143,0,0,0,813.889,584.918Z" transform="translate(-501.272 -397.893)" fill="#be6f72"/>
      <path id="Trazado_365" data-name="Trazado 365" d="M813.889,584.918a2.279,2.279,0,0,0,.611.854,1.32,1.32,0,0,0,.575.268c-.359.224-.75.392-1.109.616a19.937,19.937,0,0,0-1.63,1.32,3.182,3.182,0,0,1-1.871.783,2.639,2.639,0,0,0,.261-2.461,2.419,2.419,0,0,1-.285-.854,1.529,1.529,0,0,1,.787-1.144c.306-.224.62-.44.938-.656.249-.167.624-.519.938-.506s.351.313.408.621A5.143,5.143,0,0,0,813.889,584.918Z" transform="translate(-501.272 -397.893)" opacity="0.1"/>
      <ellipse id="Elipse_146" data-name="Elipse 146" cx="3.685" cy="3.979" rx="3.685" ry="3.979" transform="translate(312.686 189.274)" fill="#be6f72"/>
      <path id="Trazado_366" data-name="Trazado 366" d="M834.2,724.406a3.768,3.768,0,0,1-.64,1.21,7.394,7.394,0,0,1-3.844-.519c-.322-.172.159-1.21.159-1.21l.037-.084a4.292,4.292,0,0,1,.607-1.127,5.216,5.216,0,0,0,.51-1.761c.995-1.761,2.76.761,2.76.761s.224,1.32.342,2.122C834.174,724.085,834.2,724.318,834.2,724.406Z" transform="translate(-512.626 -474.677)" fill="#ff6f61"/>
      <path id="Trazado_367" data-name="Trazado 367" d="M834.2,728.856a3.768,3.768,0,0,1-.64,1.21,7.394,7.394,0,0,1-3.844-.519c-.322-.172.159-1.21.159-1.21l.037-.084a7.258,7.258,0,0,0,3.489.775l.73-.788C834.174,728.535,834.2,728.768,834.2,728.856Z" transform="translate(-512.626 -479.127)" opacity="0.1"/>
      <ellipse id="Elipse_147" data-name="Elipse 147" cx="3.604" cy="3.891" rx="3.604" ry="3.891" transform="translate(305.397 181.057)" fill="#be6f72"/>
      <path id="Trazado_368" data-name="Trazado 368" d="M801.2,598.816a5.143,5.143,0,0,0-1,3.279l-.122,1.721a9.374,9.374,0,0,0-.028,1.4c0,.286.065.577.09.88s.033.687.037,1.034v2.544a3.213,3.213,0,0,0,.261,1.527.931.931,0,0,0,1.223.475,1.521,1.521,0,0,0,.505-.845,13.964,13.964,0,0,0,.815-3.222c.033-.383.037-.766.069-1.149s.094-.783.147-1.171c.228-1.62.33-3.257.432-4.89.029-.484.432-2.39-.155-2.6-.285-.1-.876.216-1.15.321A3.188,3.188,0,0,0,801.2,598.816Z" transform="translate(-495.109 -406.087)" fill="#be6f72"/>
      <path id="Trazado_369" data-name="Trazado 369" d="M801.2,598.816a5.143,5.143,0,0,0-1,3.279l-.122,1.721a9.374,9.374,0,0,0-.028,1.4c0,.286.065.577.09.88s.033.687.037,1.034v2.544a3.213,3.213,0,0,0,.261,1.527.931.931,0,0,0,1.223.475,1.521,1.521,0,0,0,.505-.845,13.964,13.964,0,0,0,.815-3.222c.033-.383.037-.766.069-1.149s.094-.783.147-1.171c.228-1.62.33-3.257.432-4.89.029-.484.432-2.39-.155-2.6-.285-.1-.876.216-1.15.321A3.188,3.188,0,0,0,801.2,598.816Z" transform="translate(-495.109 -406.087)" opacity="0.1"/>
      <path id="Trazado_370" data-name="Trazado 370" d="M811.3,588.16a19.543,19.543,0,0,1-4.325,2.769s-.95,1.171-1.113,1.452-.489,3.389-.815,4.085a3.522,3.522,0,0,0,0,3.8,7.1,7.1,0,0,1,.159,2.078c-.159.519-.742,2.421-.212,2.509s2.136,1.294,3.575.951,6.812,1.32,6.812,1.32.889-8.913,1.533-10.489l-1.443-.519s-4-2.593-1.6-6.572C813.866,589.546,811.616,589.027,811.3,588.16Z" transform="translate(-497.735 -400.703)" fill="#6158e5"/>
      <path id="Trazado_371" data-name="Trazado 371" d="M796.691,610.4l3.31,2.531a.23.23,0,0,0,.289,0l.9-.726a.287.287,0,0,0,0-.414l-2.548-2.443a.231.231,0,0,0-.249-.053l-1.635.634a.264.264,0,0,0-.165.214A.279.279,0,0,0,796.691,610.4Z" transform="translate(-493.067 -412.529)" fill="#3f3d56"/>
      <path id="Trazado_372" data-name="Trazado 372" d="M798.966,620.487a10.3,10.3,0,0,1-.346-2.7l-.049-1.219a3.791,3.791,0,0,1,.118-1.409,2.192,2.192,0,0,1,1.374-1.3,4.406,4.406,0,0,1,1.871-.145.454.454,0,0,1,.241.07.493.493,0,0,1,.13.238,1.709,1.709,0,0,1,.073,1.272,1.279,1.279,0,0,1-.375.418c-.444.343-.962.572-1.382.946a.537.537,0,0,0-.188.255.64.64,0,0,0,0,.277,4.713,4.713,0,0,0,.212.709.707.707,0,0,0,.184.3c.077.07.179.1.261.163.175.154.542.357.522.6a20.925,20.925,0,0,1-.742,2.738C800.5,623.405,799.2,621.231,798.966,620.487Z" transform="translate(-494.229 -414.988)" fill="#be6f72"/>
      <g id="Grupo_47" data-name="Grupo 47" transform="translate(309.796 195.674)" opacity="0.1">
        <path id="Trazado_373" data-name="Trazado 373" d="M812.07,628.2h-.09a2.545,2.545,0,0,0,1.048,0h.1A3.4,3.4,0,0,0,812.07,628.2Z" transform="translate(-811.98 -618.769)"/>
        <path id="Trazado_374" data-name="Trazado 374" d="M830.544,606.83c-.575,1.4-1.423,8.953-1.573,10.454.563.159.933.273.933.273s.88-8.891,1.525-10.467Z" transform="translate(-822.044 -606.83)"/>
      </g>
      <path id="Trazado_375" data-name="Trazado 375" d="M818.639,595.575a1.33,1.33,0,0,0,.526.858,7.382,7.382,0,0,1,.933,1.021,7.474,7.474,0,0,1,.925,2,26.029,26.029,0,0,1,.77,2.738c-2.038,1.021-4.354.973-6.522,1.646a5.143,5.143,0,0,0-2.446,1.563,3.823,3.823,0,0,0-.9,2.865.394.394,0,0,0,.049.172.33.33,0,0,0,.285.123,2.332,2.332,0,0,0,1.5-.555,7.413,7.413,0,0,0,1.145-1.215,1.861,1.861,0,0,1,.815-.651,12.4,12.4,0,0,1,3.669-.387,42.9,42.9,0,0,0,5.466-.467.421.421,0,0,0,.363-.136.5.5,0,0,0,.126-.392c.179-2.6-.713-5.132-1.631-7.54q-.55-1.448-1.133-2.883a8.719,8.719,0,0,0-1.386-2.562,2.466,2.466,0,0,0-.815-.651,3.225,3.225,0,0,0-1.092-.22,7.183,7.183,0,0,0-1.79-.035,4.409,4.409,0,0,0-.171,1,9.154,9.154,0,0,0,.986,3.376C818.369,595.407,818.545,595.416,818.639,595.575Z" transform="translate(-502.141 -402.198)" fill="#be6f72"/>
      <path id="Trazado_376" data-name="Trazado 376" d="M811.817,606.67a3.426,3.426,0,0,0-.408,1.681,2.428,2.428,0,0,0,.1.687,2.137,2.137,0,0,0,1.3,1.32" transform="translate(-501.846 -411.066)" fill="none" stroke="#000" stroke-miterlimit="10" stroke-width="1" opacity="0.1"/>
      <path id="Trazado_377" data-name="Trazado 377" d="M806.778,572.057a1.744,1.744,0,0,0-.591.1,3.789,3.789,0,0,0-3.261-1.488c-1.949,0-3.526,1.087-3.526,2.425s1.578,2.421,3.526,2.421a4.651,4.651,0,0,0,2.116-.484,1.872,1.872,0,0,0,2.3,1.078,2.087,2.087,0,0,0,1.331-2.291,1.973,1.973,0,0,0-1.9-1.763Z" transform="translate(-494.732 -390.912)" fill="#3f3d56"/>
      <path id="Trazado_378" data-name="Trazado 378" d="M806.925,577.8a1.91,1.91,0,0,1-1.728-1.176,4.652,4.652,0,0,1-2.115.485c-1.944,0-3.522-1.083-3.522-2.421a1.579,1.579,0,0,1,0-.242,1.746,1.746,0,0,0-.179.761c0,1.32,1.578,2.421,3.526,2.421a4.653,4.653,0,0,0,2.116-.484A1.893,1.893,0,0,0,807,578.3a1.991,1.991,0,0,0,1.635-1.67A1.907,1.907,0,0,1,806.925,577.8Z" transform="translate(-494.72 -393.028)" opacity="0.1"/>
      <path id="Trazado_379" data-name="Trazado 379" d="M795.183,567.517a5.328,5.328,0,0,1,6.115-3.147,5.4,5.4,0,0,1,5.625-.261,6.251,6.251,0,0,1,3.147,5.041v-.519a6.319,6.319,0,0,0-2.962-5.425,5.4,5.4,0,0,0-5.831.143,5.328,5.328,0,0,0-6.115,3.147,7.458,7.458,0,0,0-2.075,5.352v.519A7.289,7.289,0,0,1,795.183,567.517Z" transform="translate(-490.992 -386.293)" opacity="0.1"/>
      <path id="Trazado_385" data-name="Trazado 385" d="M907.264,468.58c-1.158.141-2.287.528-3.449.607a3.582,3.582,0,0,1-3.175-1.2,17.217,17.217,0,0,1-.925-1.761,3.739,3.739,0,0,0-1.264-1.285,5.775,5.775,0,0,0,.51,5.8,4.823,4.823,0,0,0,5.083,1.949,5.241,5.241,0,0,0,3.783-4.151C907.639,468.545,907.451,468.558,907.264,468.58Z" transform="translate(-553.08 -331.719)" opacity="0.1"/>
      <path id="Trazado_386" data-name="Trazado 386" d="M916.737,499.639a4.916,4.916,0,0,1-4.409-2.408,5.8,5.8,0,0,1-.365-5.321A3.874,3.874,0,0,1,912.974,493a17.7,17.7,0,0,0,.995,1.791,3.909,3.909,0,0,0,3.326,1.259c1.211-.062,2.381-.44,3.587-.55.167,0,.338-.031.505-.035a5.137,5.137,0,0,1-4.651,4.177Z" transform="translate(-561.126 -346.818)" opacity="0.1"/>
      <path id="Trazado_388" data-name="Trazado 388" d="M886.834,547.662a4.853,4.853,0,0,1-6.473,2.4,5.585,5.585,0,0,1-2.679-6.8,5.065,5.065,0,0,1,1.1,1.061c.481.629.795,1.32,1.345,1.928a6.022,6.022,0,0,0,4.158,1.576A20.387,20.387,0,0,0,886.834,547.662Z" transform="translate(-540.926 -375.566)" opacity="0.1"/>
      <path id="Trazado_395" data-name="Trazado 395" d="M1075.737,651.639a4.917,4.917,0,0,1-4.409-2.408,5.8,5.8,0,0,1-.364-5.321,3.872,3.872,0,0,1,1.011,1.087,17.714,17.714,0,0,0,.995,1.791,3.909,3.909,0,0,0,3.326,1.259c1.211-.062,2.381-.44,3.587-.55.167,0,.338-.031.505-.035A5.137,5.137,0,0,1,1075.737,651.639Z" transform="translate(-655.312 -431.915)" opacity="0.1"/>
      <path id="Trazado_398" data-name="Trazado 398" d="M450.579,572.189a4.446,4.446,0,0,0-1.594-3.486,234.13,234.13,0,0,0-7.036-8.728h0a3.736,3.736,0,0,0-.579-.145h-.689a4.728,4.728,0,0,0-4.435,4.234c-1.431-.357-2.739.106-2.98,1.083a1.42,1.42,0,0,0,.041.783,3.228,3.228,0,0,0,2.1,1.84l.139.044.208.057h.045a4.153,4.153,0,0,0-.342,1.668,3.9,3.9,0,0,0,1.92,3.433l-.094.062a1.375,1.375,0,0,0-.31.467,7.3,7.3,0,0,0-.6,1.558c-.1.467-.118.951-.245,1.413a13.52,13.52,0,0,0-.909,2.452c-.033.4.029.88-.232,1.136a1.274,1.274,0,0,1-.208.159,1.767,1.767,0,0,0-.452.515,1.717,1.717,0,0,1-.318.493c-.236.189-.624.172-.738.467s.183.643.114.964-.322.383-.505.563a2.012,2.012,0,0,0-.436.88,2.531,2.531,0,0,1-2.2-.607,4.726,4.726,0,0,1,.228.88,3.475,3.475,0,0,0-1.186-.643,3.782,3.782,0,0,1-1.264-1.012l.677-.1-2.988-4.925-.885-.2.791,1.642a.516.516,0,0,0-.269.348,1.607,1.607,0,0,0-.029.559,10.74,10.74,0,0,0,.2,1.321l.228,1.153c.02.106.045.216.073.321a2.612,2.612,0,0,0-.885.106,7.226,7.226,0,0,0-1.838-.471.945.945,0,0,0-.408,0,1.076,1.076,0,0,0-.387.339,13.588,13.588,0,0,0-1.366,2.078,72.443,72.443,0,0,1-5.764,8.385c-1.386.607-2.784,1.184-4.182,1.761l-3.008,1.241a4.28,4.28,0,0,1-1.867.44c-.285,0-.64-.066-.815.2a1.929,1.929,0,0,0-.183.44l-.31.035h0a3.949,3.949,0,0,0-.722-1.435.464.464,0,0,0-.338.282c-.073.145-.118.3-.2.44-.159.255-.44.378-.64.594s-.326.55-.546.77a2.074,2.074,0,0,1-1.023.44,6.171,6.171,0,0,0-1.6.656,2.5,2.5,0,0,1-.591.295,2.06,2.06,0,0,1-.7.026l-1.59-.128a1.163,1.163,0,0,0-.428.022.888.888,0,0,0-.505.88,1.414,1.414,0,0,0,.505.946,3.158,3.158,0,0,0,.9.506,25.1,25.1,0,0,0,4.239,1.356v.348a6.8,6.8,0,0,0,3.261.836.473.473,0,0,0,.245-.048.588.588,0,0,0,.2-.343,15.151,15.151,0,0,0,.636-3.372h0a1.534,1.534,0,0,0,.575-.158c.546-.163,1.092.242,1.659.308a4.285,4.285,0,0,0,2-.625l.285-.1a3.25,3.25,0,0,1-.66.682c-.273.211-.579.37-.844.59a5.887,5.887,0,0,1-.717.6,4.307,4.307,0,0,1-.55.229,3.544,3.544,0,0,0-.787.44,1.659,1.659,0,0,0-.534.563.9.9,0,0,0-.045.792.778.778,0,0,0,.526.4,2,2,0,0,0,.648,0c.864-.07,1.724-.154,2.584-.238a6.413,6.413,0,0,0,1.08-.167c.187-.048.375-.114.563-.172a4.677,4.677,0,0,1,.982-.159.759.759,0,0,1,.285.031c.2.07.342.291.546.334a.759.759,0,0,0,.408-.057,8.45,8.45,0,0,1,1.912-.22.767.767,0,0,0,.742-.357c.13-.282-.106-.735-.212-1.109a3.647,3.647,0,0,1-.09-.731,4.848,4.848,0,0,0-.473-1.734,4.693,4.693,0,0,1-.355-.792,18.054,18.054,0,0,0,3.518-1.928,6.106,6.106,0,0,1,2.006-1.043,5.079,5.079,0,0,1,2.519.317,54.538,54.538,0,0,1,5.776,2.174A28.921,28.921,0,0,0,432,599.453a4.422,4.422,0,0,0,.97,1.017,4.233,4.233,0,0,0,2.1.621,25.5,25.5,0,0,0,2.955.119,4.663,4.663,0,0,0,2.2-.44,2.255,2.255,0,0,0,.461-.33,1.752,1.752,0,0,0,1.451-.577,3.848,3.848,0,0,0,1.1-1.884c.241-1,.057-2.2.628-3,.151-.22.351-.4.5-.616a1.839,1.839,0,0,0,.261-1.017.206.206,0,0,1,.024-.04,3.971,3.971,0,0,0,.245-1.012,6.1,6.1,0,0,1,.265-.8q.435-1.165.758-2.372a14.791,14.791,0,0,0,.351-1.629c.061-.44.1-.88.13-1.32a8.783,8.783,0,0,1,.371-2.038,17.762,17.762,0,0,0,.856-4.877v-.1a3.2,3.2,0,0,0,2.682-3.328,3.71,3.71,0,0,0-.281-1.422,4.675,4.675,0,0,0,.546-2.218Zm-14.585,19.133c.045.172.1.339.151.506-.241-.251-.473-.511-.713-.766.094.035.192.066.281.106a1.486,1.486,0,0,1,.269.154Zm-1.154-.845c-1.41-1.321-3.041-2.346-4.484-3.627.787.418,1.553.907,2.311,1.373q1.349.832,2.735,1.6a2.35,2.35,0,0,1-.575.656Zm.6-3.328.069-.075v.524l-.379-.141a3.511,3.511,0,0,0,.3-.308Zm-12.4,3.565a12.659,12.659,0,0,0,1.5-2.311,15.223,15.223,0,0,0,2.238,2.7C425.529,590.931,424.282,590.786,423.035,590.716Z" transform="translate(-255.728 -384.843)" fill="url(#linear-gradient-2)"/>
      <path id="Trazado_399" data-name="Trazado 399" d="M415.35,438.25l.889.194,3.029,4.837-1.333.194Z" transform="translate(-246.038 -245.195)" fill="#2f2e41"/>
      <path id="Trazado_400" data-name="Trazado 400" d="M414.49,645.4a19.772,19.772,0,0,0,.889,2.5,20.776,20.776,0,0,0,2.955-.911,10.028,10.028,0,0,0-.616-.88,3.078,3.078,0,0,0-.836-.691,2.134,2.134,0,0,0-1.015,0C415.411,645.4,414.951,645.408,414.49,645.4Z" transform="translate(-266.726 -432.722)" fill="#fbbebe"/>
      <path id="Trazado_401" data-name="Trazado 401" d="M405.821,644.925a1.949,1.949,0,0,1-1.011-1.241,4.094,4.094,0,0,0-.77-1.483.446.446,0,0,0-.342.277c-.073.141-.118.3-.2.44-.163.251-.448.374-.652.585s-.326.541-.546.757a2.079,2.079,0,0,1-1.031.44,6.384,6.384,0,0,0-1.631.647,2.716,2.716,0,0,1-.6.291,2.2,2.2,0,0,1-.7,0l-1.606-.123a1.166,1.166,0,0,0-.408,0,.847.847,0,0,0-.51.88,1.343,1.343,0,0,0,.51.933,3.3,3.3,0,0,0,.913.5,25.344,25.344,0,0,0,4.3,1.321v.343a7,7,0,0,0,3.282.823.517.517,0,0,0,.245-.044.587.587,0,0,0,.2-.343,14.7,14.7,0,0,0,.673-3.768,3.234,3.234,0,0,0-.069-.973c-.09-.312.212-.18-.065-.3" transform="translate(-255.66 -430.958)" fill="#2f2e41"/>
      <path id="Trazado_402" data-name="Trazado 402" d="M449.988,631.8c-4.761.308-9.465-1.2-14.235-1.356a6.446,6.446,0,0,0-1.769.119,8.527,8.527,0,0,0-1.753.735c-2.556,1.285-5.2,2.35-7.843,3.411l-3.037,1.219a4.313,4.313,0,0,1-1.879.44c-.289,0-.644-.066-.815.194a3.441,3.441,0,0,0,.065,2.839c.106.286.285.6.571.629a1.561,1.561,0,0,0,.579-.158c.55-.158,1.1.242,1.671.308a4.437,4.437,0,0,0,2.018-.616,16.331,16.331,0,0,1,3.457-.634,14.883,14.883,0,0,0,5.413-2.425,6.124,6.124,0,0,1,2.018-1.03,5.2,5.2,0,0,1,2.54.312,55.367,55.367,0,0,1,5.825,2.139,25.885,25.885,0,0,0,3.041,1.2,10.243,10.243,0,0,0,6.82-.44c.762-.326,1.59-.88,1.631-1.787a2.783,2.783,0,0,0-.579-1.386c-.155-.277-.314-.555-.481-.823C452.43,633.41,451.435,631.7,449.988,631.8Z" transform="translate(-269.026 -424.364)" fill="#2f2e41"/>
      <path id="Trazado_403" data-name="Trazado 403" d="M449.988,631.8c-4.761.308-9.465-1.2-14.235-1.356a6.446,6.446,0,0,0-1.769.119,8.527,8.527,0,0,0-1.753.735c-2.556,1.285-5.2,2.35-7.843,3.411l-3.037,1.219a4.313,4.313,0,0,1-1.879.44c-.289,0-.644-.066-.815.194a3.441,3.441,0,0,0,.065,2.839c.106.286.285.6.571.629a1.561,1.561,0,0,0,.579-.158c.55-.158,1.1.242,1.671.308a4.437,4.437,0,0,0,2.018-.616,16.331,16.331,0,0,1,3.457-.634,14.883,14.883,0,0,0,5.413-2.425,6.124,6.124,0,0,1,2.018-1.03,5.2,5.2,0,0,1,2.54.312,55.367,55.367,0,0,1,5.825,2.139,25.885,25.885,0,0,0,3.041,1.2,10.243,10.243,0,0,0,6.82-.44c.762-.326,1.59-.88,1.631-1.787a2.783,2.783,0,0,0-.579-1.386c-.155-.277-.314-.555-.481-.823C452.43,633.41,451.435,631.7,449.988,631.8Z" transform="translate(-269.026 -424.364)" opacity="0.1"/>
      <path id="Trazado_404" data-name="Trazado 404" d="M436.92,643.278q1.117.409,2.254.757c.408-.753,1.223-1.276,1.4-2.139a.219.219,0,0,0,0-.114.2.2,0,0,0-.086-.084,4.041,4.041,0,0,0-1.769-.559c-.489-.031-.713.519-.934.907C437.7,642.217,437.12,643.361,436.92,643.278Z" transform="translate(-280.012 -430.363)" fill="#fbbebe"/>
      <path id="Trazado_405" data-name="Trazado 405" d="M428.781,643.227a1.629,1.629,0,0,1-1.1-.779c-.1-.2-.216-.467-.428-.44s-.281.264-.326.471a14.023,14.023,0,0,1-.616,2.284A4.269,4.269,0,0,1,425,646.634c-.277.207-.583.361-.856.581a5.943,5.943,0,0,1-.721.59,4.1,4.1,0,0,1-.554.22,3.748,3.748,0,0,0-.791.44,1.63,1.63,0,0,0-.542.559.862.862,0,0,0-.041.779.772.772,0,0,0,.526.387,2.055,2.055,0,0,0,.656,0c.868-.066,1.737-.15,2.6-.233a6.985,6.985,0,0,0,1.088-.163l.567-.167a4.2,4.2,0,0,1,.991-.158.717.717,0,0,1,.289.031c.2.07.342.286.55.33a.859.859,0,0,0,.408-.057,8.371,8.371,0,0,1,1.928-.216.79.79,0,0,0,.75-.352c.163-.343-.106-.726-.216-1.1a3.786,3.786,0,0,1-.09-.717,4.635,4.635,0,0,0-.477-1.708c-.22-.44-.522-.924-.367-1.391a1.394,1.394,0,0,0,.147-.48C430.787,643.055,429.18,643.324,428.781,643.227Z" transform="translate(-270.83 -430.849)" fill="#2f2e41"/>
      <path id="Trazado_406" data-name="Trazado 406" d="M472.591,609.05a3.876,3.876,0,0,1-1.9-2.034c-.077-.194-.143-.4-.22-.594a4.523,4.523,0,0,0-1.133-1.7.54.54,0,0,0-.408-.189.467.467,0,0,0-.306.357,1.467,1.467,0,0,0-.033.55,10.522,10.522,0,0,0,.2,1.285l.232,1.136a2.645,2.645,0,0,0,.143.506,1.735,1.735,0,0,0,.387.5c.212.211.428.414.644.616a2.215,2.215,0,0,0,.408.3,2.24,2.24,0,0,0,.721.229,5.879,5.879,0,0,1,2.707,1.127v-.845a1.175,1.175,0,0,0-.2-.612A3.5,3.5,0,0,0,472.591,609.05Z" transform="translate(-298.766 -409.868)" fill="#fbbebe"/>
      <path id="Trazado_407" data-name="Trazado 407" d="M472.591,609.05a3.876,3.876,0,0,1-1.9-2.034c-.077-.194-.143-.4-.22-.594a4.523,4.523,0,0,0-1.133-1.7.54.54,0,0,0-.408-.189.467.467,0,0,0-.306.357,1.467,1.467,0,0,0-.033.55,10.522,10.522,0,0,0,.2,1.285l.232,1.136a2.645,2.645,0,0,0,.143.506,1.735,1.735,0,0,0,.387.5c.212.211.428.414.644.616a2.215,2.215,0,0,0,.408.3,2.24,2.24,0,0,0,.721.229,5.879,5.879,0,0,1,2.707,1.127v-.845a1.175,1.175,0,0,0-.2-.612A3.5,3.5,0,0,0,472.591,609.05Z" transform="translate(-298.766 -409.868)" opacity="0.1"/>
      <ellipse id="Elipse_148" data-name="Elipse 148" cx="1.158" cy="1.259" rx="1.158" ry="1.259" transform="translate(182.36 187.976)" fill="#2f2e41"/>
      <path id="Trazado_408" data-name="Trazado 408" d="M488.8,590.433a1.171,1.171,0,0,0-.913.141,1.368,1.368,0,0,0-.314.462,7.011,7.011,0,0,0-.6,1.532c-.1.44-.118.938-.249,1.391a13.2,13.2,0,0,0-.913,2.416c-.033.392.029.85-.236,1.114a1.5,1.5,0,0,1-.208.163,1.639,1.639,0,0,0-.457.506,1.661,1.661,0,0,1-.322.48c-.236.189-.628.172-.742.44s.183.634.114.951-.326.379-.51.555a1.974,1.974,0,0,0-.44.88,2.571,2.571,0,0,1-2.218-.594,8.189,8.189,0,0,1,.346,2.738,1.185,1.185,0,0,1-.2.845,13.171,13.171,0,0,1,2.719.511,1.745,1.745,0,0,0,1.186,0,2.014,2.014,0,0,0,.546-.467,3.8,3.8,0,0,0,1.121-1.866,11.833,11.833,0,0,0,.02-1.263,7.618,7.618,0,0,1,.3-1.536,19.607,19.607,0,0,0,.518-3.16c.053-.66.583-1.188.86-1.761a9.1,9.1,0,0,0,1.1-3.521C489.314,590.983,489.183,590.477,488.8,590.433Z" transform="translate(-305.999 -401.955)" fill="#2f2e41"/>
      <path id="Trazado_409" data-name="Trazado 409" d="M488.8,590.433a1.171,1.171,0,0,0-.913.141,1.368,1.368,0,0,0-.314.462,7.011,7.011,0,0,0-.6,1.532c-.1.44-.118.938-.249,1.391a13.2,13.2,0,0,0-.913,2.416c-.033.392.029.85-.236,1.114a1.5,1.5,0,0,1-.208.163,1.639,1.639,0,0,0-.457.506,1.661,1.661,0,0,1-.322.48c-.236.189-.628.172-.742.44s.183.634.114.951-.326.379-.51.555a1.974,1.974,0,0,0-.44.88,2.571,2.571,0,0,1-2.218-.594,8.189,8.189,0,0,1,.346,2.738,1.185,1.185,0,0,1-.2.845,13.171,13.171,0,0,1,2.719.511,1.745,1.745,0,0,0,1.186,0,2.014,2.014,0,0,0,.546-.467,3.8,3.8,0,0,0,1.121-1.866,11.833,11.833,0,0,0,.02-1.263,7.618,7.618,0,0,1,.3-1.536,19.607,19.607,0,0,0,.518-3.16c.053-.66.583-1.188.86-1.761a9.1,9.1,0,0,0,1.1-3.521C489.314,590.983,489.183,590.477,488.8,590.433Z" transform="translate(-305.999 -401.955)" opacity="0.1"/>
      <path id="Trazado_410" data-name="Trazado 410" d="M463.231,622.532a10.985,10.985,0,0,1-2.519-2.271c-1.529-1.554-3.4-2.641-5.01-4.107a36.107,36.107,0,0,0-3.192-2.9,7.6,7.6,0,0,0-3.42-1.29.843.843,0,0,0-.408,0,.953.953,0,0,0-.387.33,13.31,13.31,0,0,0-1.382,2.047c-2.038,3.741-4.937,6.884-7.337,10.361a.681.681,0,0,0-.118.247.65.65,0,0,0,.09.383l.489,1.03c.273.581.713,1.254,1.3,1.14a1.415,1.415,0,0,0,.681-.471l2.193-2.267,2.3-2.372a18.752,18.752,0,0,0,3.6-4.586c.685,1.285,1.9,2.126,2.735,3.3.318.44.579.937.864,1.413.452.757.97,1.47,1.484,2.2l2.637,3.631a5.267,5.267,0,0,0,1.223,1.32,4.4,4.4,0,0,0,2.116.612,25.9,25.9,0,0,0,2.98.114,4.8,4.8,0,0,0,2.222-.44,2.183,2.183,0,0,0,1.2-1.932,2.989,2.989,0,0,0-.379-1.2A9.484,9.484,0,0,0,463.231,622.532Z" transform="translate(-281.514 -414.018)" fill="#2f2e41"/>
      <ellipse id="Elipse_149" data-name="Elipse 149" cx="0.893" cy="0.968" rx="0.893" ry="0.968" transform="translate(183.339 189.138)" fill="#e8e8f0"/>
      <path id="Trazado_411" data-name="Trazado 411" d="M501.693,588.684a1.988,1.988,0,0,1,.1,1.391,5.845,5.845,0,0,1-.575,1.281,6.12,6.12,0,0,1-.746,1.144,7.262,7.262,0,0,0,3.921-1.215,5.853,5.853,0,0,0,2.474-2.328,1.073,1.073,0,0,1-.913-.185,3.376,3.376,0,0,1-.7-.7l-.689-.836a3.347,3.347,0,0,1-.408-.6,1.776,1.776,0,0,1-.183-.973,5.363,5.363,0,0,1-.913.819c-.493.348-1.035.6-1.533.942-.171.123-.562.317-.461.563S501.554,588.42,501.693,588.684Z" transform="translate(-317.657 -399.304)" fill="#fbbebe"/>
      <path id="Trazado_412" data-name="Trazado 412" d="M501.693,588.684a1.988,1.988,0,0,1,.1,1.391,5.845,5.845,0,0,1-.575,1.281,6.12,6.12,0,0,1-.746,1.144,7.262,7.262,0,0,0,3.921-1.215,5.853,5.853,0,0,0,2.474-2.328,1.073,1.073,0,0,1-.913-.185,3.376,3.376,0,0,1-.7-.7l-.689-.836a3.347,3.347,0,0,1-.408-.6,1.776,1.776,0,0,1-.183-.973,5.363,5.363,0,0,1-.913.819c-.493.348-1.035.6-1.533.942-.171.123-.562.317-.461.563S501.554,588.42,501.693,588.684Z" transform="translate(-317.657 -399.304)" opacity="0.1"/>
      <path id="Trazado_413" data-name="Trazado 413" d="M495.626,592.662a1.337,1.337,0,0,0,0,1.453c.041.053.188.383.249.387a.22.22,0,0,0,.155-.088,10.9,10.9,0,0,0,.872-1.122,1.935,1.935,0,0,1,1.109-.783,2.277,2.277,0,0,1,1.529.515,1.471,1.471,0,0,1,.526.44,1.631,1.631,0,0,1,.171.629,32.736,32.736,0,0,1,.155,4,17,17,0,0,1-.175,2.883c-.09.489-.22.968-.281,1.466a10.084,10.084,0,0,0-.057,1.32v1.84a5.219,5.219,0,0,0,.065,1.008c.082.4.257.775.375,1.167a8.169,8.169,0,0,1,.249,1.378l.232,1.9a2.574,2.574,0,0,1-.208,1.761c-.151.216-.351.392-.505.607-.575.81-.408,1.968-.632,2.958a3.726,3.726,0,0,1-1.117,1.849,1.769,1.769,0,0,1-1.472.568c-.717-.145-1.145-.951-1.341-1.712a7.227,7.227,0,0,0-.689-2.232,5.6,5.6,0,0,0-1.362-1.228,2.523,2.523,0,0,1-1.064-1.492c-.045-.277,0-.563-.045-.845a1.98,1.98,0,0,0-1.137-1.615c-.367-.154-.815-.211-1.027-.572a2.663,2.663,0,0,0,1.072-1.554,8.575,8.575,0,0,0,.261-1.963l.122-2.2a7.873,7.873,0,0,1,.485-2.857c.179-.4.408-.77.591-1.162a13.217,13.217,0,0,0,.632-1.7c.294-.907.587-1.813.848-2.729a5.391,5.391,0,0,1,.465-1.272C494.9,593.247,495.214,592.75,495.626,592.662Z" transform="translate(-311.573 -403.136)" fill="#e8e8f0"/>
      <path id="Trazado_414" data-name="Trazado 414" d="M492.275,606.521h.542l.114-.88a1.956,1.956,0,0,1,.114-.515,3.1,3.1,0,0,1,.314-.493,6.858,6.858,0,0,0,.624-2.883,15.482,15.482,0,0,1,1.19-3.768l1.052-2.531a3.671,3.671,0,0,0,.228-.647,4.179,4.179,0,0,0,.065-.748c0-.392.114-1.818.126-2.2,0-.145-.3-.066-.359-.194-.13-.282-.31.48-.558.647a1.487,1.487,0,0,0-.485.766c-.228.634-.367,1.32-.579,1.95a4.046,4.046,0,0,1-.982,1.725c-.216.2-.465.365-.669.585a4.178,4.178,0,0,0-.738,2.8C492.259,600.737,492.153,606.521,492.275,606.521Z" transform="translate(-312.768 -402.629)" fill="#2f2e41"/>
      <path id="Trazado_415" data-name="Trazado 415" d="M504.314,590.394a1.994,1.994,0,0,0-.966,1.431,7.671,7.671,0,0,1-.489,1.761c-.66,1.241-2.344,1.6-2.813,2.945a5.816,5.816,0,0,0-.188,1.387c-.082.964-.375,1.893-.465,2.852a13.717,13.717,0,0,0,.049,2.24l.591,7.58a10.911,10.911,0,0,1-.175,3.336,2.785,2.785,0,0,0,1.769-.317c.55-.273,1.056-.647,1.59-.964a16.085,16.085,0,0,0,2.727-1.655,1.764,1.764,0,0,0,.367-.44,4.053,4.053,0,0,0,.245-.995,5.658,5.658,0,0,1,.265-.784,24.331,24.331,0,0,0,.766-2.342,14.355,14.355,0,0,0,.351-1.6c.065-.44.1-.88.134-1.321a8.288,8.288,0,0,1,.375-2,17.272,17.272,0,0,0,.86-4.807,2.71,2.71,0,0,0-.045-.7,3.911,3.911,0,0,0-.359-.806c-.245-.5-.408-1.043-.62-1.549a7.4,7.4,0,0,0-2.409-2.733C505.4,590.557,504.848,590.187,504.314,590.394Z" transform="translate(-317.005 -401.921)" fill="#2f2e41"/>
      <path id="Trazado_416" data-name="Trazado 416" d="M472.015,615.319a4.3,4.3,0,0,1-1.121-.92c-.147-.185-.269-.392-.408-.577a2.737,2.737,0,0,0-1.41-.88,6.4,6.4,0,0,0-1.631-.172,2.755,2.755,0,0,0-1.088.141,1.165,1.165,0,0,0-.721.836,1.428,1.428,0,0,0,.55,1.232,2.518,2.518,0,0,0,1.1.572,8.151,8.151,0,0,0,.991.128c1.948.22,3.689,1.364,5.4,2.408q2.25,1.382,4.59,2.57a11.113,11.113,0,0,0,.077-1.519c0-.378-.029-.959-.359-1.184a6.8,6.8,0,0,0-1.459-.471,22.02,22.02,0,0,1-2.939-1.285A14.273,14.273,0,0,1,472.015,615.319Z" transform="translate(-297.021 -414.478)" fill="#fbbebe"/>
      <ellipse id="Elipse_150" data-name="Elipse 150" cx="3.473" cy="3.772" rx="3.473" ry="3.772" transform="translate(180.045 181.404)" fill="#fbbebe"/>
      <path id="Trazado_417" data-name="Trazado 417" d="M501.486,599.572a6.187,6.187,0,0,0-.673,1.36c-.408.951-1.1,1.761-1.439,2.768s-.342,2.3-1.039,3.125a1.1,1.1,0,0,0-.306.475,2.446,2.446,0,0,1-.033.343c-.1.3-.554.312-.64.621-.024.088,0,.185-.041.273-.069.2-.314.229-.473.348-.338.247-.269.819-.51,1.175a.88.88,0,0,1-.868.33,2.92,2.92,0,0,1-.9-.365.822.822,0,0,0-.326-.11.642.642,0,0,0-.375.141,2.575,2.575,0,0,0-.938,2.135,7.432,7.432,0,0,0,.538,2.39.987.987,0,0,0,.175.357.732.732,0,0,0,.864.07,3.938,3.938,0,0,1,.844-.409c.538-.106,1.064.295,1.61.26a2.16,2.16,0,0,0,1.084-.515,6.127,6.127,0,0,0,1.459-1.32c.236-.339.408-.722.62-1.083a13.878,13.878,0,0,1,.876-1.263L503,608.036a6.1,6.1,0,0,0,.538-.8,5.945,5.945,0,0,0,.408-1.21,9.922,9.922,0,0,0,.408-2.152,8.911,8.911,0,0,0-.147-1.8,6.794,6.794,0,0,0-.408-1.721C503.365,599.352,502.305,598.542,501.486,599.572Z" transform="translate(-313.186 -406.825)" fill="#2f2e41"/>
      <path id="Trazado_418" data-name="Trazado 418" d="M505.64,573.434A4.344,4.344,0,0,0,504.034,570a4.913,4.913,0,0,0-3.95-4.89,4.6,4.6,0,0,0-4.547-3.913,4.651,4.651,0,0,0-4.344,4.173c-1.443-.352-2.764.106-3,1.065s.779,2.2,2.3,2.641a3.982,3.982,0,0,0,1.476.158,4.489,4.489,0,0,0,3.106,2.091,4.849,4.849,0,0,0,3.392,3.777,4.206,4.206,0,0,0,1.048,1.563v.365a2.948,2.948,0,1,0,5.878,0,3.618,3.618,0,0,0-.281-1.4A4.508,4.508,0,0,0,505.64,573.434Z" transform="translate(-310.361 -385.607)" fill="#f86d70"/>
      <path id="Trazado_419" data-name="Trazado 419" d="M489.161,566.635c.241-.959,1.561-1.417,3-1.065a4.717,4.717,0,0,1,4.484-4.173h.3a4.116,4.116,0,0,0-1.28-.207,4.717,4.717,0,0,0-4.484,4.173c-1.443-.352-2.764.106-3,1.065s.779,2.2,2.3,2.641a4.185,4.185,0,0,0,.872.163C489.9,568.761,488.921,567.616,489.161,566.635Z" transform="translate(-310.356 -385.604)" opacity="0.1"/>
      <path id="Trazado_420" data-name="Trazado 420" d="M506.138,587.647a3.578,3.578,0,0,1,0-.361,4.115,4.115,0,0,1-1.048-1.562,4.837,4.837,0,0,1-3.392-3.781,4.476,4.476,0,0,1-3.11-2.086,3.621,3.621,0,0,1-.868-.026,4.482,4.482,0,0,0,3,1.924,4.849,4.849,0,0,0,3.392,3.776,4.206,4.206,0,0,0,1.048,1.563v.365a3.13,3.13,0,0,0,2.923,3.284A3.291,3.291,0,0,1,506.138,587.647Z" transform="translate(-316.028 -396.04)" opacity="0.1"/>
      <path id="Trazado_1194" data-name="Trazado 1194" d="M.585.005c.3-.011.537.315.522.729S.833,1.493.53,1.5-.007,1.189.008.775.281.017.585.005Z" transform="translate(183.78 185.683) rotate(-37.22)" fill="#fbbebe"/>
    </g>
  </g>
</svg>
