<svg xmlns="http://www.w3.org/2000/svg" width="201.771" height="135.068" viewBox="0 0 201.771 135.068">
  <g id="Grupo_375" data-name="Grupo 375" transform="translate(8733.046 -10181.164)">
    <g id="contact-us" transform="translate(-8733.046 10181.164)">
      <path id="Trazado_1088" data-name="Trazado 1088" d="M440.115,426.342H345.881c-6.435,0-11.652-5.551-11.652-12.4V368a5.067,5.067,0,0,1,1.44-3.565L385.6,314.072a10.283,10.283,0,0,1,14.787,0L448,362.094a13.243,13.243,0,0,1,3.765,9.318v42.532c0,6.847-5.217,12.4-11.652,12.4Z" transform="translate(-290.153 -291.643)" fill="#3f3d56"/>
      <path id="Trazado_1089" data-name="Trazado 1089" d="M240.954,387.992H357.512v50.1a7.272,7.272,0,0,1-7.036,7.487H247.99a7.272,7.272,0,0,1-7.036-7.487Z" transform="translate(-196.878 -310.877)" opacity="0.1"/>
      <path id="Trazado_1090" data-name="Trazado 1090" d="M333.73,521.351" transform="translate(-289.776 -447.232)" fill="none" stroke="#3f3d56" stroke-miterlimit="10" stroke-width="1"/>
      <rect id="Rectángulo_1095" data-name="Rectángulo 1095" width="86.683" height="92.239" rx="26.181" transform="translate(59.381 37.64)" fill="#00c6e2"/>
      <path id="Trazado_1091" data-name="Trazado 1091" d="M390.137,395.942v50.692H303.454V395.942L346.8,418.233Z" transform="translate(-244.074 -316.755)" opacity="0.1"/>
      <path id="Trazado_1092" data-name="Trazado 1092" d="M392.5,555.618l-55.535-28.562a2.136,2.136,0,0,0-2.178.128,2.437,2.437,0,0,0-1.056,2.031v49.142a7.272,7.272,0,0,0,7.036,7.487H444.231a7.272,7.272,0,0,0,7.036-7.487v-48.3a2.973,2.973,0,0,0-1.288-2.478,2.607,2.607,0,0,0-2.658-.156Z" transform="translate(-289.776 -451.274)" fill="#3f3d56"/>
      <rect id="Rectángulo_1096" data-name="Rectángulo 1096" width="24.242" height="3.648" transform="translate(66.849 46.108)" fill="#f2f2f2"/>
      <rect id="Rectángulo_1097" data-name="Rectángulo 1097" width="71.991" height="2.084" transform="translate(64.89 59.397)" fill="#f2f2f2"/>
      <rect id="Rectángulo_1098" data-name="Rectángulo 1098" width="71.991" height="2.084" transform="translate(64.89 66.432)" fill="#f2f2f2"/>
      <rect id="Rectángulo_1099" data-name="Rectángulo 1099" width="71.991" height="2.084" transform="translate(64.89 73.467)" fill="#f2f2f2"/>
      <line id="Línea_116" data-name="Línea 116" x2="201.771" transform="translate(0 134.569)" fill="none" stroke="#3f3d56" stroke-miterlimit="10" stroke-width="1"/>
      <path id="Trazado_1093" data-name="Trazado 1093" d="M175.975,736.883" transform="translate(-170.65 -606.605)" fill="#46455b"/>
      <path id="Trazado_1094" data-name="Trazado 1094" d="M268.262,629.014" transform="translate(-240.339 -526.843)" fill="#1de9b6"/>
      <path id="Trazado_1096" data-name="Trazado 1096" d="M282.645,599.05" transform="translate(-251.2 -504.686)" fill="#46455b"/>
      <path id="Trazado_1098" data-name="Trazado 1098" d="M168.078,741.379c-3.242.028-7.534-.537-8.4-1.1-.658-.426-.92-1.956-1.008-2.662l-.1,0s.182,2.465,1.046,3.025,5.155,1.125,8.4,1.1c.936-.008,1.259-.362,1.241-.887C169.132,741.175,168.775,741.373,168.078,741.379Z" transform="translate(-157.512 -607.15)" opacity="0.2"/>
      <path id="Trazado_1099" data-name="Trazado 1099" d="M807.81,295.243c-.147,1.4-1.147,2.519-1.518,3.866-.558,2.028.407,4.2,1.726,5.784a11.763,11.763,0,0,0,8.383,4.235,3.372,3.372,0,0,0,1.386-.161,2.968,2.968,0,0,0,1.054-.767,7.384,7.384,0,0,0,1.739-4.013,22.724,22.724,0,0,0,.047-4.485,2.676,2.676,0,0,0-.156-.9,2.3,2.3,0,0,0-.547-.716,12.815,12.815,0,0,0-2.348-1.815,1.989,1.989,0,0,1-1.288-1.76l-.259-1.407a2.881,2.881,0,0,0-.381-1.14,2.544,2.544,0,0,0-2.1-.779l-2.817-.118a12.765,12.765,0,0,0-2.886-.121c-.8.171-.534.954-.388,1.668A12.779,12.779,0,0,1,807.81,295.243Z" transform="translate(-646.501 -276.812)" fill="#a0616a"/>
      <path id="Trazado_1100" data-name="Trazado 1100" d="M807.81,295.243c-.147,1.4-1.147,2.519-1.518,3.866-.558,2.028.407,4.2,1.726,5.784a11.763,11.763,0,0,0,8.383,4.235,3.372,3.372,0,0,0,1.386-.161,2.968,2.968,0,0,0,1.054-.767,7.384,7.384,0,0,0,1.739-4.013,22.724,22.724,0,0,0,.047-4.485,2.676,2.676,0,0,0-.156-.9,2.3,2.3,0,0,0-.547-.716,12.815,12.815,0,0,0-2.348-1.815,1.989,1.989,0,0,1-1.288-1.76l-.259-1.407a2.881,2.881,0,0,0-.381-1.14,2.544,2.544,0,0,0-2.1-.779l-2.817-.118a12.765,12.765,0,0,0-2.886-.121c-.8.171-.534.954-.388,1.668A12.779,12.779,0,0,1,807.81,295.243Z" transform="translate(-646.501 -276.812)" opacity="0.1"/>
      <path id="Trazado_1101" data-name="Trazado 1101" d="M840.978,529.04l-1.2,13.968c-.312,3.664-.631,7.342-1.244,10.959-.212,1.246-.46,2.486-.754,3.715-.818,3.413-2.006,6.748-2.389,10.247-.012.1-.022.2-.032.307a9.415,9.415,0,0,1-.409,2.274c-.192.534-.486,1.021-.693,1.549a10.458,10.458,0,0,0-.518,3.365,13.09,13.09,0,0,0-4.695-1.707,3.461,3.461,0,0,1-2.225-.849,3.567,3.567,0,0,1-.433-2.709q.475-4.376.947-8.747a24.14,24.14,0,0,1,.6-3.715c.109-.405.24-.8.373-1.2.183-.549.369-1.1.508-1.662a21.215,21.215,0,0,0,.419-2.769c.324-2.934.716-5.862,1.058-8.795l.018-.154a95.62,95.62,0,0,0,.792-13.387c-.016-.663-.042-1.326-.083-1.991-.056-.963-.139-1.474.611-2.076a13.806,13.806,0,0,1,2.867-1.566c.51-.236,6.126-2.357,6.257-1.892a12.341,12.341,0,0,1,.411,3.05A36.1,36.1,0,0,1,840.978,529.04Z" transform="translate(-661.748 -447.81)" fill="#605d82"/>
      <path id="Trazado_1102" data-name="Trazado 1102" d="M844.659,613.5c-.212,1.246-.46,2.486-.754,3.715-.818,3.413-2.006,6.748-2.389,10.247-.012.1-.022.2-.032.307-2.5-3.805-4.612-7.9-7.055-11.744.183-.549.369-1.1.508-1.662a21.212,21.212,0,0,0,.419-2.769c.325-2.934.716-5.862,1.058-8.795l.018-.154a9.5,9.5,0,0,0,.611,1.8c1.641,3.548,5.539,5.341,7.446,8.737Q844.577,613.342,844.659,613.5Z" transform="translate(-667.87 -507.344)" opacity="0.1"/>
      <path id="Trazado_1103" data-name="Trazado 1103" d="M793.214,475.58a70.058,70.058,0,0,0,.938,8.476l.881,5.8a31.192,31.192,0,0,0,2.4,9.254,42.894,42.894,0,0,0,3.953,5.848c3.383,4.69,5.924,10,9.132,14.829.932,1.4,2.265,2.92,3.856,2.627,1.044-.192,1.8-1.117,2.624-1.831a16.583,16.583,0,0,0,2.9-2.511c.761-1.054.911-2.807-.121-3.557a5.263,5.263,0,0,0-1.181-.514c-1.6-.647-2.635-2.309-3.293-3.99a39.589,39.589,0,0,0-1.935-5.05c-1.907-3.4-5.806-5.189-7.447-8.738a16.673,16.673,0,0,1-1.077-6.493l-.179-5.644a4.369,4.369,0,0,1,.2-1.824c.628-1.5,2.523-1.642,4.058-1.833a13.294,13.294,0,0,0,4.973-1.67,5.31,5.31,0,0,0,2.221-2.1,7.137,7.137,0,0,0,.542-2.844l.531-10.229a6.8,6.8,0,0,0-.2-2.615c-.732-2.072-3.19-2.748-5.268-2.65-3.866.184-7.436,1.954-11.081,3.149a26.81,26.81,0,0,1-2.747.762,20.839,20.839,0,0,0-2.589.382c-1.388.5-1.352,3.727-1.549,5.067a45.33,45.33,0,0,0-.53,7.9Z" transform="translate(-636.74 -400.62)" fill="#605d82"/>
      <path id="Trazado_1104" data-name="Trazado 1104" d="M875.125,687.2a2.708,2.708,0,0,1,.541,1.408,51.087,51.087,0,0,1,.765,8.518,1.466,1.466,0,0,0,.144.772.923.923,0,0,0,.376.322c.985.5,2.129-.2,2.95-.962a8.237,8.237,0,0,0,2.9-5.475,13.509,13.509,0,0,1,.055-1.66,7.144,7.144,0,0,1,.97-2.224,19.4,19.4,0,0,0,1.6-3.823c.15-.5.249-1.132-.12-1.482a1.316,1.316,0,0,0-.439-.243l-4.451-1.759c-.386-.152-1.346,2.471-1.5,2.758a2.066,2.066,0,0,1-1.491,1.262c-.763.165-1.672-.072-2.384.333C873.839,685.627,874.443,686.464,875.125,687.2Z" transform="translate(-698.019 -564.974)" fill="#535070"/>
      <path id="Trazado_1105" data-name="Trazado 1105" d="M833.821,709.86a1.444,1.444,0,0,0-.339-.457,1.472,1.472,0,0,0-.683-.247,2.538,2.538,0,0,0-2.437.416c-.548.628-.454,1.652-.913,2.357-.145.223-.342.407-.468.643a2.561,2.561,0,0,0-.205,1.154c-.024,1.093-.047,2.188.024,3.279a4.8,4.8,0,0,0,.741,2.588c.862,1.149,2.417,1.315,3.8,1.389l1.118.06a2.056,2.056,0,0,0,.916-.089,1.573,1.573,0,0,0,.79-.925c.582-1.539-.34-3.2-.907-4.742C834.6,713.51,834.721,711.539,833.821,709.86Z" transform="translate(-663.583 -586.019)" fill="#535070"/>
      <path id="Trazado_1106" data-name="Trazado 1106" d="M799.814,253.5a1.04,1.04,0,0,1,.063-.459c.164-.308.591-.224.914-.138,1.3.348,2.664.033,4,.114s2.84.792,3.108,2.186a10.113,10.113,0,0,0,2.466-2.7,3.371,3.371,0,0,0,.643-1.974,3.859,3.859,0,0,0-1.623-2.432l-2.222-1.93a3.329,3.329,0,0,0-.995-.673,4.666,4.666,0,0,0-1.615-.1c-1.617,0-3.342-.782-4.78,0a5.29,5.29,0,0,0-1.489,1.441l-1.983,2.5a1.355,1.355,0,0,0-.317.572,2.688,2.688,0,0,0,.142.912c.094.558-.132,1.154.041,1.689.288.89,1.3,1.016,1.924,1.526.231.19.594.834.869.826C799.457,254.854,799.8,253.909,799.814,253.5Z" transform="translate(-638.828 -242.928)" fill="#3f3d56"/>
      <ellipse id="Elipse_231" data-name="Elipse 231" cx="6.35" cy="6.757" rx="6.35" ry="6.757" transform="translate(158 4.419)" fill="#a0616a"/>
      <path id="Trazado_1107" data-name="Trazado 1107" d="M784.362,315.834a3.089,3.089,0,0,0-2.995-2.193.864.864,0,0,1-.552-.074.8.8,0,0,1-.227-.3,12.226,12.226,0,0,1-.926-2.329c-.1-.358-.24-.779-.58-.872a.764.764,0,0,0-.739.342,6.89,6.89,0,0,1-.528.707c-.8.76-2.214.067-3.062.764-.138.114-.253.26-.4.363a1.8,1.8,0,0,1-.466.213,43.14,43.14,0,0,0-4.806,2,50.73,50.73,0,0,0,2.463,10.671c.629,1.609,1.342,3.186,1.845,4.844,1.116,3.675,1.165,7.607,1.178,11.469a25.35,25.35,0,0,1-.807,7.844,7.776,7.776,0,0,0-.454,1.723,1.848,1.848,0,0,0,.568,1.606,1.869,1.869,0,0,0,.877.328,10.718,10.718,0,0,0,4.167-.515,108.622,108.622,0,0,1,11.164-1.941l6.269-.866a3.466,3.466,0,0,0,1.3-.357c1.147-.668,1.256-2.5.544-3.671-.342-.56-.823-1.018-1.11-1.612a1.57,1.57,0,0,1,.183-1.833c1-.836.705-2.386.753-3.742q.2-5.688-.054-11.38-.076-1.178-.035-2.36a22.107,22.107,0,0,1,.691-3.938l1.9-7.98a3.894,3.894,0,0,0-2.353-1.609c-.9-.241-1.843-.312-2.731-.605-1.821-.6-3.442-2.124-5.344-1.982a.923.923,0,0,0-.414.108c-.429.259-.361.916-.388,1.44a4,4,0,0,1-1.746,2.806,31.054,31.054,0,0,0-2.707,1.948A1.312,1.312,0,0,0,784.362,315.834Z" transform="translate(-618.525 -289.872)" fill="#3f3d56"/>
      <path id="Trazado_1108" data-name="Trazado 1108" d="M718.322,358.491a7.344,7.344,0,0,1-1.336.731,4.287,4.287,0,0,0-1.279.661,2.113,2.113,0,0,0-.445.585,2.745,2.745,0,0,0,.051,2.647,2.408,2.408,0,0,0,2.2,1.229,4.691,4.691,0,0,0,1.667-.529l4.479-2.065A3.555,3.555,0,0,0,725.6,360.2a.38.38,0,0,0,.044-.246.4.4,0,0,0-.184-.206,10.3,10.3,0,0,1-2.608-2.617c-.184-.266-.409-.892-.668-1.051C721.232,355.5,719.081,357.967,718.322,358.491Z" transform="translate(-577.645 -324.958)" fill="#a0616a"/>
      <path id="Trazado_1109" data-name="Trazado 1109" d="M891.289,359.084l1.651,2.007c.354.431.709.862,1.033,1.32a15.763,15.763,0,0,1,1.891,3.791,6.994,6.994,0,0,1,.531,3.134,8.054,8.054,0,0,1-.413,1.594,20.563,20.563,0,0,1-1.122,2.875,16.5,16.5,0,0,1-1.263,2.013,46.277,46.277,0,0,1-4.186,5.095,5.975,5.975,0,0,0-1.047,2.36,9.846,9.846,0,0,1-2.575,3.732,7.305,7.305,0,0,1-1.106,1.012,3.442,3.442,0,0,1-2.012.61,2.094,2.094,0,0,1-.906-.2,2.522,2.522,0,0,1-1.151-2.076,4.667,4.667,0,0,1,.347-2.22c.948-2.233,3.381-3.2,5.1-4.831a17.468,17.468,0,0,0,2.54-3.343,11.767,11.767,0,0,0,1.285-2.4c.384-1.091.235-2.382.57-3.49.142-.469.394-.892.547-1.356a1.673,1.673,0,0,0-.076-1.419,1.95,1.95,0,0,0-.748-.582c-1.1-.593-2.329-1.357-2.539-2.649a2.975,2.975,0,0,1,.492-2.023,8.224,8.224,0,0,1,1.385-1.545C890,360.044,890.809,359.536,891.289,359.084Z" transform="translate(-702.734 -327.246)" fill="#a0616a"/>
      <path id="Trazado_1110" data-name="Trazado 1110" d="M700.917,371.29a3.223,3.223,0,0,0-1.244-1.578,2.167,2.167,0,0,0-1.809-.008,6.735,6.735,0,0,0-1.587,1.021l-1.423,1.116a3.6,3.6,0,0,0-.845.83,3.65,3.65,0,0,0-.44,1.285,9.756,9.756,0,0,0-.224,3.178,9.228,9.228,0,0,0,2.259,4.5,3.737,3.737,0,0,0,2.5,1.667,1.128,1.128,0,0,0,1.1-.591,1.558,1.558,0,0,0,.1-.527,12.351,12.351,0,0,0-1.278-5.5,3.694,3.694,0,0,1-.412-1.478.426.426,0,0,1,.061-.248.385.385,0,0,1,.243-.126c1.022-.215,2.783.63,3.5-.578C701.884,373.468,701.247,372,700.917,371.29Z" transform="translate(-561.3 -334.956)" fill="#a0616a"/>
      <path id="Trazado_1111" data-name="Trazado 1111" d="M798.454,245.338a1.04,1.04,0,0,1,.063-.459c.164-.308.591-.224.914-.138,1.3.348,2.664.033,4,.114s2.84.792,3.108,2.186a10.112,10.112,0,0,0,2.466-2.7,3.371,3.371,0,0,0,.643-1.974,3.859,3.859,0,0,0-1.623-2.432l-2.222-1.93a3.328,3.328,0,0,0-.995-.673,4.666,4.666,0,0,0-1.615-.1c-1.617,0-3.342-.782-4.78,0a5.291,5.291,0,0,0-1.489,1.441l-1.983,2.5a1.355,1.355,0,0,0-.317.572,2.689,2.689,0,0,0,.142.912c.094.558-.132,1.154.042,1.689.288.89,1.3,1.016,1.924,1.526.231.19.594.834.869.826C798.1,246.694,798.441,245.749,798.454,245.338Z" transform="translate(-637.801 -236.894)" fill="#3f3d56"/>
      <path id="Trazado_1112" data-name="Trazado 1112" d="M744.758,333.988a2.651,2.651,0,0,0-.665.658c-.233.375-.28.847-.48,1.243-.428.846-1.429,1.147-2.053,1.841a.7.7,0,0,0-.2.36.836.836,0,0,0,.168.518l3.011,5.037c1,.094,1.964-.574,2.967-.486a2.8,2.8,0,0,0,1.117.053,3.173,3.173,0,0,0,.717-.466c.6-.4,1.4-.45,1.9-.981a2.893,2.893,0,0,0,.538-2.03,8.663,8.663,0,0,0-.179-1.868c-.443-1.933-1.833-3.417-2.7-5.13-.424-.834-.655-1.322-1.553-.749S745.608,333.327,744.758,333.988Z" transform="translate(-597.593 -307.028)" fill="#3f3d56"/>
      <path id="Trazado_1113" data-name="Trazado 1113" d="M888.616,325.763a7.2,7.2,0,0,1,1.515,1.412c.459.629.719,1.4,1.159,2.043a22.311,22.311,0,0,0,1.493,1.682,13.163,13.163,0,0,1,1.721,2.984,43.827,43.827,0,0,1-3.895,4.684,1.253,1.253,0,0,1-.591.414.927.927,0,0,1-.836-.363c-.217-.242-.371-.541-.578-.792a2.911,2.911,0,0,0-1.841-.947,11.884,11.884,0,0,0-2.086-.031.6.6,0,0,1-.688-.376c-.815-1.476-.553-3.329-.265-5.014l.66-3.866a9.115,9.115,0,0,1,.549-2.148c.25-.568.809-1.532,1.5-1.362S888.033,325.317,888.616,325.763Z" transform="translate(-704.881 -301.35)" fill="#3f3d56"/>
      <ellipse id="Elipse_232" data-name="Elipse 232" cx="10.04" cy="10.702" rx="10.04" ry="10.702" transform="translate(52.892 28.39)" fill="#fff"/>
      <path id="Trazado_1114" data-name="Trazado 1114" d="M374.228,338.851c-6.627,0-12,5.716-12,12.768s5.372,12.768,12,12.768,12-5.716,12-12.768C386.207,344.576,380.847,338.871,374.228,338.851Zm-2.463,19.575-6.149-6.543,1.725-1.835,4.43,4.714,9.351-9.95,1.725,1.835-11.081,11.779Z" transform="translate(-311.297 -312.285)" fill="rgba(14,53,216,0.82)"/>
    </g>
  </g>
</svg>
