<svg xmlns="http://www.w3.org/2000/svg" xmlns:xlink="http://www.w3.org/1999/xlink" width="241.117" height="211.71" viewBox="0 0 241.117 211.71">
  <defs>
    <linearGradient id="linear-gradient" x1="-2.392" y1="1" x2="-2.392" gradientUnits="objectBoundingBox">
      <stop offset="0" stop-color="gray" stop-opacity="0.251"/>
      <stop offset="0.54" stop-color="gray" stop-opacity="0.122"/>
      <stop offset="1" stop-color="gray" stop-opacity="0.102"/>
    </linearGradient>
  </defs>
  <g id="Grupo_72" data-name="Grupo 72" transform="translate(-2997 -4767.917)">
    <g id="undraw_business_plan_5i9d" transform="translate(2997 4767.917)">
      <ellipse id="Elipse_168" data-name="Elipse 168" cx="99.464" cy="7.598" rx="99.464" ry="7.598" transform="translate(16.604 196.514)" fill="#00c6e2" opacity="0.1"/>
      <path id="Trazado_500" data-name="Trazado 500" d="M85.842,57.89c-6.2,7.99-7.766,18.118-7.851,27.829-.06,6.848.79,14.275,5.981,19.325,6.833,6.644,19.951,7.954,23.337,16.444,3,7.545-3.983,15.135-10.694,20.459S82.2,153.792,83.452,161.721c.794,5.063,5.152,9.037,9.5,12.373,8.262,6.357,17.55,11.918,28.02,14.624,19,4.9,39.513-.173,57.312-7.857,10.957-4.73,23.679-10.535,34.559-5.67,2.873,1.284,5.311,3.224,7.96,4.831,7.7,4.646,17.107,6.357,26.26,7.809,13.416,2.136,27.516,3.918,40.443.066s24.1-15.12,22.12-27.137c-1.866-11.321-13.744-18.7-23.21-26.433-3.339-2.728-6.738-6.344-5.907-10.314.66-3.148,3.769-5.34,6.54-7.374,14.585-10.766,25.3-25.629,30.232-41.926,2.328-7.689,3.168-16.549-2.025-23.033-4.189-5.231-11.368-7.743-18.2-9.81-12.671-3.837-25.658-7.079-38.984-7.954s-27.094.793-38.924,6.329C213.476,42.9,208.333,46.4,202.6,48.96c-16.266,7.262-35.432,6.286-53.573,5.139-6.482-.409-13.257-1.137-18.885-4.254-4.849-2.69-7.62-4.618-13.624-4.918C104.754,44.34,92.58,49.189,85.842,57.89Z" transform="translate(-77.988 -33.697)" fill="#00c6e2" opacity="0.1"/>
      <path id="Trazado_501" data-name="Trazado 501" d="M239.056,304.983l-.254.577-1.646,3.725-17.271,39.05-29.306,79.071-4.189.036,29.322-79.107,19.982-45.186,1.462.8,1.646.9Z" transform="translate(-143.36 -226.059)" fill="#535461"/>
      <path id="Trazado_502" data-name="Trazado 502" d="M464.177,427.443l-3.448-.036-29.308-79.071-16.816-38.025-2.1-4.75-.256-.577.256-.14,2.1-1.144,1.009-.549L435.3,348.336Z" transform="translate(-317.064 -226.059)" fill="#535461"/>
      <rect id="Rectángulo_90" data-name="Rectángulo 90" width="3.748" height="134.914" transform="translate(93.796 66.47)" fill="#535461"/>
      <path id="Trazado_503" data-name="Trazado 503" d="M474.548,207.69a5.032,5.032,0,0,0-4.768,5.251v1.877a4.792,4.792,0,1,0,9.541,0v-1.877A5.034,5.034,0,0,0,474.548,207.69Zm3.577,7.12a3.6,3.6,0,1,1-7.159,0v-1.877a3.6,3.6,0,1,1,7.159,0Z" transform="translate(-379.307 -163.447)" fill="#535461"/>
      <path id="Trazado_504" data-name="Trazado 504" d="M359.249,317.187h-3.875l-16.816-38.025v38.025h-3.746v-39.05l-17.271,39.05H313.37L333.352,272l1.462.8V261.38h3.746v11.171l1.009-.549Z" transform="translate(-241.018 -194.91)" opacity="0.1"/>
      <path id="Trazado_505" data-name="Trazado 505" d="M479.315,229.08v1.688a4.792,4.792,0,1,1-9.54,0V229.08h1.192v1.688a3.6,3.6,0,1,0,7.158,0V229.08Z" transform="translate(-379.303 -179.398)" opacity="0.1"/>
      <rect id="Rectángulo_91" data-name="Rectángulo 91" width="144.115" height="71.656" transform="translate(23.185 50.058)" fill="#535461"/>
      <rect id="Rectángulo_92" data-name="Rectángulo 92" width="138.663" height="65.279" transform="translate(25.741 52.309)" fill="#fff"/>
      <g id="Grupo_50" data-name="Grupo 50" transform="translate(39.435 59.406)" opacity="0.2">
        <rect id="Rectángulo_93" data-name="Rectángulo 93" width="6.556" height="3.288" fill="#00c6e2"/>
      </g>
      <g id="Grupo_51" data-name="Grupo 51" transform="translate(39.435 65.765)" opacity="0.2">
        <rect id="Rectángulo_94" data-name="Rectángulo 94" width="6.556" height="3.288" fill="#00c6e2"/>
      </g>
      <g id="Grupo_52" data-name="Grupo 52" transform="translate(39.435 72.122)" opacity="0.2">
        <rect id="Rectángulo_95" data-name="Rectángulo 95" width="6.556" height="3.288" fill="#00c6e2"/>
      </g>
      <g id="Grupo_53" data-name="Grupo 53" transform="translate(39.435 78.479)" opacity="0.2">
        <rect id="Rectángulo_96" data-name="Rectángulo 96" width="6.556" height="3.288" fill="#00c6e2"/>
      </g>
      <g id="Grupo_54" data-name="Grupo 54" transform="translate(39.435 84.839)" opacity="0.2">
        <rect id="Rectángulo_97" data-name="Rectángulo 97" width="6.556" height="3.288" fill="#00c6e2"/>
      </g>
      <g id="Grupo_55" data-name="Grupo 55" transform="translate(39.435 91.196)" opacity="0.2">
        <rect id="Rectángulo_98" data-name="Rectángulo 98" width="6.556" height="3.288" fill="#00c6e2"/>
      </g>
      <g id="Grupo_56" data-name="Grupo 56" transform="translate(39.435 97.553)" opacity="0.2">
        <rect id="Rectángulo_99" data-name="Rectángulo 99" width="6.556" height="3.288" fill="#00c6e2"/>
      </g>
      <g id="Grupo_57" data-name="Grupo 57" transform="translate(39.435 103.91)" opacity="0.2">
        <rect id="Rectángulo_100" data-name="Rectángulo 100" width="6.556" height="3.288" fill="#00c6e2"/>
      </g>
      <g id="Grupo_58" data-name="Grupo 58" transform="translate(51.777 107.2)" opacity="0.2">
        <rect id="Rectángulo_101" data-name="Rectángulo 101" width="6.556" height="3.288" fill="#00c6e2"/>
      </g>
      <g id="Grupo_59" data-name="Grupo 59" transform="translate(63.326 107.2)" opacity="0.2">
        <rect id="Rectángulo_102" data-name="Rectángulo 102" width="6.556" height="3.288" fill="#00c6e2"/>
      </g>
      <g id="Grupo_60" data-name="Grupo 60" transform="translate(74.872 107.2)" opacity="0.2">
        <rect id="Rectángulo_103" data-name="Rectángulo 103" width="6.556" height="3.288" fill="#00c6e2"/>
      </g>
      <g id="Grupo_61" data-name="Grupo 61" transform="translate(86.42 107.2)" opacity="0.2">
        <rect id="Rectángulo_104" data-name="Rectángulo 104" width="6.556" height="3.288" fill="#00c6e2"/>
      </g>
      <g id="Grupo_62" data-name="Grupo 62" transform="translate(97.966 107.2)" opacity="0.2">
        <rect id="Rectángulo_105" data-name="Rectángulo 105" width="6.556" height="3.288" fill="#00c6e2"/>
      </g>
      <g id="Grupo_63" data-name="Grupo 63" transform="translate(109.514 107.2)" opacity="0.2">
        <rect id="Rectángulo_106" data-name="Rectángulo 106" width="6.556" height="3.288" fill="#00c6e2"/>
      </g>
      <g id="Grupo_64" data-name="Grupo 64" transform="translate(121.06 107.2)" opacity="0.2">
        <rect id="Rectángulo_107" data-name="Rectángulo 107" width="6.556" height="3.288" fill="#00c6e2"/>
      </g>
      <g id="Grupo_65" data-name="Grupo 65" transform="translate(132.609 107.2)" opacity="0.2">
        <rect id="Rectángulo_108" data-name="Rectángulo 108" width="6.556" height="3.288" fill="#00c6e2"/>
      </g>
      <g id="Grupo_66" data-name="Grupo 66" transform="translate(144.155 107.2)" opacity="0.2">
        <rect id="Rectángulo_109" data-name="Rectángulo 109" width="6.556" height="3.288" fill="#00c6e2"/>
      </g>
      <rect id="Rectángulo_110" data-name="Rectángulo 110" width="6.556" height="20.607" transform="translate(51.777 83.303)" fill="#00c6e2"/>
      <rect id="Rectángulo_111" data-name="Rectángulo 111" width="6.556" height="30.145" transform="translate(63.326 73.768)" fill="#00c6e2"/>
      <rect id="Rectángulo_112" data-name="Rectángulo 112" width="6.556" height="38.147" transform="translate(74.872 65.765)" fill="#00c6e2"/>
      <rect id="Rectángulo_114" data-name="Rectángulo 114" width="6.556" height="45.35" transform="translate(97.966 58.563)" fill="#00c6e2"/>
      <g id="Grupo_67" data-name="Grupo 67" transform="translate(109.514 78.479)" opacity="0.2">
        <rect id="Rectángulo_115" data-name="Rectángulo 115" width="6.556" height="25.431" fill="#00c6e2"/>
      </g>
      <g id="Grupo_68" data-name="Grupo 68" transform="translate(121.06 78.479)" opacity="0.2">
        <rect id="Rectángulo_116" data-name="Rectángulo 116" width="6.556" height="25.431" fill="#00c6e2"/>
      </g>
      <g id="Grupo_69" data-name="Grupo 69" transform="translate(132.609 78.479)" opacity="0.2">
        <rect id="Rectángulo_117" data-name="Rectángulo 117" width="6.556" height="25.431" fill="#00c6e2"/>
      </g>
      <g id="Grupo_70" data-name="Grupo 70" transform="translate(144.155 78.479)" opacity="0.2">
        <rect id="Rectángulo_118" data-name="Rectángulo 118" width="6.556" height="25.431" fill="#00c6e2"/>
      </g>
      <path id="Trazado_506" data-name="Trazado 506" d="M434.087,308.39l-56.137,3.8V313.4l57.333-2.5Z" transform="translate(-290.685 -229.967)" fill="#535461"/>
      <path id="Trazado_507" data-name="Trazado 507" d="M763.983,225.151s2.937-5.32,2.157-13.665-3.6-21.853-3.6-21.853,1.226-7.567-5.424-8.63a22.331,22.331,0,0,1-7.089-2.894,7.186,7.186,0,0,1-2.54-2.8s-.039.125-.115.353q-.1-.172-.18-.353s-.016.046-.042.127l-1.129-1.938s-.155.181-.416.478a13.372,13.372,0,0,1-1.155-2.289,5.614,5.614,0,0,0,.824-.29,1.607,1.607,0,0,0,.672-.473,1.987,1.987,0,0,0,.3-.837,11.179,11.179,0,0,0,.152-2.939,15.933,15.933,0,0,1-.155-2.3c.051-.826.316-1.625.353-2.454a6.644,6.644,0,0,0-1.406-4c-.485-.689-1.03-1.33-1.45-2.067-.365-.641-.63-1.348-1.023-1.971a6.094,6.094,0,0,0-4.043-2.606,13.086,13.086,0,0,0-4.787.173,36.408,36.408,0,0,1-4.157.712c-1.21.076-2.2-.374-3.3.509a3.619,3.619,0,0,0-1.289,2.543,1.478,1.478,0,0,0,.035.509,3.793,3.793,0,0,0,.231.5c.492,1.068-.256,2.337-.159,3.529a2.254,2.254,0,0,0,1.894,2.055c-.044.1-.092.2-.134.305a11.494,11.494,0,0,0,.485,9.583,9.555,9.555,0,0,0,7.336,5.183l.429.364c.97.826,2.06,1.816,3.111,2.891l-.021.018-.171-.107a9.228,9.228,0,0,1-1.007.763,8.866,8.866,0,0,1-4.3,1.6s-3.159,1.844-4.247,7.923a18.022,18.022,0,0,1-9.318,5.047c-6.2,1.017-13.855,1.35-13.855,1.35s-.062.122-.15.346l-.707-.142a1.537,1.537,0,0,1-.03.254l-.277-.137c-2.191-1.055-6.57-2.594-7.124,1.645-.744,5.686,4.18,5.032,4.18,5.032a21.425,21.425,0,0,1,2.986-1l.275-.058a1.753,1.753,0,0,0,.194.417h.67a8.9,8.9,0,0,0,.838,1.5l15.606-.376a14.914,14.914,0,0,1,5.129-.234c-1.074,8.839-2.342,18.532-2.342,18.532s-2.656,15.351-.8,16.955a26.243,26.243,0,0,1,3.293-.971,18.1,18.1,0,0,0,.272,2.825l1.189,8.572s.462,8.757,2.007,13.985l1.362,7.145,1.141,5.4.642,9.167a95.091,95.091,0,0,1,1.907,11.809c.6,6.159,3.875,16.111,4.311,17.421-1.118,1.742-3.413,4.7-6.293,5-4.11.437-4.21,3.166-1.337,4.147s8.918,0,8.918,0l8.526-2.322c-.256,1.732-.39,3.1-.2,3.247.545.437,8.819,2.8,9.117-.982q.035-.468.062-.908a21.036,21.036,0,0,0-.866-7.145c-.067-.226-.127-.455-.18-.684a4.192,4.192,0,0,0,.337-.481s.6-10.2,1.041-13.858c.035-.292.058-.648.069-1.05.206-4.384-1.247-15.915-1.247-15.915s-1.794-7.5-1.727-10.949a3.6,3.6,0,0,1,.132-.844,1.017,1.017,0,0,0-.023-.183.529.529,0,0,1,.035-.145,88.8,88.8,0,0,1-.783-10.949,9.284,9.284,0,0,1,.231-1.805,13.022,13.022,0,0,0,.219-2.357c.115-2.8-.018-7.628-.2-12.16.021-.076.042-.153.058-.242a2.588,2.588,0,0,0-.113-1.068c-.014-.292-.025-.582-.039-.87.076-.287.139-.592.194-.908h.12v.018s7.764-.409,9.549-2.7c0,0-1.8-6.171-2.8-11.188Zm-33.456-19.2-.122-.048c.2-.763.43-1.65.693-2.581C730.874,204.333,730.68,205.248,730.528,205.955Zm7.879-25.3.035.036-.037-.023Zm9.7,132.358c-.418-1.584-2.078-8.043-2.025-11.122a3.427,3.427,0,0,1,.127-.788,6.442,6.442,0,0,0,.231-1.721,50.183,50.183,0,0,0-.951-8.974s-2.5-7.768-2.309-13.937c0-.155.016-.31.025-.465.042-.585.074-1.218.1-1.887v-.013c.095-2.383.074-5.251.012-7.926l-.014-.1c-.086-3.542-.245-6.731-.312-7.992.231,1.823,1.709,13.172,2.346,15.028a41.494,41.494,0,0,0,1.933,9.663L749,294.29s.446,13.7,1.187,17.568c.333,1.724.614,2.886.824,3.644-.3,1.543-.785,4.129-1.111,6.271-.192-1.4-.866-6.716-1.794-8.757Z" transform="translate(-554.118 -121.615)" fill="url(#linear-gradient)"/>
      <path id="Trazado_508" data-name="Trazado 508" d="M851.728,782.365s-2.9,5.785-6.974,6.217-4.173,3.135-1.326,4.109,8.84,0,8.84,0l8.544-2.324s-1.032-9.3-2.406-9.787S851.728,782.365,851.728,782.365Z" transform="translate(-665.165 -590.611)" fill="#4c4c78"/>
      <path id="Trazado_509" data-name="Trazado 509" d="M925.323,786.248s-2.161,10.705-1.617,11.14,8.74,2.756,9.036-.974q.035-.47.062-.9a20.89,20.89,0,0,0-.859-7.082,6.187,6.187,0,0,1-.332-2.184C931.749,784.735,925.323,786.248,925.323,786.248Z" transform="translate(-728.345 -594.387)" fill="#4c4c78"/>
      <path id="Trazado_510" data-name="Trazado 510" d="M864.931,217.1s-6.63,17.932-5.45,12.172c.78-3.814-4.265-8.882-7.754-11.86-1.776-1.526-3.147-2.494-3.147-2.494s12.447-15.979,11.565-9.085a11.342,11.342,0,0,0,.679,5.564A14.316,14.316,0,0,0,864.931,217.1Z" transform="translate(-670.635 -160.778)" fill="#ffb9b9"/>
      <path id="Trazado_511" data-name="Trazado 511" d="M707.046,335.812a3.461,3.461,0,0,0-1.517.1,21.268,21.268,0,0,0-2.958.989s-4.879.648-4.143-4.987c.547-4.2,4.886-2.675,7.059-1.632.739.359,1.229.659,1.229.659Z" transform="translate(-555.097 -254.012)" fill="#ffb9b9"/>
      <path id="Trazado_512" data-name="Trazado 512" d="M730.051,339.186a3.461,3.461,0,0,0-1.517.1c-.531-1.475-.127-4.971-.042-5.63.739.359,1.228.659,1.228.659Z" transform="translate(-578.102 -257.385)" opacity="0.1"/>
      <path id="Trazado_513" data-name="Trazado 513" d="M731.041,333.484l-1.277-.254s-.654,4.831.2,6.1h1.469Z" transform="translate(-579.072 -257.065)" fill="#cbcdda"/>
      <path id="Trazado_514" data-name="Trazado 514" d="M820.59,366.066s-3.9-2.571-4.369.674-1.081,8.788-1.081,8.788l-1.081,7.056-1.4,14.138.2,2.406s4.157-1.541,5.131-1,1.769-5.948,1.769-5.948l1.616-6.705.245-14.219Z" transform="translate(-643.009 -280.83)" fill="#4c4c78"/>
      <path id="Trazado_515" data-name="Trazado 515" d="M820.59,366.066s-3.9-2.571-4.369.674-1.081,8.788-1.081,8.788l-1.081,7.056-1.4,14.138.2,2.406s4.157-1.541,5.131-1,1.769-5.948,1.769-5.948l1.616-6.705.245-14.219Z" transform="translate(-643.009 -280.83)" opacity="0.1"/>
      <path id="Trazado_516" data-name="Trazado 516" d="M756.016,303.4s-4.05,5.03-10.2,6.042a137.225,137.225,0,0,1-13.737,1.34,7.952,7.952,0,0,0,.848,7.786l15.472-.376a13.617,13.617,0,0,1,6.078,0Z" transform="translate(-580.539 -234.82)" fill="#4c4c78"/>
      <path id="Trazado_517" data-name="Trazado 517" d="M756.016,303.4s-4.05,5.03-10.2,6.042a137.225,137.225,0,0,1-13.737,1.34,7.952,7.952,0,0,0,.848,7.786l15.472-.376a13.617,13.617,0,0,1,6.078,0Z" transform="translate(-580.539 -234.82)" opacity="0.05"/>
      <path id="Trazado_518" data-name="Trazado 518" d="M692.29,384.58" transform="translate(-550.435 -295.357)" fill="none" stroke="blue" stroke-miterlimit="10" stroke-width="1"/>
      <path id="Trazado_519" data-name="Trazado 519" d="M860.168,211.246c-1.51,3.56-4.136,6.184-7.944,6.184-.169,0-.333,0-.5-.013-1.776-1.526-3.147-2.494-3.147-2.494s12.447-15.979,11.564-9.085C859.872,207.948,859.56,209.662,860.168,211.246Z" transform="translate(-670.635 -160.778)" opacity="0.1"/>
      <path id="Trazado_520" data-name="Trazado 520" d="M842.237,183.456c0,5.77-4.254,10.444-9.494,10.441s-9.485-4.683-9.483-10.453S827.511,173,832.751,173a9.047,9.047,0,0,1,6.716,3.057A10.987,10.987,0,0,1,842.237,183.456Z" transform="translate(-651.162 -137.578)" fill="#ffb9b9"/>
      <path id="Trazado_521" data-name="Trazado 521" d="M857.052,308.612s-21.161,2.057-21.937-.918,2.159-11.031,2.159-11.031l-.956-11.247-.035-.43s2.651-12.167,2.554-13.139c-.092-.875,4.267-11.084,5.163-13.172.106-.242.162-.374.162-.374l.169.107.074.048,1.037.666,4.094-1.068,4.935-2.845.462,31.127Z" transform="translate(-660.179 -198.884)" fill="#cbcdda"/>
      <path id="Trazado_522" data-name="Trazado 522" d="M865.746,268.693a1.637,1.637,0,0,0-2.014,1.162,17.408,17.408,0,0,1-.785,2l-.563,3.7-1.032,5.848-.762,25.873.344,4.595,1.891-3.7.344-24.185V280.98a23.633,23.633,0,0,1,1.575-7.552l.263-.679,1.644-2.327Z" transform="translate(-679.871 -208.898)" opacity="0.1"/>
      <path id="Trazado_523" data-name="Trazado 523" d="M864.477,267.413a1.636,1.636,0,0,0-2.014,1.162,17.332,17.332,0,0,1-.787,2l-.563,3.7-1.032,5.848L859.32,306l.344,4.6,1.891-3.715.344-24.169V279.7a23.757,23.757,0,0,1,1.575-7.552l.266-.679,1.644-2.324Z" transform="translate(-678.895 -207.944)" fill="#4c4c78"/>
      <path id="Trazado_524" data-name="Trazado 524" d="M885.867,241.31s-5.009,5.848-6.778,6.543c0,0,.884,4.435,1.769,5.3,0,0,5.256-5.9,6.186-6.38l.781-2.1Z" transform="translate(-694.099 -188.518)" opacity="0.1"/>
      <path id="Trazado_525" data-name="Trazado 525" d="M885.867,240s-5.009,5.848-6.778,6.543c0,0,.884,4.435,1.769,5.3,0,0,5.256-5.9,6.186-6.38l.781-2.1Z" transform="translate(-694.099 -187.541)" fill="#cbcdda"/>
      <path id="Trazado_526" data-name="Trazado 526" d="M848.782,267.37l-.051.153-1.6,4.737-2.87,8.938s-.025.092-.076.254c-.476,1.627-3.032,10.459-3.535,13.024l-.035-.43s2.651-12.167,2.554-13.139c-.092-.875,4.267-11.084,5.163-13.172.143-.107.254-.2.33-.267Z" transform="translate(-664.505 -207.951)" opacity="0.1"/>
      <path id="Trazado_527" data-name="Trazado 527" d="M825.437,267.36l-1.658,4.892-2.87,8.938s-.025.092-.076.254c-.5,1.734-3.374,11.633-3.6,13.444-.261,1.988-3.87,12.737-3.87,12.737L811.3,326.236c-1.847-1.579.776-16.783.776-16.783s2.947-22.547,3.644-30.048,4.459-9.693,4.459-9.693a8.854,8.854,0,0,0,4.265-1.589A9.041,9.041,0,0,0,825.437,267.36Z" transform="translate(-641.453 -207.944)" fill="#4c4c78"/>
      <path id="Trazado_528" data-name="Trazado 528" d="M859.271,521.768c-.441,3.623-1.03,13.731-1.03,13.731-2.062,3.4-6.63,1.566-6.63,1.566a24.512,24.512,0,0,1-1.226-4.867c-.737-3.85-1.178-17.411-1.178-17.411l-1.72-11.392a40.988,40.988,0,0,1-1.914-9.571c-.693-2-2.358-15.14-2.358-15.14s.693,11.786.247,18.006,2.256,14.588,2.256,14.588,1.524,7.842.737,10.275,1.965,12.488,1.965,12.488c-.231,2.922-8.05,1.732-8.05,1.732s-3.679-10.87-4.323-17.413a94.4,94.4,0,0,0-1.891-11.7l-.637-9.085-1.132-5.37-1.349-7.082c-1.524-5.19-1.988-13.868-1.988-13.868l-1.18-8.516c-.771-4.211.231-9.154.9-11.74.289-1.121.519-1.805.519-1.805.677.529,4.552,1.149,6.556,1.653a10.468,10.468,0,0,0,3.348.3,68.493,68.493,0,0,0,14.961-3.021c.33-.109.506-.173.506-.173l.1.974.245,2.319.436,4.117s1.326,21.952.54,24.92.54,12.968.54,12.968c-.737,2.372,1.57,12.015,1.57,12.015S859.714,518.144,859.271,521.768Z" transform="translate(-654.493 -342.613)" opacity="0.1"/>
      <path id="Trazado_529" data-name="Trazado 529" d="M859.271,520.555c-.441,3.623-1.03,13.731-1.03,13.731-2.062,3.407-6.63,1.566-6.63,1.566a24.507,24.507,0,0,1-1.226-4.865c-.737-3.847-1.178-17.413-1.178-17.413l-1.72-11.407a41.734,41.734,0,0,1-1.914-9.584c-.693-2-2.358-15.14-2.358-15.14s.693,11.786.247,18.006,2.256,14.6,2.256,14.6,1.524,7.842.737,10.275,1.965,12.49,1.965,12.49c-.231,2.919-8.05,1.729-8.05,1.729s-3.679-10.858-4.323-17.4a94.4,94.4,0,0,0-1.891-11.7l-.637-9.083-1.132-5.353-1.349-7.082c-1.524-5.192-1.988-13.871-1.988-13.871l-1.18-8.516c-.771-4.211.231-9.154.9-11.74.289-1.119.519-1.8.519-1.8.677.529,4.552,1.147,6.556,1.65a10.4,10.4,0,0,0,3.348.295,68.491,68.491,0,0,0,14.961-3.021l.506-.17.1.971.245,2.322.436,4.117s1.326,21.95.54,24.92.54,12.968.54,12.968c-.737,2.37,1.57,12.012,1.57,12.012S859.714,516.927,859.271,520.555Z" transform="translate(-654.493 -341.719)" fill="#474463"/>
      <path id="Trazado_530" data-name="Trazado 530" d="M844.983,183.485a11.25,11.25,0,0,1-1.256,5.208,4.63,4.63,0,0,1-4.157-1.106,22.236,22.236,0,0,1-1.9-2.591,15.031,15.031,0,0,0-1.356-1.472,4.349,4.349,0,0,0-1.069-.857,1.334,1.334,0,0,0-1.282-.015c-.522.32-.693,1.035-1,1.6a2.017,2.017,0,0,1-1.088,1.045,1.1,1.1,0,0,1-1.3-.486c-.321-.608-.085-1.556-.624-1.927a3.264,3.264,0,0,0-.439-.2c-.693-.346-.774-1.371-.834-2.21a1.445,1.445,0,0,0-.425-1.1c-.314-.221-.727-.109-1.1-.1a1.3,1.3,0,0,1-.33-.028c1.818-4.511,6.254-7.007,10.638-5.985s7.522,5.283,7.523,10.219Z" transform="translate(-653.907 -137.607)" opacity="0.1"/>
      <path id="Trazado_531" data-name="Trazado 531" d="M820.031,156.133a3.588,3.588,0,0,0-1.277,2.528,1.429,1.429,0,0,0,.035.5,3.481,3.481,0,0,0,.231.493c.485,1.06-.256,2.316-.162,3.5a2.2,2.2,0,0,0,2.078,2.034c.374,0,.785-.122,1.1.1a1.441,1.441,0,0,1,.425,1.1c.06.839.136,1.864.831,2.21a3.682,3.682,0,0,1,.439.2c.54.371.3,1.322.626,1.927a1.1,1.1,0,0,0,1.3.486,2.01,2.01,0,0,0,1.085-1.043c.3-.572.476-1.271,1-1.6a1.327,1.327,0,0,1,1.281.013,4.36,4.36,0,0,1,1.069.859,14.761,14.761,0,0,1,1.356,1.472,22.433,22.433,0,0,0,1.9,2.589,4.861,4.861,0,0,0,5.371.73,1.62,1.62,0,0,0,.667-.468,1.977,1.977,0,0,0,.3-.831,11.085,11.085,0,0,0,.152-2.912,15.871,15.871,0,0,1-.155-2.289c.048-.819.314-1.61.351-2.428a6.631,6.631,0,0,0-1.385-3.972c-.48-.684-1.021-1.317-1.436-2.049-.363-.636-.626-1.335-1.014-1.95a6.024,6.024,0,0,0-4.009-2.586,12.958,12.958,0,0,0-4.743.173,35.253,35.253,0,0,1-4.129.7C822.107,155.706,821.13,155.255,820.031,156.133Z" transform="translate(-647.69 -123.843)" fill="#472727"/>
      <path id="Trazado_532" data-name="Trazado 532" d="M859.394,267.36l-1.658,4.892-2.87,8.938s-.025.092-.076.254v.013l3.612-13.34A9.042,9.042,0,0,0,859.394,267.36Z" transform="translate(-675.411 -207.944)" opacity="0.1"/>
      <path id="Trazado_533" data-name="Trazado 533" d="M935.261,480.727s.171,5.92-1.277,7.407l-3.854-8,3.233-1.732Z" transform="translate(-733.353 -365.321)" fill="#ffb9b9"/>
      <path id="Trazado_534" data-name="Trazado 534" d="M906.569,310.411c-1.769,2.271-9.468,2.678-9.468,2.678l-7.62-13.223s-1.8-1.378-5.191-7.585a24.89,24.89,0,0,1-3.087-14.558c.189-3.57,2.309-13.83,2.309-13.83.33-2.309,5.08-16.783,5.08-16.783a7.137,7.137,0,0,0,2.512,2.767,22.02,22.02,0,0,0,7.027,2.868c6.6,1.055,5.378,8.557,5.378,8.557s.074,29.158-.333,32.647S906.569,310.411,906.569,310.411Z" transform="translate(-695.665 -192.843)" opacity="0.1"/>
      <path id="Trazado_535" data-name="Trazado 535" d="M858.651,448.141l-.222,2.164-2.676-1.081-1.963-3.273,1.473-1.271Z" transform="translate(-656.644 -331.601)" fill="#cbcdda"/>
      <path id="Trazado_536" data-name="Trazado 536" d="M860.319,450.355l-1.4.158L845.427,452a19.886,19.886,0,0,1-6.489-.351l-6.258-1.378c.289-1.119.52-1.8.52-1.8.677.529,4.552,1.147,6.556,1.65a10.4,10.4,0,0,0,3.348.295,68.5,68.5,0,0,0,14.961-3.021l.61.8Z" transform="translate(-658.406 -342.196)" opacity="0.1"/>
      <g id="Grupo_71" data-name="Grupo 71" transform="translate(174.791 105.029)" opacity="0.1">
        <path id="Trazado_537" data-name="Trazado 537" d="M835.063,451.7a1.207,1.207,0,0,1-.129-.081.082.082,0,0,1-.014.038Z" transform="translate(-834.92 -450.379)"/>
        <path id="Trazado_538" data-name="Trazado 538" d="M938.05,504.05s-2.309-9.642-1.57-12.012c0,0-1.325-9.993-.538-12.968s-.543-24.92-.543-24.92l-.437-4.117-.245-2.322-.1-.971-.508.17-.314.1.039.376.245,2.319.436,4.117s1.325,21.952.543,24.92.538,12.968.538,12.968c-.737,2.372,1.57,12.012,1.57,12.012s1.616,12.872,1.18,16.493-1.032,13.731-1.032,13.731c-1.505,2.489-4.348,2.179-5.773,1.831l.025.061s4.568,1.841,6.63-1.566c0,0,.589-10.113,1.032-13.731S938.05,504.05,938.05,504.05Z" transform="translate(-909.228 -446.74)"/>
        <path id="Trazado_539" data-name="Trazado 539" d="M888.8,609.492c.785-2.434-.737-10.275-.737-10.275s-2.7-8.391-2.258-14.6c.185-2.591.173-6.146.095-9.408-.626-4.208-1.226-8.9-1.226-8.9s.693,11.786.25,18,2.256,14.6,2.256,14.6,1.524,7.84.737,10.273,1.961,12.477,1.961,12.477c-.2,2.339-5.242,2.034-7.244,1.831l.076.224s7.807,1.19,8.052-1.729C890.763,621.982,888.013,611.926,888.8,609.492Z" transform="translate(-871.613 -535.906)"/>
      </g>
      <path id="Trazado_540" data-name="Trazado 540" d="M907.834,310.411c-1.767,2.271-9.468,2.678-9.468,2.678l-7.62-13.223s-1.8-1.378-5.193-7.585a24.891,24.891,0,0,1-3.087-14.558c.187-3.57,2.309-13.83,2.309-13.83.33-2.309,5.08-16.783,5.08-16.783a7.1,7.1,0,0,0,2.512,2.767,22.021,22.021,0,0,0,7.027,2.868c6.593,1.055,5.376,8.557,5.376,8.557s.074,29.158-.332,32.647S907.834,310.411,907.834,310.411Z" transform="translate(-696.636 -192.843)" fill="#4c4c78"/>
      <path id="Trazado_541" data-name="Trazado 541" d="M891.528,254.263l-1.658.679,1.1.852-8.244,21.9c.192-3.56,2.309-13.83,2.309-13.83.33-2.309,5.08-16.783,5.08-16.783a7.1,7.1,0,0,0,2.512,2.767Z" transform="translate(-696.899 -192.821)" opacity="0.1"/>
      <path id="Trazado_542" data-name="Trazado 542" d="M851.5,388.013l8.433-2.393,1.106,3.771-8.618,2.314Z" transform="translate(-654.882 -287.558)" opacity="0.1"/>
      <path id="Trazado_543" data-name="Trazado 543" d="M934.133,279.809s-3.831,3.969-2.385,12.816,3.757,18.451,3.757,18.451L929.27,330.1s4.346,4.989,6.482,5.594l6.223-15.209s2.909-5.271,2.136-13.543-3.572-21.657-3.572-21.657S940.541,277.134,934.133,279.809Z" transform="translate(-732.692 -216.825)" opacity="0.1"/>
      <path id="Trazado_544" data-name="Trazado 544" d="M935.372,279.809s-3.833,3.969-2.392,12.816,3.755,18.451,3.755,18.451L930.5,330.1s4.346,4.989,6.482,5.594l6.235-15.209s2.91-5.271,2.136-13.543-3.572-21.657-3.572-21.657S941.78,277.134,935.372,279.809Z" transform="translate(-733.638 -216.825)" fill="#4c4c78"/>
      <path id="Trazado_545" data-name="Trazado 545" d="M928.293,480.645s4.861,7.41,4.494,9.383-1.792.918-1.792.918l-1.914-2.891-1.72-5.409S927.529,480.311,928.293,480.645Z" transform="translate(-731.223 -366.97)" opacity="0.1"/>
      <path id="Trazado_546" data-name="Trazado 546" d="M925.743,480.645s4.849,7.41,4.494,9.383-1.792.918-1.792.918l-1.917-2.891-1.718-5.409S924.979,480.311,925.743,480.645Z" transform="translate(-729.262 -366.97)" opacity="0.1"/>
      <path id="Trazado_547" data-name="Trazado 547" d="M927.023,480.645s4.849,7.41,4.491,9.383-1.792.918-1.792.918l-1.914-2.891-1.718-5.409S926.256,480.311,927.023,480.645Z" transform="translate(-730.246 -366.97)" fill="#474463"/>
      <rect id="Rectángulo_231" data-name="Rectángulo 231" width="6.556" height="41.216" transform="translate(86.224 62.696)" fill="#00c6e2"/>
    </g>
  </g>
</svg>
