<svg xmlns="http://www.w3.org/2000/svg" width="1114.194" height="699" viewBox="0 0 1114.194 699">
  <g id="Grupo_260" data-name="Grupo 260" transform="translate(351.585 3085)">
    <g id="Grupo_259" data-name="Grupo 259" transform="translate(-962 146)">
      <g id="undraw_server_down_s4lk" transform="translate(6816 -1818)">
        <ellipse id="Elipse_152" data-name="Elipse 152" cx="444.5" cy="343" rx="444.5" ry="343" transform="translate(-6131.391 -1413)" fill="#9bc0c9"/>
        <path id="Trazado_421" data-name="Trazado 421" d="M31.391,151.642c0,77.5,48.618,140.208,108.7,140.208" transform="translate(-6231.391 -1264.5)" fill="#2f2e41"/>
        <path id="Trazado_424" data-name="Trazado 424" d="M243.682,169.873c0-82.649-209.971-47.85-133.419-47.85" transform="translate(-6077.924 -1259.855) rotate(70)" fill="#2f2e41"/>
        <path id="Trazado_425" data-name="Trazado 425" d="M117.224,292.839s15.416-.475,20.061-3.783S161,281.8,162.151,287.1s23.167,26.388,5.763,26.529-40.439-2.711-45.076-5.535S117.224,292.839,117.224,292.839Z" transform="translate(-6242.391 -1513.5)" fill="#a8a8a8"/>
        <path id="Trazado_426" data-name="Trazado 426" d="M168.224,311.785c-17.4.14-40.439-2.711-45.076-5.535-3.531-2.151-4.938-9.869-5.409-13.43-.326.014-.515.02-.515.02s.976,12.433,5.613,15.257,27.672,5.676,45.076,5.535c5.024-.041,6.759-1.828,6.664-4.475C173.879,310.756,171.963,311.755,168.224,311.785Z" transform="translate(-6242.391 -1513.5)" opacity="0.2"/>
        <ellipse id="Elipse_153" data-name="Elipse 153" cx="187" cy="25.44" rx="187" ry="25.44" transform="translate(-6199.391 -1013.94)" fill="#3f3d56"/>
        <ellipse id="Elipse_154" data-name="Elipse 154" cx="157" cy="21.359" rx="157" ry="21.359" transform="translate(-6169.391 -1009.859)" opacity="0.1"/>
        <ellipse id="Elipse_155" data-name="Elipse 155" cx="283" cy="38.5" rx="283" ry="38.5" transform="translate(-5657.391 -791)" fill="#3f3d56"/>
        <ellipse id="Elipse_156" data-name="Elipse 156" cx="170" cy="23.127" rx="170" ry="23.127" transform="translate(-6070.391 -790.627)" fill="#3f3d56"/>
        <path id="Trazado_427" data-name="Trazado 427" d="M494,726.5c90,23,263-30,282-90" transform="translate(-6242.391 -1513.5)" fill="none" stroke="#2f2e41" stroke-miterlimit="10" stroke-width="2"/>
        <path id="Trazado_428" data-name="Trazado 428" d="M341,359.5s130-36,138,80-107,149-17,172" transform="translate(-6242.391 -1513.5)" fill="none" stroke="#2f2e41" stroke-miterlimit="10" stroke-width="2"/>
        <path id="Trazado_429" data-name="Trazado 429" d="M215.4,637.783s39.072-10.82,41.477,24.044-32.16,44.783-5.109,51.7" transform="translate(-6242.391 -1513.5)" fill="none" stroke="#2f2e41" stroke-miterlimit="10" stroke-width="2"/>
        <path id="Trazado_430" data-name="Trazado 430" d="M810.1,663.74l-7.878,50.3s-38.782,20.6-11.513,21.209,155.733,0,155.733,0,24.845,0-14.543-21.815l-7.878-52.719Z" transform="translate(-6242.391 -1513.5)" fill="#2f2e41"/>
        <path id="Trazado_431" data-name="Trazado 431" d="M785.219,734.7c6.193-5.51,17-11.252,17-11.252l7.878-50.3,113.922.107,7.878,49.582c9.185,5.087,14.875,8.987,18.2,11.978,5.059-1.154,10.587-5.444-18.2-21.389l-7.878-52.719L810.1,663.74l-7.877,50.3S769.63,731.35,785.219,734.7Z" transform="translate(-6242.391 -1513.5)" opacity="0.1"/>
        <rect id="Rectángulo_64" data-name="Rectángulo 64" width="513.253" height="357.52" rx="18.046" transform="translate(-5632.567 -1200.311)" fill="#2f2e41"/>
        <rect id="Rectángulo_65" data-name="Rectángulo 65" width="478.713" height="267.837" transform="translate(-5615.297 -1181.224)" fill="#3f3d56"/>
        <circle id="Elipse_157" data-name="Elipse 157" cx="3.03" cy="3.03" r="3.03" transform="translate(-5378.97 -1192.737)" fill="#f2f2f2"/>
        <path id="Trazado_432" data-name="Trazado 432" d="M1123.077,621.322v31.341a18.044,18.044,0,0,1-18.048,18.046H627.87a18.044,18.044,0,0,1-18.046-18.048V621.322Z" transform="translate(-6242.391 -1513.5)" fill="#2f2e41"/>
        <path id="Trazado_433" data-name="Trazado 433" d="M968.978,667.466v6.06H642.968v-4.848l.449-1.212,8.035-21.815h310.86Z" transform="translate(-6211 -1413)" fill="#2f2e41"/>
        <path id="Trazado_434" data-name="Trazado 434" d="M1125.828,762.034c-.594,2.539-2.836,5.217-7.9,7.75-18.179,9.089-55.143-2.424-55.143-2.424s-28.48-4.848-28.48-17.573a22.727,22.727,0,0,1,2.5-1.485c7.643-4.044,32.984-14.021,77.918.422a18.741,18.741,0,0,1,8.541,5.6C1125.079,756.454,1126.507,759.157,1125.828,762.034Z" transform="translate(-6242.391 -1513.5)" fill="#2f2e41"/>
        <path id="Trazado_435" data-name="Trazado 435" d="M1125.828,762.034c-22.251,8.526-42.084,9.162-62.439-4.975-10.265-7.126-19.591-8.89-26.59-8.756,7.643-4.044,32.984-14.021,77.918.422a18.74,18.74,0,0,1,8.541,5.6C1125.079,756.454,1126.507,759.157,1125.828,762.034Z" transform="translate(-6242.391 -1513.5)" opacity="0.1"/>
        <ellipse id="Elipse_158" data-name="Elipse 158" cx="7.878" cy="2.424" rx="7.878" ry="2.424" transform="translate(-5152.339 -761.289)" fill="#f2f2f2"/>
        <circle id="Elipse_159" data-name="Elipse 159" cx="11.513" cy="11.513" r="11.513" transform="translate(-5387.454 -878.846)" fill="#f2f2f2"/>
        <path id="Trazado_436" data-name="Trazado 436" d="M968.978,667.466v6.06H642.968v-4.848l.449-1.212Z" transform="translate(-6211 -1413)" opacity="0.1"/>
        <rect id="Rectángulo_66" data-name="Rectángulo 66" width="208" height="242" transform="translate(-6102.391 -1254)" fill="#2f2e41"/>
        <rect id="Rectángulo_67" data-name="Rectángulo 67" width="250" height="86" transform="translate(-6123.391 -1278)" fill="#3f3d56"/>
        <rect id="Rectángulo_68" data-name="Rectángulo 68" width="250" height="86" transform="translate(-6123.391 -1176)" fill="#3f3d56"/>
        <rect id="Rectángulo_69" data-name="Rectángulo 69" width="250" height="86" transform="translate(-6123.391 -1074)" fill="#3f3d56"/>
        <rect id="Rectángulo_76" data-name="Rectángulo 76" width="16" height="16" transform="translate(-5939.391 -1061)" fill="#00aec9" opacity="0.4"/>
        <path id="Trazado_1021" data-name="Trazado 1021" d="M0,0H16V16H0Z" transform="translate(-5916.391 -1061)" fill="#00c0de" opacity="0.8"/>
        <rect id="Rectángulo_78" data-name="Rectángulo 78" width="16" height="16" transform="translate(-5893.391 -1061)" fill="#009894"/>
        <circle id="Elipse_160" data-name="Elipse 160" cx="79" cy="79" r="79" transform="translate(-5973.391 -954)" fill="#2f2e41"/>
        <rect id="Rectángulo_79" data-name="Rectángulo 79" width="24" height="43" transform="translate(-5930.391 -813)" fill="#2f2e41"/>
        <rect id="Rectángulo_80" data-name="Rectángulo 80" width="24" height="43" transform="translate(-5882.391 -813)" fill="#2f2e41"/>
        <ellipse id="Elipse_161" data-name="Elipse 161" cx="20" cy="7.5" rx="20" ry="7.5" transform="translate(-5930.391 -777)" fill="#2f2e41"/>
        <ellipse id="Elipse_162" data-name="Elipse 162" cx="20" cy="7.5" rx="20" ry="7.5" transform="translate(-5882.391 -778)" fill="#2f2e41"/>
        <circle id="Elipse_163" data-name="Elipse 163" cx="27" cy="27" r="27" transform="translate(-5919.391 -922)" fill="#fff"/>
        <circle id="Elipse_164" data-name="Elipse 164" cx="9" cy="9" r="9" transform="translate(-5901.391 -904)" fill="#3f3d56"/>
        <path id="Trazado_437" data-name="Trazado 437" d="M271.4,536.265c-6.554-16.122,14.4-32.413,46.794-36.387s63.974,5.875,70.528,22-14.917,22.069-47.315,26.042S277.953,552.387,271.4,536.265Z" transform="translate(-6232.291 -1479.35)" fill="#00c3e0"/>
        <ellipse id="Elipse_165" data-name="Elipse 165" cx="39.5" cy="12.4" rx="39.5" ry="12.4" transform="translate(-5866.37 -898.016) rotate(-23.171)" fill="#2f2e41"/>
        <ellipse id="Elipse_166" data-name="Elipse 166" cx="39.5" cy="12.4" rx="39.5" ry="12.4" transform="translate(-6014.369 -845.016) rotate(-23.171)" fill="#2f2e41"/>
        <path id="Trazado_438" data-name="Trazado 438" d="M394,661.5c0,7.732-19.909,23-42,23s-43-14.268-43-22,20.909-6,43-6S394,653.768,394,661.5Z" transform="translate(-6242.391 -1513.5)" fill="#fff"/>
        <rect id="Rectángulo_963" data-name="Rectángulo 963" width="16" height="16" transform="translate(-5941.391 -1261)" fill="#00aec9" opacity="0.4"/>
        <path id="Trazado_1022" data-name="Trazado 1022" d="M0,0H16V16H0Z" transform="translate(-5918.391 -1261)" fill="#00c0de" opacity="0.8"/>
        <rect id="Rectángulo_964" data-name="Rectángulo 964" width="16" height="16" transform="translate(-5895.391 -1261)" fill="#009894"/>
        <rect id="Rectángulo_965" data-name="Rectángulo 965" width="16" height="16" transform="translate(-5939.391 -1159)" fill="#00aec9" opacity="0.4"/>
        <path id="Trazado_1023" data-name="Trazado 1023" d="M0,0H16V16H0Z" transform="translate(-5916.391 -1159)" fill="#00c0de" opacity="0.8"/>
        <rect id="Rectángulo_966" data-name="Rectángulo 966" width="16" height="16" transform="translate(-5893.391 -1159)" fill="#009894"/>
      </g>
    </g>
  </g>
</svg>
