<?xml version="1.0" encoding="UTF-8"?>
<svg width="235px" height="321px" viewBox="0 0 235 321" version="1.1" xmlns="http://www.w3.org/2000/svg" xmlns:xlink="http://www.w3.org/1999/xlink">
    <defs>
        <polygon id="path-1" points="223.524232 0.0351602972 223.524232 74.1958284 0.0303925429 74.1958284 0.0303925429 0.0351602972 223.524232 0.0351602972"></polygon>
        <polygon id="path-3" points="0.167412908 0.0738993711 80.1682681 0.0738993711 80.1682681 187.067538 0.167412908 187.067538 0.167412908 0.0738993711"></polygon>
    </defs>
    <g id="Servicio-Soporte" stroke="none" stroke-width="1" fill="none" fill-rule="evenodd" transform="translate(-268.000000, -500.000000)">
        <g id="arranque" transform="translate(268.000000, 500.000000)">
            <g id="Page-1">
                <path d="M217.949278,268.383157 C230.040477,264.227384 238.888236,280.182583 224.73256,285.45151 L156.457357,311.20246 C149.673339,314.170869 142.006019,314.838761 134.854081,312.909295 L66.2102216,294.653578 C61.5644111,293.392005 56.6988813,293.540425 52.0538082,294.950419 L29.7132182,301.926181 C25.7317269,303.187755 21.5290417,301.184079 19.9062153,297.325147 L13.6390531,282.483101 C12.0177014,278.624169 13.5660591,274.097345 17.3256191,272.167879 L64.219476,247.381662 C78.3021581,239.960639 95.4808184,242.112735 107.352298,252.724798 L114.872893,259.552139 C119.296772,263.559492 124.60469,266.379481 130.35647,267.937895 L151.885278,273.503663" id="Fill-1" fill="#FFFFFF"></path>
                <g id="Group-5" transform="translate(11.000000, 241.000000)">
                    <mask id="mask-2" fill="white">
                        <use xlink:href="#path-1"></use>
                    </mask>
                    <g id="Clip-4"></g>
                    <path d="M132.481095,74.1958284 C129.508102,74.1958284 126.547688,73.8162588 123.679023,73.0504864 L54.8,54.9218013 C50.5587865,53.7816185 45.9971883,53.8789062 41.599852,55.1989239 L19.1951165,62.1225678 C14.3123936,63.6519015 9.11076582,61.242556 7.10114687,56.5115713 L0.813318535,41.7732164 C-1.20295967,37.0252801 0.801479837,31.4894605 5.37491676,29.1656103 L52.4145024,4.56065743 C67.1226045,-3.11254422 85.3578986,-0.877137382 97.7877913,10.1200619 L105.34606,16.9095666 C109.520681,20.6529334 114.493674,23.3172907 120.126674,24.8281987 L141.71084,30.3500147 C142.700111,30.6035525 143.295745,31.607385 143.041953,32.5935289 C142.788161,33.5796728 141.780392,34.1692954 140.789641,33.9201798 L119.184758,28.3924676 C113.051572,26.7466834 107.417092,23.7248673 102.868812,19.6476268 L95.3201628,12.8662294 C84.0445431,2.88981427 67.4881243,0.859301297 54.1318535,7.82348172 L7.07524972,32.4387529 C4.20288568,33.898069 2.95686275,37.361365 4.21916389,40.3352742 L10.5069922,55.0728921 C11.7700333,58.0460643 15.0278949,59.5665537 18.0904181,58.6054687 L40.5173511,51.6744546 C45.590973,50.1510171 50.8554939,50.044885 55.754495,51.3612176 L124.631299,69.4891657 C131.323122,71.2757223 138.589863,70.7059994 145.100407,67.8853921 C145.130004,67.8735996 145.158861,67.8610702 145.189197,67.8507518 L213.70566,42.2751327 C219.488864,40.1451209 220.454458,36.3265772 219.43189,33.4624853 C218.100777,29.7331221 213.517721,26.9663178 208.145172,28.7926739 C207.176619,29.1199145 206.127414,28.6076798 205.79667,27.6443838 C205.466667,26.6810879 205.98313,25.6337706 206.950203,25.305056 C214.479615,22.7446197 220.98498,26.8130159 222.918387,32.2286999 C225.223973,38.68949 220.600962,43.664431 214.996818,45.7288473 L146.53067,71.2845666 C142.054162,73.2163178 137.25431,74.1950914 132.481095,74.1958284" id="Fill-3" fill="#0F05A4" mask="url(#mask-2)"></path>
                </g>
                <path d="M96.1554623,179 C96.1300802,179 96.104698,178.999281 96.0777776,178.997844 C95.4424546,178.958319 94.9609629,178.445935 95.0024974,177.850909 L95.6939687,168.006378 C95.7362723,167.412789 96.2723741,166.968674 96.9215418,167.001731 C97.5568647,167.040538 98.0383564,167.55364 97.9975912,168.147948 L97.3053507,177.993198 C97.2645854,178.563072 96.7577115,179 96.1554623,179" id="Fill-6" fill="#00EEEE"></path>
                <path d="M96.9097167,164 C96.8927507,164 96.8751787,163.999277 96.8576068,163.998554 C96.356504,163.964576 95.9735572,163.452014 96.0014299,162.854869 L96.1832085,159.022582 C96.212293,158.425437 96.6309896,157.975047 97.1423932,158.001073 C97.643496,158.035051 98.0264428,158.547613 97.9985701,159.144759 L97.8167915,162.976322 C97.7889188,163.553948 97.3884001,164 96.9097167,164" id="Fill-8" fill="#00EEEE"></path>
                <path d="M94.909673,188 C94.8926988,188 94.8745122,187.999268 94.8569318,187.997805 C94.3555869,187.963416 93.9724551,187.44393 94.0015537,186.83957 L94.1834201,183.034881 C94.2125187,182.430521 94.6314175,181.96152 95.1430682,182.002494 C95.6444131,182.036882 96.0275449,182.556369 95.9984463,183.160729 L95.8165799,186.965417 C95.7886938,187.549291 95.3879816,188 94.909673,188" id="Fill-10" fill="#00EEEE"></path>
                <path d="M9.07215537,265 C8.67145437,265 8.2871814,264.752247 8.10433032,264.327529 C7.85005304,263.738428 8.0764741,263.034496 8.6107421,262.755283 L17.4683056,258.114052 C18.0025736,257.835625 18.6418381,258.084164 18.8961154,258.672478 C19.1496784,259.260792 18.9232573,259.96551 18.3889893,260.244724 L9.53214012,264.885169 C9.38357362,264.963034 9.22643597,265 9.07215537,265" id="Fill-12" fill="#00EEEE"></path>
                <path d="M23.1696629,258 C22.7302308,258 22.3094979,257.754666 22.1108185,257.335522 C21.836563,256.758719 22.0890027,256.071169 22.6733539,255.801994 L26.3352883,254.110038 C26.9211978,253.837787 27.6154071,254.088504 27.8896626,254.666076 C28.163139,255.24288 27.9106992,255.930429 27.326348,256.199604 L23.6644136,257.890792 C23.5039118,257.965392 23.3356187,258 23.1696629,258" id="Fill-14" fill="#00EEEE"></path>
                <path d="M1.16963807,276 C0.730215278,276 0.309491323,275.754693 0.110816123,275.335595 C-0.163433566,274.758854 0.0890008064,274.072148 0.673339632,273.802234 L4.33519627,272.109693 C4.91797686,271.83824 5.61528786,272.088161 5.88953755,272.66567 C6.16300812,273.242411 5.91135286,273.929117 5.32623492,274.199031 L1.66437828,275.890804 C1.504659,275.965396 1.3355903,276 1.16963807,276" id="Fill-16" fill="#00EEEE"></path>
                <path d="M167.132436,318 C166.658472,318 166.216206,317.728096 166.05847,317.297981 C165.860733,316.758967 166.180734,316.177489 166.773944,315.998046 L176.509827,313.052989 C177.103037,312.873546 177.744548,313.164627 177.94153,313.702956 C178.139267,314.241285 177.819266,314.822763 177.226056,315.002206 L167.490928,317.947263 C167.371682,317.983562 167.250927,318 167.132436,318" id="Fill-18" fill="#00EEEE"></path>
                <path d="M181.125219,313 C180.656523,313 180.219324,312.749216 180.060343,312.350386 C179.860116,311.850094 180.17433,311.307047 180.763761,311.136667 L184.513323,310.051849 C185.098255,309.880193 185.73943,310.148845 185.939657,310.649775 C186.139884,311.150705 185.82567,311.693752 185.236239,311.864132 L181.486677,312.94895 C181.36744,312.984047 181.245205,313 181.125219,313" id="Fill-20" fill="#00EEEE"></path>
                <path d="M158.12525,321 C157.648313,321 157.206622,320.735234 157.053642,320.319826 C156.864667,319.805294 157.190874,319.254894 157.782545,319.089904 L161.532046,318.047145 C162.125967,317.881503 162.757383,318.166485 162.946358,318.680365 C163.135333,319.194898 162.809126,319.745297 162.217455,319.910287 L158.467954,320.953699 C158.353969,320.985653 158.238485,321 158.12525,321" id="Fill-22" fill="#00EEEE"></path>
                <path d="M163.202297,171.239696 L180.410166,124 C180.410166,124 195.36448,139.942479 187.924519,165.50922 C182.664472,183.729196 170.491219,212.235378 165.60689,223.843266 C165.231172,224.79761 164.179914,225.238416 163.202297,224.871078 C162.526756,224.577942 162.075144,223.990201 162,223.255524 L163.202297,171.239696 Z" id="Fill-24" fill="#FFFFFF"></path>
                <path d="M163.668684,223.276981 C163.669417,223.278455 163.67015,223.280666 163.671616,223.282877 L164.587145,221.020472 C169.772451,208.373115 180.563078,182.057003 185.35769,164.979903 C190.617763,146.39355 183.915861,133.047574 180.373961,127.68855 L164.830504,171.565932 L163.668684,223.276981 Z M163.700204,227 C163.253801,227 162.797136,226.917463 162.347069,226.744282 C162.318482,226.732491 162.289894,226.7207 162.261307,226.708172 C160.988803,226.139992 160.146576,224.972679 160.009503,223.586496 C160.00144,223.511328 159.998508,223.436897 160.000707,223.361729 L161.173521,171.185671 C161.177919,170.989645 161.213104,170.795093 161.278342,170.609384 L178.064983,123.22417 C178.28122,122.616195 178.797992,122.165188 179.426913,122.03696 C180.060233,121.907996 180.708213,122.121708 181.142155,122.597034 C181.765212,123.281651 196.335234,139.650553 188.883464,165.984351 C184.032409,183.263374 173.186807,209.714345 167.975113,222.425079 L167.044924,224.694116 C166.498099,226.12599 165.156693,227 163.700204,227 Z" id="Fill-26" fill="#0F05A4"></path>
                <path d="M189.237593,27.2258529 L180.826043,4.21199616 C180.161973,2.44169948 178.243549,1.55655115 176.472697,2.2204124 C175.956198,2.44169948 175.512747,2.73674893 175.070771,3.1793231 L158.76417,21.5461511 C140.833549,41.7570381 127.626677,65.3609937 124.084971,91.1040578 C121.576263,108.880787 124.380114,157.268896 123.125022,174.160477 C122.978189,175.930773 129.471315,181.167901 143.638136,183.823346 C157.80422,186.478791 165.773795,184.044633 166.289556,182.348099 C171.30771,166.120379 191.745563,122.158012 195.952076,104.750095 C202.075537,79.3758423 198.534569,52.6001052 189.237593,27.2258529" id="Fill-28" fill="#FFFFFF"></path>
                <g id="Group-32" transform="translate(121.000000, 0.000000)">
                    <mask id="mask-4" fill="white">
                        <use xlink:href="#path-3"></use>
                    </mask>
                    <g id="Clip-31"></g>
                    <path d="M3.99468791,174.520903 C3.99394746,174.526814 3.99394746,174.533465 3.993207,174.539377 C3.99394746,174.533465 3.99394746,174.526814 3.99468791,174.520903 M43.6957355,182.057899 C43.6949951,182.061594 43.6935142,182.06455 43.6927737,182.068245 C43.6935142,182.065289 43.6949951,182.060855 43.6957355,182.057899 M4.01023749,174.308072 C4.78919756,175.68334 10.5418029,179.922947 23.0740264,182.267774 C35.6203187,184.614818 42.5295168,182.807978 43.7675598,181.82955 C45.9955929,174.725604 50.9936732,162.664487 56.2812719,149.901327 C63.2067601,133.187506 71.0555973,114.243403 73.4309812,104.429566 C79.0791822,81.0655409 76.8326377,55.2938742 66.7542864,27.8306509 C66.7542864,27.8306509 66.7542864,27.8299119 66.753546,27.829173 L58.3116032,4.77256918 C58.1679547,4.38755346 57.8813981,4.07495912 57.5111699,3.90572956 C57.1564913,3.74241195 56.7514617,3.72763208 56.3701267,3.85991195 C56.0880128,3.98554088 55.8592118,4.14220755 55.6207849,4.37499057 L39.2966844,22.7315943 C19.7545607,44.7210912 8.19677764,67.8397704 4.94395294,91.4439686 C3.5148722,101.555619 3.8354898,122.252616 4.11908458,140.514629 C4.33011463,154.12911 4.53003785,166.997208 4.01023749,174.308072 M34.5451761,187.067538 C30.7007267,187.067538 26.4319959,186.655918 22.3913257,185.899189 C11.4725565,183.855871 -0.0778219614,178.820368 0.302772598,174.249692 C0.829977512,167.162742 0.629313844,154.24661 0.416802874,140.571531 C0.118398969,121.276406 -0.191111781,101.324314 1.27721314,90.9340629 C4.62999945,66.599739 16.4906291,42.8263113 36.5273777,20.2788742 L52.8907224,1.87719182 C52.9151574,1.85058805 52.9403329,1.82398428 52.9662489,1.7981195 C53.566759,1.19731761 54.1991087,0.767962264 54.9536337,0.445022013 C54.9795497,0.433937107 55.0062061,0.423591195 55.0328625,0.413245283 C56.3567985,-0.0818805031 57.7858792,-0.0345849057 59.0550214,0.547003145 C60.3197208,1.12637421 61.2889782,2.17131132 61.7843435,3.49041509 L70.2307289,26.5595818 C80.5652781,54.7196761 82.8525477,81.2103836 77.0303395,105.297145 C74.587574,115.389582 67.0201102,133.652333 59.7021802,151.313544 C54.3886655,164.139519 49.369112,176.253843 47.2328955,183.15161 C46.4028439,185.872585 41.0930315,187.067538 34.5451761,187.067538" id="Fill-30" fill="#0F05A4" mask="url(#mask-4)"></path>
                </g>
                <path d="M199.142919,94 C198.782214,94 198.417056,93.8944448 198.096429,93.6728537 C197.973968,93.5882599 185.400506,85.074971 163.249808,80.8669867 C141.132508,76.6649914 127.448728,80.0569816 127.313649,80.0921666 C126.323566,80.3459483 125.311217,79.7425618 125.05813,78.741659 C124.805043,77.7407561 125.401765,76.722635 126.393332,76.4666075 C126.976695,76.3153866 140.937312,72.8200871 163.936335,77.1882757 C186.913834,81.5534698 199.660226,90.217231 200.192377,90.5840541 C201.037733,91.1672278 201.254453,92.3320781 200.675544,93.1855031 C200.316323,93.715525 199.734445,94 199.142919,94" id="Fill-33" fill="#0F05A4"></path>
                <path d="M196.142868,109 C195.78439,109 195.421458,108.895196 195.103058,108.676604 C194.979855,108.593509 182.403433,100.147034 160.243845,95.8657804 C138.13621,91.6653754 124.449471,95.0572904 124.31365,95.0924747 C123.325795,95.3462507 122.31122,94.742129 122.058133,93.7419969 C121.805046,92.7411162 122.401767,91.7230177 123.392592,91.4662473 C123.976696,91.3150297 137.934334,87.8205562 160.936309,92.1878995 C183.913791,96.6278571 196.654237,105.215818 197.185646,105.579638 C198.03397,106.159805 198.255142,107.323132 197.679945,108.178784 C197.320724,108.712537 196.737362,109 196.142868,109" id="Fill-35" fill="#0F05A4"></path>
                <path d="M125.68506,172.721101 C125.428904,174.066323 131.746674,178.682409 144.61776,181.136848 C150.222269,182.20624 155.594177,182.563933 159.734624,182.140601 C164.113561,181.695882 165.262581,180.540938 165.311898,180.278384 C165.361951,180.016567 164.71641,178.520156 160.808564,176.494211 C157.109028,174.577418 151.984443,172.93203 146.379198,171.863375 C140.773217,170.793983 135.404989,170.43629 131.261598,170.859622 C126.884133,171.304341 125.734377,172.459285 125.68506,172.721101 M156.089558,186 C152.404745,186 148.219397,185.578143 143.928789,184.759505 C132.645427,182.607446 120.991817,177.706681 122.069438,172.03079 C122.57586,169.362473 125.544469,167.734047 130.889878,167.190501 C135.377754,166.732506 141.122118,167.107162 147.068168,168.240718 C153.012746,169.374273 158.492858,171.142089 162.499338,173.218922 C167.272078,175.692536 169.435415,178.29964 168.92752,180.968695 C168.421098,183.637012 165.452489,185.266176 160.10708,185.809722 C158.857217,185.937312 157.510192,186 156.089558,186" id="Fill-37" fill="#0F05A4"></path>
                <path d="M131.325353,164.220588 L133,114 C133,114 113.705151,123.485294 111.083236,149.882353 C109.190885,168.705882 106.860213,199.588235 107.006562,212.161765 C107.006562,213.191176 107.806752,214 108.75402,214 C109.482128,214 110.136696,213.558824 110.355129,212.897059 L131.325353,164.220588 Z" id="Fill-39" fill="#FFFFFF"></path>
                <path d="M131.462495,164.221323 L131.469864,164.221323 L131.462495,164.221323 Z M131.200887,117.220003 C125.914202,120.921957 114.724027,130.904473 112.808764,150.022754 C111.000355,167.83993 108.5803,199.118086 108.688627,211.99416 L129.633452,163.807536 L131.200887,117.220003 Z M108.617883,216 C106.626717,216 105.00696,214.34559 105.00696,212.31206 C104.849996,198.927788 107.382063,167.005718 109.142572,149.652485 C111.866976,122.464254 131.515553,112.592376 132.350487,112.185965 C132.931919,111.902731 133.618731,111.945511 134.16037,112.297341 C134.702008,112.64917 135.020359,113.259893 134.998988,113.90602 L133.304065,164.28328 C133.295959,164.515621 133.244374,164.743535 133.151522,164.957436 L111.953933,213.724541 C111.45651,215.089079 110.127838,216 108.617883,216 Z" id="Fill-41" fill="#0F05A4"></path>
                <path d="M177.771811,36.7090988 C173.632193,37.2679287 170.927241,43.5976675 171.863627,50.530972 C172.800747,57.4635431 177.074658,62.8479646 181.22822,62.2913348 C185.367838,61.7332383 188.07279,55.4034995 187.136404,48.470195 C186.199284,41.5361572 181.920235,36.1517356 177.771077,36.7090988 L177.771811,36.7090988 Z M180.610322,66 C174.718283,66 169.398642,59.6907956 168.227426,51.0215982 C166.983559,41.8111719 170.95953,33.9281499 177.280135,33.0752376 L177.280869,33.0752376 C183.586797,32.2186584 189.528738,38.7691424 190.772605,47.9795687 C192.016471,57.1892617 188.039767,65.0722837 181.719162,65.925196 C181.347836,65.9757987 180.977979,66 180.610322,66 Z" id="Fill-43" fill="#0F05A4"></path>
                <path d="M127.57867,265 C127.411659,265 127.24244,264.983771 127.073221,264.949837 C125.678269,264.67099 124.772581,263.311428 125.049953,261.912768 L141.898996,177.07844 C142.177104,175.679781 143.533062,174.770947 144.927278,175.050531 C146.322229,175.329378 147.227918,176.68894 146.94981,178.0876 L130.101502,262.921928 C129.857238,264.150181 128.781595,265 127.57867,265" id="Fill-45" fill="#00EEEE"></path>
                <path d="M145.171694,227.171694 C146.733211,225.609435 149.265863,225.609435 150.828862,227.171694 C152.390379,228.733211 152.390379,231.265863 150.828862,232.828862 C149.265863,234.390379 146.733211,234.390379 145.171694,232.828862 C143.609435,231.265863 143.609435,228.733211 145.171694,227.171694" id="Fill-47" fill="#00EEEE"></path>
                <path d="M106.196591,227.196591 C109.125379,224.267803 113.874621,224.267803 116.803409,227.196591 C119.732197,230.125379 119.732197,234.874621 116.803409,237.803409 C113.874621,240.732197 109.125379,240.732197 106.196591,237.803409 C103.267803,234.874621 103.267803,230.125379 106.196591,227.196591" id="Fill-49" fill="#FFFFFF"></path>
                <path d="M111.000372,227.273389 C109.788972,227.273389 108.578317,227.733991 107.656373,228.655939 C105.812486,230.499835 105.812486,233.500072 107.656373,235.343968 C109.499516,237.18712 112.498995,237.187864 114.343627,235.343968 C116.188258,233.500072 116.188258,230.499835 114.343627,228.655939 C113.421683,227.733991 112.211028,227.273389 111.000372,227.273389 M110.999628,242 C108.438425,242 105.875735,241.024476 103.925441,239.074173 C100.024853,235.173567 100.024853,228.82634 103.925441,224.925734 C107.826029,221.024383 114.173971,221.025128 118.074559,224.925734 C121.975147,228.82634 121.975147,235.173567 118.074559,239.074173 C116.124265,241.024476 113.561575,242 110.999628,242" id="Fill-51" fill="#00EEEE"></path>
                <path d="M199.615217,6.61477789 C200.412643,5.81820886 201.67775,5.79209184 202.443345,6.55764691 C203.207306,7.32238582 203.182004,8.588245 202.385394,9.38481403 C201.588785,10.1821992 200.322045,10.2075001 199.557267,9.44276116 C198.792489,8.67802225 198.817792,7.41216307 199.615217,6.61477789" id="Fill-53" fill="#00EEEE"></path>
                <path d="M197.790285,6 C197.487009,6 197.182927,5.88441552 196.948211,5.65324655 L194.367951,3.1120274 C193.888034,2.63903274 193.875935,1.86109178 194.341333,1.37334166 C194.805926,0.886411277 195.572986,0.874115055 196.052097,1.34628997 L198.632358,3.88750912 C199.112275,4.36050378 199.123567,5.13844473 198.658975,5.62619486 C198.421839,5.87457854 198.106465,6 197.790285,6" id="Fill-55" fill="#00EEEE"></path>
                <path d="M206.000056,14 C205.749375,14 205.499361,13.9050821 205.304684,13.7145682 L203.304572,11.7484109 C202.907884,11.3578914 202.897216,10.7138054 203.281238,10.3104042 C203.665259,9.90564698 204.297961,9.89615519 204.695316,10.2853187 L206.695428,12.251476 C207.092116,12.6419955 207.102784,13.2860815 206.718762,13.6894827 C206.522751,13.8962683 206.26207,14 206.000056,14" id="Fill-57" fill="#00EEEE"></path>
                <path d="M203.20952,6 C202.893391,6 202.578067,5.8746015 202.34097,5.6254437 C201.876453,5.13860247 201.887743,4.35998435 202.367583,3.88789589 L204.948234,1.34714201 C205.42888,0.874233946 206.194204,0.885708319 206.658722,1.37418874 C207.124045,1.86184957 207.111948,2.64046769 206.632109,3.11255615 L204.051458,5.65331004 C203.815973,5.88443668 203.512747,6 203.20952,6" id="Fill-59" fill="#00EEEE"></path>
                <path d="M195.016909,14 C194.756537,14 194.496165,13.9010086 194.297495,13.7023477 C193.900835,13.3050258 193.900835,12.6609035 194.297495,12.2635817 L196.263847,10.2979914 C196.661186,9.90066955 197.304657,9.90066955 197.701996,10.2979914 C198.099335,10.6946351 198.099335,11.3387575 197.701996,11.7360793 L195.736322,13.7023477 C195.537653,13.9010086 195.277281,14 195.016909,14" id="Fill-61" fill="#00EEEE"></path>
                <path d="M197.790285,6 C197.487009,6 197.182927,5.88441552 196.948211,5.65324655 L194.367951,3.1120274 C193.888034,2.63903274 193.875935,1.86109178 194.341333,1.37334166 C194.805926,0.886411277 195.572986,0.874115055 196.052097,1.34628997 L198.632358,3.88750912 C199.112275,4.36050378 199.123567,5.13844473 198.658975,5.62619486 C198.421839,5.87457854 198.106465,6 197.790285,6" id="Fill-63" fill="#00EEEE"></path>
                <path d="M206.000056,14 C205.749375,14 205.499361,13.9050821 205.304684,13.7145682 L203.304572,11.7484109 C202.907884,11.3578914 202.897216,10.7138054 203.281238,10.3104042 C203.665259,9.90564698 204.297961,9.89615519 204.695316,10.2853187 L206.695428,12.251476 C207.092116,12.6419955 207.102784,13.2860815 206.718762,13.6894827 C206.522751,13.8962683 206.26207,14 206.000056,14" id="Fill-65" fill="#00EEEE"></path>
                <path d="M203.20952,6 C202.893391,6 202.578067,5.8746015 202.34097,5.6254437 C201.876453,5.13860247 201.887743,4.35998435 202.367583,3.88789589 L204.948234,1.34714201 C205.42888,0.874233946 206.194204,0.885708319 206.658722,1.37418874 C207.124045,1.86184957 207.111948,2.64046769 206.632109,3.11255615 L204.051458,5.65331004 C203.815973,5.88443668 203.512747,6 203.20952,6" id="Fill-67" fill="#00EEEE"></path>
                <path d="M195.016909,14 C194.756537,14 194.496165,13.9010086 194.297495,13.7023477 C193.900835,13.3050258 193.900835,12.6609035 194.297495,12.2635817 L196.263847,10.2979914 C196.661186,9.90066955 197.304657,9.90066955 197.701996,10.2979914 C198.099335,10.6946351 198.099335,11.3387575 197.701996,11.7360793 L195.736322,13.7023477 C195.537653,13.9010086 195.277281,14 195.016909,14" id="Fill-69" fill="#00EEEE"></path>
                <path d="M207.027332,150 C206.764291,150 206.50125,149.899993 206.300545,149.699294 C205.899818,149.297897 205.899818,148.647168 206.300545,148.24577 L209.246053,145.301048 C209.647464,144.899651 210.297531,144.899651 210.698942,145.301048 C211.100353,145.70176 211.100353,146.35249 210.698942,146.753887 L207.754119,149.699294 C207.553413,149.899993 207.290372,150 207.027332,150" id="Fill-71" fill="#0F05A4"></path>
                <path d="M199.027332,159 C198.764291,159 198.50125,158.900007 198.300545,158.699336 C197.899818,158.297993 197.899818,157.647353 198.300545,157.246011 L201.246053,154.301007 C201.647464,153.899664 202.297531,153.899664 202.698942,154.301007 C203.100353,154.702349 203.100353,155.352305 202.698942,155.753647 L199.754119,158.699336 C199.553413,158.900007 199.290372,159 199.027332,159" id="Fill-73" fill="#0F05A4"></path>
                <path d="M201.972668,150 C201.709628,150 201.446587,149.899993 201.245881,149.699294 L198.301058,146.753887 C197.899647,146.35249 197.899647,145.70176 198.301058,145.301048 C198.702469,144.899651 199.352536,144.899651 199.753947,145.301048 L202.699455,148.24577 C203.100182,148.647168 203.100182,149.297897 202.699455,149.699294 C202.49875,149.899993 202.235709,150 201.972668,150" id="Fill-75" fill="#0F05A4"></path>
                <path d="M209.972668,159 C209.709628,159 209.446587,158.900007 209.245881,158.699336 L206.301058,155.753647 C205.899647,155.352305 205.899647,154.702349 206.301058,154.301007 C206.702469,153.899664 207.352536,153.899664 207.753947,154.301007 L210.699455,157.246011 C211.100182,157.647353 211.100182,158.297993 210.699455,158.699336 C210.49875,158.900007 210.235709,159 209.972668,159" id="Fill-77" fill="#0F05A4"></path>
                <path d="M126.965556,47 C126.700694,47 126.435832,46.8993017 126.233737,46.6972153 L124.303143,44.7660143 C123.898952,44.3618415 123.898952,43.7066126 124.303143,43.3031296 C124.707333,42.8989568 125.3619,42.8989568 125.76609,43.3031296 L127.697375,45.2336408 C128.100875,45.6378136 128.100875,46.2930425 127.697375,46.6972153 C127.49528,46.8993017 127.230418,47 126.965556,47" id="Fill-79" fill="#0F05A4"></path>
                <path d="M121.965734,41 C121.700918,41 121.436102,40.899319 121.234042,40.6972675 L119.30309,38.7657099 C118.89897,38.3622964 118.89897,37.7071804 119.30309,37.3030773 C119.707211,36.8989742 120.361665,36.8989742 120.765786,37.3030773 L122.697427,39.2339453 C123.100858,39.6380484 123.100858,40.2931644 122.697427,40.6972675 C122.495367,40.899319 122.23055,41 121.965734,41" id="Fill-81" fill="#0F05A4"></path>
                <path d="M125.034444,41 C124.769582,41 124.50472,40.899319 124.302625,40.6972675 C123.899125,40.2931644 123.899125,39.6380484 124.302625,39.2339453 L126.23391,37.3030773 C126.6381,36.8989742 127.292667,36.8989742 127.696857,37.3030773 C128.101048,37.7071804 128.101048,38.3616068 127.696857,38.7657099 L125.766263,40.6972675 C125.564168,40.899319 125.299306,41 125.034444,41" id="Fill-83" fill="#0F05A4"></path>
                <path d="M120.034266,47 C119.76945,47 119.504633,46.8993038 119.302573,46.6972218 C118.899142,46.2930578 118.899142,45.637843 119.302573,45.2336789 L121.234214,43.3025196 C121.638335,42.8990453 122.292789,42.8990453 122.69691,43.3032093 C123.10103,43.7073734 123.10103,44.3618984 122.69691,44.7660625 L120.765958,46.6972218 C120.563898,46.8993038 120.299082,47 120.034266,47" id="Fill-85" fill="#0F05A4"></path>
                <path d="M210.910539,87 C210.884462,87 210.858386,86.9984795 210.832309,86.9961988 C210.331393,86.942221 209.960862,86.3902796 210.003312,85.7630735 C210.240428,82.2704858 210.240428,78.7292421 210.003312,75.2366544 C209.960862,74.6094483 210.331393,74.0575069 210.832309,74.0035292 C211.324128,73.9548732 211.77289,74.4148244 211.81534,75.0427907 C212.061553,78.6638606 212.061553,82.3358673 211.81534,85.956177 C211.775316,86.5514526 211.378101,87 210.910539,87" id="Fill-87" fill="#00EEEE"></path>
                <path d="M210.92747,71 C210.413285,71 209.959803,70.6240834 209.871964,70.0941855 C209.65772,68.7878753 209.37849,67.5415672 209.043556,66.390684 C208.87716,65.8159653 209.202096,65.2130529 209.769841,65.0438904 C210.33473,64.8761738 210.932469,65.203655 211.099579,65.7783737 C211.458079,67.0131152 211.756592,68.3454504 211.985118,69.7370648 C212.082956,70.3284105 211.688034,70.8865021 211.104578,70.9848188 C211.045304,70.9956625 210.98603,71 210.92747,71" id="Fill-89" fill="#00EEEE"></path>
                <path d="M210.072134,95 C209.977145,95 209.880729,94.9869909 209.785026,94.9602499 C209.215096,94.799804 208.880851,94.2021071 209.039403,93.6253692 C209.415072,92.2550748 209.680039,91.0734127 209.872158,89.906928 C209.968575,89.3157355 210.524221,88.9138982 211.10415,89.015803 C211.688364,89.1133714 212.081887,89.672041 211.985471,90.2632334 C211.78121,91.5070502 211.50053,92.7595398 211.103436,94.2057207 C210.972023,94.6856128 210.541362,95 210.072134,95" id="Fill-91" fill="#00EEEE"></path>
                <path d="M117.139898,71 C117.044969,71 116.947761,70.9881485 116.851312,70.9637047 C116.242245,70.8088941 115.878476,70.2015034 116.037198,69.6081863 C117.005478,65.9868043 118.250193,62.7180051 119.841969,59.6143866 C120.12372,59.0655127 120.80949,58.8432966 121.369954,59.1173632 C121.933455,59.3921704 122.160526,60.0595595 121.879535,60.6084334 C120.359145,63.5720557 119.169869,66.6993773 118.241079,70.1689117 C118.107419,70.668898 117.645682,71 117.139898,71" id="Fill-93" fill="#00EEEE"></path>
                <path d="M116.42384,79 L114,78.7671164 C114.162565,77.4986443 114.329194,76.1891166 114.577917,74.8873754 C114.688461,74.3090597 115.320025,73.9162014 115.980851,74.0153008 C116.644928,74.1115687 117.094419,74.6580311 116.983062,75.2370546 C116.745718,76.4814598 116.581527,77.7619655 116.42384,79" id="Fill-95" fill="#00EEEE"></path>
                <path d="M122.999739,57 C122.833092,57 122.665113,56.9510582 122.510465,56.8476491 C122.028523,56.5263701 121.857877,55.804874 122.128511,55.2349394 C122.708441,54.0161318 123.364362,52.8241633 124.193595,51.4845802 C124.520222,50.9564829 125.145479,50.8428117 125.591425,51.2288201 C126.036705,51.6164072 126.132693,52.3568485 125.806733,52.8841565 C125.025494,54.1455907 124.410902,55.2617784 123.8723,56.3961219 C123.688322,56.7829196 123.348363,57 122.999739,57" id="Fill-97" fill="#00EEEE"></path>
                <path d="M189.480519,275.01258 C189.777365,275.614033 189.926531,276.063808 190,276.289072 L158.90538,285 C159.424861,282.972631 159.276438,280.794336 158.460111,278.917142 C157.050093,275.763457 155.269017,273.962103 150,272.835787 L170.556586,266.828768 C178.497217,264.425209 186.289425,267.278543 189.480519,275.01258" id="Fill-99" fill="#FFFFFF"></path>
                <path d="M155.880133,272.632709 C157.977032,273.875621 159.126703,275.501638 160.085136,277.560823 C160.677526,278.867586 160.9853,280.285362 161.003976,281.7191 L187.581622,274.5729 C184.690636,268.705891 178.303575,266.269406 171.095533,268.36487 L155.880133,272.632709 Z M158.831628,286 C158.348303,286 157.876183,285.817155 157.522094,285.479036 C157.046986,285.0241 156.856495,284.358021 157.023828,283.730398 C157.448885,282.14066 157.324879,280.474737 156.674221,279.038822 C155.481222,276.477538 154.156,275.16497 149.481867,274.206484 C148.642958,274.034523 148.032639,273.329988 148.001264,272.497027 C147.969889,271.665516 148.525675,270.920349 149.349643,270.688891 L170.042228,264.884281 C179.290394,262.196021 187.833369,265.771661 191.308528,273.780571 C191.650666,274.454631 191.827711,274.972693 191.904654,275.196896 C192.066011,275.669246 192.02119,276.184405 191.780648,276.622653 C191.539359,277.061627 191.124013,277.384508 190.630977,277.516563 L159.329894,285.933973 C159.165548,285.978958 158.998215,286 158.831628,286 Z" id="Fill-101" fill="#0F05A4"></path>
                <path d="M218,268 L159,285" id="Fill-103" fill="#FFFFFF"></path>
                <path d="M159.218913,287 C158.247469,287 157.35519,286.357448 157.08144,285.376244 C156.753679,284.195398 157.444714,282.972405 158.6248,282.643365 L218.184015,266.080463 C219.366321,265.755859 220.58858,266.442037 220.91856,267.622883 C221.246321,268.803729 220.555286,270.026722 219.3752,270.355022 L159.815985,286.918664 C159.616221,286.973381 159.416457,287 159.218913,287" id="Fill-105" fill="#0F05A4"></path>
                <path d="M149.655346,293 C148.7471,293 147.826982,292.892132 146.909832,292.665388 L91.3814359,278.129593 C90.3908247,277.870562 89.8001681,276.866727 90.062105,275.887108 C90.3247839,274.907488 91.3450764,274.325587 92.3304934,274.582416 L147.834402,289.111607 C151.91854,290.124981 155.989321,287.765088 157.067492,283.738741 C158.090011,279.694783 155.705865,275.673573 151.6336,274.608099 C150.642989,274.348334 150.052332,273.344499 150.315011,272.36488 C150.57769,271.385994 151.591304,270.803358 152.582658,271.060921 C158.538197,272.619507 162.161534,278.716631 160.661148,284.653053 C159.319556,289.662689 154.689283,293 149.655346,293" id="Fill-107" fill="#0F05A4"></path>
                <path d="M26.1711382,240.171138 C27.7333966,238.609621 30.2660478,238.609621 31.8283062,240.171138 C33.3905646,241.733397 33.3905646,244.266048 31.8283062,245.828306 C30.2660478,247.390565 27.7333966,247.390565 26.1711382,245.828306 C24.6096206,244.266048 24.6096206,241.733397 26.1711382,240.171138" id="Fill-109" fill="#FFFFFF"></path>
                <path d="M26.9996738,240.999674 C25.8979451,242.102127 25.8972203,243.895336 26.9996738,244.997789 C28.0687856,246.065451 29.9301272,246.065451 30.9977893,244.997789 C31.5319827,244.463596 31.8255355,243.753996 31.8255355,242.998732 C31.8255355,242.244192 31.5312579,241.533867 30.9977893,240.999674 C29.8967854,239.89867 28.1028522,239.89722 26.9996738,240.999674 M28.9987316,248 C27.6628855,248 26.4074947,247.479578 25.4623274,246.535136 C23.5125575,244.585366 23.5125575,241.412822 25.4623274,239.462327 C27.4128221,237.511833 30.5853659,237.513282 32.5351357,239.462327 C33.4795782,240.407495 34,241.662886 34,242.998732 C34,244.335302 33.4795782,245.590693 32.5351357,246.535136 C31.5906933,247.479578 30.3353024,248 28.9987316,248" id="Fill-111" fill="#00EEEE"></path>
                <path d="M148.382537,250.900224 C151.751626,247.245244 157.444675,247.013723 161.099722,250.382749 C164.75477,253.751776 164.986295,259.444719 161.617206,263.100425 C158.248843,266.754679 152.554343,266.9862 148.900021,263.617174 C145.245699,260.248873 145.013448,254.554478 148.382537,250.900224" id="Fill-113" fill="#FFFFFF"></path>
                <path d="M149.13937,250.67535 L149.146897,250.67535 L149.13937,250.67535 Z M156.008921,250.335963 C155.917086,250.335963 155.824498,250.337468 155.731911,250.34123 C153.953174,250.413472 152.308426,251.174272 151.101023,252.482906 C149.895126,253.792294 149.270347,255.49224 149.342611,257.2712 C149.414874,259.049409 150.1759,260.693668 151.48417,261.89996 C152.793194,263.107004 154.504184,263.733855 156.273887,263.658603 C158.052624,263.585608 159.696619,262.825561 160.904022,261.516927 C163.394102,258.814622 163.223229,254.590719 160.520875,252.100625 C159.279598,250.956793 157.686037,250.335963 156.008921,250.335963 Z M155.990855,269 C152.969336,269 150.101378,267.881753 147.867983,265.822854 C145.510386,263.650325 144.139637,260.690658 144.010165,257.487927 C143.87994,254.285195 145.004541,251.223938 147.177716,248.867793 C149.350138,246.510896 152.311437,245.141307 155.514367,245.010368 C158.728589,244.878677 161.78097,246.005202 164.137814,248.177731 C169.004311,252.662006 169.313689,260.267741 164.828082,265.132792 C162.654907,267.489689 159.693608,268.859278 156.490678,268.989465 C156.323568,268.996237 156.156459,269 155.990855,269 Z" id="Fill-115" fill="#00EEEE"></path>
            </g>
        </g>
    </g>
</svg>