<svg xmlns="http://www.w3.org/2000/svg" width="1808.214" height="939.206" viewBox="0 0 1808.214 939.206">
  <g id="Grupo_37" data-name="Grupo 37" transform="translate(143.52 -5099)">
    <path id="Trazado_186" data-name="Trazado 186" d="M1589.362,919.066c-35.013,25.771-84.836,36.437-133.02,43.173l-8.11,1.1C1364.014,974.487,1278.1,976.758,1192.588,979c-238.5,6.264-477.628,12.516-715.5-1.926-105.2-6.379-213-17.555-305.195-55.753l-2.4-1.008c-1.193-.5-2.387-1-3.58-1.518a333.914,333.914,0,0,1-46.876-24.355c-26.328-16.662-48.069-37-59.558-61.124-18-37.84-8.484-80.376,12.078-117.374s51.477-70.323,78.136-105.165c7.822-10.206,15.242-20.8,22.144-31.653,43.137-68.09,64.533-146.884,19.311-212.5a294.469,294.469,0,0,0-19.311-24.24c-11.029-12.758-22.244-25.516-29.822-39.639-17.672-32.865-13.876-69.825-7.434-104.935,8.627-46.682,24.516-96.962,73.879-126.127C259.749,41.4,332.55,42.929,396.206,53.824c98.971,16.828,190.321,52.053,282.533,83.821s188.869,60.7,290.255,63.816c89.524,2.769,193.959-17.861,253.4-71.547,57.732-52.117,166.221-56.059,244.443-24.585,74.642,30.033,122.912,93.593,119.346,157.078-4.544,79.228-78.984,142.674-137.895,210.126-9.792,11.214-19.167,22.556-27.723,34.09-27.924,37.675-47.667,82.928-28.442,123.6,10.784,22.773,31.361,40.15,56.164,55.319,55.575,33.975,132.287,56.837,166.8,104.4,29.721,41.03,18.707,96.4-25.724,129.125Z" transform="translate(-43.963 5052.319)" fill="#fff" opacity="0.1"/>
    <g id="_304729-607d8b" data-name="304729-607d8b" transform="translate(-143.22 6889.5)">
      <path id="Trazado_42" data-name="Trazado 42" d="M1.27-1279.905a2.043,2.043,0,0,0-1.291.767l-.279.378.176,1.618q3.7,34.1,26.384,51.029a77,77,0,0,0,7.717,4.93c10.857,5.907,23.615,9.2,38.48,9.907a123.584,123.584,0,0,0,12.81-.2c.878-.068,1.6-.115,1.6-.115s-.031.655-.083,1.449c-.7,11.694-.95,16.249-.878,16.514a2.121,2.121,0,0,0,1.8,1.136,2.952,2.952,0,0,0,2.014-.512c1.312-.835,34.844-25.288,34.989-25.516a.987.987,0,0,0,.1-1.039c-.248-.464-31.1-32.1-31.652-32.449a2.739,2.739,0,0,0-3.523.542c-.145.228-.207,1.161-1.1,16.31-.072,1.21-.155,2.217-.186,2.235-.1.07-2.892.383-4.7.527-2.355.184-7.138.252-9.876.137a87.863,87.863,0,0,1-10.268-1.068c-1.343-.231-3.967-.738-4.432-.859-.114-.029-.806-.2-1.55-.378a76.577,76.577,0,0,1-27.406-12.767c-10.268-7.625-18.522-17.493-25.392-30.369a12.545,12.545,0,0,0-1.012-1.683,3.049,3.049,0,0,0-1.7-.614A4.506,4.506,0,0,0,1.27-1279.905Z" transform="translate(0)" fill="#607d8b"/>
    </g>
    <g id="_304729-607d8b-2" data-name="304729-607d8b" transform="translate(1664.695 5697.019) rotate(180)">
      <path id="Trazado_42-2" data-name="Trazado 42" d="M1.57,87.424a2.043,2.043,0,0,1-1.291-.767L0,86.28l.176-1.618q3.7-34.1,26.384-51.029a77,77,0,0,1,7.717-4.93C45.133,22.8,57.891,19.5,72.757,18.8a123.584,123.584,0,0,1,12.81.2c.878.068,1.6.115,1.6.115s-.031-.655-.083-1.449c-.7-11.694-.95-16.249-.878-16.514A2.121,2.121,0,0,1,88,.016a2.952,2.952,0,0,1,2.014.512c1.312.835,34.844,25.288,34.989,25.516a.987.987,0,0,1,.1,1.039c-.248.464-31.1,32.1-31.652,32.449a2.739,2.739,0,0,1-3.523-.542c-.145-.228-.207-1.161-1.1-16.31-.072-1.21-.155-2.217-.186-2.235-.1-.07-2.892-.383-4.7-.527-2.355-.184-7.138-.252-9.876-.137A87.863,87.863,0,0,0,63.81,40.849c-1.343.231-3.967.738-4.432.859-.114.029-.806.2-1.55.378A76.577,76.577,0,0,0,30.423,54.853C20.154,62.478,11.9,72.346,5.031,85.222A12.545,12.545,0,0,1,4.018,86.9a3.049,3.049,0,0,1-1.7.614A4.506,4.506,0,0,1,1.57,87.424Z" transform="translate(0)" fill="#607d8b"/>
    </g>
  </g>
</svg>
