<svg xmlns="http://www.w3.org/2000/svg" xmlns:xlink="http://www.w3.org/1999/xlink" width="451.752" height="409.74" viewBox="0 0 451.752 409.74">
  <defs>
    <linearGradient id="linear-gradient" x1="-2.392" y1="1" x2="-2.392" gradientUnits="objectBoundingBox">
      <stop offset="0" stop-color="gray" stop-opacity="0.251"/>
      <stop offset="0.54" stop-color="gray" stop-opacity="0.122"/>
      <stop offset="1" stop-color="gray" stop-opacity="0.102"/>
    </linearGradient>
  </defs>
  <g id="Grupo_72" data-name="Grupo 72" transform="translate(-2997 -4767.916)">
    <g id="undraw_business_plan_5i9d" transform="translate(2996.952 4767.939)">
      <ellipse id="Elipse_168" data-name="Elipse 168" cx="186.354" cy="14.705" rx="186.354" ry="14.705" transform="translate(31.156 380.307)" fill="#00c6e2" opacity="0.1"/>
      <path id="Trazado_500" data-name="Trazado 500" d="M92.7,80.52c-11.612,15.463-14.55,35.064-14.71,53.859-.112,13.253,1.48,27.628,11.206,37.4,12.8,12.859,37.381,15.394,43.723,31.826,5.624,14.6-7.463,29.292-20.036,39.6s-27.01,22.923-24.661,38.268c1.488,9.8,9.652,17.49,17.795,23.947,15.48,12.3,32.881,23.066,52.5,28.3,35.59,9.488,74.03-.335,107.379-15.207,20.529-9.154,44.364-20.389,64.75-10.975,5.382,2.485,9.951,6.24,14.913,9.35,14.429,8.991,32.051,12.3,49.2,15.113,25.137,4.134,51.554,7.584,75.774.128s45.151-29.262,41.443-52.52c-3.5-21.91-25.751-36.191-43.485-51.157-6.256-5.281-12.625-12.279-11.067-19.961,1.237-6.093,7.061-10.335,12.253-14.272,27.326-20.837,47.41-49.6,56.642-81.142,4.361-14.882,5.936-32.028-3.794-44.577-7.848-10.123-21.3-14.985-34.093-18.986-23.739-7.426-48.071-13.7-73.04-15.394s-50.763,1.535-72.927,12.249c-10.63,5.143-20.265,11.914-31,16.865C280.991,77.292,245.081,75.4,211.093,73.182c-12.144-.792-24.838-2.2-35.382-8.233-9.086-5.207-14.277-8.937-25.526-9.518C128.137,54.294,105.328,63.679,92.7,80.52Z" transform="translate(-77.94 -33.72)" fill="#00c6e2" opacity="0.1"/>
      <path id="Trazado_501" data-name="Trazado 501" d="M285.064,306.7l-.476,1.117-3.085,7.21L249.146,390.6,194.238,543.635l-7.848.069,54.938-153.1,37.437-87.452,2.739,1.54,3.085,1.737Z" transform="translate(-105.722 -153.972)" fill="#535461"/>
      <path id="Trazado_502" data-name="Trazado 502" d="M509.539,543.7l-6.459-.069L448.168,390.6l-31.505-73.593-3.933-9.193-.48-1.117.48-.271,3.933-2.215,1.891-1.063L455.428,390.6Z" transform="translate(-233.864 -153.972)" fill="#535461"/>
      <rect id="Rectángulo_90" data-name="Rectángulo 90" width="7.022" height="261.11" transform="translate(175.781 128.622)" fill="#535461"/>
      <path id="Trazado_503" data-name="Trazado 503" d="M478.714,207.69c-4.932.005-8.929,4.552-8.934,10.163v3.632c0,5.615,4,10.167,8.936,10.167s8.939-4.552,8.939-10.167l0-3.632C487.645,212.241,483.647,207.7,478.714,207.69Zm6.7,13.78c0,4.213-3,7.628-6.706,7.628S472,225.682,472,221.47v-3.632c0-4.213,3-7.628,6.706-7.628s6.706,3.415,6.706,7.628Z" transform="translate(-300.224 -122.086)" fill="#535461"/>
      <path id="Trazado_504" data-name="Trazado 504" d="M399.328,369.388h-7.26l-31.505-73.593v73.593h-7.018V293.811l-32.358,75.576H313.37l37.437-87.452,2.739,1.54v-22.1h7.018V283l1.891-1.063Z" transform="translate(-177.764 -132.758)" opacity="0.1"/>
      <path id="Trazado_505" data-name="Trazado 505" d="M487.65,229.08v3.268c0,5.615-4,10.167-8.936,10.167s-8.938-4.552-8.938-10.167l0-3.268h2.232v3.268c0,4.213,3,7.628,6.706,7.628s6.706-3.415,6.706-7.628V229.08Z" transform="translate(-300.222 -132.949)" opacity="0.1"/>
      <rect id="Rectángulo_91" data-name="Rectángulo 91" width="270.011" height="138.682" transform="translate(43.486 96.859)" fill="#535461"/>
      <rect id="Rectángulo_92" data-name="Rectángulo 92" width="259.796" height="126.34" transform="translate(48.276 101.215)" fill="#fff"/>
      <g id="Grupo_50" data-name="Grupo 50" transform="translate(73.932 114.95)" opacity="0.2">
        <rect id="Rectángulo_93" data-name="Rectángulo 93" width="12.283" height="6.363" fill="#00c6e2"/>
      </g>
      <g id="Grupo_51" data-name="Grupo 51" transform="translate(73.932 127.258)" opacity="0.2">
        <rect id="Rectángulo_94" data-name="Rectángulo 94" width="12.283" height="6.363" fill="#00c6e2"/>
      </g>
      <g id="Grupo_52" data-name="Grupo 52" transform="translate(73.932 139.562)" opacity="0.2">
        <rect id="Rectángulo_95" data-name="Rectángulo 95" width="12.283" height="6.363" fill="#00c6e2"/>
      </g>
      <g id="Grupo_53" data-name="Grupo 53" transform="translate(73.932 151.865)" opacity="0.2">
        <rect id="Rectángulo_96" data-name="Rectángulo 96" width="12.283" height="6.363" fill="#00c6e2"/>
      </g>
      <g id="Grupo_54" data-name="Grupo 54" transform="translate(73.932 164.173)" opacity="0.2">
        <rect id="Rectángulo_97" data-name="Rectángulo 97" width="12.283" height="6.363" fill="#00c6e2"/>
      </g>
      <g id="Grupo_55" data-name="Grupo 55" transform="translate(73.932 176.476)" opacity="0.2">
        <rect id="Rectángulo_98" data-name="Rectángulo 98" width="12.283" height="6.363" fill="#00c6e2"/>
      </g>
      <g id="Grupo_56" data-name="Grupo 56" transform="translate(73.932 188.78)" opacity="0.2">
        <rect id="Rectángulo_99" data-name="Rectángulo 99" width="12.283" height="6.363" fill="#00c6e2"/>
      </g>
      <g id="Grupo_57" data-name="Grupo 57" transform="translate(73.932 201.083)" opacity="0.2">
        <rect id="Rectángulo_100" data-name="Rectángulo 100" width="12.283" height="6.363" fill="#00c6e2"/>
      </g>
      <g id="Grupo_58" data-name="Grupo 58" transform="translate(97.057 207.451)" opacity="0.2">
        <rect id="Rectángulo_101" data-name="Rectángulo 101" width="12.283" height="6.363" fill="#00c6e2"/>
      </g>
      <g id="Grupo_59" data-name="Grupo 59" transform="translate(118.694 207.451)" opacity="0.2">
        <rect id="Rectángulo_102" data-name="Rectángulo 102" width="12.283" height="6.363" fill="#00c6e2"/>
      </g>
      <g id="Grupo_60" data-name="Grupo 60" transform="translate(140.326 207.451)" opacity="0.2">
        <rect id="Rectángulo_103" data-name="Rectángulo 103" width="12.283" height="6.363" fill="#00c6e2"/>
      </g>
      <g id="Grupo_61" data-name="Grupo 61" transform="translate(161.963 207.451)" opacity="0.2">
        <rect id="Rectángulo_104" data-name="Rectángulo 104" width="12.283" height="6.363" fill="#00c6e2"/>
      </g>
      <g id="Grupo_62" data-name="Grupo 62" transform="translate(183.595 207.451)" opacity="0.2">
        <rect id="Rectángulo_105" data-name="Rectángulo 105" width="12.283" height="6.363" fill="#00c6e2"/>
      </g>
      <g id="Grupo_63" data-name="Grupo 63" transform="translate(205.232 207.451)" opacity="0.2">
        <rect id="Rectángulo_106" data-name="Rectángulo 106" width="12.283" height="6.363" fill="#00c6e2"/>
      </g>
      <g id="Grupo_64" data-name="Grupo 64" transform="translate(226.864 207.451)" opacity="0.2">
        <rect id="Rectángulo_107" data-name="Rectángulo 107" width="12.283" height="6.363" fill="#00c6e2"/>
      </g>
      <g id="Grupo_65" data-name="Grupo 65" transform="translate(248.501 207.451)" opacity="0.2">
        <rect id="Rectángulo_108" data-name="Rectángulo 108" width="12.283" height="6.363" fill="#00c6e2"/>
      </g>
      <g id="Grupo_66" data-name="Grupo 66" transform="translate(270.133 207.451)" opacity="0.2">
        <rect id="Rectángulo_109" data-name="Rectángulo 109" width="12.283" height="6.363" fill="#00c6e2"/>
      </g>
      <rect id="Rectángulo_110" data-name="Rectángulo 110" width="12.283" height="39.882" transform="translate(97.057 161.201)" fill="#00c6e2"/>
      <rect id="Rectángulo_111" data-name="Rectángulo 111" width="12.283" height="58.342" transform="translate(118.694 142.746)" fill="#00c6e2"/>
      <rect id="Rectángulo_112" data-name="Rectángulo 112" width="12.283" height="73.829" transform="translate(140.326 127.258)" fill="#00c6e2"/>
      <rect id="Rectángulo_113" data-name="Rectángulo 113" width="12.283" height="65.798" transform="translate(161.963 135.285)" fill="#00c6e2"/>
      <rect id="Rectángulo_114" data-name="Rectángulo 114" width="12.283" height="79.769" transform="translate(183.595 121.318)" fill="#00c6e2"/>
      <g id="Grupo_67" data-name="Grupo 67" transform="translate(205.232 151.865)" opacity="0.2">
        <rect id="Rectángulo_115" data-name="Rectángulo 115" width="12.283" height="49.218" fill="#00c6e2"/>
      </g>
      <g id="Grupo_68" data-name="Grupo 68" transform="translate(226.864 151.865)" opacity="0.2">
        <rect id="Rectángulo_116" data-name="Rectángulo 116" width="12.283" height="49.218" fill="#00c6e2"/>
      </g>
      <g id="Grupo_69" data-name="Grupo 69" transform="translate(248.501 151.865)" opacity="0.2">
        <rect id="Rectángulo_117" data-name="Rectángulo 117" width="12.283" height="49.218" fill="#00c6e2"/>
      </g>
      <g id="Grupo_70" data-name="Grupo 70" transform="translate(270.133 151.865)" opacity="0.2">
        <rect id="Rectángulo_118" data-name="Rectángulo 118" width="12.283" height="49.218" fill="#00c6e2"/>
      </g>
      <path id="Trazado_506" data-name="Trazado 506" d="M483.127,308.39,377.95,315.752v2.333l107.418-4.848Z" transform="translate(-214.404 -156.633)" fill="#535461"/>
      <path id="Trazado_507" data-name="Trazado 507" d="M822.43,293.955s5.5-10.3,4.041-26.447-6.754-42.294-6.754-42.294,2.3-14.646-10.163-16.7c0,0-7.744-1.639-13.282-5.6a13.76,13.76,0,0,1-4.759-5.413s-.074.241-.216.684q-.184-.332-.337-.684s-.03.089-.078.246l-2.116-3.75s-.29.349-.779.925a26.217,26.217,0,0,1-2.163-4.429,10.3,10.3,0,0,0,1.545-.561,3.013,3.013,0,0,0,1.259-.915,3.927,3.927,0,0,0,.571-1.619,22.339,22.339,0,0,0,.286-5.689,31.84,31.84,0,0,1-.29-4.454c.1-1.6.593-3.145.662-4.749a13.129,13.129,0,0,0-2.635-7.751c-.909-1.334-1.93-2.574-2.717-4-.684-1.24-1.181-2.608-1.917-3.814a11.392,11.392,0,0,0-7.576-5.044,23.751,23.751,0,0,0-8.969.335,66.242,66.242,0,0,1-7.788,1.378c-2.267.148-4.115-.723-6.191.984a7.083,7.083,0,0,0-2.414,4.921,2.95,2.95,0,0,0,.065.984,7.458,7.458,0,0,0,.433.96c.922,2.067-.48,4.523-.3,6.831a4.307,4.307,0,0,0,3.548,3.976c-.082.2-.173.389-.251.591a22.908,22.908,0,0,0,.908,18.547A17.93,17.93,0,0,0,767.8,201.43l.8.7c1.817,1.6,3.859,3.514,5.828,5.6l-.039.034-.32-.207a17.351,17.351,0,0,1-1.886,1.476,16.3,16.3,0,0,1-8.065,3.105s-5.919,3.568-7.956,15.335c-2.925,2.982-9.185,8.366-17.457,9.769a253.208,253.208,0,0,1-25.959,2.613s-.117.236-.281.669l-1.324-.276a3.067,3.067,0,0,1-.056.492l-.519-.266c-4.106-2.042-12.309-5.02-13.347,3.184-1.393,11,7.831,9.739,7.831,9.739a39.251,39.251,0,0,1,5.594-1.934l.515-.113a3.446,3.446,0,0,0,.363.807h1.255a17.393,17.393,0,0,0,1.57,2.9l29.238-.728a27.077,27.077,0,0,1,9.609-.453c-2.012,17.106-4.387,35.866-4.387,35.866s-4.975,29.71-1.493,32.815a47.988,47.988,0,0,1,6.17-1.88,36.173,36.173,0,0,0,.51,5.468l2.228,16.59s.865,16.949,3.76,27.067l2.553,13.829,2.137,10.453,1.2,17.741a189.626,189.626,0,0,1,3.574,22.855c1.129,11.919,7.26,31.181,8.078,33.716-2.094,3.371-6.395,9.09-11.79,9.68-7.7.846-7.887,6.127-2.505,8.027s16.709,0,16.709,0l15.973-4.493c-.48,3.351-.731,6-.381,6.285,1.021.846,16.523,5.413,17.081-1.9q.065-.906.117-1.757a41.979,41.979,0,0,0-1.622-13.829c-.125-.438-.238-.881-.337-1.324a8.125,8.125,0,0,0,.632-.93s1.116-19.744,1.951-26.821c.065-.566.108-1.255.13-2.033.385-8.484-2.336-30.8-2.336-30.8s-3.362-14.518-3.236-21.191a7.166,7.166,0,0,1,.247-1.634,2.039,2.039,0,0,0-.043-.354,1.052,1.052,0,0,1,.065-.281s-1.7-13.288-1.467-21.191a18.519,18.519,0,0,1,.433-3.494,26.015,26.015,0,0,0,.411-4.562c.216-5.413-.035-14.764-.381-23.534.039-.148.078-.3.108-.467a5.167,5.167,0,0,0-.212-2.067c-.026-.566-.048-1.127-.073-1.683.143-.556.26-1.147.363-1.757h.225v.034s14.546-.792,17.89-5.226c0,0-3.379-11.944-5.252-21.654ZM759.748,256.8l-.229-.094c.368-1.476.8-3.194,1.3-5C760.4,253.664,760.034,255.436,759.748,256.8Zm14.762-48.962.065.069-.069-.044Zm18.171,256.164c-.783-3.066-3.894-15.566-3.794-21.526a6.828,6.828,0,0,1,.238-1.526,12.855,12.855,0,0,0,.433-3.332c.312-6.221-1.782-17.367-1.782-17.367s-4.686-15.035-4.326-26.974c0-.3.03-.6.048-.9.078-1.132.138-2.357.182-3.652v-.025c.177-4.611.138-10.163.022-15.34l-.026-.192c-.16-6.855-.459-13.027-.584-15.468.433,3.529,3.2,25.492,4.4,29.085a82.677,82.677,0,0,0,3.621,18.7l3.254,22.274s.835,26.506,2.224,34c.623,3.337,1.151,5.586,1.545,7.052-.562,2.987-1.471,7.992-2.081,12.136-.359-2.7-1.622-13-3.362-16.949Z" transform="translate(-429.183 -93.596)" fill="url(#linear-gradient)"/>
      <path id="Trazado_508" data-name="Trazado 508" d="M860.691,784.1s-5.43,11.2-13.066,12.033-7.818,6.068-2.483,7.953,16.562,0,16.562,0l16.008-4.5s-1.934-18-4.508-18.942S860.691,784.1,860.691,784.1Z" transform="translate(-511.103 -413.004)" fill="#4c4c78"/>
      <path id="Trazado_509" data-name="Trazado 509" d="M926.812,786.877s-4.05,20.719-3.029,21.56,16.376,5.335,16.93-1.885q.065-.91.117-1.742A41.686,41.686,0,0,0,939.22,791.1a12.338,12.338,0,0,1-.623-4.227C938.853,783.949,926.812,786.877,926.812,786.877Z" transform="translate(-557.711 -415.576)" fill="#4c4c78"/>
      <path id="Trazado_510" data-name="Trazado 510" d="M879.216,229.259s-12.421,34.705-10.21,23.558c1.462-7.382-7.991-17.19-14.528-22.953-3.327-2.953-5.9-4.828-5.9-4.828s23.32-30.925,21.667-17.584a22.624,22.624,0,0,0,1.272,10.768A27.614,27.614,0,0,0,879.216,229.259Z" transform="translate(-515.137 -120.268)" fill="#ffb9b9"/>
      <path id="Trazado_511" data-name="Trazado 511" d="M714.64,342.057a6.286,6.286,0,0,0-2.843.2,38.97,38.97,0,0,0-5.542,1.914s-9.142,1.255-7.762-9.651c1.025-8.13,9.155-5.177,13.226-3.159,1.384.694,2.3,1.275,2.3,1.275Z" transform="translate(-429.905 -183.765)" fill="#ffb9b9"/>
      <path id="Trazado_512" data-name="Trazado 512" d="M731.611,344.354a6.286,6.286,0,0,0-2.843.2c-1-2.854-.238-9.621-.078-10.9,1.384.694,2.3,1.275,2.3,1.275Z" transform="translate(-446.876 -186.062)" opacity="0.1"/>
      <path id="Trazado_513" data-name="Trazado 513" d="M732.365,333.722l-2.392-.492s-1.224,9.35.376,11.811H733.1Z" transform="translate(-447.591 -185.844)" fill="#cbcdda"/>
      <path id="Trazado_514" data-name="Trazado 514" d="M827.517,366.97s-7.312-4.975-8.186,1.3-2.025,17.008-2.025,17.008l-2.025,13.657L812.66,426.3l.368,4.656s7.788-2.982,9.613-1.934,3.314-11.511,3.314-11.511l3.029-12.977.459-27.52Z" transform="translate(-494.758 -202.029)" fill="#4c4c78"/>
      <path id="Trazado_515" data-name="Trazado 515" d="M827.517,366.97s-7.312-4.975-8.186,1.3-2.025,17.008-2.025,17.008l-2.025,13.657L812.66,426.3l.368,4.656s7.788-2.982,9.613-1.934,3.314-11.511,3.314-11.511l3.029-12.977.459-27.52Z" transform="translate(-494.758 -202.029)" opacity="0.1"/>
      <path id="Trazado_516" data-name="Trazado 516" d="M777.491,303.4s-7.589,9.734-19.11,11.693a249.113,249.113,0,0,1-25.738,2.594,15.827,15.827,0,0,0,1.588,15.069l28.987-.728s6.416-1.585,11.387,0Z" transform="translate(-448.673 -170.694)" fill="#4c4c78"/>
      <path id="Trazado_517" data-name="Trazado 517" d="M777.491,303.4s-7.589,9.734-19.11,11.693a249.113,249.113,0,0,1-25.738,2.594,15.827,15.827,0,0,0,1.588,15.069l28.987-.728s6.416-1.585,11.387,0Z" transform="translate(-448.673 -170.694)" opacity="0.05"/>
      <path id="Trazado_518" data-name="Trazado 518" d="M692.29,384.58" transform="translate(-426.466 -211.923)" fill="none" stroke="blue" stroke-miterlimit="10" stroke-width="1"/>
      <path id="Trazado_519" data-name="Trazado 519" d="M870.29,217.92c-2.83,6.89-7.749,11.969-14.883,11.969-.316,0-.623,0-.93-.025-3.327-2.953-5.9-4.828-5.9-4.828s23.32-30.925,21.667-17.584C869.736,211.537,869.152,214.854,870.29,217.92Z" transform="translate(-515.137 -120.268)" opacity="0.1"/>
      <path id="Trazado_520" data-name="Trazado 520" d="M858.815,193.236c-.007,11.167-7.97,20.213-17.788,20.207s-17.771-9.063-17.767-20.23S831.225,173,841.042,173a16.723,16.723,0,0,1,12.584,5.917,21.675,21.675,0,0,1,5.189,14.32Z" transform="translate(-500.772 -104.468)" fill="#ffb9b9"/>
      <path id="Trazado_521" data-name="Trazado 521" d="M876.331,358.562s-39.648,3.981-41.1-1.777,4.045-21.349,4.045-21.349l-1.791-21.767-.065-.832s4.967-23.548,4.785-25.428c-.173-1.693,8-21.452,9.674-25.492.2-.468.3-.723.3-.723l.316.207.138.094,1.943,1.289,7.671-2.067,9.246-5.507.865,60.242Z" transform="translate(-507.424 -146.22)" fill="#cbcdda"/>
      <path id="Trazado_522" data-name="Trazado 522" d="M870.251,268.743a3.041,3.041,0,0,0-3.773,2.249,34.461,34.461,0,0,1-1.471,3.873l-1.056,7.165-1.934,11.319-1.428,50.074.645,8.893,3.543-7.165.645-46.807v-5.822a47.047,47.047,0,0,1,2.951-14.616l.493-1.314,3.08-4.5Z" transform="translate(-521.951 -153.04)" opacity="0.1"/>
      <path id="Trazado_523" data-name="Trazado 523" d="M868.981,267.463a3.04,3.04,0,0,0-3.773,2.249,34.181,34.181,0,0,1-1.475,3.873l-1.056,7.17-1.934,11.319-1.423,50.074.645,8.9,3.543-7.19.645-46.777v-5.837a47.289,47.289,0,0,1,2.951-14.616l.5-1.314,3.08-4.5Z" transform="translate(-521.231 -152.39)" fill="#4c4c78"/>
      <path id="Trazado_524" data-name="Trazado 524" d="M891.788,241.31s-9.384,11.319-12.7,12.663c0,0,1.657,8.583,3.314,10.256,0,0,9.847-11.422,11.591-12.348l1.462-4.07Z" transform="translate(-532.447 -139.16)" opacity="0.1"/>
      <path id="Trazado_525" data-name="Trazado 525" d="M891.788,240s-9.384,11.319-12.7,12.663c0,0,1.657,8.583,3.314,10.256,0,0,9.847-11.422,11.591-12.348l1.462-4.065Z" transform="translate(-532.447 -138.495)" fill="#cbcdda"/>
      <path id="Trazado_526" data-name="Trazado 526" d="M855.921,267.37l-.1.3-3.007,9.168-5.378,17.3s-.048.177-.143.492c-.891,3.15-5.681,20.241-6.624,25.207L840.61,319s4.967-23.548,4.785-25.428c-.173-1.693,8-21.452,9.674-25.492.268-.207.476-.384.619-.517Z" transform="translate(-510.616 -152.395)" opacity="0.1"/>
      <path id="Trazado_527" data-name="Trazado 527" d="M838.366,267.36l-3.106,9.469-5.378,17.3s-.048.177-.143.492c-.943,3.356-6.321,22.515-6.754,26.019-.489,3.848-7.251,24.651-7.251,24.651l-3.864,36.019c-3.461-3.056,1.454-32.481,1.454-32.481s5.521-43.637,6.827-58.155,8.354-18.76,8.354-18.76a16.28,16.28,0,0,0,7.991-3.076A17.026,17.026,0,0,0,838.366,267.36Z" transform="translate(-493.61 -152.39)" fill="#4c4c78"/>
      <path id="Trazado_528" data-name="Trazado 528" d="M886.946,590.816c-.826,7.013-1.93,26.575-1.93,26.575-3.864,6.59-12.421,3.032-12.421,3.032s-.917-1.969-2.3-9.419-2.207-33.7-2.207-33.7l-3.223-22.047a81.673,81.673,0,0,1-3.587-18.524c-1.3-3.873-4.417-29.3-4.417-29.3s1.3,22.81.463,34.848,4.227,28.234,4.227,28.234,2.855,15.177,1.38,19.887,3.682,24.169,3.682,24.169c-.433,5.655-15.082,3.351-15.082,3.351s-6.892-21.039-8.1-33.7a188.269,188.269,0,0,0-3.543-22.638L838.7,544l-2.12-10.394L834.05,519.9c-2.856-10.044-3.725-26.841-3.725-26.841l-2.211-16.481c-1.445-8.15.433-17.717,1.679-22.722.541-2.17.973-3.494.973-3.494,1.268,1.024,8.528,2.224,12.283,3.2a19.01,19.01,0,0,0,6.273.571,124.744,124.744,0,0,0,28.031-5.847c.619-.212.948-.335.948-.335l.195,1.885.459,4.488.818,7.968s2.483,42.486,1.012,48.229,1.012,25.1,1.012,25.1c-1.38,4.592,2.942,23.253,2.942,23.253S887.776,583.8,886.946,590.816Z" transform="translate(-503.229 -244.106)" opacity="0.1"/>
      <path id="Trazado_529" data-name="Trazado 529" d="M886.946,589.591c-.826,7.013-1.93,26.575-1.93,26.575-3.864,6.595-12.421,3.031-12.421,3.031s-.917-1.969-2.3-9.414-2.207-33.7-2.207-33.7L864.868,554a83.16,83.16,0,0,1-3.587-18.548c-1.3-3.873-4.417-29.3-4.417-29.3s1.3,22.81.463,34.848,4.227,28.253,4.227,28.253,2.855,15.177,1.38,19.887,3.682,24.173,3.682,24.173c-.433,5.65-15.082,3.346-15.082,3.346s-6.892-21.014-8.1-33.681a188.266,188.266,0,0,0-3.543-22.638L838.7,542.765l-2.12-10.359L834.05,518.7c-2.856-10.049-3.725-26.846-3.725-26.846l-2.211-16.481c-1.445-8.15.433-17.717,1.679-22.722.541-2.165.973-3.489.973-3.489,1.268,1.024,8.528,2.22,12.283,3.194a18.878,18.878,0,0,0,6.273.571,124.742,124.742,0,0,0,28.031-5.846l.948-.33.195,1.88.459,4.493.818,7.968s2.483,42.481,1.012,48.229,1.012,25.1,1.012,25.1c-1.38,4.587,2.942,23.248,2.942,23.248S887.776,582.568,886.946,589.591Z" transform="translate(-503.229 -243.497)" fill="#474463"/>
      <path id="Trazado_530" data-name="Trazado 530" d="M860.84,193.256a22.359,22.359,0,0,1-2.354,10.079,8.482,8.482,0,0,1-7.788-2.141c-1.419-1.422-2.336-3.366-3.556-5.015a28.76,28.76,0,0,0-2.54-2.849,8.2,8.2,0,0,0-2-1.658,2.429,2.429,0,0,0-2.4-.03c-.978.62-1.3,2-1.865,3.105a3.837,3.837,0,0,1-2.038,2.023,2.03,2.03,0,0,1-2.436-.94c-.6-1.176-.16-3.012-1.168-3.73a6.023,6.023,0,0,0-.822-.384c-1.3-.669-1.449-2.653-1.562-4.277a2.847,2.847,0,0,0-.8-2.126c-.588-.428-1.363-.212-2.064-.2a2.363,2.363,0,0,1-.619-.054c3.405-8.731,11.717-13.561,19.932-11.583s14.093,10.225,14.1,19.777Z" transform="translate(-502.798 -104.487)" opacity="0.1"/>
      <path id="Trazado_531" data-name="Trazado 531" d="M821.153,157.583a7.023,7.023,0,0,0-2.393,4.892,2.852,2.852,0,0,0,.065.96,6.844,6.844,0,0,0,.433.955c.909,2.052-.48,4.483-.3,6.772a4.179,4.179,0,0,0,3.894,3.937c.7,0,1.471-.236,2.064.2a2.838,2.838,0,0,1,.8,2.126c.112,1.624.255,3.607,1.557,4.277a6.8,6.8,0,0,1,.822.384c1.012.719.571,2.559,1.172,3.73a2.03,2.03,0,0,0,2.436.94,3.823,3.823,0,0,0,2.033-2.018c.558-1.107.891-2.461,1.869-3.105a2.417,2.417,0,0,1,2.4.025,8.22,8.22,0,0,1,2,1.663,28.22,28.22,0,0,1,2.54,2.849c1.22,1.644,2.137,3.588,3.556,5.01a8.882,8.882,0,0,0,10.063,1.412,3.037,3.037,0,0,0,1.25-.906,3.905,3.905,0,0,0,.567-1.609,22.147,22.147,0,0,0,.286-5.635,31.715,31.715,0,0,1-.29-4.429c.091-1.585.588-3.115.658-4.7a13.105,13.105,0,0,0-2.6-7.687c-.9-1.324-1.912-2.549-2.691-3.967-.679-1.23-1.172-2.584-1.9-3.775a11.261,11.261,0,0,0-7.511-5,23.521,23.521,0,0,0-8.887.335,64.121,64.121,0,0,1-7.736,1.363C825.043,156.756,823.213,155.885,821.153,157.583Z" transform="translate(-498.211 -95.114)" fill="#472727"/>
      <path id="Trazado_532" data-name="Trazado 532" d="M863.417,267.36l-3.106,9.469-5.378,17.3s-.048.177-.143.492v.025l6.767-25.817A17,17,0,0,0,863.417,267.36Z" transform="translate(-518.661 -152.39)" opacity="0.1"/>
      <path id="Trazado_533" data-name="Trazado 533" d="M939.743,482.9s.32,11.457-2.393,14.336l-7.221-15.487,6.057-3.351Z" transform="translate(-561.405 -259.571)" fill="#ffb9b9"/>
      <path id="Trazado_534" data-name="Trazado 534" d="M928.8,369.621c-3.314,4.395-17.739,5.182-17.739,5.182l-14.277-25.591s-3.379-2.667-9.726-14.68-6.139-21.265-5.784-28.174,4.326-26.767,4.326-26.767c.619-4.469,9.518-32.481,9.518-32.481a13.667,13.667,0,0,0,4.707,5.354c5.495,3.937,13.165,5.551,13.165,5.551,12.356,2.042,10.076,16.56,10.076,16.56s.138,56.433-.623,63.185S928.8,369.621,928.8,369.621Z" transform="translate(-533.602 -142.106)" opacity="0.1"/>
      <path id="Trazado_535" data-name="Trazado 535" d="M862.9,451.378l-.415,4.188-5.014-2.092-3.677-6.334,2.76-2.461Z" transform="translate(-484.373 -225.851)" fill="#cbcdda"/>
      <path id="Trazado_536" data-name="Trazado 536" d="M884.464,453.128l-2.622.305-25.28,2.874a36.1,36.1,0,0,1-12.157-.679l-11.725-2.667c.541-2.165.973-3.489.973-3.489,1.268,1.024,8.528,2.22,12.283,3.194a18.881,18.881,0,0,0,6.273.571,124.748,124.748,0,0,0,28.031-5.846l1.142,1.55Z" transform="translate(-506.117 -243.822)" opacity="0.1"/>
      <g id="Grupo_71" data-name="Grupo 71" transform="translate(327.533 203.248)" opacity="0.1">
        <path id="Trazado_537" data-name="Trazado 537" d="M835.188,451.777a2.239,2.239,0,0,1-.242-.157.163.163,0,0,1-.026.074Z" transform="translate(-834.92 -449.218)"/>
        <path id="Trazado_538" data-name="Trazado 538" d="M943.736,557.656s-4.327-18.662-2.942-23.248c0,0-2.483-19.341-1.008-25.1s-1.017-48.229-1.017-48.229l-.818-7.968-.459-4.493-.19-1.88-.952.33-.588.2.073.728.459,4.488.818,7.968s2.483,42.486,1.017,48.229,1.008,25.1,1.008,25.1c-1.38,4.592,2.942,23.248,2.942,23.248s3.029,24.912,2.211,31.92-1.934,26.575-1.934,26.575c-2.821,4.818-8.147,4.218-10.816,3.543l.048.118s8.558,3.563,12.421-3.031c0,0,1.1-19.572,1.934-26.575S943.736,557.656,943.736,557.656Z" transform="translate(-889.737 -446.74)"/>
        <path id="Trazado_539" data-name="Trazado 539" d="M894.186,649.884c1.471-4.71-1.38-19.887-1.38-19.887s-5.058-16.24-4.231-28.253c.346-5.015.324-11.895.177-18.209-1.172-8.145-2.3-17.225-2.3-17.225s1.3,22.81.467,34.843,4.227,28.258,4.227,28.258,2.855,15.172,1.38,19.882,3.673,24.149,3.673,24.149c-.368,4.528-9.821,3.937-13.572,3.543l.143.433s14.628,2.3,15.086-3.346C897.868,674.057,892.715,654.593,894.186,649.884Z" transform="translate(-861.988 -507.466)"/>
      </g>
      <path id="Trazado_540" data-name="Trazado 540" d="M930.062,369.621c-3.31,4.395-17.739,5.182-17.739,5.182l-14.277-25.591s-3.379-2.667-9.73-14.68-6.135-21.265-5.784-28.174,4.326-26.767,4.326-26.767c.619-4.469,9.518-32.481,9.518-32.481a13.6,13.6,0,0,0,4.707,5.354c5.495,3.937,13.165,5.551,13.165,5.551,12.352,2.042,10.072,16.56,10.072,16.56s.138,56.433-.623,63.185S930.062,369.621,930.062,369.621Z" transform="translate(-534.319 -142.106)" fill="#4c4c78"/>
      <path id="Trazado_541" data-name="Trazado 541" d="M899.214,260.983l-3.106,1.314,2.068,1.649L882.73,306.328c.359-6.89,4.326-26.767,4.326-26.767.619-4.469,9.518-32.481,9.518-32.481a13.6,13.6,0,0,0,4.707,5.354Z" transform="translate(-534.513 -142.091)" opacity="0.1"/>
      <path id="Trazado_542" data-name="Trazado 542" d="M851.5,390.251l15.8-4.631,2.072,7.3L853.226,397.4Z" transform="translate(-483.074 -195.856)" opacity="0.1"/>
      <path id="Trazado_543" data-name="Trazado 543" d="M938.382,280.313s-7.178,7.682-4.469,24.8,7.039,35.709,7.039,35.709L929.27,377.637s8.142,9.656,12.144,10.827l11.66-29.434s5.451-10.2,4-26.211-6.693-41.915-6.693-41.915S950.388,275.136,938.382,280.313Z" transform="translate(-560.917 -158.439)" opacity="0.1"/>
      <path id="Trazado_544" data-name="Trazado 544" d="M939.629,280.313s-7.182,7.682-4.482,24.8,7.035,35.709,7.035,35.709L930.5,377.637s8.142,9.656,12.144,10.827l11.682-29.434s5.451-10.2,4-26.211-6.693-41.915-6.693-41.915S951.635,275.136,939.629,280.313Z" transform="translate(-561.615 -158.439)" fill="#4c4c78"/>
      <path id="Trazado_545" data-name="Trazado 545" d="M929.108,480.675s9.107,14.341,8.419,18.16-3.357,1.777-3.357,1.777l-3.587-5.6-3.223-10.468S927.676,480.03,929.108,480.675Z" transform="translate(-559.833 -260.694)" opacity="0.1"/>
      <path id="Trazado_546" data-name="Trazado 546" d="M926.558,480.675s9.086,14.341,8.419,18.16-3.357,1.777-3.357,1.777l-3.591-5.6-3.219-10.468S925.126,480.03,926.558,480.675Z" transform="translate(-558.387 -260.694)" opacity="0.1"/>
      <path id="Trazado_547" data-name="Trazado 547" d="M927.838,480.675s9.086,14.341,8.415,18.16-3.357,1.777-3.357,1.777l-3.587-5.6-3.219-10.468S926.4,480.03,927.838,480.675Z" transform="translate(-559.113 -260.694)" fill="#474463"/>
    </g>
  </g>
</svg>
