<?xml version="1.0" encoding="utf-8"?>
<!-- Generator: Adobe Illustrator 23.0.5, SVG Export Plug-In . SVG Version: 6.00 Build 0)  -->
<svg version="1.1" id="Capa_1" xmlns="http://www.w3.org/2000/svg" xmlns:xlink="http://www.w3.org/1999/xlink" x="0px" y="0px"
	 viewBox="0 0 512 512" style="enable-background:new 0 0 512 512;" xml:space="preserve">
<style type="text/css">
	.st0{fill:#ACE2EC;}
	.st1{fill:#F9C172;}
	.st2{fill:#204451;}
	.st3{fill:#DEFDFF;}
	.st4{fill:#005082;}
	.st5{fill:#0A84A0;}
	.st6{fill:#82D3E2;}
	.st7{fill:#FFB45A;}
	.st8{fill:#113240;}
	.st9{fill:#BDE2E5;}
	.st10{fill:#FACB88;}
	.st11{fill:#000839;}
	.st12{fill:#009CC4;}
</style>
<g>
	<g id="XMLID_107_">
		<rect id="XMLID_302_" x="172.3" y="332.3" class="st0" width="83.7" height="173.7"/>
	</g>
	<g id="XMLID_106_">
		<polygon class="st1" points="256,373.3 197.7,352 197.7,234.9 256,234.9 256,348.4 		"/>
	</g>
	<g id="XMLID_105_">
		<polygon id="XMLID_301_" class="st2" points="248,412.7 220,470.7 242.8,506 256,506 256,348.4 226.8,392 		"/>
	</g>
	<g id="XMLID_104_">
		<polygon id="XMLID_300_" class="st3" points="186.3,316.3 256,348.4 226.8,400.8 172.3,332.3 		"/>
	</g>
	<g id="XMLID_103_">
		<path id="XMLID_299_" class="st4" d="M33.4,506H256L154,361.4h-20.9C33.4,361.4,33.4,506,33.4,506z"/>
	</g>
	<g id="XMLID_102_">
		<polygon id="XMLID_298_" class="st5" points="131.9,358.5 172.3,332.3 256,506 161.9,428.8 182.1,400.8 144.8,405.4 		"/>
	</g>
	<g id="XMLID_100_">
		<rect id="XMLID_297_" x="256" y="332.3" class="st6" width="83.7" height="173.7"/>
	</g>
	<g id="XMLID_99_">
		<polygon class="st7" points="256,373.3 314.3,352 314.3,234.9 256,234.9 256,348.4 		"/>
	</g>
	<g id="XMLID_98_">
		<polygon id="XMLID_296_" class="st8" points="264,412.7 292,470.7 269.2,506 256,506 256,348.4 285.2,392 		"/>
	</g>
	<g id="XMLID_97_">
		<polygon id="XMLID_295_" class="st9" points="325.7,316.3 256,348.4 285.2,400.8 339.7,332.3 		"/>
	</g>
	<g id="XMLID_96_">
		<path id="XMLID_294_" class="st4" d="M478.6,506H256l102-144.6h20.9C470.6,361.4,478.6,506,478.6,506z"/>
	</g>
	<g id="XMLID_95_">
		<polygon id="XMLID_275_" class="st5" points="380.1,358.5 339.7,332.3 256,506 350.1,428.8 329.9,400.8 367.2,405.4 		"/>
	</g>
	<g id="XMLID_93_">
		<path class="st10" d="M169.8,152.2l-2.1-0.9c-11.5-4.9-14.4-5.6-13.5,20.3c0,0-0.1,46.7,17.2,49c1.6,7.5,3.9,14.5,7.1,20.4
			c17,31,46.9,66.7,77.5,66.7v-87.1v-68.4V83.8C161.1,72.1,178.9,113,169.8,152.2z"/>
	</g>
	<g id="XMLID_92_">
		<path class="st1" d="M342.2,152.2l2.1-0.9c11.5-4.9,14.4-5.6,13.5,20.3c0,0,0.1,46.7-17.2,49c-1.6,7.5-3.9,14.5-7.1,20.4
			c-17,31-46.9,66.7-77.5,66.7v-87.1v-68.4V83.8C350.8,72.1,333.1,113,342.2,152.2z"/>
	</g>
	<g id="XMLID_90_">
		<path d="M237.1,36.3c-10.3,0-20.5,1.5-30.1,5.2c-64.4,24.9-39.1,111.9-37.2,135.3c0.5,6,3.4-36.1,8.5-58.8
			c3.2-14.1,21.9-17.2,34-9.1c18.1,12.2,43.8,9.1,43.8,9.1V36.3H237.1z"/>
	</g>
	<g id="XMLID_89_">
		<path d="M274.9,36.3c10.3,0,20.5,1.5,30.1,5.2c64.4,24.9,39.1,111.9,37.2,135.3c-0.5,6-3.4-36.1-8.5-58.8
			c-3.2-14.1-21.9-17.2-34-9.1C281.6,121.1,256,118,256,118V36.3H274.9z"/>
	</g>
	<g id="XMLID_423_">
		<path id="XMLID_293_" class="st11" d="M317.4,269.3C317.4,269.3,317.4,269.3,317.4,269.3l-52.1,0l0-7.6l52.1,0c0,0,0,0,0,0
			c11.7,0,22.2-7.4,26.1-18.5l9.3-26.2l7.2,2.5l-9.3,26.2C345.7,259.8,332.4,269.3,317.4,269.3z"/>
	</g>
	<g id="XMLID_416_">
		<g id="XMLID_418_">
			<path class="st11" d="M273,278.2h6.1h6.1c7,0,12.7-5.7,12.7-12.7h-37.5C260.3,272.5,266,278.2,273,278.2z"/>
		</g>
		<g id="XMLID_417_">
			<path class="st12" d="M285.2,252.9h-6.1H273c-7,0-12.7,5.7-12.7,12.7h37.5C297.9,258.5,292.2,252.9,285.2,252.9z"/>
		</g>
	</g>
	<g id="XMLID_535_">
		<g id="XMLID_537_">
			<path class="st11" d="M247.3,6C192,6,147.1,51.2,147.1,106.7v16.9h14.6v-16.9c0-47.5,38.4-86.1,85.6-86.1h8.7V6H247.3z"/>
		</g>
		<g id="XMLID_536_">
			<path class="st11" d="M264.8,6H256v14.6h8.8c47.2,0,85.6,38.6,85.6,86.1v16.9h14.6v-16.9C364.9,51.2,320,6,264.8,6z"/>
		</g>
	</g>
	<g id="XMLID_534_">
		<path id="XMLID_252_" class="st4" d="M388.7,125.5c-7.5-9.4-20-10.2-20-10.2c-4.4-1.1-8.6-1-12.4,0v109.9c3.7,1,7.9,1.1,12.4,0
			c0,0,12.5-0.8,20-10.2C396.3,205.5,396.3,134.9,388.7,125.5z"/>
	</g>
	<g id="XMLID_533_">
		<path id="XMLID_230_" class="st11" d="M341.3,136.8v66.8c0,11,6.1,19.1,15.1,21.6V115.2C347.5,117.7,341.3,125.8,341.3,136.8z"/>
	</g>
	<g id="XMLID_532_">
		<path id="XMLID_183_" class="st4" d="M143.3,115.2c0,0-12.5,0.8-20,10.2c-7.5,9.4-7.5,80.1,0,89.5c7.5,9.4,20,10.2,20,10.2
			c4.4,1.1,8.6,1,12.4,0V115.2C151.9,114.2,147.7,114.1,143.3,115.2z"/>
	</g>
	<g id="XMLID_531_">
		<path class="st11" d="M155.6,115.2v109.9c8.9-2.5,15.1-10.5,15.1-21.6v-66.8C170.7,125.8,164.5,117.7,155.6,115.2z"/>
	</g>
</g>
</svg>
