<?xml version="1.0" encoding="utf-8"?>
<!-- Generator: Adobe Illustrator 23.0.5, SVG Export Plug-In . SVG Version: 6.00 Build 0)  -->
<svg version="1.1" id="Capa_1" xmlns="http://www.w3.org/2000/svg" xmlns:xlink="http://www.w3.org/1999/xlink" x="0px" y="0px"
	 viewBox="0 0 512 512" style="enable-background:new 0 0 512 512;" xml:space="preserve">
<style type="text/css">
	.st0{fill:#1E7C85;}
	.st1{fill:#28A5B2;}
	.st2{fill:#009CC4;}
	.st3{fill:#CBF3F4;}
	.st4{fill:#DEFDFF;}
	.st5{fill:#005082;}
	.st6{fill:#000839;}
	.st7{fill:#5ECCE5;}
	.st8{fill:#FFA41B;}
</style>
<g>
	<g id="XMLID_251_">
		<g id="XMLID_322_">
			<g id="XMLID_492_">
				<path id="XMLID_182_" class="st0" d="M115.6,225.2c-25.4,77.2,17.3,160.9,95.1,186.5c15.3,5,30.7,7.4,46,7.5v-5.7
					c-14.7,0-29.6-2.2-44.3-7.1c-74.3-24.4-114.9-104.7-90.5-179c19.6-59.6,75.2-97.5,134.7-97.6v-5.7
					C194.2,123.9,135.9,163.2,115.6,225.2z"/>
			</g>
			<g id="XMLID_505_">
				<path id="XMLID_181_" class="st1" d="M301,136.8c74.3,24.4,114.9,104.7,90.5,179c-19.6,59.6-75.2,97.5-134.8,97.6v5.7
					c62.5,0.2,120.8-39.1,141.2-101.2c25.4-77.2-17.3-160.9-95.1-186.4c-15.3-5-30.8-7.4-46-7.4v5.7
					C271.3,129.8,286.3,132,301,136.8z"/>
			</g>
			<g id="XMLID_507_">
				<path id="XMLID_179_" class="st0" d="M213.8,402.1c-72-23.7-111.3-101.4-87.6-173.4c19-57.7,72.8-94.4,130.5-94.4v-4.5
					c-59.6,0.1-115.1,37.9-134.7,97.6c-24.4,74.3,16.2,154.6,90.5,179c14.7,4.8,29.6,7.1,44.3,7.1v-4.5
					C242.4,408.9,228,406.8,213.8,402.1z"/>
			</g>
			<g id="XMLID_511_">
				<path id="XMLID_178_" class="st2" d="M391.4,315.9c24.4-74.3-16.2-154.6-90.5-179c-14.7-4.8-29.6-7.1-44.3-7.1v4.5
					c14.2,0,28.7,2.1,42.9,6.8c72,23.6,111.3,101.4,87.7,173.4c-19,57.8-72.8,94.4-130.6,94.4v4.5
					C316.2,413.4,371.8,375.5,391.4,315.9z"/>
			</g>
			<g id="XMLID_515_">
				<g id="XMLID_80_">
					<path class="st3" d="M256.7,142.4c2.5,0,4.5,2,4.5,4.5l0,16.4c0,2.5-2,4.5-4.5,4.5c0,0,0,0,0,0v94.7c7.3,0,13.3,5.9,13.3,13.3
						c0,7.3-5.9,13.3-13.3,13.3v86.6c0,0,0,0,0,0c2.5,0,4.5,2,4.5,4.5l0,16.4c0,2.5-2,4.5-4.4,4.5c0,0,0,0,0,0v8.1
						c57.7,0,111.6-36.7,130.6-94.4c23.6-72-15.7-149.8-87.7-173.4c-14.2-4.7-28.7-6.8-42.9-6.8L256.7,142.4L256.7,142.4z
						 M321.3,383.5c-1.4,0.8-3.1,0.8-4.5,0c-0.7-0.4-1.2-0.9-1.6-1.6l-8.2-14.2c-1.2-2.1-0.5-4.9,1.6-6.1c2.1-1.2,4.8-0.5,6.1,1.7
						l8.2,14.2C324.1,379.5,323.4,382.3,321.3,383.5z M368.5,336.2c-1.2,2.1-4,2.9-6.1,1.6l-14.2-8.2c-2.1-1.3-2.9-4-1.6-6.1
						c1.2-2.1,4-2.9,6.1-1.6l14.1,8.2C369,331.3,369.8,334.1,368.5,336.2z M385.9,271.6c0,2.4-2,4.5-4.5,4.5l-16.4,0
						c-0.8,0-1.6-0.2-2.2-0.6c-1.3-0.8-2.2-2.2-2.2-3.9c0-2.4,2-4.5,4.4-4.5l16.4,0C383.9,267.1,385.9,269.1,385.9,271.6z
						 M348.2,213.6l14.2-8.2c2.1-1.3,4.9-0.5,6.1,1.6c1.2,2.1,0.5,4.9-1.6,6.1l-14.2,8.2c-1.4,0.8-3.1,0.8-4.5,0
						c-0.6-0.4-1.2-0.9-1.6-1.6C345.4,217.5,346.1,214.8,348.2,213.6z M307,175.5l8.2-14.2c1.2-2.1,4-2.9,6.1-1.6
						c2.1,1.2,2.9,4,1.7,6.1l-8.2,14.2c-1.2,2.1-4,2.9-6.1,1.6C306.5,180.4,305.8,177.7,307,175.5z"/>
				</g>
			</g>
			<g id="XMLID_607_">
				<g id="XMLID_73_">
					<path class="st4" d="M126.1,228.7c-23.6,72,15.7,149.8,87.6,173.4c14.2,4.7,28.7,6.8,42.9,6.8v-8.1c-0.8,0-1.6-0.2-2.2-0.6
						c-1.3-0.8-2.2-2.2-2.2-3.9V380c0-2.5,1.9-4.5,4.4-4.5v-86.6l0,0c-7.3,0-13.3-5.9-13.3-13.3c0-7.3,5.9-13.3,13.3-13.3l0,0v-94.7
						c-0.8,0-1.5-0.2-2.2-0.6c-1.3-0.8-2.2-2.2-2.2-3.9v-16.4c0-2.5,2-4.5,4.4-4.5v-8.1C198.9,134.4,145.1,171,126.1,228.7z
						 M129.7,275.5c-1.3-0.8-2.2-2.2-2.2-3.9c0-2.4,2-4.5,4.5-4.5l16.4,0c2.5,0,4.5,2,4.5,4.4c0,2.5-2,4.5-4.4,4.5l-16.4,0
						C131.1,276.1,130.4,275.9,129.7,275.5z M206.4,367.7l-8.2,14.2c-1.2,2.1-4,2.9-6.1,1.6c-2.1-1.2-2.9-4-1.6-6.1l8.2-14.2
						c1.2-2.1,4-2.9,6.1-1.6C206.9,362.8,207.6,365.6,206.4,367.7z M192.1,159.7c2.1-1.3,4.9-0.5,6.1,1.6l8.2,14.2
						c1.2,2.1,0.5,4.9-1.6,6.1c-1.4,0.8-3.1,0.8-4.5,0c-0.7-0.4-1.2-1-1.7-1.7l-8.2-14.2C189.2,163.7,189.9,161,192.1,159.7z
						 M165.1,329.7l-14.2,8.2c-1.4,0.8-3.1,0.8-4.5,0c-0.6-0.4-1.2-0.9-1.6-1.6c-1.2-2.2-0.5-4.9,1.6-6.1l14.2-8.2
						c2.1-1.2,4.9-0.5,6.1,1.6C167.9,325.7,167.2,328.4,165.1,329.7z M166.7,219.7c-1.2,2.2-4,2.9-6.1,1.7l-14.2-8.2
						c-2.1-1.2-2.9-4-1.6-6.1c1.2-2.1,4-2.9,6.1-1.6l14.2,8.2C167.2,214.8,167.9,217.6,166.7,219.7z"/>
				</g>
			</g>
			<g id="XMLID_613_">
				<path id="XMLID_177_" class="st5" d="M366.9,330.1l-14.1-8.2c-2.2-1.2-4.9-0.5-6.1,1.6c-1.2,2.2-0.5,4.9,1.6,6.1l14.2,8.2
					c2.1,1.2,4.9,0.5,6.1-1.6C369.8,334.1,369,331.3,366.9,330.1z"/>
			</g>
			<g id="XMLID_614_">
				<path id="XMLID_176_" class="st0" d="M360.6,271.6c0,1.7,0.9,3.1,2.2,3.9c0.7,0.4,1.4,0.6,2.2,0.6l16.4,0c2.5,0,4.5-2,4.5-4.5
					c0-2.5-2-4.5-4.5-4.5l-16.4,0C362.6,267.1,360.6,269.1,360.6,271.6z"/>
			</g>
			<g id="XMLID_615_">
				<path id="XMLID_175_" class="st5" d="M314.7,363.2c-1.3-2.1-4-2.9-6.1-1.7c-2.2,1.3-2.9,4-1.6,6.1l8.2,14.2
					c0.4,0.7,1,1.3,1.6,1.6c1.4,0.8,3.1,0.8,4.5,0c2.1-1.2,2.8-3.9,1.6-6.1L314.7,363.2z"/>
			</g>
			<g id="XMLID_617_">
				<path id="XMLID_173_" class="st5" d="M348.2,221.3c1.4,0.8,3.1,0.8,4.5,0l14.2-8.2c2.1-1.2,2.9-3.9,1.6-6.1
					c-1.2-2.2-4-2.9-6.1-1.6l-14.2,8.2c-2.1,1.2-2.9,4-1.6,6.1C347,220.4,347.6,220.9,348.2,221.3z"/>
			</g>
			<g id="XMLID_619_">
				<path id="XMLID_172_" class="st5" d="M261.1,396.3l0-16.4c0-2.4-2-4.5-4.5-4.5c0,0,0,0,0,0v25.3c0,0,0,0,0,0
					C259.1,400.8,261.1,398.8,261.1,396.3z"/>
			</g>
			<g id="XMLID_620_">
				<path id="XMLID_171_" class="st5" d="M252.2,380v16.4c0,1.6,0.9,3.1,2.2,3.9c0.6,0.4,1.4,0.6,2.2,0.6v-25.3
					C254.2,375.5,252.2,377.5,252.2,380z"/>
			</g>
			<g id="XMLID_621_">
				<path id="XMLID_170_" class="st5" d="M308.6,181.6c2.1,1.3,4.9,0.5,6.1-1.6l8.2-14.2c1.2-2.1,0.5-4.9-1.7-6.1
					c-2.1-1.2-4.9-0.5-6.1,1.6l-8.2,14.2C305.8,177.7,306.5,180.4,308.6,181.6z"/>
			</g>
			<g id="XMLID_622_">
				<path id="XMLID_169_" class="st5" d="M204.7,361.6c-2.1-1.3-4.9-0.5-6.1,1.6l-8.2,14.2c-1.3,2.2-0.5,4.9,1.6,6.1
					c2.1,1.2,4.9,0.5,6.1-1.6l8.2-14.2C207.6,365.6,206.9,362.8,204.7,361.6z"/>
			</g>
			<g id="XMLID_623_">
				<path id="XMLID_168_" class="st5" d="M261.1,163.3l0-16.4c0-2.5-2-4.5-4.5-4.5h0v25.3c0,0,0,0,0,0
					C259.1,167.8,261.1,165.7,261.1,163.3z"/>
			</g>
			<g id="XMLID_624_">
				<path id="XMLID_167_" class="st5" d="M252.2,146.9v16.4c0,1.7,0.9,3.1,2.2,3.9c0.7,0.4,1.4,0.6,2.2,0.6v-25.3
					C254.2,142.4,252.2,144.4,252.2,146.9z"/>
			</g>
			<g id="XMLID_625_">
				<path id="XMLID_166_" class="st5" d="M160.6,321.9l-14.2,8.2c-2.1,1.2-2.9,3.9-1.6,6.1c0.4,0.7,1,1.2,1.6,1.6
					c1.4,0.8,3.1,0.8,4.5,0l14.2-8.2c2.1-1.2,2.9-4,1.6-6.1C165.5,321.4,162.7,320.7,160.6,321.9z"/>
			</g>
			<g id="XMLID_626_">
				<path id="XMLID_165_" class="st5" d="M198.6,180c0.4,0.7,1,1.3,1.7,1.7c1.3,0.8,3.1,0.8,4.5,0c2.1-1.2,2.9-4,1.6-6.1l-8.2-14.2
					c-1.2-2.1-4-2.9-6.1-1.6c-2.1,1.2-2.9,3.9-1.6,6.1L198.6,180z"/>
			</g>
			<g id="XMLID_627_">
				<path id="XMLID_164_" class="st5" d="M152.8,271.6c0-2.5-2-4.4-4.5-4.4l-16.4,0c-2.5,0-4.5,2-4.5,4.5c0,1.7,0.9,3.1,2.2,3.9
					c0.7,0.4,1.4,0.6,2.2,0.6l16.4,0C150.8,276.1,152.8,274.1,152.8,271.6z"/>
			</g>
			<g id="XMLID_628_">
				<path id="XMLID_163_" class="st5" d="M144.8,207c-1.3,2.1-0.5,4.9,1.6,6.1l14.2,8.2c2.1,1.2,4.9,0.5,6.1-1.7
					c1.2-2.1,0.5-4.9-1.6-6.1l-14.2-8.2C148.8,204.2,146,204.9,144.8,207z"/>
			</g>
			<g id="XMLID_629_">
				<path class="st6" d="M386.2,158.8l14.1-13.1l-17.1-16l-13.6,12.5C375.5,147.5,381.1,153,386.2,158.8z"/>
			</g>
			<g id="XMLID_630_">
				<path id="XMLID_162_" class="st5" d="M386.2,158.8c-5.3-5.6-11.1-11-17.2-16l0.6-0.5c-0.1-0.1-0.1-0.1-0.2-0.2
					c-7.5-6.5-15.5-12.4-24.3-17.7c-22.9-13.8-47.8-21.6-72.8-23.9c-5.2-0.5-10.5-0.7-15.7-0.7v24.2c15.3,0.1,30.8,2.4,46,7.4
					c77.8,25.6,120.5,109.2,95.1,186.4c-20.4,62.1-78.7,101.4-141.2,101.2v24.2c58.2-0.1,115-29.7,147.2-83.2
					C443.2,294.6,433.7,213.5,386.2,158.8z"/>
			</g>
			<g id="XMLID_631_">
				<path id="XMLID_161_" class="st2" d="M210.7,411.7c-77.8-25.6-120.5-109.2-95.1-186.5c20.4-62.1,78.6-101.4,141.1-101.1V99.9
					c-5.2,0-10.5,0.3-15.7,0.7c-52.6,4.9-102.2,33.8-131.5,82.5c-48.9,81.3-22.6,186.8,58.7,235.6c27.7,16.7,58.3,24.6,88.5,24.6
					v-24.2C241.4,419.1,225.9,416.7,210.7,411.7z"/>
			</g>
			<g id="XMLID_632_">
				<path id="XMLID_160_" class="st0" d="M386.2,158.8c-5.1-5.8-10.6-11.4-16.6-16.6l-0.6,0.5C375.1,147.9,380.8,153.2,386.2,158.8z
					"/>
			</g>
			<g id="XMLID_633_">
				<path id="XMLID_159_" class="st5" d="M256.6,99.9V83.3h-1.3v-0.3h-4.8v0.2h-6.4v-0.2l-4.8,0v0h1.5l0,17.5
					C246.2,100.1,251.4,99.9,256.6,99.9z"/>
			</g>
			<g id="XMLID_634_">
				<rect id="XMLID_158_" x="273" y="83.1" class="st0" width="4.8" height="0"/>
			</g>
			<g id="XMLID_635_">
				<polygon id="XMLID_157_" class="st0" points="221.8,83.1 233,83.1 233,83.1 				"/>
			</g>
			<g id="XMLID_636_">
				<path id="XMLID_155_" class="st5" d="M266.5,83.1h-4.8v0.3l-5.1,0v16.6c5.2,0,10.5,0.2,15.7,0.7l0-17.2l-5.8,0V83.1z"/>
			</g>
			<g id="XMLID_637_">
				<polygon id="XMLID_154_" class="st0" points="284.2,83.1 291.5,83.1 284.2,83.1 				"/>
			</g>
			<g id="XMLID_638_">
				<polygon id="XMLID_153_" class="st5" points="261.8,49.1 261.8,83.1 266.5,83.1 266.5,49.2 273,49.2 273,83.1 277.8,83.1 
					277.7,49.3 284.2,49.3 284.2,83.1 291.5,83.1 291.5,48.9 256.6,48.9 256.6,49.1 				"/>
			</g>
			<g id="XMLID_639_">
				<polygon id="XMLID_152_" class="st5" points="233,48.9 239.4,48.9 239.4,83.1 244.2,83.1 244.2,49 250.6,49 250.6,83.1 
					255.4,83.1 255.4,49.1 256.6,49.1 256.6,48.9 221.8,48.9 228.2,48.9 228.2,83.1 221.8,83.1 233,83.1 				"/>
			</g>
			<g id="XMLID_640_">
				<rect x="221.8" y="48.9" class="st2" width="6.4" height="34.2"/>
			</g>
			<g id="XMLID_641_">
				<rect x="233" y="83.1" class="st7" width="6.4" height="0.1"/>
			</g>
			<g id="XMLID_642_">
				<rect x="233" y="83.1" class="st7" width="6.4" height="0"/>
			</g>
			<g id="XMLID_643_">
				<rect x="233" y="48.9" class="st2" width="6.4" height="34.1"/>
			</g>
			<g id="XMLID_644_">
				<rect x="244.2" y="83.1" class="st7" width="6.4" height="0.2"/>
			</g>
			<g id="XMLID_645_">
				<polygon class="st2" points="244.2,49 244.2,83.1 250.6,83.1 250.6,49 				"/>
			</g>
			<g id="XMLID_646_">
				<rect x="255.4" y="83.1" class="st7" width="1.3" height="0.3"/>
			</g>
			<g id="XMLID_647_">
				<rect x="256.6" y="83.1" class="st7" width="5.1" height="0.3"/>
			</g>
			<g id="XMLID_648_">
				<rect x="255.4" y="49.1" class="st5" width="1.3" height="34"/>
			</g>
			<g id="XMLID_649_">
				<rect x="256.6" y="49.1" class="st2" width="5.1" height="34"/>
			</g>
			<g id="XMLID_650_">
				<rect x="272.4" y="83.1" class="st7" width="0.6" height="0.3"/>
			</g>
			<g id="XMLID_651_">
				<polygon class="st7" points="266.5,83.1 266.5,83.4 272.4,83.4 272.4,83.1 273,83.1 273,83.1 				"/>
			</g>
			<g id="XMLID_652_">
				<rect x="266.5" y="49.2" class="st2" width="6.4" height="33.9"/>
			</g>
			<g id="XMLID_653_">
				<rect x="277.8" y="83.1" class="st7" width="6.4" height="0.4"/>
			</g>
			<g id="XMLID_654_">
				<rect x="277.8" y="83.1" class="st7" width="6.4" height="0"/>
			</g>
			<g id="XMLID_655_">
				<rect x="277.7" y="49.3" class="st2" width="6.4" height="33.8"/>
			</g>
		</g>
		<g id="XMLID_250_">
			<g>
				<path class="st8" d="M264.5,276.1h-15.7v-93.2c0-4.3,3.5-7.9,7.9-7.9l0,0c4.3,0,7.9,3.5,7.9,7.9V276.1z"/>
			</g>
		</g>
		<g id="XMLID_656_">
			<path id="XMLID_151_" class="st0" d="M269.9,275.7c0-7.3-5.9-13.3-13.3-13.3v26.5C264,288.9,269.9,283,269.9,275.7z"/>
		</g>
		<g id="XMLID_657_">
			<path id="XMLID_72_" class="st1" d="M256.6,262.4c-7.3,0-13.3,5.9-13.3,13.3c0,7.3,5.9,13.3,13.3,13.3l0,0V262.4L256.6,262.4z"/>
		</g>
	</g>
	<g id="XMLID_323_">
		<path id="XMLID_150_" class="st6" d="M256,505.8c-137.9,0-250-112.1-250-250C6,152.9,67.7,61.8,163.3,23.6l8.1,20.2
			C84.1,78.7,27.8,161.9,27.8,255.8C27.8,381.7,130.2,484,256,484c125.8,0,228.2-102.4,228.2-228.2c0-36.3-8.3-70.9-24.5-103
			l19.4-9.9C497,178.1,506,216.1,506,255.8C506,393.7,393.9,505.8,256,505.8z"/>
	</g>
	<g id="XMLID_320_">
		<g id="XMLID_70_">
			<path id="XMLID_115_" class="st6" d="M437.2,117.1c-5.7-7.4-11.9-14.6-18.5-21.3l15.5-15.3c7.2,7.3,14,15.2,20.3,23.3
				L437.2,117.1z M397.7,77c-7.3-5.8-15.1-11.3-23.1-16.1l11.4-18.6c8.8,5.3,17.3,11.3,25.3,17.7L397.7,77z M349.6,47.7
				c-8.5-3.9-17.4-7.2-26.4-10l6.4-20.8c9.8,3,19.6,6.7,28.9,10.9L349.6,47.7z M211.6,31.9l-4.2-21.4c10.1-2,20.4-3.4,30.6-4.1
				l1.5,21.7C230.3,28.9,220.8,30.1,211.6,31.9z M295.9,31.1c-9.2-1.6-18.6-2.7-28-3.2l1.1-21.8c10.3,0.5,20.6,1.7,30.7,3.5
				L295.9,31.1z"/>
		</g>
		<g id="XMLID_69_">
			<path id="XMLID_91_" class="st6" d="M459.7,152.8c-2.1-4.1-4.3-8.2-6.6-12.2l18.8-11c2.6,4.4,5,8.8,7.3,13.3L459.7,152.8z"/>
		</g>
	</g>
	<g id="XMLID_324_">
		<polygon class="st6" points="152.1,105.2 95.6,16.7 192.8,16.8 		"/>
	</g>
</g>
</svg>
