<svg xmlns="http://www.w3.org/2000/svg" xmlns:xlink="http://www.w3.org/1999/xlink" width="1439.209" height="998.596" viewBox="0 0 1439.209 998.596">
  <defs>
    <filter id="Rect치ngulo_126" x="3.477" y="947.359" width="1435.732" height="51.236" filterUnits="userSpaceOnUse">
      <feOffset dy="15" input="SourceAlpha"/>
      <feGaussianBlur stdDeviation="8" result="blur"/>
      <feFlood flood-opacity="0.929"/>
      <feComposite operator="in" in2="blur"/>
      <feComposite in="SourceGraphic"/>
    </filter>
  </defs>
  <g id="Grupo_943" data-name="Grupo 943" transform="translate(7131.188 9755.4)">
    <g id="Grupo_401" data-name="Grupo 401" transform="translate(31)">
      <g id="Grupo_400" data-name="Grupo 400" transform="translate(-7162.188 -9755.399)">
        <g id="Grupo_398" data-name="Grupo 398" transform="translate(0 -0.001)">
          <g id="Grupo_397" data-name="Grupo 397" transform="translate(0 0)">
            <g id="Grupo_396" data-name="Grupo 396">
              <path id="Trazado_574" data-name="Trazado 574" d="M538.232,960.911c-201.7,0-375.3-142.872-414.654-341.242S190.1,222.682,376.441,145.281,777.7,133.256,889.756,301.426s90.043,392.3-52.577,535.313A419.419,419.419,0,0,1,538.232,960.911Zm0-844.664c-231.339,0-419.547,188.731-419.547,420.713S306.894,957.675,538.232,957.675,957.779,768.944,957.779,536.961,769.571,116.248,538.232,116.248Z" transform="translate(-115.413 -112.966)" fill="#2f2e41"/>
              <path id="Trazado_575" data-name="Trazado 575" d="M594.575,504.8l-.048.025L386.154,621.175l-228.173-114.4-3.932-1.971,11.842-237.5L371.943,120.05l2.274,1.426L587.47,255.425Z" transform="translate(48.507 53.383)" fill="#00c6e2"/>
              <path id="Trazado_576" data-name="Trazado 576" d="M593.325,429.572,384.952,545.923l-228.173-114.4,202.12-142.1Z" transform="translate(49.709 128.635)" opacity="0.3"/>
              <path id="Trazado_577" data-name="Trazado 577" d="M531.585,504.361,297.112,364.237l14.116-243.2L524.48,254.987Z" transform="translate(111.496 53.822)" opacity="0.1"/>
              <path id="Trazado_578" data-name="Trazado 578" d="M160.519,318.616l-1.158-1.644L367.713,169.5,587.808,307.876l-1.066,1.706L367.778,171.916Z" transform="translate(50.846 75.354)" fill="#f2f2f2"/>
              <path id="Trazado_579" data-name="Trazado 579" d="M157.705,372.536l-1.126-1.664,207.3-141.129.543.309,224.8,127.762-.991,1.75L363.969,232.11Z" transform="translate(49.621 102.119)" fill="#f2f2f2"/>
              <path id="Trazado_580" data-name="Trazado 580" d="M212.6,532.979l-1.057-1.71L420.46,401.454V152.594h2.006V402.575Z" transform="translate(73.821 67.842)" fill="#f2f2f2"/>
              <path id="Trazado_581" data-name="Trazado 581" d="M269.535,559.744l-1.066-1.7L469.633,431.515V184.879h2.006v247.75Z" transform="translate(98.885 82.186)" fill="#f2f2f2"/>
              <path id="Trazado_582" data-name="Trazado 582" d="M479.131,531.365,245.176,401.015l.033-.627,12.316-244.107,2,.1-12.284,243.48L480.106,529.606Z" transform="translate(88.629 69.48)" fill="#f2f2f2"/>
              <path id="Trazado_583" data-name="Trazado 583" d="M427.223,557.178,195.895,435.616l.036-.646,13.637-244.228,2,.113-13.6,243.581L428.155,555.4Z" transform="translate(66.932 84.791)" fill="#f2f2f2"/>
              <g transform="matrix(1, 0, 0, 1, 0, 0)" filter="url(#Rect치ngulo_126)">
                <rect id="Rect치ngulo_126-2" data-name="Rect치ngulo 126" width="1387.733" height="3.236" transform="translate(27.48 956.36)" fill="#74f4be"/>
              </g>
              <path id="Trazado_584" data-name="Trazado 584" d="M986.137,475.791l18.442,50.656s-19.244,57.893,0,59.5,21.65-55.48,21.65-55.48l-10.424-61.109Z" transform="translate(267.957 45.376)" fill="#ffb9b9"/>
              <path id="Trazado_585" data-name="Trazado 585" d="M997.163,359.128l13.631,13.669v65.129s8.018,12.061,6.415,15.277-3.207,3.216-1.6,5.628,3.207,4.02,1.6,5.628a6.044,6.044,0,0,0,0,7.237c1.6,1.608,4.811,4.02,2.406,6.432s-5.613.8-2.406,9.649,8.82,11.257,7.217,14.473-1.6,11.257-1.6,11.257l-34.479,4.824-7.217-90.859Z" transform="translate(265.751 -3.598)" fill="#74f4be"/>
              <path id="Trazado_586" data-name="Trazado 586" d="M921.445,352.464l-40.092,1.608,1.6,16.885,35.281-6.433Z" transform="translate(368.731 156.643)" fill="#3f3d56"/>
              <path id="Trazado_587" data-name="Trazado 587" d="M834.112,187.953,829.3,236.2l48.912,7.236,3.608-27.741,3.609-27.741Z" transform="translate(345.813 83.552)" fill="#ffb9b9"/>
              <path id="Trazado_588" data-name="Trazado 588" d="M834.112,187.953,829.3,236.2l48.912,7.236,3.608-27.741,3.609-27.741Z" transform="translate(345.813 83.552)" opacity="0.1"/>
              <path id="Trazado_589" data-name="Trazado 589" d="M860.875,459.894l27.262,58.7s4.811,27.338,12.028,28.142S914.6,518.591,914.6,518.591l-9.622-15.277-11.226-43.419Z" transform="translate(212.806 41.171)" fill="#ffb9b9"/>
              <path id="Trazado_590" data-name="Trazado 590" d="M913,502.821,890.551,538.2S868.9,875.1,872.109,872.691s13.631-3.216,17.64-9.649,28.866,0,28.866,0l14.433-15.277V835.7c0-2.412,28.866-186.543,28.866-186.543V695.8s-8.82,171.266,5.613,169.658,44.1-11.257,44.1-11.257,42.5-320.018,29.668-332.079-18.442-39.4-18.442-39.4Z" transform="translate(217.609 51.313)" fill="#4a4fb4"/>
              <ellipse id="Elipse_174" data-name="Elipse 174" cx="38.488" cy="38.595" rx="38.488" ry="38.595" transform="translate(1168.298 209.995)" fill="#ffb9b9"/>
              <path id="Trazado_591" data-name="Trazado 591" d="M912.4,340.632l-5.613-3.216S881.929,354.3,873.91,392.093s-13.631,47.44-13.631,47.44-8.018,1.608-2.406,7.237,5.613,4.824.8,8.041-8.018-3.216-4.811,3.216,7.216,4.824,4.009,8.845-8.82,4.02-5.613,7.237-3.207,10.453.8,13.669,5.613,4.02,5.613,9.649a28.547,28.547,0,0,0,1.6,9.649h41.7s-8.018-15.277-5.613-18.493,3.207-6.433,1.6-8.041-6.415,1.608-1.6-2.412,6.415-1.608,4.811-6.432-4.811-2.412-1.6-4.824,5.613-1.608,4.009-4.02-4.811-2.412-1.6-4.02,5.613,0,4.811-4.02-1.6-2.412,0-4.02S925.228,394.5,925.228,392.9,912.4,340.632,912.4,340.632Z" transform="translate(208.591 -13.245)" fill="#74f4be"/>
              <path id="Trazado_592" data-name="Trazado 592" d="M801.6,339.659l-50.517,3.216,12.83,12.061,35.281.8Z" transform="translate(311.374 150.954)" fill="#3f3d56"/>
              <path id="Trazado_593" data-name="Trazado 593" d="M901.362,494.411l-10.424,19.3s31.272,4.02,42.5,8.041,40.092,9.649,40.092,9.649l7.216-28.142Z" transform="translate(226.042 56.507)" fill="#3f3d56"/>
              <path id="Trazado_594" data-name="Trazado 594" d="M859.641,389.268l8.82,26.535,35.281-7.237-4.01-24.926Z" transform="translate(359.172 170.494)" fill="#3f3d56"/>
              <path id="Trazado_595" data-name="Trazado 595" d="M1007.695,326.714s-2.406-1.608-8.018,1.608-24.055,4.824-32.875-4.824-15.235-17.689-17.64-16.081-4.009,20.1-4.009,20.1l-8.018,6.432-47.308,16.885,4.009,108.549,7.216,24.926s-5.613,19.3,1.6,30.555-4.009,15.277-4.009,15.277-2.406,3.216-.8,11.257-1.6,37.791-1.6,37.791,68.156,30.554,139.519,4.02l-8.018-30.554-4.009-68.346s4.009-11.257,3.207-16.081,24.055-72.366,24.055-72.366-4.009-33.771-24.857-41.007-24.055-14.473-24.055-14.473S1011.7,329.931,1007.695,326.714Z" transform="translate(225.552 -26.665)" fill="#74f4be"/>
              <path id="Trazado_596" data-name="Trazado 596" d="M927.242,306.23s-4-6.012-2.459-12.486a37.95,37.95,0,0,0,1.076-11.253,111.552,111.552,0,0,1,6.456-16.34c3.228-5.858,1.691-8.324,11.837-10.174s6-15.107,32.743-.771a7.833,7.833,0,0,0,8.147,3.083c5.534-1.079,7.532,6.628,7.532,6.628s3.689-2.158,5.073.925,11.248-1.85,11.248,18.96-11.226,39.4-11.226,39.4.823-35.005-17.47-38.551-37.969-13.874-42.735-.617a101.185,101.185,0,0,1-10.223,21.2Z" transform="translate(240.789 -52.696)" fill="#2f2e41"/>
              <ellipse id="Elipse_175" data-name="Elipse 175" cx="3.608" cy="4.824" rx="3.608" ry="4.824" transform="translate(1235.251 252.208)" fill="#ffb9b9"/>
              <path id="Trazado_597" data-name="Trazado 597" d="M971.85,737.951l5.639,16.965s0,16.965,5.639,25.447,11.278,26.861-11.278,28.274-32.425-7.068-32.425-7.068,4.229-11.31,0-15.551,0-12.723,0-12.723l4.229-33.929Z" transform="translate(246.563 164.71)" fill="#2f2e41"/>
              <path id="Trazado_598" data-name="Trazado 598" d="M890.083,737.951l-5.639,16.965s0,16.965-5.639,25.447-11.278,26.861,11.278,28.274,32.425-7.068,32.425-7.068-4.229-11.31,0-15.551,0-12.723,0-12.723l-4.229-33.929Z" transform="translate(218.479 164.71)" fill="#2f2e41"/>
              <path id="Trazado_1151" data-name="Trazado 1151" d="M152.343,713.5c-4.8,42.159,21.049,79.739,21.049,79.739s33.626-30.774,38.424-72.933-21.049-79.739-21.049-79.739S157.141,671.338,152.343,713.5Z" transform="translate(13.754 164.855)" fill="#4805ff"/>
              <path id="Trazado_1152" data-name="Trazado 1152" d="M184.3,707.353c17.294,38.727,4,82.388,4,82.388s-41.335-19.129-58.629-57.856-4-82.388-4-82.388S167.01,668.626,184.3,707.353Z" transform="translate(-17.159 168.35)" fill="#70cba4"/>
            </g>
          </g>
        </g>
      </g>
    </g>
  </g>
</svg>
