<svg xmlns="http://www.w3.org/2000/svg" width="30.503" height="30.573" viewBox="0 0 30.503 30.573">
  <g id="Grupo_15" data-name="Grupo 15" transform="translate(-791.497 -132.427)">
    <g id="Grupo_14" data-name="Grupo 14">
      <text id="Consulting" transform="translate(797 161)" fill="#646465" font-size="5" font-family="PlantagenetCherokee, Plantagenet Cherokee"><tspan x="0" y="0">Consulting</tspan></text>
      <g id="Trazado_41" data-name="Trazado 41" transform="matrix(0.695, 0.719, -0.719, 0.695, 808.582, 132.427)" fill="#00c9e4">
        <path d="M 16 16.60000038146973 L 2 16.60000038146973 C 1.117759943008423 16.60000038146973 0.4000000059604645 15.88224029541016 0.4000000059604645 15 L 0.4000000059604645 2 C 0.4000000059604645 1.117759943008423 1.117759943008423 0.4000000059604645 2 0.4000000059604645 L 16 0.4000000059604645 C 16.88224029541016 0.4000000059604645 17.60000038146973 1.117759943008423 17.60000038146973 2 L 17.60000038146973 15 C 17.60000038146973 15.88224029541016 16.88224029541016 16.60000038146973 16 16.60000038146973 Z" stroke="none"/>
        <path d="M 2 0.7999992370605469 C 1.338319778442383 0.7999992370605469 0.7999992370605469 1.338319778442383 0.7999992370605469 2 L 0.7999992370605469 15 C 0.7999992370605469 15.66168022155762 1.338319778442383 16.20000076293945 2 16.20000076293945 L 16 16.20000076293945 C 16.66168022155762 16.20000076293945 17.20000076293945 15.66168022155762 17.20000076293945 15 L 17.20000076293945 2 C 17.20000076293945 1.338319778442383 16.66168022155762 0.7999992370605469 16 0.7999992370605469 L 2 0.7999992370605469 M 2 0 L 16 0 C 17.10457038879395 0 18 0.8954296112060547 18 2 L 18 15 C 18 16.10457038879395 17.10457038879395 17 16 17 L 2 17 C 0.8954296112060547 17 0 16.10457038879395 0 15 L 0 2 C 0 0.8954296112060547 0.8954296112060547 0 2 0 Z" stroke="none" fill="#00c9e4"/>
      </g>
      <path id="Trazado_40" data-name="Trazado 40" d="M513.36,392.335s-8.083,3.6,7-2.969,5.711-8.749,5.711-8.749-7.443-2.015,0-5.729,8.282.492,8.282.492" transform="matrix(0.995, -0.105, 0.105, 0.995, 244.643, -180.049)" fill="none" stroke="#fff" stroke-width="1"/>
      <text id="IT" transform="translate(816 156)" fill="#646465" font-size="5" font-family="PlantagenetCherokee, Plantagenet Cherokee"><tspan x="0" y="0">IT</tspan></text>
    </g>
    <text id="ur" transform="translate(812 147)" fill="#fff" font-size="5" font-family="PlantagenetCherokee, Plantagenet Cherokee"><tspan x="0" y="0">ur</tspan></text>
  </g>
</svg>
