<svg xmlns="http://www.w3.org/2000/svg" width="115.444" height="112.257" viewBox="0 0 115.444 112.257">
  <g id="Grupo_385" data-name="Grupo 385" transform="translate(-134.461 -646.763)">
    <g id="Grupo_382" data-name="Grupo 382" transform="translate(-658 519.02)">
      <g id="Grupo_14" data-name="Grupo 14" transform="translate(792.065 132.427)">
        <text id="Consulting" transform="translate(19.935 103.573)" fill="#063647" font-size="17" font-family="Georgia"><tspan x="0" y="0">Consulting</tspan></text>
        <g id="Trazado_41" data-name="Trazado 41" transform="matrix(0.695, 0.719, -0.719, 0.695, 66.261, 0)" fill="#0ce4a2">
          <path d="M 3.530703544616699 63.89005661010742 C 1.723223567008972 63.89005661010742 0.0779835507273674 63.20285797119141 -1.101936459541321 61.95503616333008 C -2.298546552658081 60.68956756591797 -2.900326490402222 58.97036743164062 -2.79642653465271 57.11415863037109 L -0.02673644758760929 7.634597778320312 C 0.1972035467624664 3.634017944335938 3.620753526687622 0.1971578896045685 7.604923725128174 -0.02673211321234703 L 60.68227386474609 -3.009482145309448 C 60.81805419921875 -3.017112016677856 60.95513534545898 -3.020982027053833 61.08970260620117 -3.020982027053833 C 62.89718246459961 -3.020982027053833 64.54241180419922 -2.333782196044922 65.72233581542969 -1.085962057113647 C 66.91895294189453 0.1795078814029694 67.52073669433594 1.898697853088379 67.41683197021484 3.754917860031128 L 64.64714050292969 53.23447799682617 C 64.42320251464844 57.23505783081055 60.99965286254883 60.67191696166992 57.01548385620117 60.89580917358398 L 3.938133478164673 63.87855911254883 C 3.802353620529175 63.88618850708008 3.665273666381836 63.89005661010742 3.530703544616699 63.89005661010742 Z" stroke="none"/>
          <path d="M 61.08970260620117 -2.620983123779297 C 60.9625244140625 -2.620983123779297 60.83300399780273 -2.617321014404297 60.7047233581543 -2.610111236572266 L 7.627365112304688 0.3726387023925781 C 3.840015411376953 0.5854682922363281 0.5855636596679688 3.853199005126953 0.3726425170898438 7.656948089599609 L -2.397056579589844 57.13649749755859 C -2.494743347167969 58.88180923461914 -1.931587219238281 60.49546813964844 -0.8112945556640625 61.68021774291992 C 0.29229736328125 62.84730911254883 1.834304809570312 63.49004745483398 3.530685424804688 63.49004745483398 C 3.657882690429688 63.49004745483398 3.787403106689453 63.48638916015625 3.915683746337891 63.47917938232422 L 56.99303436279297 60.49643707275391 C 60.7803955078125 60.28360748291016 64.03484344482422 57.01587677001953 64.24775695800781 53.21211624145508 L 67.0174560546875 3.732566833496094 C 67.11514282226562 1.987258911132812 66.55197143554688 0.3736076354980469 65.43168640136719 -0.8111419677734375 C 64.32809448242188 -1.978233337402344 62.78608322143555 -2.620983123779297 61.08970260620117 -2.620983123779297 M 61.08970260620117 -3.420978546142578 C 65.06465911865234 -3.420978546142578 68.04341888427734 -0.2818641662597656 67.81620025634766 3.777278900146484 L 65.04650115966797 53.25682830810547 C 64.81118011474609 57.46095657348633 61.22562408447266 61.05984878540039 57.03792190551758 61.2951774597168 L 3.960575103759766 64.27791595458984 C 3.816162109375 64.28603363037109 3.672660827636719 64.29004669189453 3.530689239501953 64.29004669189453 C -0.4442672729492188 64.29004669189453 -3.423011779785156 61.15093994140625 -3.195808410644531 57.09178924560547 L -0.4261093139648438 7.612236022949219 C -0.1907730102539062 3.408119201660156 3.394794464111328 -0.1907730102539062 7.582473754882812 -0.4261016845703125 L 60.65983200073242 -3.408855438232422 C 60.80424499511719 -3.416965484619141 60.94773101806641 -3.420978546142578 61.08970260620117 -3.420978546142578 Z" stroke="none" fill="#0ce4a2"/>
        </g>
        <path id="Trazado_40" data-name="Trazado 40" d="M9.508,68.238s-32.23,12.556,27.93-10.35,22.5-31.159,22.5-31.159-29.915-7.564-.254-20.57S92.89,8.294,92.89,8.294" transform="matrix(0.995, -0.105, 0.105, 0.995, 0, 19.36)" fill="none" stroke="#fff" stroke-width="1"/>
        <text id="IT" transform="translate(95.935 83.573)" fill="#063647" font-size="15" font-family="Georgia"><tspan x="0" y="0">IT</tspan></text>
      </g>
      <text id="ur" transform="translate(872 184)" fill="#fff" font-size="15" font-family="PlantagenetCherokee, Plantagenet Cherokee"><tspan x="0" y="0">ur</tspan></text>
    </g>
  </g>
</svg>
