<svg xmlns="http://www.w3.org/2000/svg" width="1611.761" height="944.345" viewBox="0 0 1611.761 944.345">
  <g id="Grupo_35" data-name="Grupo 35" transform="translate(-357 -3646.861)">
    <g id="Elipse_77" data-name="Elipse 77" transform="translate(357 3700)" fill="rgba(165,193,230,0.15)" stroke="rgba(39,129,252,0.13)" stroke-width="1">
      <ellipse cx="118.5" cy="113" rx="118.5" ry="113" stroke="none"/>
      <ellipse cx="118.5" cy="113" rx="118" ry="112.5" fill="none"/>
    </g>
    <path id="Trazado_178" data-name="Trazado 178" d="M1589.362,919.066c-35.013,25.771-84.836,36.437-133.02,43.173l-8.11,1.1C1364.014,974.487,1278.1,976.758,1192.588,979c-238.5,6.264-477.628,12.516-715.5-1.926-105.2-6.379-213-17.555-305.195-55.753l-2.4-1.008c-1.193-.5-2.387-1-3.58-1.518a333.914,333.914,0,0,1-46.876-24.355c-26.328-16.662-48.069-37-59.558-61.124-18-37.84-8.484-80.376,12.078-117.374s51.477-70.323,78.136-105.165c7.822-10.206,15.242-20.8,22.144-31.653,43.137-68.09,64.533-146.884,19.311-212.5a294.469,294.469,0,0,0-19.311-24.24c-11.029-12.758-22.244-25.516-29.822-39.639-17.672-32.865-13.876-69.825-7.434-104.935,8.627-46.682,24.516-96.962,73.879-126.127C259.749,41.4,332.55,42.929,396.206,53.824c98.971,16.828,190.321,52.053,282.533,83.821s188.869,60.7,290.255,63.816c89.524,2.769,193.959-17.861,253.4-71.547,57.732-52.117,166.221-56.059,244.443-24.585,74.642,30.033,122.912,93.593,119.346,157.078-4.544,79.228-78.984,142.674-137.895,210.126-9.792,11.214-19.167,22.556-27.723,34.09-27.924,37.675-47.667,82.928-28.442,123.6,10.784,22.773,31.361,40.15,56.164,55.319,55.575,33.975,132.287,56.837,166.8,104.4,29.721,41.03,18.707,96.4-25.724,129.125Z" transform="translate(337.037 3605.319)" fill="#24f2e4" opacity="0.1"/>
    <g id="Elipse_78" data-name="Elipse 78" transform="matrix(0.454, 0.891, -0.891, 0.454, 550.765, 3760.856)" fill="#fff" stroke="#fff" stroke-width="1">
      <ellipse cx="20" cy="6" rx="20" ry="6" stroke="none"/>
      <ellipse cx="20" cy="6" rx="19.5" ry="5.5" fill="none"/>
    </g>
    <g id="Elipse_80" data-name="Elipse 80" transform="translate(1635 3903)" fill="rgba(165,193,230,0.15)" stroke="rgba(39,129,252,0.13)" stroke-width="1">
      <ellipse cx="62.5" cy="61.5" rx="62.5" ry="61.5" stroke="none"/>
      <ellipse cx="62.5" cy="61.5" rx="62" ry="61" fill="none"/>
    </g>
    <g id="Trazado_180" data-name="Trazado 180" transform="matrix(0.454, 0.891, -0.891, 0.454, 1737.24, 3935.831)" fill="#fff">
      <path d="M 11.44641780853271 6.029215335845947 C 11.27889728546143 6.029215335845947 11.10864734649658 6.028045654296875 10.94036769866943 6.025745391845703 C 8.089757919311523 5.986715316772461 5.411447525024414 5.625535488128662 3.398807525634766 5.008725643157959 C 1.301897525787354 4.366095542907715 0.5506575703620911 3.622835397720337 0.544497549533844 3.181625604629517 C 0.5422075390815735 3.017715454101562 0.6336575150489807 2.840695381164551 0.8163175582885742 2.655465602874756 C 1.771207571029663 1.687145471572876 5.156137466430664 0.6449554562568665 10.33155727386475 0.6449554562568665 C 10.49907779693604 0.6449554562568665 10.66932773590088 0.6461254954338074 10.83760738372803 0.6484254598617554 C 13.68821716308594 0.6874554753303528 16.36652755737305 1.048635482788086 18.3791675567627 1.665445446968079 C 20.47607803344727 2.308075428009033 21.22731781005859 3.051335573196411 21.23347663879395 3.492545366287231 C 21.23576736450195 3.656455516815186 21.14431762695312 3.833475589752197 20.9616584777832 4.018705368041992 C 20.00676727294922 4.987025260925293 16.6218376159668 6.029215335845947 11.44641780853271 6.029215335845947 Z" stroke="none"/>
      <path d="M 10.33155727386475 1.144955635070801 C 7.763407707214355 1.144955635070801 5.350856781005859 1.419615268707275 3.53831672668457 1.918335437774658 C 1.610799789428711 2.448700904846191 1.088485717773438 3.03454065322876 1.045465469360352 3.176273822784424 C 1.084877014160156 3.328591585159302 1.628379821777344 3.9699547290802 3.717348098754883 4.582235336303711 C 5.66657829284668 5.153545379638672 8.234197616577148 5.488645553588867 10.94723796844482 5.525785446166992 C 11.11309719085693 5.52806568145752 11.28104782104492 5.529215335845947 11.44641780853271 5.529215335845947 C 14.01455688476562 5.529215335845947 16.42709732055664 5.254555702209473 18.23963737487793 4.75583553314209 C 20.16703605651855 4.225512504577637 20.68941879272461 3.63969898223877 20.73250579833984 3.497919321060181 C 20.69315338134766 3.345643043518066 20.14971542358398 2.704244375228882 18.06061744689941 2.091935634613037 C 16.11138725280762 1.520615577697754 13.54377746582031 1.185525417327881 10.83073711395264 1.148385524749756 C 10.66487789154053 1.146105289459229 10.49692726135254 1.144955635070801 10.33155727386475 1.144955635070801 M 10.33155822753906 0.1449565887451172 C 10.50173854827881 0.1449565887451172 10.67227172851562 0.1461181640625 10.84444713592529 0.1484756469726562 C 16.83366775512695 0.2304754257202148 21.70882797241211 1.724545478820801 21.73342704772949 3.485565423965454 C 21.75732040405273 5.195960521697998 17.19604682922363 6.529214382171631 11.44641590118408 6.529214382171631 C 11.27623558044434 6.529214382171631 11.10570335388184 6.528052806854248 10.93352794647217 6.525695323944092 C 4.944307327270508 6.443695545196533 0.06914710998535156 4.949625492095947 0.04453659057617188 3.188605546951294 C 0.02065467834472656 1.47821044921875 4.581918716430664 0.1449565887451172 10.33155822753906 0.1449565887451172 Z" stroke="none" fill="#fff"/>
    </g>
    <g id="Elipse_81" data-name="Elipse 81" transform="matrix(-0.309, -0.951, 0.951, -0.309, 1337.247, 3915.139)" fill="rgba(165,193,230,0.15)" stroke="rgba(39,129,252,0.13)" stroke-width="1">
      <ellipse cx="110.5" cy="94" rx="110.5" ry="94" stroke="none"/>
      <ellipse cx="110.5" cy="94" rx="110" ry="93.5" fill="none"/>
    </g>
    <g id="Elipse_82" data-name="Elipse 82" transform="translate(1328.335 3731.218) rotate(-45)" fill="#fff" stroke="#fff" stroke-width="1">
      <ellipse cx="20" cy="6" rx="20" ry="6" stroke="none"/>
      <ellipse cx="20" cy="6" rx="19.5" ry="5.5" fill="none"/>
    </g>
    <g id="Trazado_181" data-name="Trazado 181" transform="matrix(-0.208, -0.978, 0.978, -0.208, 537.138, 4540.629)" fill="rgba(165,193,230,0.15)">
      <path d="M63.453-5.711C98.5-8.865,124.73,22.515,122.047,64.38S88.78,142.738,53.736,145.892-7.541,117.666-4.858,75.8,28.409-2.557,63.453-5.711Z" stroke="none"/>
      <path d="M 68.27365112304688 -4.929473876953125 C 66.71456909179688 -4.929473876953125 65.12274932861328 -4.85736083984375 63.54241180419922 -4.715087890625 C 55.12179183959961 -3.957199096679688 46.8214111328125 -1.24871826171875 38.87181091308594 3.335098266601562 C 35.04300689697266 5.5428466796875 31.31620788574219 8.185150146484375 27.79495239257812 11.1885986328125 C 24.30348968505859 14.16666412353516 20.98388671875 17.52534484863281 17.92836761474609 21.17138671875 C 14.87082672119141 24.81980133056641 12.05281066894531 28.78568267822266 9.552589416503906 32.95882415771484 C 7.027610778808594 37.17330169677734 4.804832458496094 41.63602447509766 2.946006774902344 46.2230224609375 C -0.9213714599609375 55.76648712158203 -3.211349487304688 65.73970794677734 -3.860328674316406 75.86566162109375 C -4.207168579101562 81.27716064453125 -4.068367004394531 86.63242340087891 -3.447807312011719 91.78269958496094 C -2.844352722167969 96.79088592529297 -1.779869079589844 101.6544647216797 -0.2839508056640625 106.2383651733398 C 1.182952880859375 110.7332611083984 3.075309753417969 114.9928436279297 5.340568542480469 118.8987655639648 C 7.584030151367188 122.7670822143555 10.20639038085938 126.3115463256836 13.13482666015625 129.4336853027344 C 17.81582641601562 134.4243011474609 23.22319030761719 138.3071594238281 29.20673370361328 140.9744415283203 C 35.36386871337891 143.7190856933594 41.99481201171875 145.1107482910156 48.91531372070312 145.1107482910156 C 50.47438812255859 145.1107482910156 52.06620788574219 145.0386199951172 53.64654922485352 144.8963623046875 C 62.06716918945312 144.1384887695312 70.3675537109375 141.4300079345703 78.31715393066406 136.8461608886719 C 82.14595031738281 134.6384429931641 85.87274932861328 131.9961395263672 89.39401245117188 128.9926605224609 C 92.88546752929688 126.0146255493164 96.20507049560547 122.6559448242188 99.26058959960938 119.0099029541016 C 102.3181304931641 115.3614654541016 105.1361541748047 111.3956069946289 107.6363906860352 107.2224426269531 C 110.1613693237305 103.0079803466797 112.3841323852539 98.54526519775391 114.2429733276367 93.95824432373047 C 118.1103286743164 84.41477966308594 120.4003067016602 74.44156646728516 121.0492935180664 64.31560516357422 C 121.3961334228516 58.90410614013672 121.2573318481445 53.54884338378906 120.6367721557617 48.39856719970703 C 120.0333099365234 43.39038848876953 118.9688262939453 38.52680206298828 117.4729080200195 33.94292449951172 C 116.0060119628906 29.44800567626953 114.1136474609375 25.18842315673828 111.848388671875 21.28252410888672 C 109.6049270629883 17.4141845703125 106.9825668334961 13.86972808837891 104.0541305541992 10.74758911132812 C 99.37313079833984 5.7569580078125 93.96575164794922 1.874099731445312 87.98223114013672 -0.793182373046875 C 81.8250732421875 -3.537811279296875 75.19415283203125 -4.929473876953125 68.27365112304688 -4.929473876953125 M 68.27365875244141 -5.929473876953125 C 100.8713684082031 -5.929473876953125 124.6059494018555 24.45738220214844 122.047248840332 64.37956237792969 C 119.3641128540039 106.2437057495117 88.78018951416016 142.7382202148438 53.73619079589844 145.8923492431641 C 52.11061096191406 146.0386505126953 50.50095367431641 146.1107482910156 48.91529846191406 146.1107482910156 C 16.31758880615234 146.1107482910156 -7.416984558105469 115.7239074707031 -4.858291625976562 75.80170440673828 C -2.175132751464844 33.93758392333984 28.40876770019531 -2.556930541992188 63.4527702331543 -5.711074829101562 C 65.07834625244141 -5.857391357421875 66.68800354003906 -5.929473876953125 68.27365875244141 -5.929473876953125 Z" stroke="none" fill="rgba(39,129,252,0.13)"/>
    </g>
    <g id="Elipse_84" data-name="Elipse 84" transform="translate(543.529 4444.917) rotate(-39)" fill="#fff" stroke="#fff" stroke-width="1">
      <ellipse cx="20" cy="6" rx="20" ry="6" stroke="none"/>
      <ellipse cx="20" cy="6" rx="19.5" ry="5.5" fill="none"/>
    </g>
    <g id="Elipse_85" data-name="Elipse 85" transform="translate(1263.338 4262.688) rotate(-131)" fill="rgba(165,193,230,0.15)" stroke="rgba(39,129,252,0.13)" stroke-width="1">
      <ellipse cx="86" cy="85.5" rx="86" ry="85.5" stroke="none"/>
      <ellipse cx="86" cy="85.5" rx="85.5" ry="85" fill="none"/>
    </g>
    <g id="Trazado_182" data-name="Trazado 182" transform="translate(1237.335 4110.218) rotate(-45)" fill="#fff">
      <path d="M -34.18011093139648 34.39109802246094 C -33.87459564208984 33.86125564575195 -32.59661865234375 32.26499557495117 -27.25819206237793 28.03247261047363 C -22.84961128234863 24.53716278076172 -16.94559288024902 20.27814292907715 -11.05997180938721 16.34746170043945 C -4.378302097320557 11.88515281677246 1.902217864990234 8.077792167663574 7.102637767791748 5.336972713470459 C 13.10671806335449 2.172602653503418 17.56654739379883 0.5000026226043701 19.99999809265137 0.5000026226043701 C 25.29486846923828 0.5000026226043701 30.26628875732422 1.116622567176819 33.99845886230469 2.236272573471069 C 37.4433479309082 3.269742488861084 39.49999618530273 4.676742553710938 39.49999618530273 6.000002384185791 C 39.49999618530273 7.323262691497803 37.4433479309082 8.730262756347656 33.99845886230469 9.76373291015625 C 30.26628875732422 10.88338279724121 25.29486846923828 11.50000286102295 19.99999809265137 11.50000286102295 C 17.16802787780762 11.50000286102295 12.0756778717041 13.12319278717041 4.431967735290527 16.46234321594238 C -2.152971982955933 19.33896255493164 -9.652742385864258 23.05393218994141 -16.26965141296387 26.33159255981445 C -24.44252014160156 30.37997817993164 -32.17315673828125 34.20926666259766 -34.18011093139648 34.39109802246094 Z" stroke="none"/>
      <path d="M 20.00000190734863 1.000003814697266 C 18.37971115112305 1.000003814697266 14.90346145629883 1.810173034667969 7.544031620025635 5.669803619384766 C 2.444721698760986 8.344121932983398 -3.73378849029541 12.074462890625 -10.32355785369873 16.45753288269043 C -16.20584869384766 20.37003326416016 -21.93697738647461 24.48355293273926 -26.46123886108398 28.04034233093262 C -28.65682983398438 29.76642227172852 -30.42590713500977 31.25046157836914 -31.71933746337891 32.45123291015625 C -32.17057418823242 32.87014007568359 -32.52420043945312 33.21828842163086 -32.80110549926758 33.50581359863281 C -31.87890243530273 33.18131637573242 -30.45162963867188 32.60259246826172 -28.24240875244141 31.58827209472656 C -25.03936767578125 30.11765289306641 -20.88738822937012 28.06098175048828 -16.49161911010742 25.88356399536133 C -9.869658470153809 22.60340118408203 -2.364168167114258 18.88559341430664 4.231791496276855 16.0041618347168 C 12.04697227478027 12.59011268615723 17.05743217468262 11.00000190734863 20.00000190734863 11.00000190734863 C 25.24755096435547 11.00000190734863 30.16794204711914 10.39087295532227 33.85478973388672 9.284812927246094 C 37.65249252319336 8.145513534545898 39 6.803253173828125 39 6.000001907348633 C 39 5.387481689453125 38.27934265136719 4.784881591796875 37.84977340698242 4.480194091796875 C 36.94424438476562 3.837921142578125 35.56280136108398 3.227592468261719 33.85478973388672 2.715190887451172 C 30.16794204711914 1.609130859375 25.24755096435547 1.000003814697266 20.00000190734863 1.000003814697266 M 20.00000190734863 3.814697265625e-06 C 31.04569244384766 3.814697265625e-06 40 2.686290740966797 40 6.000001907348633 C 40 9.313713073730469 31.04569244384766 12.00000190734863 20.00000190734863 12.00000190734863 C 9.618365287780762 12.00000190734863 -29.63556289672852 34.89783096313477 -34.31784057617188 34.89783096313477 C -34.61734390258789 34.89783096313477 -34.77485656738281 34.80438232421875 -34.77485656738281 34.60516357421875 C -34.77485656738281 31.29145240783691 8.954301834106445 3.814697265625e-06 20.00000190734863 3.814697265625e-06 Z" stroke="none" fill="#fff"/>
    </g>
    <g id="Trazado_183" data-name="Trazado 183" transform="matrix(-0.309, -0.951, 0.951, -0.309, 906.974, 4060.14)" fill="rgba(165,193,230,0.15)">
      <path d="M64.039-5.489c35.368-3.032,61.948,24.656,59.369,61.841S90.067,126.14,54.7,129.172-7.249,104.516-4.67,67.331,28.671-2.458,64.039-5.489Z" stroke="none"/>
      <path d="M 69.29754638671875 -4.716239929199219 C 67.59370422363281 -4.716239929199219 65.85308837890625 -4.641090393066406 64.12403869628906 -4.492897033691406 C 55.6093635559082 -3.763038635253906 47.22454833984375 -1.300003051757812 39.20249176025391 2.827774047851562 C 35.34230804443359 4.814048767089844 31.58702087402344 7.185249328613281 28.04094696044922 9.875526428222656 C 24.52676391601562 12.54158020019531 21.18758392333984 15.54393768310547 18.11614227294922 18.79915618896484 C 15.04409027099609 22.0550537109375 12.21485137939453 25.59046936035156 9.706977844238281 29.3072509765625 C 7.175323486328125 33.05924987792969 4.949180603027344 37.02890777587891 3.090415954589844 41.10592651367188 C -0.7747116088867188 49.58359527587891 -3.049888610839844 58.43010711669922 -3.671966552734375 67.39971923828125 C -4.283149719238281 76.21237182617188 -3.261398315429688 84.62852478027344 -0.6351089477539062 92.41441345214844 C 0.6258544921875 96.15261840820312 2.260292053222656 99.72760009765625 4.222801208496094 103.0400695800781 C 6.1646728515625 106.3176879882812 8.445960998535156 109.3693237304688 11.00332641601562 112.1101760864258 C 15.81154632568359 117.2634124755859 21.52241516113281 121.2888488769531 27.97731018066406 124.0746841430664 C 34.62560272216797 126.9439926147461 41.84689331054688 128.3988494873047 49.44055938720703 128.3988494873047 C 51.14443206787109 128.3988494873047 52.88505554199219 128.3236999511719 54.61410522460938 128.1755065917969 C 63.12878036499023 127.4456481933594 71.51359558105469 124.9826126098633 79.53565216064453 120.8548355102539 C 83.39583587646484 118.8685607910156 87.151123046875 116.4973602294922 90.69719696044922 113.8070831298828 C 94.21138000488281 111.1410293579102 97.55056762695312 108.1386871337891 100.6220016479492 104.8834533691406 C 103.6940536499023 101.6275634765625 106.5232925415039 98.09214019775391 109.0311813354492 94.37538146972656 C 111.5628204345703 90.62335968017578 113.7889633178711 86.65370178222656 115.6477279663086 82.57670593261719 C 119.5128555297852 74.09902954101562 121.7880325317383 65.25250244140625 122.4101104736328 56.28290557861328 C 123.0212936401367 47.47025299072266 121.9995422363281 39.05410766601562 119.3732376098633 31.26821136474609 C 118.1122894287109 27.53001403808594 116.4778518676758 23.95503234863281 114.5153427124023 20.64256286621094 C 112.5734710693359 17.36492156982422 110.2921600341797 14.31330108642578 107.7348175048828 11.57244873046875 C 102.9265975952148 6.419197082519531 97.21570587158203 2.393760681152344 90.76081848144531 -0.3920745849609375 C 84.11252593994141 -3.261383056640625 76.8912353515625 -4.716239929199219 69.29754638671875 -4.716239929199219 M 69.29754638671875 -5.716239929199219 C 102.004524230957 -5.716239929199219 125.8572692871094 21.03208923339844 123.4077072143555 56.35208892822266 C 120.8287811279297 93.53770446777344 90.06707000732422 126.1402282714844 54.69950866699219 129.1718444824219 C 52.92508697509766 129.3239440917969 51.16818237304688 129.3988647460938 49.44056701660156 129.3988647460938 C 16.73361206054688 129.3988647460938 -7.119125366210938 102.6505432128906 -4.669563293457031 67.33053588867188 C -2.09063720703125 30.14490509033203 28.67107391357422 -2.457618713378906 64.03863525390625 -5.489234924316406 C 65.81306457519531 -5.641334533691406 67.56993865966797 -5.716239929199219 69.29754638671875 -5.716239929199219 Z" stroke="none" fill="rgba(39,129,252,0.13)"/>
    </g>
    <g id="Elipse_87" data-name="Elipse 87" transform="translate(897.669 3964.979) rotate(-45)" fill="#fff" stroke="#fff" stroke-width="1">
      <ellipse cx="20" cy="6" rx="20" ry="6" stroke="none"/>
      <ellipse cx="20" cy="6" rx="19.5" ry="5.5" fill="none"/>
    </g>
    <g id="Trazado_184" data-name="Trazado 184" transform="matrix(-0.588, 0.809, -0.809, -0.588, 1609.369, 4442.885)" fill="rgba(165,193,230,0.15)">
      <path d="M64.039-5.489c35.368-3.032,61.948,24.656,59.369,61.841S90.067,126.14,54.7,129.172-7.249,104.516-4.67,67.331,28.671-2.458,64.039-5.489Z" stroke="none"/>
      <path d="M 69.29754638671875 -4.716239929199219 C 67.59370422363281 -4.716239929199219 65.85308837890625 -4.641090393066406 64.12403869628906 -4.492897033691406 C 55.6093635559082 -3.763038635253906 47.22454833984375 -1.300003051757812 39.20249176025391 2.827774047851562 C 35.34230804443359 4.814048767089844 31.58702087402344 7.185249328613281 28.04094696044922 9.875526428222656 C 24.52676391601562 12.54158020019531 21.18758392333984 15.54393768310547 18.11614227294922 18.79915618896484 C 15.04409027099609 22.0550537109375 12.21485137939453 25.59046936035156 9.706977844238281 29.3072509765625 C 7.175323486328125 33.05924987792969 4.949180603027344 37.02890777587891 3.090415954589844 41.10592651367188 C -0.7747116088867188 49.58359527587891 -3.049888610839844 58.43010711669922 -3.671966552734375 67.39971923828125 C -4.283149719238281 76.21237182617188 -3.261398315429688 84.62852478027344 -0.6351089477539062 92.41441345214844 C 0.6258544921875 96.15261840820312 2.260292053222656 99.72760009765625 4.222801208496094 103.0400695800781 C 6.1646728515625 106.3176879882812 8.445960998535156 109.3693237304688 11.00332641601562 112.1101760864258 C 15.81154632568359 117.2634124755859 21.52241516113281 121.2888488769531 27.97731018066406 124.0746841430664 C 34.62560272216797 126.9439926147461 41.84689331054688 128.3988494873047 49.44055938720703 128.3988494873047 C 51.14443206787109 128.3988494873047 52.88505554199219 128.3236999511719 54.61410522460938 128.1755065917969 C 63.12878036499023 127.4456481933594 71.51359558105469 124.9826126098633 79.53565216064453 120.8548355102539 C 83.39583587646484 118.8685607910156 87.151123046875 116.4973602294922 90.69719696044922 113.8070831298828 C 94.21138000488281 111.1410293579102 97.55056762695312 108.1386871337891 100.6220016479492 104.8834533691406 C 103.6940536499023 101.6275634765625 106.5232925415039 98.09214019775391 109.0311813354492 94.37538146972656 C 111.5628204345703 90.62335968017578 113.7889633178711 86.65370178222656 115.6477279663086 82.57670593261719 C 119.5128555297852 74.09902954101562 121.7880325317383 65.25250244140625 122.4101104736328 56.28290557861328 C 123.0212936401367 47.47025299072266 121.9995422363281 39.05410766601562 119.3732376098633 31.26821136474609 C 118.1122894287109 27.53001403808594 116.4778518676758 23.95503234863281 114.5153427124023 20.64256286621094 C 112.5734710693359 17.36492156982422 110.2921600341797 14.31330108642578 107.7348175048828 11.57244873046875 C 102.9265975952148 6.419197082519531 97.21570587158203 2.393760681152344 90.76081848144531 -0.3920745849609375 C 84.11252593994141 -3.261383056640625 76.8912353515625 -4.716239929199219 69.29754638671875 -4.716239929199219 M 69.29754638671875 -5.716239929199219 C 102.004524230957 -5.716239929199219 125.8572692871094 21.03208923339844 123.4077072143555 56.35208892822266 C 120.8287811279297 93.53770446777344 90.06707000732422 126.1402282714844 54.69950866699219 129.1718444824219 C 52.92508697509766 129.3239440917969 51.16818237304688 129.3988647460938 49.44056701660156 129.3988647460938 C 16.73361206054688 129.3988647460938 -7.119125366210938 102.6505432128906 -4.669563293457031 67.33053588867188 C -2.09063720703125 30.14490509033203 28.67107391357422 -2.457618713378906 64.03863525390625 -5.489234924316406 C 65.81306457519531 -5.641334533691406 67.56993865966797 -5.716239929199219 69.29754638671875 -5.716239929199219 Z" stroke="none" fill="rgba(39,129,252,0.13)"/>
    </g>
    <g id="Elipse_88" data-name="Elipse 88" transform="translate(1524.015 4497.729) rotate(-47)" fill="#fff" stroke="#fff" stroke-width="1">
      <ellipse cx="20" cy="6" rx="20" ry="6" stroke="none"/>
      <ellipse cx="20" cy="6" rx="19.5" ry="5.5" fill="none"/>
    </g>
  </g>
</svg>
