<svg xmlns="http://www.w3.org/2000/svg" xmlns:xlink="http://www.w3.org/1999/xlink" width="739.152" height="545.729" viewBox="0 0 739.152 545.729">
  <defs>
    <linearGradient id="linear-gradient" x1="0.5" y1="1" x2="0.5" gradientUnits="objectBoundingBox">
      <stop offset="0" stop-color="gray" stop-opacity="0.251"/>
      <stop offset="0.54" stop-color="gray" stop-opacity="0.122"/>
      <stop offset="1" stop-color="gray" stop-opacity="0.102"/>
    </linearGradient>
  </defs>
  <g id="Grupo_388" data-name="Grupo 388" transform="translate(1641 -1038)">
    <ellipse id="Elipse_42" data-name="Elipse 42" cx="82.351" cy="17.711" rx="82.351" ry="17.711" transform="translate(-1300.2 1548.307)" fill="#6c63ff" opacity="0.1"/>
    <path id="Trazado_113" data-name="Trazado 113" d="M769.32,509.267c-16.361,13.665-39.644,19.321-62.16,22.893l-3.79.582c-39.355,5.913-79.5,7.117-119.462,8.307-111.453,3.322-223.194,6.637-334.351-1.021-49.158-3.383-99.533-9.309-142.617-29.563l-1.122-.534c-.558-.264-1.115-.528-1.673-.8a150.353,150.353,0,0,1-21.9-12.914c-12.3-8.835-22.463-19.619-27.831-32.411-8.413-20.065-3.964-42.62,5.644-62.238S84.108,364.272,96.566,345.8c3.655-5.412,7.122-11.027,10.348-16.784,20.158-36.1,30.156-77.886,9.024-112.678a154.637,154.637,0,0,0-9.024-12.854c-5.154-6.765-10.395-13.53-13.936-21.019-8.258-17.427-6.484-37.025-3.474-55.642C93.535,102.066,100.96,75.4,124.028,59.94c23.968-16.06,57.987-15.248,87.734-9.471,46.249,8.923,88.936,27.6,132.027,44.446s88.258,32.188,135.635,33.839c41.834,1.468,90.636-9.471,118.414-37.938C624.815,63.18,675.512,61.09,712.065,77.779c34.88,15.925,57.436,49.628,55.77,83.291-2.123,42.011-36.909,75.653-64.438,111.42-4.576,5.946-8.957,11.961-12.955,18.076-13.049,19.977-22.274,43.973-13.291,65.54,5.04,12.076,14.655,21.29,26.245,29.333,25.97,18.015,61.817,30.138,77.944,55.358,13.889,21.756,8.742,51.117-12.021,68.469Z" transform="translate(-1690.963 991.319)" fill="#59e2a1" opacity="0.1"/>
    <ellipse id="Elipse_43" data-name="Elipse 43" cx="38.307" cy="7.414" rx="38.307" ry="7.414" transform="translate(-1025.832 1507.385)" fill="#6c63ff"/>
    <ellipse id="Elipse_44" data-name="Elipse 44" cx="4.462" cy="5.879" rx="4.462" ry="5.879" transform="translate(-992.626 1505.768)" fill="#3f3d56"/>
    <ellipse id="Elipse_45" data-name="Elipse 45" cx="4.462" cy="5.879" rx="4.462" ry="5.879" transform="translate(-992.626 1498.584)" fill="#3f3d56"/>
    <ellipse id="Elipse_46" data-name="Elipse 46" cx="4.462" cy="5.879" rx="4.462" ry="5.879" transform="translate(-992.626 1491.393)" fill="#3f3d56"/>
    <ellipse id="Elipse_47" data-name="Elipse 47" cx="4.462" cy="5.879" rx="4.462" ry="5.879" transform="translate(-992.626 1484.208)" fill="#3f3d56"/>
    <ellipse id="Elipse_48" data-name="Elipse 48" cx="4.462" cy="5.879" rx="4.462" ry="5.879" transform="translate(-992.626 1477.024)" fill="#3f3d56"/>
    <ellipse id="Elipse_49" data-name="Elipse 49" cx="4.462" cy="5.879" rx="4.462" ry="5.879" transform="translate(-992.626 1469.839)" fill="#3f3d56"/>
    <ellipse id="Elipse_50" data-name="Elipse 50" cx="4.462" cy="5.879" rx="4.462" ry="5.879" transform="translate(-992.626 1462.655)" fill="#3f3d56"/>
    <path id="Trazado_114" data-name="Trazado 114" d="M1027.755,593.75a20.986,20.986,0,0,0,1.66-2.463l-11.718-1.935,12.673.095a21.633,21.633,0,0,0,.41-17.048l-17.006,8.9,15.683-11.6a21.3,21.3,0,0,0-37.967,1.816,21.633,21.633,0,0,0,2.684,22.254,21.376,21.376,0,0,0-2.439,3.924l15.212,7.963-16.22-5.48a21.624,21.624,0,0,0,3.447,20.2,21.618,21.618,0,0,0,2.3,29.1,21.261,21.261,0,0,0,28.994,0,21.618,21.618,0,0,0,2.3-29.1,21.614,21.614,0,0,0,0-26.6Z" transform="translate(-1999.222 825.615)" fill="#6c63ff"/>
    <path id="Trazado_115" data-name="Trazado 115" d="M989.61,629.918a21.523,21.523,0,0,0,4.576,13.3,21.618,21.618,0,0,0,2.3,29.1,21.261,21.261,0,0,0,28.994,0,21.618,21.618,0,0,0,2.3-29.1C1030.631,639.559,989.61,627.5,989.61,629.918Z" transform="translate(-1999.235 802.747)" opacity="0.1"/>
    <path id="Trazado_116" data-name="Trazado 116" d="M156.276,717c0,3.782-14.655,6.907-33.6,7.354h-1.122c-.558-.264-1.115-.528-1.673-.8A150.357,150.357,0,0,1,98,710.659c4.6-.541,9.837-.906,15.454-1.028h.759c1.223,0,2.466-.041,3.722-.041h4.737c18.948.494,33.6,3.66,33.6,7.408Z" transform="translate(-1706.723 776.871)" fill="#6c63ff"/>
    <ellipse id="Elipse_51" data-name="Elipse 51" cx="4.462" cy="5.879" rx="4.462" ry="5.879" transform="translate(-1593.859 1484.837)" fill="#3f3d56"/>
    <ellipse id="Elipse_52" data-name="Elipse 52" cx="4.462" cy="5.879" rx="4.462" ry="5.879" transform="translate(-1593.859 1477.653)" fill="#3f3d56"/>
    <ellipse id="Elipse_53" data-name="Elipse 53" cx="4.462" cy="5.879" rx="4.462" ry="5.879" transform="translate(-1593.859 1470.469)" fill="#3f3d56"/>
    <ellipse id="Elipse_54" data-name="Elipse 54" cx="4.462" cy="5.879" rx="4.462" ry="5.879" transform="translate(-1593.859 1463.284)" fill="#3f3d56"/>
    <ellipse id="Elipse_55" data-name="Elipse 55" cx="4.462" cy="5.879" rx="4.462" ry="5.879" transform="translate(-1593.859 1456.099)" fill="#3f3d56"/>
    <ellipse id="Elipse_56" data-name="Elipse 56" cx="4.462" cy="5.879" rx="4.462" ry="5.879" transform="translate(-1593.859 1448.915)" fill="#3f3d56"/>
    <ellipse id="Elipse_57" data-name="Elipse 57" cx="4.462" cy="5.879" rx="4.462" ry="5.879" transform="translate(-1593.859 1441.724)" fill="#3f3d56"/>
    <path id="Trazado_117" data-name="Trazado 117" d="M132.977,562.829a21.832,21.832,0,0,0,1.666-2.456l-11.725-1.921,12.679.095a21.647,21.647,0,0,0,.4-17.041l-17,8.883,15.683-11.609a21.3,21.3,0,0,0-37.942,1.835,21.632,21.632,0,0,0,2.653,22.235,21.971,21.971,0,0,0-2.439,3.924l15.212,7.915-16.22-5.459a21.678,21.678,0,0,0,3.447,20.2,21.618,21.618,0,0,0,2.3,29.1,21.261,21.261,0,0,0,28.994,0,21.618,21.618,0,0,0,2.3-29.1,21.615,21.615,0,0,0,0-26.6Z" transform="translate(-1705.678 835.605)" fill="#6c63ff"/>
    <path id="Trazado_118" data-name="Trazado 118" d="M94.83,598.978a21.518,21.518,0,0,0,4.569,13.3,21.619,21.619,0,0,0,2.3,29.1,21.261,21.261,0,0,0,28.994,0,21.618,21.618,0,0,0,2.3-29.1C135.844,608.619,94.83,596.563,94.83,598.978Z" transform="translate(-1705.682 812.756)" opacity="0.1"/>
    <g id="Grupo_28" data-name="Grupo 28" transform="translate(-1516.341 1042.06)" opacity="0.2">
      <g id="Grupo_27" data-name="Grupo 27" transform="translate(52.253 256.658)">
        <path id="Trazado_119" data-name="Trazado 119" d="M342.632,592.429a16.941,16.941,0,0,1-.134,1.867q-7.821-3.166-15.4-6.718a12.457,12.457,0,0,1-7.122-3.5c-1.472-.744-2.936-1.515-4.394-2.293a18.179,18.179,0,0,1,1.115-2.03c2.822-4.505,7.122-7.326,11.86-7.171s8.836,3.234,11.376,7.888a23.383,23.383,0,0,1,2.7,11.954Z" transform="translate(-314.017 -477.525)" fill="#113647"/>
        <path id="Trazado_120" data-name="Trazado 120" d="M342.648,557.506a23.5,23.5,0,0,1-3.447,11.717c-2.829,4.492-7.122,7.313-11.859,7.157-.329,0-.672-.041-.974-.068a12.457,12.457,0,0,1-7.122-3.5,17.082,17.082,0,0,1-3.279-4.309,24.376,24.376,0,0,1,.739-23.678c2.829-4.505,7.122-7.327,11.859-7.171s8.836,3.234,11.376,7.888a23.449,23.449,0,0,1,2.708,11.961Z" transform="translate(-313.254 -466.226)" fill="#113647"/>
        <path id="Trazado_1132" data-name="Trazado 1132" d="M19.371,0c10.7,0,19.367,6.575,19.365,14.691s-8.675,14.7-19.371,14.7S0,22.815,0,14.7,8.674,0,19.371,0Z" transform="translate(0.122 86.037) rotate(-88.19)" fill="#113647"/>
        <path id="Trazado_1133" data-name="Trazado 1133" d="M19.371,0c10.7,0,19.367,6.575,19.365,14.691s-8.675,14.7-19.371,14.7S0,22.815,0,14.7,8.674,0,19.371,0Z" transform="translate(0.863 62.377) rotate(-88.19)" fill="#113647"/>
        <path id="Trazado_1134" data-name="Trazado 1134" d="M19.371,0c10.7,0,19.367,6.575,19.365,14.691s-8.675,14.7-19.371,14.7S0,22.815,0,14.7,8.674,0,19.371,0Z" transform="translate(1.603 38.717) rotate(-88.19)" fill="#113647"/>
      </g>
      <path id="Trazado_121" data-name="Trazado 121" d="M254.726,165.508a71.642,71.642,0,0,1-5.214-8.28l38.784-5.155-41.713-1.015A71.423,71.423,0,0,1,247,94.908l55.1,31.018-50.5-39.88A70.172,70.172,0,0,1,376.238,96.157a71.247,71.247,0,0,1-10.932,72.862,71.237,71.237,0,0,1,7.6,13.165l-50.912,24.611,53.976-16.351a71.3,71.3,0,0,1-13.439,66.149,71.2,71.2,0,0,1-10.55,95.585,70.036,70.036,0,0,1-95.475-3.032,71.216,71.216,0,0,1-4.547-96.064,71.229,71.229,0,0,1,2.741-87.573Z" transform="translate(-235.487 -52.682)" fill="#113647"/>
      <path id="Trazado_122" data-name="Trazado 122" d="M379,289.53a70.831,70.831,0,0,1-16.422,43.3,71.2,71.2,0,0,1-10.561,95.57,70.036,70.036,0,0,1-95.462-3.019,71.216,71.216,0,0,1-4.583-96.049C242.945,316.982,379.246,281.581,379,289.53Z" transform="translate(-235.499 -128.929)" fill="#113647" opacity="0.1"/>
    </g>
    <g id="Grupo_30" data-name="Grupo 30" transform="translate(-1162.181 1098.444)" opacity="0.2">
      <g id="Grupo_29" data-name="Grupo 29" transform="translate(37.183 182.828)">
        <path id="Trazado_123" data-name="Trazado 123" d="M838.781,520.4a13.219,13.219,0,0,1-.094,1.353q-5.584-2.226-10.959-4.776a8.919,8.919,0,0,1-5.073-2.49c-1.042-.534-2.09-1.082-3.125-1.63a13.4,13.4,0,0,1,.793-1.441c2.016-3.207,5.066-5.209,8.439-5.1s6.289,2.3,8.1,5.615a16.668,16.668,0,0,1,1.922,8.47Z" transform="translate(-818.439 -438.642)" fill="#113647"/>
        <path id="Trazado_124" data-name="Trazado 124" d="M838.8,495.5a16.7,16.7,0,0,1-2.452,8.341c-2.016,3.193-5.066,5.2-8.439,5.094l-.672-.047a8.919,8.919,0,0,1-5.073-2.49,12.385,12.385,0,0,1-2.332-3.071,17.36,17.36,0,0,1,.524-16.831c2.016-3.207,5.073-5.216,8.439-5.108s6.3,2.3,8.1,5.615a16.7,16.7,0,0,1,1.908,8.5Z" transform="translate(-817.907 -430.577)" fill="#113647"/>
        <path id="Trazado_1135" data-name="Trazado 1135" d="M13.782,0C21.393,0,27.562,4.678,27.56,10.452S21.389,20.909,13.778,20.91,0,16.232,0,10.458,6.172,0,13.782,0Z" transform="translate(0.099 61.217) rotate(-88.19)" fill="#113647"/>
        <path id="Trazado_1136" data-name="Trazado 1136" d="M13.782,0C21.393,0,27.562,4.678,27.56,10.452S21.389,20.909,13.778,20.91,0,16.232,0,10.458,6.172,0,13.782,0Z" transform="translate(0.621 44.382) rotate(-88.19)" fill="#113647"/>
        <path id="Trazado_1137" data-name="Trazado 1137" d="M13.782,0C21.393,0,27.562,4.678,27.56,10.452S21.389,20.909,13.778,20.91,0,16.232,0,10.458,6.172,0,13.782,0Z" transform="translate(1.15 27.547) rotate(-88.19)" fill="#113647"/>
      </g>
      <path id="Trazado_125" data-name="Trazado 125" d="M776.236,216.513a49.824,49.824,0,0,1-3.709-5.892l27.6-3.667-29.706-.724a50.831,50.831,0,0,1,.289-39.961l39.18,22.047-35.881-28.366a49.942,49.942,0,0,1,88.838,7.081,50.705,50.705,0,0,1-7.938,51.951,50.635,50.635,0,0,1,5.416,9.376l-36.21,17.515,38.414-11.636a50.7,50.7,0,0,1-9.555,47.071,50.669,50.669,0,0,1-7.514,68.012,49.838,49.838,0,0,1-67.935-2.155,50.677,50.677,0,0,1-3.247-68.353,50.7,50.7,0,0,1,1.955-62.3Z" transform="translate(-762.568 -136.028)" fill="#113647"/>
      <path id="Trazado_126" data-name="Trazado 126" d="M864.669,304.828a50.393,50.393,0,0,1-11.692,30.822,50.669,50.669,0,0,1-7.514,68.012,49.838,49.838,0,0,1-67.935-2.155,50.677,50.677,0,0,1-3.247-68.354C767.844,324.359,864.844,299.173,864.669,304.828Z" transform="translate(-762.568 -190.369)" fill="#113647" opacity="0.1"/>
    </g>
    <g id="Grupo_32" data-name="Grupo 32" transform="translate(-1305.463 1045.787)" opacity="0.2">
      <g id="Grupo_31" data-name="Grupo 31" transform="translate(36.766 182.675)">
        <path id="Trazado_127" data-name="Trazado 127" d="M625.6,442.353a13.208,13.208,0,0,1-.1,1.353q-5.584-2.226-10.959-4.776a8.9,8.9,0,0,1-5.066-2.49c-1.048-.534-2.09-1.082-3.125-1.63a12.866,12.866,0,0,1,.786-1.441c2.016-3.2,5.073-5.209,8.439-5.1s6.289,2.3,8.1,5.615a16.665,16.665,0,0,1,1.928,8.47Z" transform="translate(-604.801 -360.584)" fill="#113647"/>
        <path id="Trazado_128" data-name="Trazado 128" d="M625.539,417.45a16.7,16.7,0,0,1-2.453,8.341c-2.016,3.193-5.066,5.2-8.439,5.094a3.12,3.12,0,0,1-.672-.047,8.9,8.9,0,0,1-5.066-2.489,12.24,12.24,0,0,1-2.338-3.071,17.339,17.339,0,0,1,.531-16.832c2.016-3.207,5.066-5.216,8.439-5.108s6.289,2.3,8.063,5.615a16.694,16.694,0,0,1,1.935,8.5Z" transform="translate(-604.242 -352.519)" fill="#113647"/>
        <path id="Trazado_1138" data-name="Trazado 1138" d="M13.782,0C21.393,0,27.562,4.678,27.56,10.452S21.389,20.909,13.778,20.91,0,16.232,0,10.458,6.172,0,13.782,0Z" transform="translate(0 60.609) rotate(-88.282)" fill="#113647"/>
        <path id="Trazado_1139" data-name="Trazado 1139" d="M13.782,0C21.393,0,27.562,4.678,27.56,10.452S21.389,20.909,13.778,20.91,0,16.232,0,10.458,6.172,0,13.782,0Z" transform="translate(1.035 44.389) rotate(-88.19)" fill="#113647"/>
        <path id="Trazado_1140" data-name="Trazado 1140" d="M13.782,0C21.393,0,27.562,4.678,27.56,10.452S21.389,20.909,13.778,20.91,0,16.232,0,10.458,6.172,0,13.782,0Z" transform="translate(1.571 27.547) rotate(-88.19)" fill="#113647"/>
      </g>
      <path id="Trazado_129" data-name="Trazado 129" d="M563.012,138.5a50.685,50.685,0,0,1-3.709-5.892l27.6-3.667-29.726-.724a50.8,50.8,0,0,1,.3-39.961l39.193,22.074L560.794,81.97a49.935,49.935,0,0,1,88.716,7.165,50.7,50.7,0,0,1-7.8,51.867,50.657,50.657,0,0,1,5.422,9.376l-36.2,17.515,38.407-11.636a50.7,50.7,0,0,1-9.555,47.071,50.669,50.669,0,0,1-7.555,68,49.838,49.838,0,0,1-67.923-2.177,50.677,50.677,0,0,1-3.244-68.343,50.717,50.717,0,0,1,1.949-62.326Z" transform="translate(-549.336 -58.191)" fill="#113647"/>
      <path id="Trazado_130" data-name="Trazado 130" d="M651.435,226.779A50.393,50.393,0,0,1,639.744,257.6a50.669,50.669,0,0,1-7.533,68.012,49.838,49.838,0,0,1-67.937-2.179,50.677,50.677,0,0,1-3.219-68.357C554.61,246.316,651.61,221.123,651.435,226.779Z" transform="translate(-549.327 -112.464)" fill="#113647" opacity="0.1"/>
    </g>
    <path id="Trazado_131" data-name="Trazado 131" d="M731.094,434.317v147.3c-39.355,5.913-79.5,7.117-119.462,8.308-111.453,3.322-223.194,6.637-334.351-1.022-49.158-3.383-99.533-9.309-142.617-29.563V377.869c.161-125.153-.511,0,0-125.532V207.289a9.507,9.507,0,0,1,9.474-9.539H721.62a9.507,9.507,0,0,1,9.474,9.539V321.368C731.5,434.019,730.826,321.719,731.094,434.317Z" transform="translate(-1718.687 942.449)" fill="#063647"/>
    <rect id="Rectángulo_35" data-name="Rectángulo 35" width="247.847" height="19.321" rx="5.22" transform="translate(-1409.731 1185.275)" fill="#6c63ff" opacity="0.3"/>
    <path id="Trazado_132" data-name="Trazado 132" d="M734.814,277.159h-.41l-.154-.129a3.465,3.465,0,0,0,.8-2.2,3.319,3.319,0,1,0-3.306,3.383,3.406,3.406,0,0,0,2.177-.8l.148.129v.392l2.56,2.584.766-.771Zm-3.071,0a2.306,2.306,0,1,1,1.634-.68A2.29,2.29,0,0,1,731.743,277.159Z" transform="translate(-1913.543 918.581)" fill="#444053"/>
    <rect id="Rectángulo_36" data-name="Rectángulo 36" width="23.128" height="8.05" rx="4.025" transform="translate(-1491.243 1371.618)" fill="#3f3d56" opacity="0.7"/>
    <rect id="Rectángulo_37" data-name="Rectángulo 37" width="35.975" height="8.05" rx="4.025" transform="translate(-1491.243 1391.744)" fill="#6c63ff" opacity="0.3"/>
    <rect id="Rectángulo_38" data-name="Rectángulo 38" width="71.957" height="8.05" rx="4.025" transform="translate(-1491.243 1381.684)" fill="#6c63ff" opacity="0.3"/>
    <rect id="Rectángulo_39" data-name="Rectángulo 39" width="23.128" height="8.05" rx="4.025" transform="translate(-1491.243 1271.806)" fill="#3f3d56" opacity="0.7"/>
    <rect id="Rectángulo_40" data-name="Rectángulo 40" width="35.975" height="8.05" rx="4.025" transform="translate(-1491.243 1291.932)" fill="#6c63ff" opacity="0.3"/>
    <rect id="Rectángulo_41" data-name="Rectángulo 41" width="71.957" height="8.05" rx="4.025" transform="translate(-1491.243 1281.866)" fill="#6c63ff" opacity="0.3"/>
    <path id="Trazado_134" data-name="Trazado 134" d="M229.29,415.059l-10.2-10.337a7.373,7.373,0,0,0-9.985-9.309l4.824,4.884-3.36,3.383-4.919-4.857a7.384,7.384,0,0,0,1.458,8.4,7.128,7.128,0,0,0,7.734,1.7l10.18,10.344a1.077,1.077,0,0,0,1.572,0l2.58-2.611a1.026,1.026,0,0,0,.114-1.59Z" transform="translate(-1741.806 878.727)" fill="#6c63ff"/>
    <rect id="Rectángulo_42" data-name="Rectángulo 42" width="23.128" height="8.05" rx="4.025" transform="translate(-1298.561 1371.618)" fill="#3f3d56" opacity="0.7"/>
    <rect id="Rectángulo_43" data-name="Rectángulo 43" width="35.975" height="8.05" rx="4.025" transform="translate(-1298.561 1391.744)" fill="#6c63ff" opacity="0.3"/>
    <rect id="Rectángulo_44" data-name="Rectángulo 44" width="71.957" height="8.05" rx="4.025" transform="translate(-1298.561 1381.684)" fill="#6c63ff" opacity="0.3"/>
    <rect id="Rectángulo_45" data-name="Rectángulo 45" width="23.128" height="8.05" rx="4.025" transform="translate(-1491.243 1446.479)" fill="#3f3d56" opacity="0.7"/>
    <rect id="Rectángulo_46" data-name="Rectángulo 46" width="35.975" height="8.05" rx="4.025" transform="translate(-1491.243 1466.605)" fill="#6c63ff" opacity="0.3"/>
    <rect id="Rectángulo_47" data-name="Rectángulo 47" width="71.957" height="8.05" rx="4.025" transform="translate(-1491.243 1456.546)" fill="#6c63ff" opacity="0.3"/>
    <rect id="Rectángulo_48" data-name="Rectángulo 48" width="23.128" height="8.05" rx="4.025" transform="translate(-1298.561 1271.806)" fill="#3f3d56" opacity="0.7"/>
    <rect id="Rectángulo_49" data-name="Rectángulo 49" width="35.975" height="8.05" rx="4.025" transform="translate(-1298.561 1291.932)" fill="#6c63ff" opacity="0.3"/>
    <rect id="Rectángulo_50" data-name="Rectángulo 50" width="71.957" height="8.05" rx="4.025" transform="translate(-1298.561 1281.866)" fill="#6c63ff" opacity="0.3"/>
    <rect id="Rectángulo_51" data-name="Rectángulo 51" width="23.128" height="8.05" rx="4.025" transform="translate(-1108.278 1371.618)" fill="#3f3d56" opacity="0.7"/>
    <rect id="Rectángulo_52" data-name="Rectángulo 52" width="35.975" height="8.05" rx="4.025" transform="translate(-1108.278 1391.744)" fill="#6c63ff" opacity="0.3"/>
    <rect id="Rectángulo_53" data-name="Rectángulo 53" width="71.957" height="8.05" rx="4.025" transform="translate(-1108.278 1381.684)" fill="#6c63ff" opacity="0.3"/>
    <rect id="Rectángulo_54" data-name="Rectángulo 54" width="23.128" height="8.05" rx="4.025" transform="translate(-1106.679 1271.806)" fill="#3f3d56" opacity="0.7"/>
    <rect id="Rectángulo_55" data-name="Rectángulo 55" width="35.975" height="8.05" rx="4.025" transform="translate(-1106.679 1291.932)" fill="#6c63ff" opacity="0.3"/>
    <rect id="Rectángulo_56" data-name="Rectángulo 56" width="71.957" height="8.05" rx="4.025" transform="translate(-1106.679 1281.866)" fill="#6c63ff" opacity="0.3"/>
    <ellipse id="Elipse_67" data-name="Elipse 67" cx="3.528" cy="3.552" rx="3.528" ry="3.552" transform="translate(-1132.118 1275.676)" fill="#4dc3e0"/>
    <path id="Trazado_141" data-name="Trazado 141" d="M799.081,406.186l-7,4.695-9.7-6.508V402l9.7,6.515,5.577-3.741a5.028,5.028,0,0,1-.067-5.412h-15.5a2.373,2.373,0,0,0-2.358,2.375v14.8a2.373,2.373,0,0,0,2.359,2.375h20a2.367,2.367,0,0,0,2.352-2.375V406.254a4.924,4.924,0,0,1-5.375-.041Z" transform="translate(-1930.38 877.229)" fill="#4dc3e0"/>
    <ellipse id="Elipse_68" data-name="Elipse 68" cx="17.524" cy="3.389" rx="17.524" ry="3.389" transform="translate(-1316.058 1539.262)" fill="#6c63ff"/>
    <ellipse id="Elipse_69" data-name="Elipse 69" cx="2.043" cy="2.686" rx="2.043" ry="2.686" transform="translate(-1300.866 1538.525)" fill="#3f3d56"/>
    <ellipse id="Elipse_70" data-name="Elipse 70" cx="2.043" cy="2.686" rx="2.043" ry="2.686" transform="translate(-1300.866 1535.237)" fill="#3f3d56"/>
    <ellipse id="Elipse_71" data-name="Elipse 71" cx="2.043" cy="2.686" rx="2.043" ry="2.686" transform="translate(-1300.866 1531.949)" fill="#3f3d56"/>
    <ellipse id="Elipse_72" data-name="Elipse 72" cx="2.043" cy="2.686" rx="2.043" ry="2.686" transform="translate(-1300.866 1528.661)" fill="#3f3d56"/>
    <ellipse id="Elipse_73" data-name="Elipse 73" cx="2.043" cy="2.686" rx="2.043" ry="2.686" transform="translate(-1300.866 1525.38)" fill="#3f3d56"/>
    <ellipse id="Elipse_74" data-name="Elipse 74" cx="2.043" cy="2.686" rx="2.043" ry="2.686" transform="translate(-1300.866 1522.092)" fill="#3f3d56"/>
    <ellipse id="Elipse_75" data-name="Elipse 75" cx="2.043" cy="2.686" rx="2.043" ry="2.686" transform="translate(-1300.866 1518.805)" fill="#3f3d56"/>
    <path id="Trazado_142" data-name="Trazado 142" d="M562.036,720.506a9.2,9.2,0,0,0,.759-1.13l-5.375-.886,5.792.047a9.932,9.932,0,0,0,.188-7.793l-7.774,4.059,7.169-5.311a9.74,9.74,0,0,0-17.362.836,9.891,9.891,0,0,0,1.236,10.177,10.231,10.231,0,0,0-1.115,1.793l6.961,3.64-7.391-2.5a9.884,9.884,0,0,0,1.572,9.234,9.885,9.885,0,0,0,1.051,13.306,9.721,9.721,0,0,0,13.257,0,9.884,9.884,0,0,0,1.052-13.306,9.9,9.9,0,0,0,0-12.177Z" transform="translate(-1853.226 778.497)" fill="#6c63ff"/>
    <path id="Trazado_143" data-name="Trazado 143" d="M544.6,737.051a9.818,9.818,0,0,0,2.09,6.089,9.885,9.885,0,0,0,1.051,13.306,9.721,9.721,0,0,0,13.257,0,9.885,9.885,0,0,0,1.052-13.306C563.36,741.462,544.6,735.948,544.6,737.051Z" transform="translate(-1853.24 768.034)" opacity="0.1"/>
    <path id="Trazado_144" data-name="Trazado 144" d="M741.664,420.329a9.3,9.3,0,0,1-.672-1.827c-.067-.724.215-1.678-.423-2.029-.356-.2-.853-.047-1.169-.3a1.46,1.46,0,0,1-.343-.812,2.758,2.758,0,0,0-2.553-2.03c.672-1.833,3.145-2.28,4.233-3.9.544-.805.369-2.287-.591-2.293a1.665,1.665,0,0,0-.672.169l-3.581,1.488a18.332,18.332,0,0,0-2.016.94,15.937,15.937,0,0,0-4.764,4.823,20.664,20.664,0,0,0-2.963,5.412,12.256,12.256,0,0,0-.632,3.714v.379c-.585.1-1.062.359-1.673.48l-1.391,3.7a4.7,4.7,0,0,1-.907,1.685,8.421,8.421,0,0,1-.981.778,5.736,5.736,0,0,0-1.955,4.986,5.375,5.375,0,0,0-3.131,6.616,6.27,6.27,0,0,0-4.576,4.059,3,3,0,0,1-.6,1.272,2.374,2.374,0,0,1-1.592.494c-1.572.1-2.943,1.353-4.361.676a8.822,8.822,0,0,0-5.181-.731,3.849,3.849,0,0,1-1.109.1,2.964,2.964,0,0,1-.907-.318,7,7,0,0,0-2.056-.819,1.9,1.9,0,0,0-1.949.758c-.5-.548-.793-1.258-1.243-1.847a2.011,2.011,0,0,0-1.895-.913c.47-.426,0-1.279-.625-1.427a7.715,7.715,0,0,0-1.888.068c-1.64,0-2.9-1.515-4.5-1.914-1.465-.359-3.42.074-4.173-1.252-.235-.426-.3-.981-.672-1.3a2.468,2.468,0,0,0-.477-.981,3.189,3.189,0,0,0-2.526-.758,10.472,10.472,0,0,0-2.936.507,1.519,1.519,0,0,0-.1-.379,7.492,7.492,0,0,0-3.252-4.018,13.388,13.388,0,0,0-3.8-1.529V431.7a15.353,15.353,0,0,1,.779-5.026c.054-.176.121-.352.182-.528a18.039,18.039,0,0,0,8.063-30.192,4.658,4.658,0,0,0-.141-1.082,5.33,5.33,0,0,0-1.075-2.111,6.636,6.636,0,0,0-3.729-3.423c-.47-.223-.968-.44-1.492-.677-2.6-1.177-5.113-2.909-8.063-2.9-2.688,0-5.281,1.5-7.942,1.441h-.638c-.746-.088-1.64-.264-2.13.311a3.048,3.048,0,0,0-.376.737,1.786,1.786,0,0,1-.134.25,2.983,2.983,0,0,1-.343.467c-.86.947-2.3,1.353-3.494,1.989a10.733,10.733,0,0,0-5.147,7.178,22.768,22.768,0,0,0,.067,9.092,7.488,7.488,0,0,0,1.908,4.154c1.062.947-8.984,6.434-7.344,7.347.894.5,4.616-1.874,7.821-4.14.034.135.06.277.1.413a29.918,29.918,0,0,0,1.465,4.228c.672,1.617,1.64,3.383,3.313,3.849a3.579,3.579,0,0,0,1.136.129h.3a26.819,26.819,0,0,1-.773,7.354,4.419,4.419,0,0,0-2.748.764,2.205,2.205,0,0,1-1.115.6,1.937,1.937,0,0,1-1.149-.568,6.484,6.484,0,0,0-8.157.433c-3.252,3.092-2.883,9.126-6.719,11.467-1.048.643-2.392.988-3.01,2.063a7.719,7.719,0,0,1-.517.994,2.722,2.722,0,0,1-.914.676,17.764,17.764,0,0,0-3.145,1.827,4.552,4.552,0,0,0-1.807,3.071,5.858,5.858,0,0,0,.551,2.578,24.7,24.7,0,0,0,2.1,4.059,4.332,4.332,0,0,0-.847,2c-.269,1.9.632,3.775.732,5.7a22.011,22.011,0,0,1-.739,4.966c-1.182,6.454,1.082,12.989,3.36,19.118a9.92,9.92,0,0,1,.806,3.146c.06,2.029-1.075,3.836-1.391,5.811-.672,4.154,2.372,8.064,2.439,12.265,0,1.941-.578,3.91-.094,5.784a20.152,20.152,0,0,0,1.639,3.5c.968,2.07,1.23,4.418,2.157,6.508a15.582,15.582,0,0,0,4.784,5.737c1.162,3.714-.49,8.2,0,12.177q.947-.379,1.915-.677a28,28,0,0,0,4.233,16.8,38.591,38.591,0,0,1,3.05,4.945,23.29,23.29,0,0,1,1.19,3.917q1.686,7.083,3.36,14.152c.914,3.822,1.834,7.712,1.559,11.636-.188,2.706-.873,5.8.793,7.963a5.759,5.759,0,0,1,1,1.394,3.556,3.556,0,0,1,0,1.84,123.01,123.01,0,0,0-1.666,13.794c-.376.507-.753,1.022-1.1,1.529-2.762,4.059-4.092,8.937-5.167,13.747a167.38,167.38,0,0,0-3.467,28.711,19.176,19.176,0,0,0-3.534,4.336c-1.445,2.706-1.633,5.886-1.787,8.957a3.219,3.219,0,0,0,.161,1.475,3.012,3.012,0,0,0,1.505,1.137l.833.4c-.182.676-.343,1.353-.484,2.063-1.062-1.2-2.95-3.112-3.272-1.718a69.3,69.3,0,0,0-1.72,14.207,1.2,1.2,0,0,0,.279,1.041,1.185,1.185,0,0,0,1,.393,77.6,77.6,0,0,0,13.983,1.2c3.8,0,7.586-.311,11.369-.6l3.877-.3a85.265,85.265,0,0,0,11.873-1.482,9.924,9.924,0,0,0,4.771-2.124,4.094,4.094,0,0,0,1.035-4.817c-1.082-1.854-3.608-1.989-5.718-2.287a18.621,18.621,0,0,1-5.994-1.921c-.423-.216-.833-.46-1.243-.676a.931.931,0,0,0,.322-.095c1.814-.616,3.259-2.029,4.966-2.875a20.163,20.163,0,0,1,6.43-1.482,13.909,13.909,0,0,0,6.269-1.935,5.561,5.561,0,0,0,2.52-5.338,3.542,3.542,0,0,0-.107-.419c-.672-2.185-3.024-3.383-5.214-3.924s-4.569-.866-6.343-2.287l-.262-.21c-.148-.129-.3-.25-.464-.379a3.823,3.823,0,0,0,.517-2.205,11.046,11.046,0,0,0-1.27-3.383c-.934-2.2-1.008-4.654-1.263-7.029-.632-5.974-2.453-11.737-3.823-17.589-.154-.677-.3-1.353-.45-2.03a42.572,42.572,0,0,1,4.885-7.874,25.773,25.773,0,0,0,4.7-9.315c.282-1.042.49-2.1.705-3.159q3.642-18.326,6.881-36.714a30.769,30.769,0,0,0,.611-5.3,16.26,16.26,0,0,0,.907-5.026c.632-2.483,1.27-5.087.753-6.711-.363-1.15-.544-5.081-.746-8.849a34.216,34.216,0,0,0-.363-6.041c-.061-.345-.128-.676-.2-1.021q-.06-.3-.121-.507a17.457,17.457,0,0,0-1.183-3.288,16.029,16.029,0,0,0-.887-1.833,8.361,8.361,0,0,0-.672-1,41.4,41.4,0,0,1,4.179.392c.336.047.753.074.961-.2a1,1,0,0,0,.121-.521,8.673,8.673,0,0,0-1.089-4.573,6.3,6.3,0,0,1-1.263-3,4.44,4.44,0,0,1,.37-1.488l1.861-5.033c1.579-4.255.826-9.187,1.646-13.652a80.675,80.675,0,0,0,1.223-10.56c.154-3.024.06-6.3-1.747-8.727a9.962,9.962,0,0,1-1.344-1.921,5.725,5.725,0,0,1-.323-2.293q-.047-7.11.282-14.207a137.778,137.778,0,0,0,23.551-2.706,14.714,14.714,0,0,0,2.688-.731,13.557,13.557,0,0,0,2.688-1.712,34.958,34.958,0,0,0,7.331-6.461,21.975,21.975,0,0,0,4.341-10.783c1.908-1.779,2.923-4.309,3.877-6.765a10.485,10.485,0,0,0,.887-3.281c.047-1.164-.712-2.381-.5-3.525a9.34,9.34,0,0,1,2.815-5.128,1.852,1.852,0,0,0,.672-.9,1.442,1.442,0,0,0-.154-.88l-.061-.1c.188-.115.363-.237.544-.359.625-.447,1.223-.94,1.808-1.421a11.46,11.46,0,0,0,2.345-2.395,3.911,3.911,0,0,0,.632-3.18Zm-86.215,259.3a1.869,1.869,0,0,0-.477.041,6.4,6.4,0,0,0-1.707.494l-.128.068c.739-1.61,1.438-3.247,2.07-4.911.074-.2.141-.392.215-.6l-.081,1.109A13.775,13.775,0,0,0,655.449,679.627Z" transform="translate(-1877.349 881.629)" fill="url(#linear-gradient)"/>
    <path id="Trazado_145" data-name="Trazado 145" d="M677.377,447.966c.067,2.625.954,5.168,1.088,7.793-7.68.386-15.266-3.383-22.846-2.219,2.13-1.387,3.266-3.883,3.938-6.339a26.491,26.491,0,0,0,.746-9.748,4.528,4.528,0,0,0-.094-.534c-.282-1.285-1.015-3.105-.82-4.113.262-1.353,1.512-1.076,2.641-1a100.465,100.465,0,0,1,10.254,1.353c.887.156,9.494,2.32,9.629,2.1a40.5,40.5,0,0,0-3.729,7.732,15.2,15.2,0,0,0-.806,4.979Z" transform="translate(-1889.662 866.757)" fill="#ee8e9e"/>
    <path id="Trazado_146" data-name="Trazado 146" d="M793.468,435.934a11.218,11.218,0,0,1-2.345,2.381c-.584.48-1.183.974-1.807,1.414a7.7,7.7,0,0,1-3.844,1.576c-1.828.122-5.718-.961-6.854-2.537a4.6,4.6,0,0,1-.672-2.645,12.173,12.173,0,0,1,.632-3.694,20.622,20.622,0,0,1,2.963-5.412,16.075,16.075,0,0,1,4.764-4.8,18.3,18.3,0,0,1,2.016-.94l3.581-1.475a1.671,1.671,0,0,1,.672-.176c.961,0,1.135,1.488.591,2.287-1.089,1.61-3.541,2.03-4.233,3.876a2.752,2.752,0,0,1,2.553,2,1.432,1.432,0,0,0,.343.805c.316.25.813.108,1.169.3.638.338.356,1.292.423,2.03a9.17,9.17,0,0,0,.672,1.813A3.871,3.871,0,0,1,793.468,435.934Z" transform="translate(-1929.792 870.672)" fill="#ee8e9e"/>
    <path id="Trazado_147" data-name="Trazado 147" d="M643.4,827.248a2.722,2.722,0,0,1,2.385-.365,88.125,88.125,0,0,0,13.4,1.089c.564-2.76-1.068-5.412-1.593-8.213a7.312,7.312,0,0,0-.537-2.084,4.592,4.592,0,0,0-3.393-2.029c-2.412-.514-6.188-1.414-7.539,1.042-1.619,2.916-2.137,7.272-2.728,10.56Z" transform="translate(-1885.653 742.754)" fill="#65617d"/>
    <path id="Trazado_148" data-name="Trazado 148" d="M702.355,811.347a14.063,14.063,0,0,1-6.269,1.921,20.18,20.18,0,0,0-6.43,1.482c-1.707.852-3.151,2.246-4.966,2.855a10.221,10.221,0,0,1-5.154.081c-2.016-.385-4.206-1.13-5.3-2.9-.981-1.57-.88-3.565-.746-5.412.161-2.09.316-4.194.464-6.292a2.993,2.993,0,0,1,.39-1.515c1.472-2.165,5.053.9,6.968.9a13.394,13.394,0,0,0,8.48-3.687,2.618,2.618,0,0,1,.672-.5c.867-.392,1.734.331,2.5.961l.262.21c1.774,1.414,4.153,1.7,6.343,2.28s4.536,1.725,5.214,3.9a3.116,3.116,0,0,1,.107.412,5.6,5.6,0,0,1-2.533,5.3Z" transform="translate(-1895.497 748.217)" fill="#3f3d56"/>
    <path id="Trazado_149" data-name="Trazado 149" d="M702.355,811.347a14.063,14.063,0,0,1-6.269,1.921,20.18,20.18,0,0,0-6.43,1.482c-1.707.852-3.151,2.246-4.966,2.855a10.221,10.221,0,0,1-5.154.081c-2.016-.385-4.206-1.13-5.3-2.9-.981-1.57-.88-3.565-.746-5.412.161-2.09.316-4.194.464-6.292a2.993,2.993,0,0,1,.39-1.515c1.472-2.165,5.053.9,6.968.9a13.394,13.394,0,0,0,8.48-3.687,2.618,2.618,0,0,1,.672-.5c.867-.392,1.734.331,2.5.961l.262.21c1.774,1.414,4.153,1.7,6.343,2.28s4.536,1.725,5.214,3.9a3.116,3.116,0,0,1,.107.412,5.6,5.6,0,0,1-2.533,5.3Z" transform="translate(-1895.497 748.217)" fill="#434175"/>
    <path id="Trazado_150" data-name="Trazado 150" d="M702.355,812.05a14.07,14.07,0,0,1-6.269,1.928,20.17,20.17,0,0,0-6.43,1.475c-1.707.852-3.151,2.246-4.966,2.855a10.219,10.219,0,0,1-5.154.081,8.464,8.464,0,0,1-5.3-3.606c-.981-1.569-.88-3.565-.746-5.412.161-2.091.316-4.194.464-6.292a2.992,2.992,0,0,1,.39-1.515c1.472-2.165,5.053.9,6.968.9a13.394,13.394,0,0,0,8.48-3.687,2.614,2.614,0,0,1,.672-.5c.867-.392,1.734.331,2.5.961a17.914,17.914,0,0,1-2.13,4.438,9.15,9.15,0,0,1-6.719,4.208,21.529,21.529,0,0,0-4.032.183c-1.283.352-2.533,1.7-2.07,2.99s2.056,1.522,3.36,1.6a14.938,14.938,0,0,0,5.516-.392c1.075-.359,2.063-.954,3.1-1.394,4.448-1.854,10.079-.819,13.748-3.958a8.747,8.747,0,0,1,1.122-.866C705.835,808.066,704.041,810.907,702.355,812.05Z" transform="translate(-1895.497 748.217)" fill="#e8eaf2"/>
    <path id="Trazado_151" data-name="Trazado 151" d="M702.355,812.05a14.07,14.07,0,0,1-6.269,1.928,20.17,20.17,0,0,0-6.43,1.475c-1.707.852-3.151,2.246-4.966,2.855a10.219,10.219,0,0,1-5.154.081,8.464,8.464,0,0,1-5.3-3.606c-.981-1.569-.88-3.565-.746-5.412.161-2.091.316-4.194.464-6.292a2.992,2.992,0,0,1,.39-1.515c1.472-2.165,5.053.9,6.968.9a13.394,13.394,0,0,0,8.48-3.687,2.614,2.614,0,0,1,.672-.5c.867-.392,1.734.331,2.5.961a17.914,17.914,0,0,1-2.13,4.438,9.15,9.15,0,0,1-6.719,4.208,21.529,21.529,0,0,0-4.032.183c-1.283.352-2.533,1.7-2.07,2.99s2.056,1.522,3.36,1.6a14.938,14.938,0,0,0,5.516-.392c1.075-.359,2.063-.954,3.1-1.394,4.448-1.854,10.079-.819,13.748-3.958a8.747,8.747,0,0,1,1.122-.866C705.835,808.066,704.041,810.907,702.355,812.05Z" transform="translate(-1895.497 748.217)" opacity="0.05"/>
    <path id="Trazado_152" data-name="Trazado 152" d="M644.374,612.2a27.738,27.738,0,0,0,3.749,20.3,38.325,38.325,0,0,1,3.051,4.918,22.981,22.981,0,0,1,1.189,3.9l3.359,14.071c.914,3.8,1.834,7.672,1.559,11.575-.188,2.706-.874,5.771.793,7.922a5.726,5.726,0,0,1,1,1.387,3.506,3.506,0,0,1,0,1.827c-1.707,10.222-2.977,20.9.108,30.788,2.8,8.964,2.963,18.895,5.342,27.973A6.27,6.27,0,0,0,666,739.965a4.869,4.869,0,0,0,2.217,1.055c3.507.846,7.21-.142,10.475-1.664,2.3-1.076,4.771-2.956,4.576-5.493A11.113,11.113,0,0,0,682,730.48c-.934-2.185-1.008-4.621-1.263-6.988-.632-5.94-2.453-11.676-3.823-17.481s-2.311-11.886-1.149-17.745A156.205,156.205,0,0,1,687.1,653.156a4.242,4.242,0,0,1,1.042-1.569,11.35,11.35,0,0,0,1.471-1.008,4.527,4.527,0,0,0,.672-1.84c.511-1.854,2.016-3.227,3.044-4.85,2.574-4.113,1.761-9.383,1.666-14.24-.094-4.736.578-9.471-.188-14.152s-3.386-9.43-7.855-10.865a16.857,16.857,0,0,0-6.914-.325c-12.249,1.218-24.156,3.457-35.659,7.895Z" transform="translate(-1885.794 810.994)" fill="#696791"/>
    <path id="Trazado_153" data-name="Trazado 153" d="M644.374,613.2a27.737,27.737,0,0,0,3.749,20.3,38.32,38.32,0,0,1,3.051,4.918,22.98,22.98,0,0,1,1.189,3.9l3.359,14.071c.914,3.8,1.834,7.672,1.559,11.575-.188,2.706-.874,5.771.793,7.922a5.712,5.712,0,0,1,1,1.387,3.506,3.506,0,0,1,0,1.827c-1.707,10.222-2.977,20.9.108,30.788,2.8,8.964,2.963,18.895,5.342,27.974A6.27,6.27,0,0,0,666,740.965a4.872,4.872,0,0,0,2.217,1.055c3.507.846,7.21-.142,10.475-1.664,2.3-1.076,4.771-2.956,4.576-5.493A11.112,11.112,0,0,0,682,731.48c-.934-2.185-1.008-4.621-1.263-6.988-.632-5.94-2.453-11.676-3.823-17.481s-2.311-11.886-1.149-17.745A156.2,156.2,0,0,1,687.1,654.156a4.241,4.241,0,0,1,1.042-1.569,11.35,11.35,0,0,0,1.471-1.008,4.527,4.527,0,0,0,.672-1.84c.511-1.854,2.016-3.227,3.044-4.851,2.574-4.113,1.761-9.383,1.666-14.24-.094-4.735.578-9.471-.188-14.152s-3.386-9.43-7.855-10.865a16.858,16.858,0,0,0-6.914-.325c-12.249,1.218-24.156,3.457-35.659,7.895Z" transform="translate(-1885.794 810.67)" opacity="0.1"/>
    <path id="Trazado_154" data-name="Trazado 154" d="M693.577,642.9a29.962,29.962,0,0,1-.611,5.459q-3.245,18.266-6.908,36.531c-.215,1.055-.423,2.111-.706,3.146a25.621,25.621,0,0,1-4.7,9.268c-10.18,12.779-11.06,31.336-16.583,46.746-.376,1.042-.746,2.09-1.142,3.119a78.568,78.568,0,0,1-3.407,7.651,2.176,2.176,0,0,1-.672.913,2.059,2.059,0,0,1-1.109.223,32.278,32.278,0,0,1-14.352-3.288,3.015,3.015,0,0,1-1.525-1.279,3.17,3.17,0,0,1-.161-1.468c.155-3.051.343-6.217,1.787-8.9a19.058,19.058,0,0,1,3.534-4.316,165,165,0,0,1,3.467-28.562c1.075-4.79,2.405-9.627,5.167-13.672,2.016-2.99,4.959-5.94,4.6-9.545-.154-1.583-.813-3.552.464-4.478.558-.413,1.384-.467,1.767-1.049a2.039,2.039,0,0,0,.249-.893,22.239,22.239,0,0,0-.457-7.394,40.008,40.008,0,0,1-1.1-4.824,6.119,6.119,0,0,1,1.2-4.654c.067-3.294,0-6.711.047-10a18.5,18.5,0,0,0-.464-5.581c-.242-.859-.625-1.684-.813-2.564-.672-3.159,1.021-6.948-1.008-9.471a13.768,13.768,0,0,0-3.259-2.314,11.982,11.982,0,0,1-4.475-6.474,35.8,35.8,0,0,1-1.277-7.942,7.683,7.683,0,0,1,0-1.712,2.957,2.957,0,0,1,.228-.859c.632-1.427,2.325-1.982,3.837-2.347a123.61,123.61,0,0,1,29.3-3.45c3.655-2.5,5.7-1.6,7.257,1.042a27.915,27.915,0,0,1,2.063,5.081c.672,2.151.752,14.207,1.438,16.351.874,2.808-1.713,8.558-1.68,11.507Z" transform="translate(-1885.087 809.914)" fill="#696791"/>
    <path id="Trazado_155" data-name="Trazado 155" d="M620.518,496.034c-.269,1.894.632,3.755.732,5.669a21.844,21.844,0,0,1-.739,4.945c-1.183,6.413,1.082,12.915,3.36,19.016a9.8,9.8,0,0,1,.806,3.126c.06,1.989-1.075,3.815-1.391,5.784-.672,4.134,2.372,8.016,2.439,12.177,0,1.928-.578,3.89-.094,5.75a20.2,20.2,0,0,0,1.633,3.477c.974,2.03,1.236,4.4,2.164,6.474,1.673,3.755,5.268,6.21,8.695,8.463,1.942-.677,4.031-1.427,5.12-3.193a7.909,7.909,0,0,0,.894-2.8,72.373,72.373,0,0,0,.672-13,80.808,80.808,0,0,0-.558-11.189c-.672-4.736-2.211-9.268-3.306-13.916-1.344-5.852-2.076-11.9-4.22-17.522a59.977,59.977,0,0,0-7.909-13.611c-1.176-1.617-2.11-3.931-4.394-3.558A4.807,4.807,0,0,0,620.518,496.034Z" transform="translate(-1878.038 847.231)" fill="#434175"/>
    <path id="Trazado_156" data-name="Trazado 156" d="M620.518,494.034c-.269,1.894.632,3.755.732,5.669a21.843,21.843,0,0,1-.739,4.945c-1.183,6.413,1.082,12.914,3.36,19.017a9.8,9.8,0,0,1,.806,3.125c.06,1.989-1.075,3.816-1.391,5.784-.672,4.133,2.372,8.017,2.439,12.177,0,1.928-.578,3.89-.094,5.75a20.2,20.2,0,0,0,1.633,3.477c.974,2.029,1.236,4.4,2.164,6.474,1.673,3.755,5.268,6.21,8.695,8.463,1.942-.676,4.031-1.427,5.12-3.193a7.907,7.907,0,0,0,.894-2.8,72.373,72.373,0,0,0,.672-13,80.807,80.807,0,0,0-.558-11.189c-.672-4.736-2.211-9.268-3.306-13.916-1.344-5.852-2.076-11.9-4.22-17.521a59.976,59.976,0,0,0-7.909-13.611c-1.176-1.617-2.11-3.931-4.394-3.558A4.807,4.807,0,0,0,620.518,494.034Z" transform="translate(-1878.038 847.878)" fill="#302bb4" opacity="0.05"/>
    <path id="Trazado_157" data-name="Trazado 157" d="M683.657,435.234a40.5,40.5,0,0,0-3.729,7.732,17.481,17.481,0,0,1-4.233.514c-5.543,0-9.461-3.173-12.72-7.184-.282-1.285-2.016-2.483-1.841-3.491.262-1.353,1.512-1.076,2.641-1a100.481,100.481,0,0,1,10.254,1.353c.887.108,9.494,2.3,9.629,2.077Z" transform="translate(-1891.467 866.757)" opacity="0.1"/>
    <ellipse id="Elipse_76" data-name="Elipse 76" cx="17.746" cy="17.866" rx="17.746" ry="17.866" transform="translate(-1233.518 1274.018)" fill="#ee8e9e"/>
    <g id="Grupo_33" data-name="Grupo 33" transform="translate(-1259.335 1268.972)">
      <path id="Trazado_158" data-name="Trazado 158" d="M696.345,609.992c-3.071-.183-6.168-.054-9.246.068a31.483,31.483,0,0,0-5.745.6c-2.331.535-4.509,1.6-6.807,2.273-3.682,1.076-7.566,1.123-11.376,1.5a63,63,0,0,0-7.452,1.177,2.959,2.959,0,0,1,.229-.859c.632-1.427,2.325-1.982,3.837-2.347a123.606,123.606,0,0,1,29.3-3.45c3.655-2.469,5.7-1.6,7.257,1.042Z" transform="translate(-630.361 -459.071)" opacity="0.1"/>
      <path id="Trazado_159" data-name="Trazado 159" d="M673.92,462.742c-.773.9-1.814,1.894-2.956,1.6a4.074,4.074,0,0,1-1.156-.622c-2.016-1.353-4.556-1.637-6.961-2.03a101.817,101.817,0,0,1-14.339-3.247,14.649,14.649,0,0,0-4.247-.866c-3,0-5.671,2.03-7.552,4.384s-3.225,5.121-5.073,7.509c-1.344,1.7-2.889,3.207-4.119,4.972-3.1,4.458-3.776,10.276-2.97,15.661s2.936,10.466,5.06,15.478a53.24,53.24,0,0,0,4.126,8.429,20.111,20.111,0,0,0,1.6,12.448,12.441,12.441,0,0,1,1.606,3.7,9.431,9.431,0,0,1-.107,2.706l-.907,6.467c-.276,1.969-.551,3.937-.907,5.9-.672,3.579-1.532,7.441.114,10.7,1.969,3.883-.1,8.856.417,13.185a65.342,65.342,0,0,1,17.3-4.133c3.81-.379,7.694-.426,11.376-1.5,2.3-.677,4.475-1.739,6.807-2.28a31.377,31.377,0,0,1,5.745-.589,68.22,68.22,0,0,1,12.767.284c.336.054.753.081.961-.2a1,1,0,0,0,.128-.508,8.59,8.59,0,0,0-1.089-4.546,6.254,6.254,0,0,1-1.263-2.983,4.4,4.4,0,0,1,.37-1.481l1.861-5.006c1.579-4.228.826-9.14,1.646-13.577a79.979,79.979,0,0,0,1.223-10.506c.155-3.011.061-6.271-1.747-8.68a9.92,9.92,0,0,1-1.344-1.915,5.675,5.675,0,0,1-.323-2.28q-.061-9.038.491-18.076c-1.572-2.848-3.219-5.757-4.791-8.605-1.834-3.315-3.689-6.7-4.428-10.418-.491-2.456-.477-4.993-.826-7.475a3.329,3.329,0,0,0-.625-1.752,3.137,3.137,0,0,0-2.527-.751,10.979,10.979,0,0,0-3.333.6Z" transform="translate(-620.031 -410.577)" fill="#424078"/>
      <path id="Trazado_160" data-name="Trazado 160" d="M789.316,447.488a7.7,7.7,0,0,1-3.844,1.576c-1.828.122-5.718-.961-6.854-2.537a4.6,4.6,0,0,1-.672-2.645,3.284,3.284,0,0,1,.766-.149,19.941,19.941,0,0,1,5.953.244,6.669,6.669,0,0,1,4.616,3.491Z" transform="translate(-670.458 -406.059)" opacity="0.1"/>
      <path id="Trazado_161" data-name="Trazado 161" d="M704.768,486.352A12.653,12.653,0,0,0,708.5,489.9a11.976,11.976,0,0,0,5.826.9,138.854,138.854,0,0,0,24.344-2.706,15.256,15.256,0,0,0,2.688-.724,13.83,13.83,0,0,0,2.688-1.7,34.642,34.642,0,0,0,7.331-6.434,21.762,21.762,0,0,0,4.341-10.723c1.908-1.766,2.923-4.289,3.877-6.718a10.364,10.364,0,0,0,.887-3.261c.047-1.157-.712-2.368-.5-3.5a9.244,9.244,0,0,1,2.815-5.1,1.852,1.852,0,0,0,.672-.9,1.43,1.43,0,0,0-.154-.873,6.713,6.713,0,0,0-4.623-3.491,19.761,19.761,0,0,0-5.96-.244,13.4,13.4,0,0,0-1.949.528l-1.391,3.673a4.665,4.665,0,0,1-.907,1.678,8.433,8.433,0,0,1-.981.778,5.689,5.689,0,0,0-1.955,4.959,5.341,5.341,0,0,0-3.131,6.576,6.263,6.263,0,0,0-4.576,4.059,3.019,3.019,0,0,1-.6,1.265,2.448,2.448,0,0,1-1.572.514c-1.572.095-2.943,1.353-4.361.677a8.875,8.875,0,0,0-5.181-.731,3.852,3.852,0,0,1-1.109.1,2.964,2.964,0,0,1-.907-.318,7.173,7.173,0,0,0-2.056-.812,1.9,1.9,0,0,0-1.949.758c-.5-.548-.793-1.252-1.243-1.84a2.011,2.011,0,0,0-1.895-.913c.47-.419,0-1.265-.625-1.421a8.454,8.454,0,0,0-1.888.068c-1.64,0-2.9-1.509-4.5-1.9-1.465-.359-3.42.074-4.173-1.245-.262-.467-.316-1.1-.766-1.353a1.469,1.469,0,0,0-.994-.115,9.523,9.523,0,0,0-2.99.913c-1.539,6.089-.732,12.339.437,18.469a16.337,16.337,0,0,0,3.286,7.563Z" transform="translate(-644.953 -406.281)" fill="#424078"/>
      <path id="Trazado_162" data-name="Trazado 162" d="M703.2,537.536l-7.64,15.519c.826-1.441,2.567-2.029,3.944-2.916a10.509,10.509,0,0,0,3.743-5.1,32.072,32.072,0,0,0,1.445-6.285c.154-.981.477-2.361,0-3.254-.847.183-1.129,1.313-1.492,2.036Z" transform="translate(-643.431 -435.783)" opacity="0.1"/>
      <path id="Trazado_163" data-name="Trazado 163" d="M665.132,556.557a68.71,68.71,0,0,1-5.732,4.505c-4.435,3.558-7.593,8.429-10.677,13.212a20.861,20.861,0,0,0-2.184,4c.363.311.9,0,1.263-.331l6-5.3a13.608,13.608,0,0,0,2.016-2.029c1.041-1.414,1.505-3.173,2.453-4.654a18.1,18.1,0,0,1,3.649-3.741c1.377-1.191,7.707-6.582,6.168-8.68-1.135.541-2.049,2.1-2.956,3.017Z" transform="translate(-627.349 -441.619)" opacity="0.1"/>
      <path id="Trazado_164" data-name="Trazado 164" d="M668.871,456.846a17.914,17.914,0,0,0-6.35-2.1,13.353,13.353,0,0,0-4.032-.291c-1.25.156-2.453.643-3.709.676-1.767.1-3.454-.622-5.16-1.089s-3.676-.677-5.107.386a2.2,2.2,0,0,1-1.115.6,2.01,2.01,0,0,1-1.149-.568,6.51,6.51,0,0,0-8.157.433c-3.252,3.071-2.882,9.072-6.719,11.406-1.048.677-2.392.981-3.01,2.03a8.14,8.14,0,0,1-.518.988,2.687,2.687,0,0,1-.914.677,17.728,17.728,0,0,0-3.145,1.82,4.51,4.51,0,0,0-1.807,3.051,5.8,5.8,0,0,0,.551,2.564,23.926,23.926,0,0,0,23.255,14.971,3.625,3.625,0,0,0,2.439-.764,4.691,4.691,0,0,0,.853-1.414c1.794-3.782,5.16-6.576,7.3-10.148,1.27-2.145,2.09-4.546,3.42-6.657,2.016-3.2,5.066-5.568,8.063-7.861,1.693-1.292,3.568-2.652,5.691-2.564,1.888.081,3.265.183,2.567-2.145a7.431,7.431,0,0,0-3.245-3.991Z" transform="translate(-617.979 -409.166)" fill="#434175"/>
      <path id="Trazado_165" data-name="Trazado 165" d="M668.871,456.846a17.914,17.914,0,0,0-6.35-2.1,13.353,13.353,0,0,0-4.032-.291c-1.25.156-2.453.643-3.709.676-1.767.1-3.454-.622-5.16-1.089s-3.676-.677-5.107.386a2.2,2.2,0,0,1-1.115.6,2.01,2.01,0,0,1-1.149-.568,6.51,6.51,0,0,0-8.157.433c-3.252,3.071-2.882,9.072-6.719,11.406-1.048.677-2.392.981-3.01,2.03a8.14,8.14,0,0,1-.518.988,2.687,2.687,0,0,1-.914.677,17.728,17.728,0,0,0-3.145,1.82,4.51,4.51,0,0,0-1.807,3.051,5.8,5.8,0,0,0,.551,2.564,23.926,23.926,0,0,0,23.255,14.971,3.625,3.625,0,0,0,2.439-.764,4.691,4.691,0,0,0,.853-1.414c1.794-3.782,5.16-6.576,7.3-10.148,1.27-2.145,2.09-4.546,3.42-6.657,2.016-3.2,5.066-5.568,8.063-7.861,1.693-1.292,3.568-2.652,5.691-2.564,1.888.081,3.265.183,2.567-2.145a7.431,7.431,0,0,0-3.245-3.991Z" transform="translate(-617.979 -409.166)" fill="#312cb5" opacity="0.05"/>
      <path id="Trazado_166" data-name="Trazado 166" d="M684.441,834.545a9.842,9.842,0,0,1-4.771,2.111,85.249,85.249,0,0,1-11.873,1.481l-3.877.3c-3.783.291-7.573.582-11.369.6a78.2,78.2,0,0,1-13.989-1.218,1.2,1.2,0,0,1-1.277-1.427,68.581,68.581,0,0,1,1.72-14.139c.437-1.9,3.83,2.368,3.984,2.55a3.863,3.863,0,0,0,3.084,1.644c3.9.216,8.278-2.172,11.376-4.3a14.884,14.884,0,0,1,2.11-1.319,6.145,6.145,0,0,1,1.707-.487,10.209,10.209,0,0,1,5.805,1.184c2.332,1.164,4.374,2.835,6.719,4.059a18.766,18.766,0,0,0,5.993,1.908c2.11.291,4.636.433,5.718,2.273a4.115,4.115,0,0,1-1.062,4.783Z" transform="translate(-624.31 -527.913)" fill="#434175"/>
      <path id="Trazado_167" data-name="Trazado 167" d="M684.1,835.27a9.843,9.843,0,0,1-4.771,2.111,85.26,85.26,0,0,1-11.873,1.482l-3.877.3c-3.783.291-7.573.582-11.369.6a77.585,77.585,0,0,1-13.99-1.218,1.521,1.521,0,0,1-1.109-.534,6.28,6.28,0,0,1-.867-1.6c.081-4.736,1.344-9.5,2.419-14.139.437-1.9,3.83,2.368,3.984,2.551a3.863,3.863,0,0,0,3.084,1.644c3.9.217,8.278-2.172,11.376-4.3a14.9,14.9,0,0,1,2.11-1.319,6.144,6.144,0,0,1,1.707-.487c-.5,2.828-4.529,6.244-6.612,7.286-4.206,2.1-9.205,1.049-13.9,1.3a2,2,0,0,0-.988.237c-.558.379-.591,1.184-.578,1.86.04,1.123.181,2.449,1.156,3.017a3.3,3.3,0,0,0,1.559.331,218.858,218.858,0,0,0,34.651-1.224,18.854,18.854,0,0,0,5.644-1.265,14.4,14.4,0,0,0,3.272-2.124c1.478,1.164.242,4.289-1.035,5.493Z" transform="translate(-623.973 -527.935)" fill="#e8eaf2"/>
      <path id="Trazado_168" data-name="Trazado 168" d="M679.822,412.69c-.067,1.847,1.183,5.412-2.251,4.431-2.016-.6-2.621-3.037-5.214-2.5s-3.2,3.768-4.072,5.872a11.163,11.163,0,0,1-8.063,6.576,4.845,4.845,0,0,1-2.224,0c-1.673-.48-2.627-2.219-3.313-3.829a29.958,29.958,0,0,1-1.465-4.208,17.231,17.231,0,0,1-.531-3.085,13.3,13.3,0,0,1,0-2.131c.309-4.2,2.688-8.03,5.725-10.926a50.721,50.721,0,0,1,10.381-7.056,15.333,15.333,0,0,1,3.83-1.718,12.821,12.821,0,0,1,4.031-.162,13.933,13.933,0,0,1,5.147,1.218,7.193,7.193,0,0,1,1.807,1.279,5.492,5.492,0,0,1,1.572,2.632c.672,2.706-1.062,5.162-2.459,7.306C681.448,408.293,679.909,410.309,679.822,412.69Z" transform="translate(-629.352 -389.966)" fill="#434175"/>
      <path id="Trazado_169" data-name="Trazado 169" d="M777.5,476.095c-.732-1.86-3.81-7.009-2.923-8.795a22.879,22.879,0,0,1,2.345,4.221C777.5,472.976,777.038,474.911,777.5,476.095Z" transform="translate(-669.301 -413.721)" opacity="0.1"/>
      <path id="Trazado_170" data-name="Trazado 170" d="M684.163,407.44c1.4-2.145,3.118-4.593,2.459-7.306a5.65,5.65,0,0,0-2.016-3,4.94,4.94,0,0,1,.511,1.265c.672,2.706-1.062,5.155-2.459,7.306-1.243,1.908-2.782,3.93-2.876,6.305-.067,1.847,1.189,5.412-2.244,4.431-2.016-.6-2.621-3.038-5.221-2.5s-3.192,3.761-4.072,5.872a11.15,11.15,0,0,1-8.063,6.576,4.848,4.848,0,0,1-2.224,0,3.386,3.386,0,0,1-1.048-.521,4.553,4.553,0,0,0,2.533,2.26,4.967,4.967,0,0,0,2.231,0,11.191,11.191,0,0,0,8.063-6.582c.88-2.111,1.451-5.317,4.072-5.865s3.172,1.894,5.221,2.49c3.434,1,2.177-2.584,2.244-4.431C681.381,411.37,682.927,409.348,684.163,407.44Z" transform="translate(-630.751 -391.021)" opacity="0.1"/>
      <path id="Trazado_171" data-name="Trazado 171" d="M683.511,402.712a14.755,14.755,0,0,1-1.048,1.515,17.925,17.925,0,0,1-2.425,2.53c-.531.46-1.075.886-1.64,1.292a25.83,25.83,0,0,1-3.313,2,61.2,61.2,0,0,1-10.6,3.822l-7.082,2.077c-.873.677-2.466,1.854-4.22,3.092a17.209,17.209,0,0,1-.531-3.085,13.269,13.269,0,0,1,0-2.131c.309-4.2,2.688-8.03,5.725-10.926a50.718,50.718,0,0,1,10.381-7.056,15.334,15.334,0,0,1,3.83-1.718,12.821,12.821,0,0,1,4.032-.162,13.931,13.931,0,0,1,5.147,1.218,7.2,7.2,0,0,1,1.808,1.279,6.884,6.884,0,0,1,.907,1.935A5.515,5.515,0,0,1,683.511,402.712Z" transform="translate(-629.339 -389.966)" opacity="0.1"/>
      <path id="Trazado_172" data-name="Trazado 172" d="M679.825,400.365a14.759,14.759,0,0,1-1.048,1.515,17.924,17.924,0,0,1-2.426,2.53c-.531.46-1.075.886-1.64,1.292a26.614,26.614,0,0,1-3.313,2,61.189,61.189,0,0,1-10.6,3.822l-7.082,2.07c-2.473,1.887-10.751,8.057-12.142,7.286-1.639-.907,7.344-7.313,7.344-7.313l.41.318c-1.344-.832-2.016-2.76-2.3-4.431a22.412,22.412,0,0,1-.067-9.045,10.7,10.7,0,0,1,5.147-7.137c1.189-.622,2.634-1.035,3.494-1.982a2.969,2.969,0,0,0,.343-.467,1.41,1.41,0,0,0,.135-.243,2.931,2.931,0,0,1,.376-.737c.49-.568,1.384-.4,2.13-.3h.242a3.783,3.783,0,0,0,.4,0c2.688.061,5.248-1.434,7.942-1.434,2.95,0,5.463,1.718,8.063,2.9.524.237,1.021.453,1.492.677,1.881.879,3.292,1.82,4.031,4.316a5.4,5.4,0,0,1-.927,4.377Z" transform="translate(-625.654 -388.1)" fill="#6c63ff"/>
      <path id="Trazado_173" data-name="Trazado 173" d="M666.172,390.261a1.223,1.223,0,0,1-.282,1.569,2.14,2.14,0,0,1-1.115.4,7.478,7.478,0,0,1-.873.068,2.391,2.391,0,0,1-1.149-.2,1.482,1.482,0,0,1-.2-.129,2.985,2.985,0,0,0,.343-.467c.067.054.134.041.4,0a6.1,6.1,0,0,0,1.438-.243,1.594,1.594,0,0,0,.538-.264,1.677,1.677,0,0,0,.511-.778Z" transform="translate(-632.601 -388.786)" opacity="0.1"/>
      <path id="Trazado_174" data-name="Trazado 174" d="M652.86,425.611a3.259,3.259,0,0,0,1.23.46,5.537,5.537,0,0,0,.947.156,5.241,5.241,0,0,0,2.318-.677" transform="translate(-629.422 -400.215)" opacity="0.1"/>
    </g>
    <g id="Grupo_384" data-name="Grupo 384" transform="translate(-1349.516 1375.229)">
      <path id="_1" data-name="1" d="M1,4.947,9.949,0,18.89,5,9.953,9.831Zm9.759,6.33v8.518L18.9,15.372V6.856Zm-1.627,0L1,6.814v8.558l8.136,4.422Z" transform="translate(-1)" fill="#a2e2f5"/>
      <path id="_1-2" data-name="1" d="M1,4.947,9.949,0,18.89,5,9.953,9.831Zm9.759,6.33v8.518L18.9,15.372V6.856Zm-1.627,0L1,6.814v8.558l8.136,4.422Z" transform="translate(17.458 0.489)" fill="#00c3e0"/>
    </g>
    <path id="Trazado_1129" data-name="Trazado 1129" d="M229.29,415.059l-10.2-10.337a7.373,7.373,0,0,0-9.985-9.309l4.824,4.884-3.36,3.383-4.919-4.857a7.384,7.384,0,0,0,1.458,8.4,7.128,7.128,0,0,0,7.734,1.7l10.18,10.344a1.077,1.077,0,0,0,1.572,0l2.58-2.611a1.026,1.026,0,0,0,.114-1.59Z" transform="translate(-1741.806 877.076)" fill="#4dc3e0"/>
    <g id="_306" data-name="306" transform="translate(-1150.649 1374.205)">
      <path id="Trazado_107" data-name="Trazado 107" d="M285.823,294.81v-1.4h4.165a.305.305,0,0,0,.309-.3v-2.911a.305.305,0,0,0-.309-.3h-4.165v-1.4a.3.3,0,0,0-.191-.279.315.315,0,0,0-.337.065l-3.237,3.161a.3.3,0,0,0,0,.427l3.237,3.161a.314.314,0,0,0,.337.065A.3.3,0,0,0,285.823,294.81Z" transform="translate(-264.87 -271.235)" fill="#4dc3e0"/>
      <path id="Trazado_108" data-name="Trazado 108" d="M69.042,57.775a9.312,9.312,0,0,0-5.717-2.925c-.076-.143-.2-.351-.228-.408l-.088-.153a2.8,2.8,0,0,0,.513-1.572V49.6a2.758,2.758,0,0,0-.385-1.371l-.027-.051a1.823,1.823,0,0,0,.145-.692c0-1.265-1.243-2.33-3.593-3.081A25.776,25.776,0,0,0,52.212,43.4a25.775,25.775,0,0,0-7.45,1.007c-2.351.751-3.593,1.817-3.593,3.082a1.823,1.823,0,0,0,.145.691l-.025.046A2.785,2.785,0,0,0,40.9,49.6v3.12a2.782,2.782,0,0,0,.513,1.57l-.09.154a2.824,2.824,0,0,0-.423,1.441V59a2.781,2.781,0,0,0,.486,1.534l-.064.108a2.82,2.82,0,0,0-.423,1.439V65.2c0,1.426,1.186,2.74,3.338,3.7a20.194,20.194,0,0,0,7.97,1.451,25.039,25.039,0,0,0,3.351-.226,9.278,9.278,0,0,0,6.6,2.713,9.153,9.153,0,0,0,9.25-9.031A8.888,8.888,0,0,0,69.042,57.775ZM45.219,45.895a23.69,23.69,0,0,1,6.993-.925,23.684,23.684,0,0,1,6.993.926c1.682.545,2.435,1.191,2.435,1.589s-.753,1.047-2.435,1.593A23.668,23.668,0,0,1,52.212,50a23.666,23.666,0,0,1-6.993-.926c-1.681-.545-2.434-1.193-2.434-1.593S43.538,46.439,45.219,45.895Zm-2.7,4.644c1.834,1.239,5.552,2.024,9.694,2.024s7.858-.786,9.7-2.025v2.18c0,.8-.985,1.691-2.635,2.373a19.093,19.093,0,0,1-7.061,1.2,19.09,19.09,0,0,1-7.06-1.2c-1.649-.682-2.634-1.569-2.634-2.373V50.539Zm9.694,18.238a19.1,19.1,0,0,1-7.06-1.2c-1.649-.681-2.634-1.567-2.634-2.369V62.715c1.985,1.507,5.633,2.43,9.694,2.43.274,0,.541-.013.8-.027a8.9,8.9,0,0,0,1.364,3.557C53.658,68.743,52.931,68.777,52.212,68.777Zm.794-6.23c-.257.015-.522.029-.794.029a19.094,19.094,0,0,1-7.06-1.2C43.5,60.691,42.518,59.8,42.518,59v-2.49c1.981,1.508,5.629,2.431,9.694,2.431.711,0,1.448-.037,2.241-.113A8.886,8.886,0,0,0,53.007,62.547Zm9.16,8.087a6.827,6.827,0,1,1,6.99-6.825A6.917,6.917,0,0,1,62.166,70.635Z" transform="translate(-40.904 -43.396)" fill="#4dc3e0"/>
    </g>
    <g id="_1873373" data-name="1873373" transform="translate(-1343.2 1274.601)">
      <path id="Trazado_1007" data-name="Trazado 1007" d="M12.884-1279.547a13.209,13.209,0,0,0-5.195,1.317,12.489,12.489,0,0,0-6.857,8.683,10.808,10.808,0,0,0-.232,2.406,9.768,9.768,0,0,0,.121,1.766,12.269,12.269,0,0,0,4.495,7.755,13.133,13.133,0,0,0,6.75,2.808,11.143,11.143,0,0,0,1.533.079,10.605,10.605,0,0,0,1.6-.089,12.9,12.9,0,0,0,9.952-6.779,11.957,11.957,0,0,0,1.223-3.774,9.71,9.71,0,0,0,.121-1.756,10.016,10.016,0,0,0-.121-1.775,12.677,12.677,0,0,0-10.942-10.525,11.528,11.528,0,0,0-1.674-.115C13.3-1279.551,12.95-1279.551,12.884-1279.547Zm1.459,1.379c.65.658.94.972,1.329,1.434a17.659,17.659,0,0,1,2.169,3.228c.165.322.42.859.41.869s-.523.157-.9.246a15.923,15.923,0,0,1-1.695.32c-.3.043-.722.082-1.366.126l-.167.01v-3.2c0-2.53.006-3.2.024-3.2A1.04,1.04,0,0,1,14.342-1278.168Zm-1.469,3.071v3.164l-.145-.011c-.081-.006-.278-.02-.44-.029a16.426,16.426,0,0,1-1.906-.254,12.337,12.337,0,0,1-1.5-.378c0-.006.069-.159.153-.343A17.656,17.656,0,0,1,12-1277.38c.293-.322.831-.879.853-.879S12.874-1276.835,12.874-1275.1Zm-1.929-2.965c-.01.014-.085.1-.169.2a18.525,18.525,0,0,0-2.935,4.513c-.081.182-.153.336-.159.342a14.453,14.453,0,0,1-1.67-.741,10.221,10.221,0,0,1-1.287-.766,17.2,17.2,0,0,1,1.261-1.191,11.844,11.844,0,0,1,4.174-2.175c.139-.039.763-.2.795-.2C10.957-1278.084,10.953-1278.073,10.945-1278.061Zm5.5.076a11.764,11.764,0,0,1,4.83,2.5c.268.233.944.889.982.955.016.031-.01.054-.212.181a16.272,16.272,0,0,1-1.676.906c-.369.171-.872.386-.906.386a1.4,1.4,0,0,1-.153-.287,18.4,18.4,0,0,0-2.772-4.28c-.145-.169-.284-.334-.311-.363s-.04-.056-.03-.056S16.317-1278.019,16.445-1277.986Zm-11.687,4.944a16.723,16.723,0,0,0,2.066,1.011c.216.089.4.167.408.174a.424.424,0,0,1-.034.167,15.933,15.933,0,0,0-.514,2.084,15.034,15.034,0,0,0-.184,1.626,1.255,1.255,0,0,1-.012.176l-.014.06-2.3,0-2.3-.006.006-.117a10.738,10.738,0,0,1,.644-3.026,11.344,11.344,0,0,1,1.329-2.526l.089-.12.262.163C4.342-1273.288,4.594-1273.137,4.758-1273.042Zm18.471-.264a11.059,11.059,0,0,1,1.487,3.122,11.221,11.221,0,0,1,.393,2.111c.006.091.016.2.022.246l.01.083H20.687l-.014-.248a14.883,14.883,0,0,0-.66-3.525c-.056-.182-.1-.345-.107-.365s.081-.068.369-.188a17.645,17.645,0,0,0,2.344-1.2c.194-.118.369-.227.391-.242a.075.075,0,0,1,.054-.021A2.4,2.4,0,0,1,23.229-1273.306Zm-4.483,1.944a13.425,13.425,0,0,1,.631,2.988c.016.171.032.38.036.466l.006.155-2.647.006-2.649,0v-2.98l.4-.023a17.977,17.977,0,0,0,3.867-.661,2.285,2.285,0,0,1,.291-.074C18.7-1271.48,18.726-1271.426,18.746-1271.362Zm-9.984,0a17.767,17.767,0,0,0,3.714.617l.4.023v2.98H7.75v-.085c0-.142.059-.776.1-1.1a14.227,14.227,0,0,1,.383-1.855,5.982,5.982,0,0,1,.21-.668S8.593-1271.41,8.762-1271.364ZM6.487-1266.5a.945.945,0,0,1,.012.161c0,.163.052.716.1,1.087a15.345,15.345,0,0,0,.666,2.829,1.511,1.511,0,0,1,.085.306,2.641,2.641,0,0,1-.266.111,17.292,17.292,0,0,0-2.629,1.3,1.94,1.94,0,0,1-.355.186c-.044-.046-.317-.431-.442-.623a10.879,10.879,0,0,1-1.616-3.964c-.067-.342-.133-.834-.153-1.106-.006-.091-.016-.2-.022-.248l-.01-.082H6.475Zm6.387,1.624v1.667l-.2.012a17.967,17.967,0,0,0-3.038.409c-.284.064-1.037.256-1.065.273a6.764,6.764,0,0,1-.278-.807,13.982,13.982,0,0,1-.539-3.013l-.014-.208h5.13Zm6.546-1.527c-.044.561-.059.708-.1,1.044a13.837,13.837,0,0,1-.414,1.959c-.1.353-.3.931-.313.931s-.111-.029-.236-.066a17.862,17.862,0,0,0-2.374-.5c-.565-.079-.918-.112-1.658-.159l-.2-.012v-3.333h5.308Zm5.711-.068c-.006.041-.016.151-.022.248a10.914,10.914,0,0,1-1.487,4.627,12.888,12.888,0,0,1-.724,1.075,1.8,1.8,0,0,1-.355-.186,17.717,17.717,0,0,0-2.572-1.279.491.491,0,0,1-.178-.089.664.664,0,0,1,.04-.124c.071-.173.3-.925.4-1.288a14.491,14.491,0,0,0,.436-2.683l.024-.372h4.454Zm-12.258,7.46,0,2.974-.224-.223a18.246,18.246,0,0,1-3.446-4.752,2.786,2.786,0,0,1-.155-.359,10.58,10.58,0,0,1,1.527-.369,15.44,15.44,0,0,1,2.134-.241l.165,0ZM15-1261.93a16.513,16.513,0,0,1,2.865.524c.1.027.2.056.218.06s.034.019.034.033c0,.045-.551,1.084-.763,1.438a18.129,18.129,0,0,1-2.3,3.052,7.323,7.323,0,0,1-.894.877,18.7,18.7,0,0,1-.038-3.019v-3.021l.288.014C14.57-1261.966,14.837-1261.946,15-1261.93ZM8.163-1260.3a18.38,18.38,0,0,0,2.572,3.8c.143.165.256.3.25.3-.032,0-.478-.109-.71-.173a11.732,11.732,0,0,1-5.076-2.91l-.28-.27.169-.107a17.541,17.541,0,0,1,2.56-1.261l.171-.066.048.1C7.9-1260.832,8.028-1260.57,8.163-1260.3Zm11.523-.481a18.558,18.558,0,0,1,2.223,1.125l.169.107-.291.281a11.711,11.711,0,0,1-4.485,2.72,8.779,8.779,0,0,1-1.081.3s.107-.132.238-.283a18.614,18.614,0,0,0,2.667-3.989,2.521,2.521,0,0,1,.214-.39C19.356-1260.914,19.511-1260.856,19.687-1260.784Z" transform="translate(-0.6 1279.55)" fill="#6c63ff"/>
    </g>
    <g id="_1873373-2" data-name="1873373" transform="translate(-1343.565 1274.601)">
      <path id="Trazado_1007-2" data-name="Trazado 1007" d="M12.884-1279.547a13.209,13.209,0,0,0-5.195,1.317,12.489,12.489,0,0,0-6.857,8.683,10.808,10.808,0,0,0-.232,2.406,9.768,9.768,0,0,0,.121,1.766,12.269,12.269,0,0,0,4.495,7.755,13.133,13.133,0,0,0,6.75,2.808,11.143,11.143,0,0,0,1.533.079,10.605,10.605,0,0,0,1.6-.089,12.9,12.9,0,0,0,9.952-6.779,11.957,11.957,0,0,0,1.223-3.774,9.71,9.71,0,0,0,.121-1.756,10.016,10.016,0,0,0-.121-1.775,12.677,12.677,0,0,0-10.942-10.525,11.528,11.528,0,0,0-1.674-.115C13.3-1279.551,12.95-1279.551,12.884-1279.547Zm1.459,1.379c.65.658.94.972,1.329,1.434a17.659,17.659,0,0,1,2.169,3.228c.165.322.42.859.41.869s-.523.157-.9.246a15.923,15.923,0,0,1-1.695.32c-.3.043-.722.082-1.366.126l-.167.01v-3.2c0-2.53.006-3.2.024-3.2A1.04,1.04,0,0,1,14.342-1278.168Zm-1.469,3.071v3.164l-.145-.011c-.081-.006-.278-.02-.44-.029a16.426,16.426,0,0,1-1.906-.254,12.337,12.337,0,0,1-1.5-.378c0-.006.069-.159.153-.343A17.656,17.656,0,0,1,12-1277.38c.293-.322.831-.879.853-.879S12.874-1276.835,12.874-1275.1Zm-1.929-2.965c-.01.014-.085.1-.169.2a18.525,18.525,0,0,0-2.935,4.513c-.081.182-.153.336-.159.342a14.453,14.453,0,0,1-1.67-.741,10.221,10.221,0,0,1-1.287-.766,17.2,17.2,0,0,1,1.261-1.191,11.844,11.844,0,0,1,4.174-2.175c.139-.039.763-.2.795-.2C10.957-1278.084,10.953-1278.073,10.945-1278.061Zm5.5.076a11.764,11.764,0,0,1,4.83,2.5c.268.233.944.889.982.955.016.031-.01.054-.212.181a16.272,16.272,0,0,1-1.676.906c-.369.171-.872.386-.906.386a1.4,1.4,0,0,1-.153-.287,18.4,18.4,0,0,0-2.772-4.28c-.145-.169-.284-.334-.311-.363s-.04-.056-.03-.056S16.317-1278.019,16.445-1277.986Zm-11.687,4.944a16.723,16.723,0,0,0,2.066,1.011c.216.089.4.167.408.174a.424.424,0,0,1-.034.167,15.933,15.933,0,0,0-.514,2.084,15.034,15.034,0,0,0-.184,1.626,1.255,1.255,0,0,1-.012.176l-.014.06-2.3,0-2.3-.006.006-.117a10.738,10.738,0,0,1,.644-3.026,11.344,11.344,0,0,1,1.329-2.526l.089-.12.262.163C4.342-1273.288,4.594-1273.137,4.758-1273.042Zm18.471-.264a11.059,11.059,0,0,1,1.487,3.122,11.221,11.221,0,0,1,.393,2.111c.006.091.016.2.022.246l.01.083H20.687l-.014-.248a14.883,14.883,0,0,0-.66-3.525c-.056-.182-.1-.345-.107-.365s.081-.068.369-.188a17.645,17.645,0,0,0,2.344-1.2c.194-.118.369-.227.391-.242a.075.075,0,0,1,.054-.021A2.4,2.4,0,0,1,23.229-1273.306Zm-4.483,1.944a13.425,13.425,0,0,1,.631,2.988c.016.171.032.38.036.466l.006.155-2.647.006-2.649,0v-2.98l.4-.023a17.977,17.977,0,0,0,3.867-.661,2.285,2.285,0,0,1,.291-.074C18.7-1271.48,18.726-1271.426,18.746-1271.362Zm-9.984,0a17.767,17.767,0,0,0,3.714.617l.4.023v2.98H7.75v-.085c0-.142.059-.776.1-1.1a14.227,14.227,0,0,1,.383-1.855,5.982,5.982,0,0,1,.21-.668S8.593-1271.41,8.762-1271.364ZM6.487-1266.5a.945.945,0,0,1,.012.161c0,.163.052.716.1,1.087a15.345,15.345,0,0,0,.666,2.829,1.511,1.511,0,0,1,.085.306,2.641,2.641,0,0,1-.266.111,17.292,17.292,0,0,0-2.629,1.3,1.94,1.94,0,0,1-.355.186c-.044-.046-.317-.431-.442-.623a10.879,10.879,0,0,1-1.616-3.964c-.067-.342-.133-.834-.153-1.106-.006-.091-.016-.2-.022-.248l-.01-.082H6.475Zm6.387,1.624v1.667l-.2.012a17.967,17.967,0,0,0-3.038.409c-.284.064-1.037.256-1.065.273a6.764,6.764,0,0,1-.278-.807,13.982,13.982,0,0,1-.539-3.013l-.014-.208h5.13Zm6.546-1.527c-.044.561-.059.708-.1,1.044a13.837,13.837,0,0,1-.414,1.959c-.1.353-.3.931-.313.931s-.111-.029-.236-.066a17.862,17.862,0,0,0-2.374-.5c-.565-.079-.918-.112-1.658-.159l-.2-.012v-3.333h5.308Zm5.711-.068c-.006.041-.016.151-.022.248a10.914,10.914,0,0,1-1.487,4.627,12.888,12.888,0,0,1-.724,1.075,1.8,1.8,0,0,1-.355-.186,17.717,17.717,0,0,0-2.572-1.279.491.491,0,0,1-.178-.089.664.664,0,0,1,.04-.124c.071-.173.3-.925.4-1.288a14.491,14.491,0,0,0,.436-2.683l.024-.372h4.454Zm-12.258,7.46,0,2.974-.224-.223a18.246,18.246,0,0,1-3.446-4.752,2.786,2.786,0,0,1-.155-.359,10.58,10.58,0,0,1,1.527-.369,15.44,15.44,0,0,1,2.134-.241l.165,0ZM15-1261.93a16.513,16.513,0,0,1,2.865.524c.1.027.2.056.218.06s.034.019.034.033c0,.045-.551,1.084-.763,1.438a18.129,18.129,0,0,1-2.3,3.052,7.323,7.323,0,0,1-.894.877,18.7,18.7,0,0,1-.038-3.019v-3.021l.288.014C14.57-1261.966,14.837-1261.946,15-1261.93ZM8.163-1260.3a18.38,18.38,0,0,0,2.572,3.8c.143.165.256.3.25.3-.032,0-.478-.109-.71-.173a11.732,11.732,0,0,1-5.076-2.91l-.28-.27.169-.107a17.541,17.541,0,0,1,2.56-1.261l.171-.066.048.1C7.9-1260.832,8.028-1260.57,8.163-1260.3Zm11.523-.481a18.558,18.558,0,0,1,2.223,1.125l.169.107-.291.281a11.711,11.711,0,0,1-4.485,2.72,8.779,8.779,0,0,1-1.081.3s.107-.132.238-.283a18.614,18.614,0,0,0,2.667-3.989,2.521,2.521,0,0,1,.214-.39C19.356-1260.914,19.511-1260.856,19.687-1260.784Z" transform="translate(-0.6 1279.55)" fill="#00c3e0"/>
    </g>
    <path id="Trazado_1130" data-name="Trazado 1130" d="M220.967,654.25h-6.6a2.211,2.211,0,0,0-2.231,2.192v.474h-.417a2.211,2.211,0,0,0-2.231,2.192v15.986a2.252,2.252,0,0,0,2.231,2.246H223.2a2.19,2.19,0,0,0,1.548-.669,2.221,2.221,0,0,0,.622-1.577v-.419h.477a2.191,2.191,0,0,0,1.548-.67,2.22,2.22,0,0,0,.622-1.576V661.353Zm0,2.476,4.6,4.627h-4.6Zm2.647,18.367a.452.452,0,0,1-.417.474H211.721a.492.492,0,0,1-.464-.473V659.107a.451.451,0,0,1,.464-.419h.417v14.207a1.568,1.568,0,0,0,1.794,1.8h9.682Zm2.641-2.665a.445.445,0,0,1-.41.474H214.368a.492.492,0,0,1-.464-.473V656.442a.451.451,0,0,1,.464-.419H219.2v7.11h7.055Z" transform="translate(-1746.357 712.94)" fill="#4dc3e0"/>
    <path id="Trazado_1131" data-name="Trazado 1131" d="M502.438,399.994h-7.646a2.367,2.367,0,0,0-2.352,2.375v13.023a2.36,2.36,0,0,0,2.352,2.368h20a2.36,2.36,0,0,0,2.352-2.368V405.013a2.366,2.366,0,0,0-2.352-2.368h-10l-2.352-2.665Z" transform="translate(-2029.307 1050.099)" fill="#4dc3e0"/>
    <g id="Grupo_387" data-name="Grupo 387" transform="translate(-1103.049 1439.044)">
      <g id="Grupo_14" data-name="Grupo 14" transform="translate(0 0)">
        <text id="Consulting" transform="translate(12.776 68.255)" fill="#f5f5fc" font-size="5" font-family="Times-Bold, Times" font-weight="700"><tspan x="0" y="0">Consulting</tspan></text>
        <g id="Trazado_41" data-name="Trazado 41" transform="matrix(0.695, 0.719, -0.719, 0.695, 44.052, 0)" fill="#0ce4a2">
          <path d="M 4.587455749511719 45.12627029418945 C 3.399975776672363 45.12627029418945 2.317725896835327 44.67485809326172 1.540045857429504 43.85519790649414 C 0.7521058917045593 43.02471923828125 0.3534458577632904 41.89682006835938 0.4175058603286743 40.67926025390625 L 2.171945810317993 7.329658985137939 C 2.310345888137817 4.698789119720459 4.554865837097168 2.445838928222656 7.175355911254883 2.307468891143799 L 42.95835494995117 0.4180788695812225 C 43.04214477539062 0.4136588871479034 43.12675476074219 0.4114188849925995 43.20983505249023 0.4114188849925995 C 44.39730453491211 0.4114188849925995 45.47956466674805 0.8628188967704773 46.25723648071289 1.682478904724121 C 47.045166015625 2.512948989868164 47.44381713867188 3.640848875045776 47.37975692749023 4.85840892791748 L 45.62531661987305 38.20803070068359 C 45.4869270324707 40.83889007568359 43.24240493774414 43.09183883666992 40.62191772460938 43.23022842407227 L 4.838915824890137 45.11960983276367 C 4.755136013031006 45.12402725219727 4.670536041259766 45.12627029418945 4.587455749511719 45.12627029418945 Z" stroke="none"/>
          <path d="M 43.20981597900391 0.8114089965820312 C 43.13372421264648 0.8114089965820312 43.05621719360352 0.8134574890136719 42.97944641113281 0.8175201416015625 L 7.196456909179688 2.7069091796875 C 4.774166107177734 2.834819793701172 2.699367523193359 4.917999267578125 2.571395874023438 7.350669860839844 L 0.81695556640625 40.70027923583984 C 0.7587165832519531 41.80714797973633 1.118576049804688 42.82980728149414 1.830215454101562 43.57987976074219 C 2.5316162109375 44.31913757324219 3.510826110839844 44.72626876831055 4.587467193603516 44.72626876831055 C 4.663547515869141 44.72626876831055 4.741046905517578 44.72422027587891 4.817817687988281 44.72015762329102 L 40.60081481933594 42.83078002929688 C 43.02310562133789 42.7028694152832 45.09789657592773 40.61966705322266 45.22586441040039 38.1870002746582 L 46.98030471801758 4.837398529052734 C 47.03854751586914 3.73052978515625 46.67869567871094 2.707870483398438 45.96705627441406 1.957798004150391 C 45.26566696166992 1.218540191650391 44.28645706176758 0.8114089965820312 43.20981597900391 0.8114089965820312 M 43.20981597900391 0.01140594482421875 C 45.89872360229492 0.01140594482421875 47.92345428466797 2.137653350830078 47.77920532226562 4.879428863525391 L 46.02476501464844 38.22902679443359 C 45.87569427490234 41.06264877319336 43.46620559692383 43.4805793762207 40.64300537109375 43.62966918945312 L 4.859996795654297 45.51905059814453 C 4.768497467041016 45.52388000488281 4.677528381347656 45.52627182006836 4.58746337890625 45.52627182006836 C 1.898555755615234 45.52627182006836 -0.1261825561523438 43.4000129699707 0.01805496215820312 40.65824890136719 L 1.772495269775391 7.308639526367188 C 1.921566009521484 4.475028991699219 4.331066131591797 2.057098388671875 7.154266357421875 1.90802001953125 L 42.9372673034668 0.01862716674804688 C 43.02876281738281 0.01379776000976562 43.1197509765625 0.01140594482421875 43.20981597900391 0.01140594482421875 Z" stroke="none" fill="#0ce4a2"/>
        </g>
        <path id="Trazado_40" data-name="Trazado 40" d="M5.794,45.591S-15.87,54.1,24.567,38.577,39.7,17.489,39.7,17.489s-20.1-5.1-.161-13.914S61.853,5,61.853,5" transform="matrix(0.995, -0.105, 0.105, 0.995, 0, 16.581)" fill="none" stroke="#fff" stroke-width="1"/>
        <text id="IT" transform="translate(63.842 55.078)" fill="#fff" font-size="4" font-family="Times-Roman, Times"><tspan x="0" y="0">IT</tspan></text>
      </g>
      <text id="ur" transform="translate(53.091 34.107)" fill="#fff" font-size="5" font-family="PlantagenetCherokee, Plantagenet Cherokee"><tspan x="0" y="0">ur</tspan></text>
    </g>
  </g>
</svg>
