<svg id="High-Fidelity-v2" xmlns="http://www.w3.org/2000/svg" xmlns:xlink="http://www.w3.org/1999/xlink" width="309.277" height="233.885" viewBox="0 0 309.277 233.885">
  <defs>
    <linearGradient id="linear-gradient" y1="0.5" x2="1" y2="0.5" gradientUnits="objectBoundingBox">
      <stop offset="0" stop-color="#84ffcc"/>
      <stop offset="1" stop-color="#20bef5"/>
    </linearGradient>
    <linearGradient id="linear-gradient-2" x1="0" y1="0.5" x2="1" y2="0.5" xlink:href="#linear-gradient"/>
    <linearGradient id="linear-gradient-3" x1="0.566" y1="0.107" x2="0.388" y2="1.186" gradientUnits="objectBoundingBox">
      <stop offset="0" stop-color="#14a4db"/>
      <stop offset="0.2" stop-color="#1aabdc"/>
      <stop offset="0.48" stop-color="#2bbee0"/>
      <stop offset="0.81" stop-color="#46dde5"/>
      <stop offset="1" stop-color="#58f2e9"/>
    </linearGradient>
    <linearGradient id="linear-gradient-4" x1="89.601" y1="-1.574" x2="89.601" y2="0.822" xlink:href="#linear-gradient-3"/>
    <linearGradient id="linear-gradient-5" x1="1.681" y1="0.102" x2="-0.57" y2="0.861" gradientUnits="objectBoundingBox">
      <stop offset="0" stop-color="#008dc9"/>
      <stop offset="0.16" stop-color="#0694cb"/>
      <stop offset="0.4" stop-color="#17a7d1"/>
      <stop offset="0.68" stop-color="#32c6db"/>
      <stop offset="0.99" stop-color="#57f1e9"/>
      <stop offset="1" stop-color="#58f2e9"/>
    </linearGradient>
    <linearGradient id="linear-gradient-6" x1="56.559" y1="0.731" x2="55.856" y2="-0.38" xlink:href="#linear-gradient-5"/>
    <linearGradient id="linear-gradient-7" x1="70.377" y1="-0.616" x2="70.175" y2="0.812" xlink:href="#linear-gradient-3"/>
    <linearGradient id="linear-gradient-8" x1="1" y1="0.5" x2="0" y2="0.5" xlink:href="#linear-gradient-3"/>
    <linearGradient id="linear-gradient-9" x1="1" y1="0.5" x2="0" y2="0.5" xlink:href="#linear-gradient"/>
    <linearGradient id="linear-gradient-10" x1="0.81" y1="0.502" x2="0" y2="0.502" xlink:href="#linear-gradient"/>
    <linearGradient id="linear-gradient-11" x1="0.81" y1="0.489" x2="0" y2="0.489" xlink:href="#linear-gradient"/>
    <linearGradient id="linear-gradient-12" x1="0.79" y1="0.494" x2="-0.01" y2="0.494" xlink:href="#linear-gradient"/>
    <linearGradient id="linear-gradient-13" x1="0.81" y1="0.498" x2="0" y2="0.498" xlink:href="#linear-gradient"/>
    <linearGradient id="linear-gradient-14" x1="0.81" y1="0.493" x2="0" y2="0.493" xlink:href="#linear-gradient"/>
    <linearGradient id="linear-gradient-15" x1="0.81" y1="0.498" x2="0.01" y2="0.498" xlink:href="#linear-gradient"/>
    <linearGradient id="linear-gradient-16" x1="0.9" y1="0.78" x2="0.144" y2="-0.361" xlink:href="#linear-gradient-3"/>
    <linearGradient id="linear-gradient-17" x1="-0.375" y1="-0.459" x2="1.381" y2="1.467" xlink:href="#linear-gradient-3"/>
    <linearGradient id="linear-gradient-18" x1="0.001" y1="0.5" x2="1" y2="0.5" gradientUnits="objectBoundingBox">
      <stop offset="0" stop-color="#14a4db"/>
      <stop offset="0.4" stop-color="#35cae2"/>
      <stop offset="0.78" stop-color="#4ee7e7"/>
      <stop offset="1" stop-color="#58f2e9"/>
    </linearGradient>
    <linearGradient id="linear-gradient-19" x1="0.9" y1="0.781" x2="0.144" y2="-0.361" xlink:href="#linear-gradient-3"/>
    <linearGradient id="linear-gradient-20" x1="-0.375" y1="-0.459" x2="1.381" y2="1.467" xlink:href="#linear-gradient-3"/>
    <linearGradient id="linear-gradient-22" x1="0.9" y1="0.78" x2="0.144" y2="-0.361" xlink:href="#linear-gradient-3"/>
    <linearGradient id="linear-gradient-23" x1="-0.375" y1="-0.459" x2="1.381" y2="1.467" xlink:href="#linear-gradient-3"/>
    <linearGradient id="linear-gradient-24" x1="0.001" y1="0.499" y2="0.499" xlink:href="#linear-gradient-18"/>
    <linearGradient id="linear-gradient-25" x1="0.886" y1="0.803" x2="0.156" y2="-0.479" xlink:href="#linear-gradient-3"/>
    <linearGradient id="linear-gradient-26" x1="-0.375" y1="-0.459" x2="1.382" y2="1.468" xlink:href="#linear-gradient-3"/>
    <linearGradient id="linear-gradient-28" x1="0.5" y1="0.972" x2="0.5" y2="0.05" gradientUnits="objectBoundingBox">
      <stop offset="0" stop-color="#fff"/>
      <stop offset="1" stop-color="#fff" stop-opacity="0"/>
    </linearGradient>
    <linearGradient id="linear-gradient-29" x1="0.9" y1="0.78" x2="0.144" y2="-0.361" xlink:href="#linear-gradient-3"/>
    <linearGradient id="linear-gradient-30" x1="-0.374" y1="-0.459" x2="1.381" y2="1.467" xlink:href="#linear-gradient-3"/>
    <linearGradient id="linear-gradient-31" x1="0.001" y1="0.5" x2="0.998" y2="0.5" xlink:href="#linear-gradient-18"/>
    <linearGradient id="linear-gradient-32" x1="0.9" y1="0.78" x2="0.144" y2="-0.361" xlink:href="#linear-gradient-3"/>
    <linearGradient id="linear-gradient-33" x1="-0.374" y1="-0.459" x2="1.381" y2="1.467" xlink:href="#linear-gradient-3"/>
    <linearGradient id="linear-gradient-34" x1="0.001" y1="0.501" y2="0.501" xlink:href="#linear-gradient-18"/>
    <linearGradient id="linear-gradient-35" x1="0.9" y1="0.78" x2="0.144" y2="-0.361" xlink:href="#linear-gradient-3"/>
    <linearGradient id="linear-gradient-36" x1="-0.374" y1="-0.459" x2="1.381" y2="1.467" xlink:href="#linear-gradient-3"/>
    <linearGradient id="linear-gradient-37" x1="0.001" y1="0.5" x2="0.998" y2="0.5" xlink:href="#linear-gradient-18"/>
    <linearGradient id="linear-gradient-38" x1="0.886" y1="0.802" x2="0.156" y2="-0.478" xlink:href="#linear-gradient-3"/>
    <linearGradient id="linear-gradient-39" x1="-0.374" y1="-0.459" x2="1.381" y2="1.467" xlink:href="#linear-gradient-3"/>
    <linearGradient id="linear-gradient-40" x1="0.001" y1="0.499" x2="0.998" y2="0.499" xlink:href="#linear-gradient-18"/>
    <linearGradient id="linear-gradient-41" y1="0.969" y2="0.047" xlink:href="#linear-gradient-28"/>
    <linearGradient id="linear-gradient-42" x1="0.9" y1="0.781" x2="0.144" y2="-0.361" xlink:href="#linear-gradient-3"/>
    <linearGradient id="linear-gradient-43" x1="-0.374" y1="-0.459" x2="1.381" y2="1.467" xlink:href="#linear-gradient-3"/>
    <linearGradient id="linear-gradient-45" x1="0.9" y1="0.78" x2="0.144" y2="-0.361" xlink:href="#linear-gradient-3"/>
    <linearGradient id="linear-gradient-46" x1="-0.374" y1="-0.459" x2="1.381" y2="1.467" xlink:href="#linear-gradient-3"/>
    <linearGradient id="linear-gradient-48" x1="0.9" y1="0.779" x2="0.144" y2="-0.36" xlink:href="#linear-gradient-3"/>
    <linearGradient id="linear-gradient-49" x1="-0.374" y1="-0.461" x2="1.381" y2="1.466" xlink:href="#linear-gradient-3"/>
    <linearGradient id="linear-gradient-51" x1="0.886" y1="0.8" x2="0.156" y2="-0.477" xlink:href="#linear-gradient-3"/>
    <linearGradient id="linear-gradient-53" x1="0.001" y1="0.499" y2="0.499" xlink:href="#linear-gradient-18"/>
    <linearGradient id="linear-gradient-54" x1="0.501" y1="0.972" x2="0.501" y2="0.05" xlink:href="#linear-gradient-28"/>
    <linearGradient id="linear-gradient-55" x1="0" y1="0.5" x2="1" y2="0.5" xlink:href="#linear-gradient-3"/>
    <linearGradient id="linear-gradient-56" x1="0" y1="0.5" x2="1" y2="0.5" xlink:href="#linear-gradient"/>
  </defs>
  <g id="High-Fidelity---3---Solutions-Detail-Copy">
    <g id="Image-02" transform="translate(0 0)">
      <path id="Shape" d="M257,177.328a3.207,3.207,0,0,0,1.854,2.6l33.885,19.252a9.157,9.157,0,0,0,4.423,1,11.92,11.92,0,0,0,5.759-1.4l32.434-18.437c1.693-.963,2.615-2.265,2.557-3.545a3.231,3.231,0,0,0-1.843-2.548L302.173,155c-2.6-1.472-7.153-1.291-10.147.408L259.558,173.84C257.957,174.791,256.966,176.06,257,177.328ZM292.314,155.9a11.312,11.312,0,0,1,5.436-1.336,8.432,8.432,0,0,1,4.135.94l33.9,19.252a2.654,2.654,0,0,1,1.555,2.1c.058,1.065-.772,2.163-2.3,3.012L302.565,198.3c-2.833,1.608-7.129,1.789-9.571.4l-33.885-19.252a2.665,2.665,0,0,1-1.566-2.14,3.713,3.713,0,0,1,2.3-2.967Z" transform="translate(-102.961 -62.814)" fill="url(#linear-gradient)"/>
      <path id="Shape-2" data-name="Shape" d="M307.393,188.673l-33.762-19.239c-2.594-1.471-7.126-1.29-10.11.407l-32.35,18.412c-1.653.951-2.582,2.263-2.548,3.486a3.2,3.2,0,0,0,1.848,2.6l16.605,9.461-80.985,49.058a15.355,15.355,0,0,1-15.343.294l-11.889-6.609,25.683-14.621c2.766-1.584,4.292-3.689,4.189-5.783a5.244,5.244,0,0,0-3-4.142L75.57,170.317c-4.315-2.456-11.877-2.15-16.846.679L32.811,185.708,5.269,168.733a3.585,3.585,0,0,1,.184-6.224l92.6-49.952,16.881,9.608a9.137,9.137,0,0,0,4.418.973,11.848,11.848,0,0,0,5.738-1.4l32.35-18.412c1.687-.962,2.616-2.263,2.548-3.542a3.205,3.205,0,0,0-1.836-2.546L124.388,77.995c-2.594-1.471-7.126-1.29-10.122.407L81.87,96.86c-1.653.939-2.582,2.207-2.536,3.474a3.17,3.17,0,0,0,1.836,2.6l16.307,9.28-92.3,49.794a4.158,4.158,0,0,0-.207,7.209L32.249,186.07,4.19,202.049C1.47,203.6-.056,205.671,0,207.708a5.2,5.2,0,0,0,3.007,4.232l90.1,51.684a15.23,15.23,0,0,0,7.333,1.664,19.728,19.728,0,0,0,9.513-2.343l28.276-16.092,12.233,6.79a15.9,15.9,0,0,0,15.94-.306l81.237-49.217,16.594,9.45a9.1,9.1,0,0,0,4.407,1,11.848,11.848,0,0,0,5.738-1.4l32.35-18.424c1.687-.951,2.6-2.263,2.548-3.531A3.241,3.241,0,0,0,307.393,188.673ZM79.908,100.323c0-1.064.792-2.139,2.3-2.976l32.3-18.424a11.314,11.314,0,0,1,5.417-1.335,8.451,8.451,0,0,1,4.131.939l33.762,19.239a2.651,2.651,0,0,1,1.549,2.094c0,1.064-.769,2.162-2.3,3.01l-32.316,18.4c-2.823,1.607-7.1,1.788-9.536.407L81.48,102.45A2.629,2.629,0,0,1,79.908,100.323Zm29.757,162.158c-4.808,2.739-12.107,3.044-16.261.679L3.3,211.476a4.678,4.678,0,0,1-2.72-3.757c0-1.856,1.377-3.746,3.9-5.183L59.01,171.483a19.275,19.275,0,0,1,9.181-2.263,14.5,14.5,0,0,1,7.046,1.6l90.108,51.672a4.612,4.612,0,0,1,2.708,3.667c.1,1.879-1.32,3.8-3.9,5.262Zm196.741-68.218-32.35,18.424c-2.823,1.607-7.1,1.788-9.536.4l-33.762-19.239a2.662,2.662,0,0,1-1.561-2.139,3.686,3.686,0,0,1,2.3-2.965l32.35-18.424a11.244,11.244,0,0,1,5.417-1.335,8.4,8.4,0,0,1,4.12.939l33.762,19.239a2.674,2.674,0,0,1,1.561,2.094C308.7,192.317,307.9,193.415,306.406,194.263Z" transform="translate(0 -31.407)" fill="url(#linear-gradient-2)"/>
      <path id="Shape-3" data-name="Shape" d="M73.217,240l-54,31.037c-1.62.932-1.62,2.443,0,3.409l85.747,48.936a6.544,6.544,0,0,0,5.883,0l54-31.037Z" transform="translate(-7.211 -97.892)" fill="url(#linear-gradient-3)"/>
      <g id="Group" transform="translate(65.756 77.424)">
        <path id="Shape-4" data-name="Shape" d="M3.841,2.863C2.212,1.934.892,2.682.881,4.528L.708,66.1l91.554,52.186.172-61.567A6.33,6.33,0,0,0,89.5,51.695ZM46.669,28.922a1.819,1.819,0,0,1,.826,1.428c0,.521-.379.725-.838.465a1.8,1.8,0,0,1-.826-1.484c0-.521.379-.736.838-.476Z" transform="translate(-0.708 -1.454)" fill="url(#linear-gradient-4)"/>
        <path id="Shape-5" data-name="Shape" d="M6.586,11.749V66.88l84.9,48.447V60.1Z" transform="translate(-3.063 -5.241)" fill="#0e47a1"/>
        <path id="Shape-6" data-name="Shape" d="M91.966,49.979,6.31,1.148A2.088,2.088,0,0,0,4.21.955L2.432,1.963a2.111,2.111,0,0,1,2.1.2L90.187,51a6.33,6.33,0,0,1,2.938,5.019l-.172,61.567,1.779-1.02L94.9,55A6.363,6.363,0,0,0,91.966,49.979Z" transform="translate(-1.399 -0.758)" fill="url(#linear-gradient-5)"/>
      </g>
      <path id="Shape-7" data-name="Shape" d="M110.884,345.564a6.558,6.558,0,0,1-5.884,0L19.23,296.7A2.088,2.088,0,0,1,18,295v2.007a2.054,2.054,0,0,0,1.23,1.7l85.725,48.885a6.558,6.558,0,0,0,5.884,0l54.009-30.969V314.6Z" transform="translate(-7.211 -120.326)" fill="url(#linear-gradient-6)"/>
      <path id="Shape-8" data-name="Shape" d="M86.377,248,82.1,250.434l5.382,3.057,4.221-2.445Zm11.6,6.589L93.7,257.034l-5.371-3.057,4.267-2.445Zm-13.651.7-4.267,2.445-5.382-3.057,4.278-2.445Zm19.873,2.83-4.267,2.445-5.382-3.045,4.278-2.479ZM74.06,261.167l-4.209,2.445-5.371-3.057L68.7,258.11Zm11.362.6-4.267,2.445-5.382-3.057,4.278-2.445Zm11.362.6-4.278,2.445L87.1,261.755l4.278-2.434Zm6.222,3.544-4.267,2.445L93.357,265.3l4.278-2.445Zm19.873,2.83-4.267,2.445-5.382-3.057,4.278-2.445Zm-25,.1-4.267,2.445-5.359-3.057,4.278-2.445Zm-5.129,2.944-4.278,2.5L83.1,271.231l4.267-2.445Zm36.365.5-4.267,2.445-5.382-3.057,4.267-2.445Zm-13.651.7-4.209,2.434-5.382-3.057,4.232-2.434Zm-16.48,2.332L94.7,277.764l-5.382-3.057,4.278-2.445Zm36.353.509-4.267,2.434-5.371-3.045,4.267-2.445Zm-25,.1-4.267,2.445-5.382-3.057,4.278-2.445Zm11.362.6-4.267,2.445-5.382-3.057,4.267-2.445ZM93.84,278.262l-4.267,2.445-5.382-3.023,4.278-2.445Zm11.362.6-4.3,2.445-5.371-3.057,4.267-2.445Zm36.364.5-4.278,2.445-5.336-3.057,4.267-2.445Zm-25,.1-4.278,2.445-5.371-3.091,4.267-2.445Zm11.351.6-4.267,2.445-5.371-3.045,4.267-2.445Zm-16.492,2.344-4.267,2.445-5.382-3.057,4.278-2.445Zm36.365.5-4.267,2.445-5.371-3.057,4.267-2.445Zm-25.037.1-4.278,2.445-5.371-3.057,4.313-2.445Zm11.362.6-4.278,2.445-5.371-3.057,4.267-2.445ZM94.9,284.738l-4.267,2.445-5.382-3.057,4.278-2.445Zm22.725,1.2-4.278,2.445-5.371-3.057,4.267-2.445Zm36.365.5-4.278,2.445-5.371-3.057,4.267-2.434Zm-25,.1-4.244,2.468-5.382-3.057,4.278-2.445Zm-5.083,2.944-4.267,2.445-5.382-3.057,4.278-2.445Zm36.365.5-4.29,2.423-5.382-3.057,4.278-2.445Zm-13.64.7-4.324,2.445-5.371-3.057,4.267-2.445ZM118.75,292.4l-4.267,2.445-11.6-6.589,4.267-2.445Zm47.727,1.132L162.2,295.98l-5.371-3.057,4.267-2.445Zm-25,.1-4.278,2.445-5.382-3.057,4.278-2.445Zm11.351.6-4.267,2.445-5.382-3.057,4.278-2.445Zm-39.205,1.132-4.278,2.445L91.517,287.625l4.267-2.434Zm22.713,1.2-4.267,2.445-5.382-3.057,4.278-2.423Zm11.362.6-4.244,2.434-5.371-3.057L142.3,294.1Zm11.362.611-4.278,2.434-5.371-3.057,4.267-2.434Zm-50.6.521-4.267,2.445-5.382-3.057,4.278-2.445Zm22.725,1.2-4.278,2.445-5.3-3.068,4.267-2.434Zm-6.13-3.566-4.267,2.445-5.382-3.057,4.278-2.445Zm17.573,4.166-4.336,2.491-5.371-3.057,4.267-2.445Zm11.362.6-4.278,2.445-5.382-3.057,4.278-2.445Zm-27.866,1.732-4.324,2.423-5.382-3.057,4.278-2.445Zm11.362.6-4.267,2.445-5.382-3.057,4.278-2.445Zm11.362.6-4.278,2.445-5.371-3.057,4.278-2.445Zm-27.854,1.732-4.267,2.445-5.474-3.057,4.278-2.445Zm19.551-18.3-4.267,2.445-5.474-3.057,4.278-2.445ZM135.415,290l-4.37,2.4-5.382-3.057,4.278-2.445Zm-5.129,2.944-4.278,2.445-5.371-3.057,4.267-2.445Zm-10.27,5.864-4.267,2.445-5.382-3.057,4.175-2.4Zm-5.129,2.944-4.278,2.445-5.371-3.057L109.5,298.7Zm17.412,4.234-4.278,2.445-5.371-3.057,4.267-2.434Zm11.362.611-4.278,2.445-5.371-3.057,4.267-2.445Zm-16.5,2.332-4.267,2.445-5.371-3.125,4.267-2.445Zm11.362.6-4.267,2.423-5.382-3.057,4.232-2.445Zm-5.129,2.932-4.267,2.445-5.382-3.057,4.267-2.468ZM79.2,258.223,74.922,260.7l-5.371-3.045,4.278-2.445Zm11.362.611-4.278,2.445-5.371-3.057,4.267-2.445Zm19.873,2.83-4.278,2.434-5.371-3.057,4.267-2.445ZM80.293,264.71l-4.278,2.445L70.644,264.1l4.278-2.445Zm36.365.521-4.255,2.423L107.02,264.6l4.232-2.445ZM91.7,265.31l-4.278,2.445L82.052,264.7l4.278-2.445Zm-27.9,1.732-4.3,2.445-5.371-3.057,4.267-2.445Zm11.362.6-4.278,2.445-11.6-6.6,4.278-2.445Zm11.351.6-4.267,2.445-5.382-3.057,4.278-2.4Zm22.725,1.211-4.267,2.445-5.382-3.057,4.278-2.479Zm-50.6.521-4.267,2.445L49,269.363l4.267-2.445Zm11.362.6-4.267,2.445-5.382-3.057,4.3-2.468Zm11.362.6L77.1,273.62l-5.382-3.045,4.278-2.445Zm22.725,1.211-4.278,2.445-5.371-3.057,4.267-2.445Zm-39.217,1.132-4.221,2.445-5.371-3.057,4.221-2.445Zm11.362.6-4.255,2.434L66.607,273.5l4.267-2.445Zm11.362.6-4.278,2.445-5.371-3.057,4.267-2.445ZM82.5,277.685l-4.267,2.434-5.382-3.057,4.278-2.434Zm6.233,3.532-4.278,2.445-5.405-3.079,4.267-2.445Zm11.351.6-4.267,2.445-5.382-3.057,4.278-2.445Zm6.233,3.544-4.267,2.423-5.382-3.057,4.232-2.445Zm-10.293,5.91-4.267,2.445L61.478,276.439l4.267-2.434Zm6.233,3.532-4.278,2.445-5.371-3.057,4.267-2.434Zm-7.751,2.4-11.5,6.612L68.47,295.55l11.5-6.612Z" transform="translate(-19.631 -101.155)" fill="url(#linear-gradient-7)"/>
      <path id="Shape-9" data-name="Shape" d="M185.894,179.254a.563.563,0,0,0,.9-.534,2.049,2.049,0,0,0-.894-1.6c-.5-.3-.9,0-.9.534A2.06,2.06,0,0,0,185.894,179.254Z" transform="translate(-74.116 -72.196)" fill="#e4f2fd"/>
      <path id="Shape-10" data-name="Shape" d="M175,237.806l44.354,25.261V233.261L175,208Z" transform="translate(-70.109 -84.84)" fill="url(#linear-gradient-8)"/>
      <path id="Shape-11" data-name="Shape" d="M175.448,204.055l43.438,24.83a1.129,1.129,0,0,1,.469.872v2.072L175,206.467v-2.072C174.979,204.067,175.185,203.908,175.448,204.055Z" transform="translate(-70.109 -83.209)" fill="#dde2e8"/>
      <path id="Shape-12" data-name="Shape" d="M244,246.321a.922.922,0,0,0,.444.746.274.274,0,0,0,.444-.249.992.992,0,0,0-.444-.758C244.192,245.918,244,246.037,244,246.321Z" transform="translate(-97.753 -100.34)" fill="#f1f2f2"/>
      <path id="Shape-13" data-name="Shape" d="M242,244.354a.957.957,0,0,0,.444.758.278.278,0,0,0,.444-.261.992.992,0,0,0-.444-.758C242.192,243.9,242,244.01,242,244.354Z" transform="translate(-96.951 -99.524)" fill="#f1f2f2"/>
      <path id="Shape-14" data-name="Shape" d="M239,243.316a.945.945,0,0,0,.444.758.279.279,0,0,0,.306.022.271.271,0,0,0,.137-.271.969.969,0,0,0-.444-.758C239.168,242.925,239,243.008,239,243.316Z" transform="translate(-95.75 -99.116)" fill="#f1f2f2"/>
      <path id="Shape-15" data-name="Shape" d="M229,243.956l9.59,5.557v-.956L229,243Z" transform="translate(-91.743 -99.116)" fill="#fff"/>
      <path id="Shape-16" data-name="Shape" d="M220,243.5l14.984,8.377v-.493L220,243Z" transform="translate(-88.138 -99.116)" fill="#fff"/>
      <path id="Shape-17" data-name="Shape" d="M239,256.493l3.6,1.875v-.493L239,256Z" transform="translate(-95.75 -104.419)" fill="#fff"/>
      <path id="Shape-18" data-name="Shape" d="M226,248.512l7.192,4.225v-.512L226,248Z" transform="translate(-90.541 -101.155)" fill="#fff"/>
      <path id="Shape-19" data-name="Shape" d="M232,268l2.4,1.519v9.139l-2.4-1.519Z" transform="translate(-92.945 -109.313)" fill="#fff"/>
      <path id="Shape-20" data-name="Shape" d="M223,259l2.4,1.5v11.53l-2.4-1.5Z" transform="translate(-89.34 -105.642)" fill="#fff"/>
      <path id="Shape-21" data-name="Shape" d="M215,258l2.4,1.459v9.2L215,267.2Z" transform="translate(-86.135 -105.234)" fill="#fff"/>
      <path id="Shape-22" data-name="Shape" d="M207,251l2.4,1.507v10.928l-2.4-1.507Z" transform="translate(-82.93 -102.379)" fill="#fff"/>
      <path id="Shape-23" data-name="Shape" d="M199,241l2.4,1.5v13.893l-2.4-1.5Z" transform="translate(-79.725 -98.3)" fill="#fff"/>
      <path id="Shape-24" data-name="Shape" d="M191,233l2.4,1.486v15.686l-2.4-1.486Z" transform="translate(-76.52 -95.037)" fill="#fff"/>
      <path id="Shape-25" data-name="Shape" d="M186,257.638l32.366,18.31v-.638L186,257Z" transform="translate(-74.516 -104.826)" fill="#fff"/>
      <path id="Shape-26" data-name="Shape" d="M215.244,257.435l2.724,1.065-.034-.258-2.667-1.043-4.888-5.314-.046-.011-4.854-.774-4.854-4.025-4.854-5.527-4.934-4.653L188,236l.046.258,2.782.886,4.865,4.574,4.865,5.538,4.934,4.1.034.011,4.842.762Z" transform="translate(-75.318 -96.261)" fill="url(#linear-gradient-9)"/>
      <path id="Shape-27" data-name="Shape" d="M233.971,271.857a1.03,1.03,0,0,0-.491-.8.3.3,0,0,0-.48.262,1,1,0,0,0,.48.8C233.743,272.268,233.971,272.154,233.971,271.857Z" transform="translate(-93.346 -110.537)" fill="url(#linear-gradient-10)"/>
      <path id="Shape-28" data-name="Shape" d="M225.971,262.851a.976.976,0,0,0-.491-.792.3.3,0,0,0-.479.26,1.008,1.008,0,0,0,.479.792C225.755,263.258,225.971,263.19,225.971,262.851Z" transform="translate(-90.141 -106.866)" fill="url(#linear-gradient-11)"/>
      <path id="Shape-29" data-name="Shape" d="M217.971,261.859a1.019,1.019,0,0,0-.479-.8c-.276-.148-.491,0-.491.263a1,1,0,0,0,.491.8A.294.294,0,0,0,217.971,261.859Z" transform="translate(-86.936 -106.458)" fill="url(#linear-gradient-12)"/>
      <path id="Shape-30" data-name="Shape" d="M208.971,254.851a1.021,1.021,0,0,0-.491-.792.3.3,0,0,0-.479.272,1.02,1.02,0,0,0,.479.792C208.743,255.269,208.971,255.145,208.971,254.851Z" transform="translate(-83.33 -103.603)" fill="url(#linear-gradient-13)"/>
      <path id="Shape-31" data-name="Shape" d="M200.971,244.857a1,1,0,0,0-.491-.8.3.3,0,0,0-.48.262,1.017,1.017,0,0,0,.48.8C200.755,245.268,200.971,245.154,200.971,244.857Z" transform="translate(-80.125 -99.524)" fill="url(#linear-gradient-14)"/>
      <path id="Shape-32" data-name="Shape" d="M192.971,236.851a1.02,1.02,0,0,0-.479-.792c-.276-.147-.491,0-.491.272a1.01,1.01,0,0,0,.491.792C192.755,237.269,192.971,237.145,192.971,236.851Z" transform="translate(-76.92 -96.261)" fill="url(#linear-gradient-15)"/>
      <path id="Shape-33" data-name="Shape" d="M171.607,119.975,141.53,102.747c-2.287-1.282-1.956-3.53.629-5.016l28.819-16.5c2.585-1.487,6.507-1.646,8.749-.363l30.065,17.228c2.287,1.282,1.967,3.53-.629,5.016l-28.807,16.513C177.759,121.1,173.848,121.291,171.607,119.975Z" transform="translate(-56.088 -32.631)" fill="#32c7f5"/>
      <path id="Shape-34" data-name="Shape" d="M211.322,99c.057,1.027-.675,2.112-2.14,2.956l-28.824,16.6c-2.6,1.5-6.511,1.655-8.754.365L141.51,101.591A2.637,2.637,0,0,1,140,99.457v8.766a2.625,2.625,0,0,0,1.51,2.18L171.6,127.73c2.289,1.29,6.156,1.141,8.754-.354l28.824-16.585a3.6,3.6,0,0,0,2.14-2.854Z" transform="translate(-56.088 -40.381)" fill="url(#linear-gradient-16)"/>
      <path id="Shape-35" data-name="Shape" d="M209.755,83.1,179.672,65.87c-2.289-1.283-6.168-1.135-8.754.363l-28.778,16.5A3.556,3.556,0,0,0,140,85.632a2.623,2.623,0,0,0,1.51,2.123L171.6,104.986c2.289,1.283,6.156,1.135,8.754-.363l28.824-16.5c1.465-.84,2.2-1.918,2.14-2.94A2.613,2.613,0,0,0,209.755,83.1Z" transform="translate(-56.088 -26.513)" fill="url(#linear-gradient-17)"/>
      <g id="Group-2" data-name="Group" transform="translate(87.073 40.215)" opacity="0.76" style="mix-blend-mode: screen;isolation: isolate">
        <path id="Shape-36" data-name="Shape" d="M32.763.918a9.291,9.291,0,0,0-4.35,1.132L2.22,17.071A3.217,3.217,0,0,0,.273,19.7a2.389,2.389,0,0,0,1.378,1.936L28.982,37.3a7.28,7.28,0,0,0,3.781.781Z" transform="translate(-0.273 -0.918)" fill="url(#linear-gradient-18)"/>
      </g>
      <path id="Shape-37" data-name="Shape" d="M177.183,131.474,161,122" transform="translate(-64.501 -49.762)" fill="none" stroke="#fff" stroke-linecap="round" stroke-width="0.25" fill-rule="evenodd"/>
      <path id="Shape-38" data-name="Shape" d="M146.8,113.018,145,112" transform="translate(-58.091 -45.683)" fill="none" stroke="#fff" stroke-linecap="round" stroke-width="0.25" fill-rule="evenodd"/>
      <path id="Shape-39" data-name="Shape" d="M150.8,116.018,149,115" transform="translate(-59.693 -46.907)" fill="none" stroke="#fff" stroke-linecap="round" stroke-width="0.25" fill-rule="evenodd"/>
      <path id="Shape-40" data-name="Shape" d="M171.607,96.98,141.53,79.756c-2.287-1.283-1.956-3.531.629-5.018L170.978,58.23c2.585-1.487,6.507-1.646,8.749-.363L209.792,75.1c2.287,1.283,1.967,3.531-.629,5.018L180.355,96.628C177.759,98.115,173.848,98.274,171.607,96.98Z" transform="translate(-56.088 -23.249)" fill="#32c7f5"/>
      <path id="Shape-41" data-name="Shape" d="M211.326,76a3.483,3.483,0,0,1-2.14,2.946L180.36,95.6c-2.6,1.5-6.511,1.656-8.754.365l-30.1-17.368A2.638,2.638,0,0,1,140,76.457v8.758a2.626,2.626,0,0,0,1.511,2.192l30.1,17.323c2.289,1.29,6.156,1.142,8.754-.365l28.825-16.6a3.6,3.6,0,0,0,2.14-2.855Z" transform="translate(-56.088 -30.999)" fill="url(#linear-gradient-19)"/>
      <path id="Shape-42" data-name="Shape" d="M209.758,60.093,179.674,42.876c-2.289-1.294-6.168-1.135-8.754.352L142.14,59.741A3.532,3.532,0,0,0,140,62.635a2.623,2.623,0,0,0,1.511,2.122l30.1,17.229c2.289,1.282,6.156,1.135,8.754-.363l28.825-16.514a3.464,3.464,0,0,0,2.14-2.928A2.613,2.613,0,0,0,209.758,60.093Z" transform="translate(-56.088 -17.131)" fill="url(#linear-gradient-20)"/>
      <g id="Group-3" data-name="Group" transform="translate(87.073 26.789)" opacity="0.76" style="mix-blend-mode: screen;isolation: isolate">
        <path id="Shape-43" data-name="Shape" d="M32.763.243a9.153,9.153,0,0,0-4.35,1.132L2.22,16.385A3.228,3.228,0,0,0,.273,19.022a2.367,2.367,0,0,0,1.378,1.924L28.982,36.625a7.28,7.28,0,0,0,3.781.781Z" transform="translate(-0.273 -0.243)" fill="url(#linear-gradient-18)"/>
      </g>
      <path id="Shape-44" data-name="Shape" d="M177.183,108.474,161,99" transform="translate(-64.501 -40.381)" fill="none" stroke="#fff" stroke-linecap="round" stroke-width="0.25" fill-rule="evenodd"/>
      <path id="Shape-45" data-name="Shape" d="M146.8,91.007,145,90" transform="translate(-58.091 -36.71)" fill="none" stroke="#fff" stroke-linecap="round" stroke-width="0.25" fill-rule="evenodd"/>
      <path id="Shape-46" data-name="Shape" d="M150.8,93.018,149,92" transform="translate(-59.693 -37.525)" fill="none" stroke="#fff" stroke-linecap="round" stroke-width="0.25" fill-rule="evenodd"/>
      <path id="Shape-47" data-name="Shape" d="M171.607,73.99,141.53,56.775c-2.287-1.293-1.956-3.527.629-5.013l28.819-16.535c2.585-1.486,6.507-1.644,8.749-.352l30.065,17.25c2.287,1.282,1.967,3.527-.629,5l-28.807,16.5C177.759,75.113,173.848,75.272,171.607,73.99Z" transform="translate(-56.088 -13.868)" fill="#32c7f5"/>
      <path id="Shape-48" data-name="Shape" d="M211.322,53c.057,1.027-.675,2.111-2.14,2.955l-28.824,16.6c-2.6,1.483-6.511,1.654-8.754.354L141.51,55.59A2.636,2.636,0,0,1,140,53.456V62.22a2.636,2.636,0,0,0,1.51,2.191L171.6,81.731c2.289,1.289,6.156,1.141,8.754-.365l28.824-16.6a3.573,3.573,0,0,0,2.14-2.841Z" transform="translate(-56.088 -21.618)" fill="url(#linear-gradient-22)"/>
      <path id="Shape-49" data-name="Shape" d="M209.755,37.092,179.672,19.87c-2.289-1.283-6.168-1.135-8.754.363L142.14,36.74A3.533,3.533,0,0,0,140,39.624a2.623,2.623,0,0,0,1.51,2.123L171.6,58.98c2.289,1.294,6.156,1.135,8.754-.352L209.183,42.11c1.465-.84,2.2-1.919,2.14-2.94A2.636,2.636,0,0,0,209.755,37.092Z" transform="translate(-56.088 -7.75)" fill="url(#linear-gradient-23)"/>
      <g id="Group-4" data-name="Group" transform="translate(87.073 13.363)" opacity="0.76" style="mix-blend-mode: screen;isolation: isolate">
        <path id="Shape-50" data-name="Shape" d="M32.763.568A9.279,9.279,0,0,0,28.413,1.7L2.22,16.721A3.228,3.228,0,0,0,.273,19.347a2.389,2.389,0,0,0,1.378,1.936L28.982,36.961a7.394,7.394,0,0,0,3.781.781Z" transform="translate(-0.273 -0.568)" fill="url(#linear-gradient-24)"/>
      </g>
      <path id="Shape-51" data-name="Shape" d="M177.183,85.474,161,76" transform="translate(-64.501 -30.999)" fill="none" stroke="#fff" stroke-linecap="round" stroke-width="0.25" fill-rule="evenodd"/>
      <path id="Shape-52" data-name="Shape" d="M146.8,68.018,145,67" transform="translate(-58.091 -27.328)" fill="none" stroke="#fff" stroke-linecap="round" stroke-width="0.25" fill-rule="evenodd"/>
      <path id="Shape-53" data-name="Shape" d="M150.8,71.007,149,70" transform="translate(-59.693 -28.552)" fill="none" stroke="#fff" stroke-linecap="round" stroke-width="0.25" fill-rule="evenodd"/>
      <path id="Shape-54" data-name="Shape" d="M171.607,45.99,141.53,28.755c-2.287-1.283-1.956-3.531.629-5.018L170.978,7.23c2.585-1.487,6.507-1.646,8.749-.363L209.792,24.1c2.287,1.283,1.967,3.531-.629,5.018L180.355,45.626C177.759,47.114,173.848,47.272,171.607,45.99Z" transform="translate(-56.088 -2.447)" fill="#32c7f5"/>
      <path id="Shape-55" data-name="Shape" d="M211.322,34c.057,1.016-.675,2.1-2.14,2.945L180.358,53.552c-2.6,1.5-6.511,1.655-8.754.354L141.51,36.534A2.614,2.614,0,0,1,140,34.4v4.68a2.591,2.591,0,0,0,1.5,2.18l30.094,17.327c2.289,1.29,6.156,1.141,8.754-.365L209.183,41.67a3.6,3.6,0,0,0,2.14-2.854Z" transform="translate(-56.088 -13.868)" fill="url(#linear-gradient-25)"/>
      <path id="Shape-56" data-name="Shape" d="M209.811,18.187,179.7.871c-2.29-1.284-6.173-1.136-8.761.364l-28.8,16.532A3.536,3.536,0,0,0,140,20.652a2.6,2.6,0,0,0,1.454,2.079l30.118,17.248c2.29,1.3,6.161,1.136,8.761-.352L209.181,23.1c1.466-.841,2.2-1.92,2.142-2.931A2.616,2.616,0,0,0,209.811,18.187Z" transform="translate(-56.088 0)" fill="url(#linear-gradient-26)"/>
      <g id="Group-5" data-name="Group" transform="translate(87.073 1.852)" opacity="0.76" style="mix-blend-mode: screen;isolation: isolate">
        <path id="Shape-57" data-name="Shape" d="M32.763.128a9.279,9.279,0,0,0-4.35,1.132L2.22,16.281A3.228,3.228,0,0,0,.273,18.919a2.389,2.389,0,0,0,1.378,1.924L28.982,36.521a7.394,7.394,0,0,0,3.781.781Z" transform="translate(-0.273 -0.128)" fill="url(#linear-gradient-24)"/>
      </g>
      <ellipse id="Oval" cx="3.5" cy="2" rx="3.5" ry="2" transform="translate(116 17.885)" fill="#fff"/>
      <path id="Shape-58" data-name="Shape" d="M192,5l1.323,17.28c0,.929,1.453,1.668,3.248,1.668s3.248-.75,3.248-1.668L201.59,5.011Z" transform="translate(-76.92 -2.039)" fill="url(#linear-gradient-28)"/>
      <path id="Shape-59" data-name="Shape" d="M295.608,196.99,265.53,179.755c-2.287-1.283-1.956-3.531.629-5.018l28.82-16.508c2.585-1.487,6.507-1.646,8.749-.363L333.8,175.157c2.287,1.283,1.956,3.531-.629,5.018l-28.809,16.451C301.761,198.114,297.85,198.272,295.608,196.99Z" transform="translate(-105.765 -64.038)" fill="#32c7f5"/>
      <path id="Shape-60" data-name="Shape" d="M335.326,176a3.539,3.539,0,0,1-2.14,2.956l-28.825,16.6c-2.6,1.5-6.511,1.655-8.754.365l-30.1-17.328a2.614,2.614,0,0,1-1.51-2.135v8.766a2.6,2.6,0,0,0,1.51,2.18l30.1,17.328c2.289,1.29,6.156,1.141,8.754-.365l28.825-16.6a3.6,3.6,0,0,0,2.14-2.854Z" transform="translate(-105.765 -71.788)" fill="url(#linear-gradient-29)"/>
      <path id="Shape-61" data-name="Shape" d="M333.815,160.1,303.731,142.87c-2.289-1.283-6.168-1.135-8.754.363l-28.837,16.5a3.556,3.556,0,0,0-2.14,2.895,2.6,2.6,0,0,0,1.51,2.123l30.1,17.231c2.289,1.283,6.156,1.135,8.754-.363l28.825-16.5a3.521,3.521,0,0,0,2.14-2.94A2.612,2.612,0,0,0,333.815,160.1Z" transform="translate(-105.765 -57.92)" fill="url(#linear-gradient-30)"/>
      <g id="Group-6" data-name="Group" transform="translate(161.452 85.657)" opacity="0.76" style="mix-blend-mode: screen;isolation: isolate">
        <path id="Shape-62" data-name="Shape" d="M32.858.663A9.222,9.222,0,0,0,28.508,1.8L2.315,16.817A3.205,3.205,0,0,0,.368,19.443a2.368,2.368,0,0,0,1.458,1.913L29.157,37.023a7.28,7.28,0,0,0,3.781.781Z" transform="translate(-0.368 -0.663)" fill="url(#linear-gradient-31)"/>
      </g>
      <path id="Shape-63" data-name="Shape" d="M301.183,208.474,285,199" transform="translate(-114.178 -81.169)" fill="none" stroke="#fff" stroke-linecap="round" stroke-width="0.25" fill-rule="evenodd"/>
      <path id="Shape-64" data-name="Shape" d="M270.8,191.018,269,190" transform="translate(-107.768 -77.498)" fill="none" stroke="#fff" stroke-linecap="round" stroke-width="0.25" fill-rule="evenodd"/>
      <path id="Shape-65" data-name="Shape" d="M275.8,193.018,274,192" transform="translate(-109.771 -78.314)" fill="none" stroke="#fff" stroke-linecap="round" stroke-width="0.25" fill-rule="evenodd"/>
      <path id="Shape-66" data-name="Shape" d="M295.608,173.99,265.53,156.758c-2.287-1.294-1.956-3.53.629-5.017l28.82-16.517c2.585-1.476,6.507-1.646,8.749-.352L333.8,152.1c2.287,1.283,1.956,3.53-.629,5.006l-28.809,16.517C301.761,175.113,297.85,175.272,295.608,173.99Z" transform="translate(-105.765 -54.657)" fill="#32c7f5"/>
      <path id="Shape-67" data-name="Shape" d="M335.326,153a3.516,3.516,0,0,1-2.14,2.945L304.36,172.553c-2.6,1.5-6.511,1.655-8.754.365l-30.1-17.328a2.626,2.626,0,0,1-1.51-2.135v8.755a2.614,2.614,0,0,0,1.51,2.192l30.1,17.328c2.289,1.29,6.156,1.141,8.754-.365l28.825-16.608a3.574,3.574,0,0,0,2.14-2.888Z" transform="translate(-105.765 -62.406)" fill="url(#linear-gradient-32)"/>
      <path id="Shape-68" data-name="Shape" d="M333.815,137.1l-30.084-17.229c-2.289-1.294-6.168-1.135-8.754.352L266.14,136.741a3.533,3.533,0,0,0-2.14,2.894,2.611,2.611,0,0,0,1.51,2.122l30.1,17.229c2.289,1.282,6.156,1.135,8.754-.363l28.825-16.514a3.5,3.5,0,0,0,2.14-2.928A2.612,2.612,0,0,0,333.815,137.1Z" transform="translate(-105.765 -48.538)" fill="url(#linear-gradient-33)"/>
      <g id="Group-7" data-name="Group" transform="translate(161.452 72.238)" opacity="0.76" style="mix-blend-mode: screen;isolation: isolate">
        <path id="Shape-69" data-name="Shape" d="M32.858,0a9.163,9.163,0,0,0-4.35,1.13L2.315,16.12A3.224,3.224,0,0,0,.368,18.753a2.352,2.352,0,0,0,1.378,1.922L29.077,36.331a7.288,7.288,0,0,0,3.781.78Z" transform="translate(-0.368)" fill="url(#linear-gradient-34)"/>
      </g>
      <path id="Shape-70" data-name="Shape" d="M301.183,185.474,285,176" transform="translate(-114.178 -71.788)" fill="none" stroke="#fff" stroke-linecap="round" stroke-width="0.25" fill-rule="evenodd"/>
      <path id="Shape-71" data-name="Shape" d="M270.8,168.007,269,167" transform="translate(-107.768 -68.117)" fill="none" stroke="#fff" stroke-linecap="round" stroke-width="0.25" fill-rule="evenodd"/>
      <path id="Shape-72" data-name="Shape" d="M275.8,171.018,274,170" transform="translate(-109.771 -69.34)" fill="none" stroke="#fff" stroke-linecap="round" stroke-width="0.25" fill-rule="evenodd"/>
      <path id="Shape-73" data-name="Shape" d="M295.608,151.984,265.53,134.752c-2.287-1.283-1.956-3.53.629-5.006l28.82-16.517c2.585-1.487,6.507-1.646,8.749-.363L333.8,130.1c2.287,1.294,1.956,3.53-.629,5.017l-28.809,16.517C301.761,153.108,297.85,153.278,295.608,151.984Z" transform="translate(-105.765 -45.683)" fill="#32c7f5"/>
      <path id="Shape-74" data-name="Shape" d="M335.326,131a3.516,3.516,0,0,1-2.14,2.979L304.36,150.561c-2.6,1.484-6.511,1.643-8.754.354l-30.1-17.324a2.614,2.614,0,0,1-1.51-2.134v8.765a2.591,2.591,0,0,0,1.51,2.18l30.1,17.324c2.289,1.3,6.156,1.141,8.754-.354l28.825-16.605a3.573,3.573,0,0,0,2.14-2.853Z" transform="translate(-105.765 -53.433)" fill="url(#linear-gradient-35)"/>
      <path id="Shape-75" data-name="Shape" d="M333.815,115.1,303.731,97.87c-2.289-1.283-6.168-1.135-8.754.363L266.14,114.749a3.522,3.522,0,0,0-2.14,2.883,2.6,2.6,0,0,0,1.51,2.123l30.1,17.23c2.289,1.283,6.156,1.135,8.754-.352l28.825-16.493a3.5,3.5,0,0,0,2.14-2.94A2.623,2.623,0,0,0,333.815,115.1Z" transform="translate(-105.765 -39.565)" fill="url(#linear-gradient-36)"/>
      <g id="Group-8" data-name="Group" transform="translate(161.452 58.857)" opacity="0.76" style="mix-blend-mode: screen;isolation: isolate">
        <path id="Shape-76" data-name="Shape" d="M32.858.4a9.211,9.211,0,0,0-4.35,1.132L2.315,16.555A3.217,3.217,0,0,0,.368,19.181a2.368,2.368,0,0,0,1.458,1.9L29.157,36.761a7.28,7.28,0,0,0,3.781.77Z" transform="translate(-0.368 -0.401)" fill="url(#linear-gradient-37)"/>
      </g>
      <path id="Shape-77" data-name="Shape" d="M301.183,163.474,285,154" transform="translate(-114.178 -62.814)" fill="none" stroke="#fff" stroke-linecap="round" stroke-width="0.25" fill-rule="evenodd"/>
      <path id="Shape-78" data-name="Shape" d="M270.8,145.018,269,144" transform="translate(-107.768 -58.735)" fill="none" stroke="#fff" stroke-linecap="round" stroke-width="0.25" fill-rule="evenodd"/>
      <path id="Shape-79" data-name="Shape" d="M275.8,148.007,274,147" transform="translate(-109.771 -59.959)" fill="none" stroke="#fff" stroke-linecap="round" stroke-width="0.25" fill-rule="evenodd"/>
      <path id="Shape-80" data-name="Shape" d="M295.607,124l-30.077-17.25c-2.287-1.282-1.956-3.53.629-5.016l28.819-16.5c2.585-1.487,6.507-1.646,8.749-.363l30.065,17.228c2.287,1.282,1.967,3.53-.629,5.016l-28.807,16.5C301.759,125.132,297.848,125.257,295.607,124Z" transform="translate(-105.765 -34.262)" fill="#32c7f5"/>
      <path id="Shape-81" data-name="Shape" d="M335.326,111a3.6,3.6,0,0,1-2.14,2.95L304.36,130.52c-2.6,1.481-6.511,1.651-8.754.353l-30.1-17.288a2.609,2.609,0,0,1-1.51-2.13v4.658a2.62,2.62,0,0,0,1.51,2.187l30.1,17.288c2.289,1.287,6.156,1.139,8.754-.364l28.825-16.559a3.589,3.589,0,0,0,2.14-2.847Z" transform="translate(-105.765 -45.275)" fill="url(#linear-gradient-38)"/>
      <path id="Shape-82" data-name="Shape" d="M333.812,95.109,303.729,77.87c-2.289-1.283-6.168-1.136-8.754.363l-28.836,16.5A3.523,3.523,0,0,0,264,97.618a2.6,2.6,0,0,0,1.51,2.124L295.6,116.98c2.289,1.295,6.156,1.136,8.754-.352l28.824-16.523c1.465-.84,2.2-1.919,2.14-2.941A2.636,2.636,0,0,0,333.812,95.109Z" transform="translate(-105.765 -31.407)" fill="url(#linear-gradient-39)"/>
      <g id="Group-9" data-name="Group" transform="translate(161.452 47.369)" opacity="0.76" style="mix-blend-mode: screen;isolation: isolate">
        <path id="Shape-83" data-name="Shape" d="M32.858,0a9.255,9.255,0,0,0-4.35,1.13l-26.193,15A3.213,3.213,0,0,0,.368,18.753,2.365,2.365,0,0,0,1.826,20.63L29.157,36.286a7.288,7.288,0,0,0,3.781.769Z" transform="translate(-0.368)" fill="url(#linear-gradient-40)"/>
      </g>
      <ellipse id="Oval-2" data-name="Oval" cx="3.5" cy="1.5" rx="3.5" ry="1.5" transform="translate(191 64.885)" fill="#fff"/>
      <path id="Shape-84" data-name="Shape" d="M317,82l1.323,17.279c0,.918,1.453,1.669,3.248,1.669s3.248-.75,3.248-1.669L326.59,82Z" transform="translate(-126.998 -33.447)" fill="url(#linear-gradient-41)"/>
      <path id="Shape-85" data-name="Shape" d="M420.6,274,390.53,256.759c-2.287-1.283-1.956-3.531.629-5.019l28.809-16.51c2.6-1.487,6.507-1.646,8.749-.363L458.8,252.1c2.287,1.283,1.956,3.531-.629,5.019l-28.82,16.51A9.783,9.783,0,0,1,420.6,274Z" transform="translate(-155.843 -95.445)" fill="#32c7f5"/>
      <path id="Shape-86" data-name="Shape" d="M460.326,253a3.54,3.54,0,0,1-2.14,2.957l-28.837,16.6a9.745,9.745,0,0,1-8.754.365L390.51,255.592a2.615,2.615,0,0,1-1.51-2.135v8.758a2.581,2.581,0,0,0,1.51,2.192l30.084,17.333a9.745,9.745,0,0,0,8.754-.365l28.837-16.6a3.6,3.6,0,0,0,2.14-2.855Z" transform="translate(-155.843 -103.195)" fill="url(#linear-gradient-42)"/>
      <path id="Shape-87" data-name="Shape" d="M458.815,237.106l-30.1-17.235c-2.289-1.283-6.156-1.135-8.754.352l-28.825,16.52a3.556,3.556,0,0,0-2.14,2.9,2.6,2.6,0,0,0,1.51,2.123L420.595,259a9.8,9.8,0,0,0,8.754-.363l28.837-16.554a3.522,3.522,0,0,0,2.14-2.941A2.636,2.636,0,0,0,458.815,237.106Z" transform="translate(-155.843 -89.327)" fill="url(#linear-gradient-43)"/>
      <g id="Group-10" data-name="Group" transform="translate(236.431 131.744)" opacity="0.76" style="mix-blend-mode: screen;isolation: isolate">
        <path id="Shape-88" data-name="Shape" d="M32.953.5A9.153,9.153,0,0,0,28.6,1.629L2.41,16.639A3.228,3.228,0,0,0,.463,19.277,2.344,2.344,0,0,0,1.83,21.2L29.161,36.879a7.28,7.28,0,0,0,3.781.781Z" transform="translate(-0.463 -0.497)" fill="url(#linear-gradient-18)"/>
      </g>
      <path id="Shape-89" data-name="Shape" d="M426.183,285.474,410,276" transform="translate(-164.257 -112.576)" fill="none" stroke="#fff" stroke-linecap="round" stroke-width="0.25" fill-rule="evenodd"/>
      <path id="Shape-90" data-name="Shape" d="M395.8,268.018,394,267" transform="translate(-157.847 -108.905)" fill="none" stroke="#fff" stroke-linecap="round" stroke-width="0.25" fill-rule="evenodd"/>
      <path id="Shape-91" data-name="Shape" d="M399.8,271.018,398,270" transform="translate(-159.449 -110.129)" fill="none" stroke="#fff" stroke-linecap="round" stroke-width="0.25" fill-rule="evenodd"/>
      <path id="Shape-92" data-name="Shape" d="M420.6,251,390.53,233.761c-2.287-1.294-1.956-3.531.629-5.018l28.809-16.519c2.6-1.476,6.507-1.646,8.749-.352L458.8,229.107c2.287,1.283,1.956,3.531-.629,5.007l-28.82,16.519A9.784,9.784,0,0,1,420.6,251Z" transform="translate(-155.843 -86.064)" fill="#32c7f5"/>
      <path id="Shape-93" data-name="Shape" d="M460.326,231a3.518,3.518,0,0,1-2.14,2.946L429.349,250.56c-2.586,1.484-6.5,1.656-8.754.354L390.51,233.581a2.592,2.592,0,0,1-1.51-2.135v8.77a2.592,2.592,0,0,0,1.51,2.192l30.084,17.333a9.745,9.745,0,0,0,8.754-.365l28.837-16.614a3.575,3.575,0,0,0,2.14-2.843Z" transform="translate(-155.843 -94.221)" fill="url(#linear-gradient-45)"/>
      <path id="Shape-94" data-name="Shape" d="M458.815,215.1l-30.1-17.229c-2.289-1.283-6.156-1.135-8.754.363L391.14,214.747a3.533,3.533,0,0,0-2.14,2.883,2.577,2.577,0,0,0,1.51,2.122l30.084,17.229c2.289,1.294,6.168,1.135,8.754-.352l28.837-16.514a3.5,3.5,0,0,0,2.14-2.928A2.669,2.669,0,0,0,458.815,215.1Z" transform="translate(-155.843 -80.353)" fill="url(#linear-gradient-46)"/>
      <g id="Group-11" data-name="Group" transform="translate(236.431 118.318)" opacity="0.76" style="mix-blend-mode: screen;isolation: isolate">
        <path id="Shape-95" data-name="Shape" d="M32.953.822A9.211,9.211,0,0,0,28.6,1.954L2.41,16.975A3.228,3.228,0,0,0,.463,19.6,2.378,2.378,0,0,0,1.83,21.537L29.161,37.215A7.394,7.394,0,0,0,32.942,38Z" transform="translate(-0.463 -0.822)" fill="url(#linear-gradient-24)"/>
      </g>
      <path id="Shape-96" data-name="Shape" d="M426.183,263.474,410,254" transform="translate(-164.257 -103.603)" fill="none" stroke="#fff" stroke-linecap="round" stroke-width="0.25" fill-rule="evenodd"/>
      <path id="Shape-97" data-name="Shape" d="M395.8,245.007,394,244" transform="translate(-157.847 -99.524)" fill="none" stroke="#fff" stroke-linecap="round" stroke-width="0.25" fill-rule="evenodd"/>
      <path id="Shape-98" data-name="Shape" d="M399.8,248.007,398,247" transform="translate(-159.449 -100.748)" fill="none" stroke="#fff" stroke-linecap="round" stroke-width="0.25" fill-rule="evenodd"/>
      <path id="Shape-99" data-name="Shape" d="M420.6,229.031,390.53,211.747c-2.287-1.282-1.956-3.53.629-5l28.809-16.513c2.6-1.487,6.507-1.646,8.749-.363L458.8,207.094c2.287,1.294,1.956,3.53-.629,5.016l-28.82,16.513C426.761,230.1,422.85,230.269,420.6,229.031Z" transform="translate(-155.843 -77.09)" fill="#32c7f5"/>
      <path id="Shape-100" data-name="Shape" d="M460.326,208a3.51,3.51,0,0,1-2.14,2.95l-28.837,16.562a9.767,9.767,0,0,1-8.754.365L390.51,210.586a2.609,2.609,0,0,1-1.51-2.13V217.2a2.563,2.563,0,0,0,1.51,2.176l30.084,17.348c2.289,1.3,6.168,1.139,8.754-.353L458.186,219.8a3.567,3.567,0,0,0,2.14-2.848V208Z" transform="translate(-155.843 -84.84)" fill="url(#linear-gradient-48)"/>
      <path id="Shape-101" data-name="Shape" d="M458.815,192.105l-30.1-17.235c-2.289-1.283-6.156-1.135-8.754.363L391.14,191.742a3.556,3.556,0,0,0-2.14,2.9,2.6,2.6,0,0,0,1.51,2.123L420.595,214a9.8,9.8,0,0,0,8.754-.363l28.837-16.509a3.5,3.5,0,0,0,2.14-2.941A2.647,2.647,0,0,0,458.815,192.105Z" transform="translate(-155.843 -70.972)" fill="url(#linear-gradient-49)"/>
      <g id="Group-12" data-name="Group" transform="translate(236.431 104.88)" opacity="0.76" style="mix-blend-mode: screen;isolation: isolate">
        <path id="Shape-102" data-name="Shape" d="M32.953.128A9.222,9.222,0,0,0,28.6,1.26L2.41,16.281A3.217,3.217,0,0,0,.463,18.908,2.378,2.378,0,0,0,1.83,20.843L29.161,36.51a7.28,7.28,0,0,0,3.781.781Z" transform="translate(-0.463 -0.128)" fill="url(#linear-gradient-18)"/>
      </g>
      <path id="Shape-103" data-name="Shape" d="M426.183,240.474,410,231" transform="translate(-164.257 -94.221)" fill="none" stroke="#fff" stroke-linecap="round" stroke-width="0.25" fill-rule="evenodd"/>
      <path id="Shape-104" data-name="Shape" d="M395.8,223.018,394,222" transform="translate(-157.847 -90.55)" fill="none" stroke="#fff" stroke-linecap="round" stroke-width="0.25" fill-rule="evenodd"/>
      <path id="Shape-105" data-name="Shape" d="M399.8,225.018,398,224" transform="translate(-159.449 -91.366)" fill="none" stroke="#fff" stroke-linecap="round" stroke-width="0.25" fill-rule="evenodd"/>
      <path id="Shape-106" data-name="Shape" d="M420.6,200.99,390.53,183.755c-2.287-1.283-1.956-3.531.629-5.018l28.809-16.508c2.6-1.487,6.507-1.646,8.749-.363L458.8,179.1c2.287,1.283,1.956,3.531-.629,5.018l-28.809,16.508C426.761,202.114,422.85,202.272,420.6,200.99Z" transform="translate(-155.843 -65.669)" fill="#32c7f5"/>
      <path id="Shape-107" data-name="Shape" d="M460.326,188a3.5,3.5,0,0,1-2.14,2.944L429.36,207.485c-2.6,1.478-6.511,1.637-8.766.352L390.51,190.581a2.6,2.6,0,0,1-1.51-2.069v4.547a2.569,2.569,0,0,0,1.51,2.274l30.084,17.257c2.289,1.285,6.168,1.137,8.766-.364L458.186,195.7a3.584,3.584,0,0,0,2.14-2.842Z" transform="translate(-155.843 -76.682)" fill="url(#linear-gradient-51)"/>
      <path id="Shape-108" data-name="Shape" d="M458.815,172.1l-30.084-17.23c-2.289-1.283-6.168-1.135-8.766.363l-28.825,16.5a3.555,3.555,0,0,0-2.14,2.951,2.6,2.6,0,0,0,1.51,2.123l30.084,17.174c2.289,1.283,6.168,1.135,8.766-.352l28.825-16.515a3.5,3.5,0,0,0,2.14-2.94A2.646,2.646,0,0,0,458.815,172.1Z" transform="translate(-155.843 -62.814)" fill="url(#linear-gradient-36)"/>
      <g id="Group-13" data-name="Group" transform="translate(236.431 93.381)" opacity="0.76" style="mix-blend-mode: screen;isolation: isolate">
        <path id="Shape-109" data-name="Shape" d="M32.953.707A9.085,9.085,0,0,0,28.6,1.839L2.41,16.861A3.217,3.217,0,0,0,.463,19.487a2.367,2.367,0,0,0,1.378,1.936L29.172,37.089a7.177,7.177,0,0,0,3.781.781Z" transform="translate(-0.463 -0.707)" fill="url(#linear-gradient-53)"/>
      </g>
      <ellipse id="Oval-3" data-name="Oval" cx="3" cy="2" rx="3" ry="2" transform="translate(266 109.885)" fill="#fff"/>
      <path id="Shape-110" data-name="Shape" d="M441,159l1.313,17.279c0,.918,1.466,1.669,3.252,1.669s3.252-.75,3.252-1.669L450.59,159Z" transform="translate(-176.676 -64.854)" fill="url(#linear-gradient-54)"/>
      <path id="Shape-111" data-name="Shape" d="M136.281,170.627C129.5,166.829,124,169.908,124,177.5s5.5,16.855,12.281,20.654,12.258.742,12.293-6.81l-12.293-6.877Z" transform="translate(-49.678 -68.933)" opacity="0.65" fill="url(#linear-gradient-55)" style="mix-blend-mode: screen;isolation: isolate"/>
      <path id="Shape-112" data-name="Shape" d="M147,171v13.452l11.987,6.68v-.068C158.987,183.679,153.623,174.692,147,171Z" transform="translate(-58.892 -69.748)" fill="url(#linear-gradient-56)"/>
    </g>
  </g>
</svg>
