<svg xmlns="http://www.w3.org/2000/svg" width="439.383" height="258.625" viewBox="0 0 439.383 258.625">
  <g id="Grupo_413" data-name="Grupo 413" transform="translate(-394.771 -19486.928)">
    <ellipse id="Elipse_241" data-name="Elipse 241" cx="6.895" cy="6.669" rx="6.895" ry="6.669" transform="translate(434.924 19609.414)" fill="#90a4ae"/>
    <path id="Trazado_1164" data-name="Trazado 1164" d="M0,0H2.413V33.7H0Z" transform="translate(443.025 19609.414) rotate(180)" fill="#cfd8dc"/>
    <path id="Trazado_1165" data-name="Trazado 1165" d="M32.445,13.021H6.587a2.336,2.336,0,0,1-1.708-.781L.366,7.422a1.318,1.318,0,0,1,0-1.823L4.879.781A2.336,2.336,0,0,1,6.587,0H32.445a1.193,1.193,0,0,1,1.22,1.3V11.719A1.193,1.193,0,0,1,32.445,13.021Z" transform="translate(428.436 19622.436) rotate(-180)" fill="#c0fae1"/>
    <path id="Trazado_1166" data-name="Trazado 1166" d="M80.45,13.021H16.332A10.99,10.99,0,0,1,12.1,12.24L.907,7.422C-.3,6.9-.3,6.12.907,5.6L12.1.781A10.99,10.99,0,0,1,16.332,0H80.45c1.815,0,3.024.521,3.024,1.3V11.719C83.475,12.5,82.265,13.021,80.45,13.021Z" transform="translate(543.252 19622.436) rotate(-180)" fill="#c0fae1"/>
    <path id="Trazado_1167" data-name="Trazado 1167" d="M44.949,0C69.774,0,89.9,19.875,89.9,44.392S69.774,88.785,44.949,88.785,0,68.91,0,44.392,20.125,0,44.949,0Z" transform="translate(486.768 19575.713) rotate(180)" fill="rgba(116,244,190,0.45)"/>
    <path id="Trazado_1173" data-name="Trazado 1173" d="M80.45,13.021H16.332A10.99,10.99,0,0,1,12.1,12.24L.907,7.422C-.3,6.9-.3,6.12.907,5.6L12.1.781A10.99,10.99,0,0,1,16.332,0H80.45c1.815,0,3.024.521,3.024,1.3V11.719C83.475,12.5,82.265,13.021,80.45,13.021Z" transform="translate(774.849 19622.436) rotate(-180)" fill="#3f51b5"/>
    <path id="Trazado_1175" data-name="Trazado 1175" d="M80.45,13.021H16.332A10.99,10.99,0,0,1,12.1,12.24L.907,7.422C-.3,6.9-.3,6.12.907,5.6L12.1.781A10.99,10.99,0,0,1,16.332,0H80.45c1.815,0,3.024.521,3.024,1.3V11.719C83.475,12.5,82.265,13.021,80.45,13.021Z" transform="translate(657.319 19622.75) rotate(-180)" fill="#3f51b5"/>
    <path id="Trazado_1178" data-name="Trazado 1178" d="M37.5,0c20.712,0,37.5,16.063,37.5,35.878S58.215,71.755,37.5,71.755,0,55.692,0,35.878,16.791,0,37.5,0Z" transform="translate(479.322 19567.199) rotate(180)" fill="rgba(116,244,190,0.45)"/>
    <ellipse id="Elipse_245" data-name="Elipse 245" cx="6.895" cy="6.669" rx="6.895" ry="6.669" transform="translate(666.038 19609.414)" fill="#90a4ae"/>
    <path id="Trazado_1179" data-name="Trazado 1179" d="M0,0H2.413V33.7H0Z" transform="translate(674.14 19609.414) rotate(180)" fill="#cfd8dc"/>
    <path id="Trazado_1180" data-name="Trazado 1180" d="M44.949,0C69.774,0,89.9,19.875,89.9,44.392S69.774,88.785,44.949,88.785,0,68.91,0,44.392,20.125,0,44.949,0Z" transform="translate(717.882 19575.713) rotate(180)" fill="rgba(68,138,255,0.49)"/>
    <ellipse id="Elipse_246" data-name="Elipse 246" cx="6.895" cy="6.669" rx="6.895" ry="6.669" transform="translate(565.775 19623.066) rotate(180)" fill="#90a4ae"/>
    <path id="Trazado_1182" data-name="Trazado 1182" d="M0,0H2.413V33.7H0Z" transform="translate(557.673 19623.066)" fill="#cfd8dc"/>
    <path id="Trazado_1183" data-name="Trazado 1183" d="M44.949,0C69.774,0,89.9,19.875,89.9,44.392S69.774,88.785,44.949,88.785,0,68.91,0,44.392,20.125,0,44.949,0Z" transform="translate(513.93 19656.768)" fill="rgba(116,244,190,0.45)"/>
    <path id="Trazado_1184" data-name="Trazado 1184" d="M37.5,0c20.712,0,37.5,16.063,37.5,35.878S58.215,71.755,37.5,71.755,0,55.692,0,35.878,16.791,0,37.5,0Z" transform="translate(521.377 19665.281)" fill="rgba(116,244,190,0.45)"/>
    <ellipse id="Elipse_247" data-name="Elipse 247" cx="6.895" cy="6.669" rx="6.895" ry="6.669" transform="translate(794.893 19623.066) rotate(180)" fill="#90a4ae"/>
    <path id="Trazado_1185" data-name="Trazado 1185" d="M0,0H2.413V33.7H0Z" transform="translate(786.791 19623.066)" fill="#cfd8dc"/>
    <path id="Trazado_1188" data-name="Trazado 1188" d="M36.2,0A35.879,35.879,0,1,1,0,35.878,36.04,36.04,0,0,1,36.2,0Z" transform="translate(709.546 19567.199) rotate(180)" fill="rgba(68,138,255,0.49)"/>
    <path id="Trazado_1189" data-name="Trazado 1189" d="M44.949,0C69.774,0,89.9,19.875,89.9,44.392S69.774,88.785,44.949,88.785,0,68.91,0,44.392,20.125,0,44.949,0Z" transform="translate(834.154 19745.553) rotate(180)" fill="rgba(68,138,255,0.49)"/>
    <path id="Trazado_1190" data-name="Trazado 1190" d="M36.2,0A35.879,35.879,0,1,1,0,35.878,36.04,36.04,0,0,1,36.2,0Z" transform="translate(825.817 19737.039) rotate(180)" fill="rgba(68,138,255,0.49)"/>
  </g>
</svg>
