<?xml version="1.0" encoding="UTF-8"?> <svg xmlns="http://www.w3.org/2000/svg" width="60" height="67" viewBox="0 0 60 67" fill="none"><path d="M43.303 28.9589C40.5267 24.2545 35.4367 21.3625 29.9997 21.3625H29.9225C29.4984 21.3625 29.1513 21.7095 29.1513 22.1337C29.1513 25.7583 29.1513 27.455 29.1128 29.1131C29.1128 30.8869 29.0742 32.6992 29.0742 36.8252C29.0742 37.0951 29.2285 37.365 29.4598 37.4807C29.5755 37.5578 29.7297 37.5964 29.8454 37.5964C29.9611 37.5964 30.1154 37.5578 30.231 37.5193C34.4341 35.2056 38.2516 32.9691 43.0331 30.0771C43.3801 29.7686 43.4958 29.3059 43.303 28.9589Z" fill="#48C1EE"></path><path d="M32.5064 6.90231V4.62725H34.2416V0H26.4524V4.62725H27.8792V6.86375C24.2545 7.13368 20.8226 8.02057 17.6607 9.4473L16.5424 7.44216L17.9692 6.63239L15.6555 2.62211L8.90745 6.51671L11.2211 10.527L12.5321 9.75578L13.5733 11.6838C5.43702 17.0437 0 26.2596 0 36.7866C0 53.329 13.4576 66.7866 30 66.7866C46.5424 66.7866 60 53.329 60 36.7866C60 21.0925 47.8535 8.17481 32.5064 6.90231ZM30 62.1208C16.0026 62.1208 4.62725 50.7455 4.62725 36.7481C4.62725 22.7506 16.0026 11.3753 30 11.3753C43.9974 11.3753 55.3727 22.7506 55.3727 36.7481C55.3727 50.7455 43.9974 62.1208 30 62.1208ZM30 15.4627C18.2391 15.4627 8.67609 25.0257 8.67609 36.7866C8.67609 48.5476 18.2391 58.1105 30 58.1105C41.7609 58.1105 51.3239 48.5476 51.3239 36.7866C51.3239 25.0257 41.7609 15.4627 30 15.4627ZM30 55.7969C19.5116 55.7969 10.9897 47.2751 10.9897 36.7866C10.9897 26.2982 19.5116 17.7763 30 17.7763C40.4884 17.7763 49.0103 26.2982 49.0103 36.7866C49.0103 47.2365 40.4884 55.7969 30 55.7969ZM29.8458 49.3959C29.1902 49.3959 28.6889 49.8972 28.6889 50.5527V52.2108C28.6889 52.8663 29.1902 53.3676 29.8458 53.3676C30.5013 53.3676 31.0026 52.8663 31.0026 52.2108V50.5527C31.0026 49.8972 30.5013 49.3959 29.8458 49.3959ZM17.2365 42.5707L15.8098 43.419C15.2699 43.7275 15.0771 44.4602 15.3856 45C15.617 45.3856 16.0026 45.5784 16.3882 45.5784C16.581 45.5784 16.7738 45.5398 16.9666 45.4242L18.3933 44.5758C18.9332 44.2674 19.126 43.5347 18.8175 42.9949C18.509 42.455 17.7763 42.2622 17.2365 42.5707ZM18.3933 28.6889L16.9666 27.8406C16.4267 27.5321 15.6941 27.7249 15.3856 28.2648C15.0771 28.8046 15.2699 29.5373 15.8098 29.8458L17.2365 30.6941C17.4293 30.8098 17.6221 30.8483 17.8149 30.8483C18.2005 30.8483 18.5861 30.6555 18.8175 30.2699C19.126 29.6915 18.9332 28.9974 18.3933 28.6889ZM43.9203 43.419L42.4936 42.5707C41.9537 42.2622 41.2211 42.455 40.9126 42.9949C40.6041 43.5347 40.7969 44.2674 41.3368 44.5758L42.7635 45.4242C42.9563 45.5398 43.1491 45.5784 43.3419 45.5784C43.7275 45.5784 44.1131 45.3856 44.3445 45C44.653 44.4602 44.4602 43.7275 43.9203 43.419Z" fill="#48C1EE"></path></svg> 