<svg xmlns="http://www.w3.org/2000/svg" width="1100.048" height="736.165" viewBox="0 0 1100.048 736.165">
  <path id="Trazado_175" data-name="Trazado 175" d="M1120.55,730.47c-24.35,20.2-59,28.56-92.51,33.84l-5.64.86c-58.57,8.74-118.32,10.52-177.79,12.28-165.87,4.91-332.17,9.81-497.6-1.51-73.16-5-148.13-13.76-212.25-43.7l-1.67-.79c-.83-.39-1.66-.78-2.49-1.19A224.1,224.1,0,0,1,98,711.17c-18.31-13.06-33.43-29-41.42-47.91-12.52-29.66-5.9-63,8.4-92s35.8-55.12,54.34-82.43c5.44-8,10.6-16.3,15.4-24.81,30-53.37,44.88-115.13,13.43-166.56a228.571,228.571,0,0,0-13.43-19c-7.67-10-15.47-20-20.74-31.07-12.29-25.76-9.65-54.73-5.17-82.25,6-36.59,17.05-76,51.38-98.86,35.67-23.74,86.3-22.54,130.57-14,68.83,13.19,132.36,40.8,196.49,65.7S618.6,165.56,689.11,168c62.26,2.17,134.89-14,176.23-56.08,40.15-40.85,115.6-43.94,170-19.27,51.91,23.54,85.48,73.36,83,123.12-3.16,62.1-54.93,111.83-95.9,164.7-6.81,8.79-13.33,17.68-19.28,26.72-19.42,29.53-33.15,65-19.78,96.88,7.5,17.85,21.81,31.47,39.06,43.36,38.65,26.63,92,44.55,116,81.83,20.67,32.16,13.01,75.56-17.89,101.21Z" transform="translate(-49.963 -46.68)" fill="#399f98" opacity="0.1"/>
</svg>
