<svg xmlns="http://www.w3.org/2000/svg" width="287.907" height="230.85" viewBox="0 0 287.907 230.85">
  <g id="Grupo_940" data-name="Grupo 940" transform="translate(-5729.521 17952)">
    <g id="Grupo_939" data-name="Grupo 939" transform="translate(5729.521 -17952)">
      <path id="Trazado_1857" data-name="Trazado 1857" d="M55.832,0c30.835,0,55.832,24.738,55.832,55.254s-25,55.254-55.832,55.254S0,85.77,0,55.254,25,0,55.832,0Z" transform="translate(111.663 226.948) rotate(180)" fill="rgba(206,246,222,0.6)"/>
      <path id="Trazado_1858" data-name="Trazado 1858" d="M55.832,0c30.835,0,55.832,24.738,55.832,55.254s-25,55.254-55.832,55.254S0,85.77,0,55.254,25,0,55.832,0Z" transform="translate(287.907 230.85) rotate(180)" fill="rgba(110,101,255,0.61)"/>
      <path id="Trazado_1859" data-name="Trazado 1859" d="M55.832,0c30.835,0,55.832,24.738,55.832,55.254s-25,55.254-55.832,55.254S0,85.77,0,55.254,25,0,55.832,0Z" transform="translate(202.17 110.508) rotate(180)" fill="rgba(50,101,128,0.71)"/>
      <path id="Trazado_1861" data-name="Trazado 1861" d="M0,164.926l7.261,11.386,6.022,9.442L17,191.585" transform="translate(185.168 -67.747)" fill="none" stroke="#ccbfbf" stroke-width="10" stroke-dasharray="17"/>
      <path id="Trazado_1863" data-name="Trazado 1863" d="M23.016.326l-9.5,22.352L5.633,41.214.766,52.663" transform="translate(163.141 163.293) rotate(67)" fill="none" stroke="#ccbfbf" stroke-width="10" stroke-dasharray="17"/>
      <path id="Trazado_1864" data-name="Trazado 1864" d="M0,191.585,7.261,180.2l6.022-9.442L17,164.926" transform="translate(94.661 -67.747)" fill="none" stroke="#ccbfbf" stroke-width="10" stroke-dasharray="17"/>
      <g id="Page-1" transform="translate(206.619 157.74)">
        <g id="Dribbble-Light-Preview">
          <g id="icons">
            <path id="code-_1115_" data-name="code-[#1115]" d="M137.945,3132.392a2.787,2.787,0,0,0,0-3.848l-.035-.037a2.568,2.568,0,0,0-3.719,0l-9.421,9.747a2.792,2.792,0,0,0,0,3.851l9.421,9.746a2.566,2.566,0,0,0,3.719,0l.035-.035a2.788,2.788,0,0,0,0-3.849l-5.665-5.862a2.792,2.792,0,0,1,0-3.851Zm36.2,5.863-9.421-9.747a2.568,2.568,0,0,0-3.719,0l-.034.037a2.787,2.787,0,0,0,0,3.848l5.667,5.863a2.792,2.792,0,0,1,0,3.851l-5.667,5.862a2.788,2.788,0,0,0,0,3.849l.034.035a2.566,2.566,0,0,0,3.719,0l9.421-9.746a2.792,2.792,0,0,0,0-3.851Zm-15.818-11.387-13.565,29.753c-.439.935-1.21,2.091-2.205,2.091H142.5c-1.934,0-3.195-2.693-2.339-4.508l13.486-29.47a4.941,4.941,0,0,1,2.068-1.664V3123c2.631,0,3.46,2.053,2.608,3.868Z" transform="translate(-124 -3123)" fill="#113647" fill-rule="evenodd"/>
          </g>
        </g>
      </g>
      <g id="settings" transform="translate(32.139 147.699)">
        <path id="Trazado_1865" data-name="Trazado 1865" d="M140.818,21.933a4.041,4.041,0,0,1,1.79-.412,3.989,3.989,0,0,1,2.777,1.1l1.6-1.54a11.576,11.576,0,0,0,11.7-2.566A10.581,10.581,0,0,0,161.834,9.1a1,1,0,0,0-.7-.782,1.053,1.053,0,0,0-1.041.241l-2.375,2.287a5.087,5.087,0,0,1-7,0,4.646,4.646,0,0,1,0-6.745l2.375-2.287a.963.963,0,0,0,.251-1,1.016,1.016,0,0,0-.813-.671,11.521,11.521,0,0,0-9.777,3.035,10.56,10.56,0,0,0-2.6,11.436l-3.469,3.341Z" transform="translate(-114.595 -0.001)" fill="#113647"/>
        <path id="Trazado_1866" data-name="Trazado 1866" d="M20.275,157.873l-4.114-3.962L1.775,167.766a4.494,4.494,0,0,0,0,6.524,4.921,4.921,0,0,0,6.774,0l12.4-11.944A3.694,3.694,0,0,1,20.275,157.873Z" transform="translate(-0.373 -129.888)" fill="#113647"/>
        <path id="Trazado_1867" data-name="Trazado 1867" d="M29.669,39.357a1.548,1.548,0,0,0-2.131,0l-.859.827-15.3-14.733.715-.689a1.418,1.418,0,0,0-.172-2.195L5.683,18.141a1.55,1.55,0,0,0-1.959.142l-2.65,2.552a1.412,1.412,0,0,0-.148,1.887l4.6,6.011A1.544,1.544,0,0,0,7.8,28.9l.715-.689,15.3,14.733-.919.885a1.413,1.413,0,0,0,0,2.052L37.008,59.472a4.921,4.921,0,0,0,6.774,0,4.494,4.494,0,0,0,0-6.524Z" transform="translate(-0.591 -15.071)" fill="#113647"/>
      </g>
      <g id="layers" transform="translate(115.698 19.22)">
        <g id="Grupo_934" data-name="Grupo 934" transform="translate(0 25.382)">
          <g id="Grupo_933" data-name="Grupo 933">
            <path id="Trazado_1868" data-name="Trazado 1868" d="M60.32,208.018a2.181,2.181,0,0,0-.191-.11l-4.349-2.254L31.664,217.943a2.264,2.264,0,0,1-2.048,0L5.5,205.654l-4.349,2.254a2.047,2.047,0,0,0-.9,2.82,2.088,2.088,0,0,0,.115.184L30.64,226.337l30.272-15.426A2.038,2.038,0,0,0,60.32,208.018Z" transform="translate(0 -205.654)" fill="#fff"/>
          </g>
        </g>
        <g id="Grupo_936" data-name="Grupo 936" transform="translate(0.002 38.02)">
          <g id="Grupo_935" data-name="Grupo 935">
            <path id="Trazado_1869" data-name="Trazado 1869" d="M61.028,311.161a2.149,2.149,0,0,0-.886-.853l-4.349-2.254L31.677,320.343a2.264,2.264,0,0,1-2.048,0L5.513,308.054l-4.349,2.254a2.067,2.067,0,0,0-.886,2.854,2.149,2.149,0,0,0,.886.853L29.615,328.76a2.264,2.264,0,0,0,2.075,0l28.451-14.745A2.067,2.067,0,0,0,61.028,311.161Z" transform="translate(-0.014 -308.054)" fill="#fff"/>
          </g>
        </g>
        <g id="Grupo_938" data-name="Grupo 938" transform="translate(0 0)">
          <g id="Grupo_937" data-name="Grupo 937">
            <path id="Trazado_1870" data-name="Trazado 1870" d="M60.32,15.116a2.186,2.186,0,0,0-.191-.11L31.677.26A2.264,2.264,0,0,0,29.6.26L1.151,15.006a2.047,2.047,0,0,0-.9,2.82,2.089,2.089,0,0,0,.115.184L30.64,33.435,60.912,18.009A2.038,2.038,0,0,0,60.32,15.116Z" transform="translate(0 -0.009)" fill="#fff"/>
          </g>
        </g>
      </g>
    </g>
  </g>
</svg>
