<svg xmlns="http://www.w3.org/2000/svg" width="78" height="33.405" viewBox="0 0 78 33.405">
  <g id="Grupo_2" data-name="Grupo 2" transform="translate(-515 -305.679)">
    <path id="_1" data-name="1" d="M1,4.6,9,0l7.993,4.647L9,9.141,1,4.6Zm8.724,5.886V18.4L17,14.293V6.374Zm-1.455,0L1,6.336v7.957L8.273,18.4Z" transform="translate(558 320.679)" fill="#0458ff"/>
    <path id="_1-2" data-name="1" d="M1,4.6,9,0l7.993,4.647L9,9.141,1,4.6Zm8.724,5.886V18.4L17,14.293V6.374Zm-1.455,0L1,6.336v7.957L8.273,18.4Z" transform="translate(576 320.679)" fill="#04b2ff"/>
    <path id="_1-3" data-name="1" d="M1,4.6,9,0l7.993,4.647L9,9.141,1,4.6Zm8.724,5.886V18.4L17,14.293V6.374Zm-1.455,0L1,6.336v7.957L8.273,18.4Z" transform="translate(567 305.679)" fill="#a2e2f5"/>
    <path id="flecha" d="M8.717,8.1v2.366l5.2-4.761L8.717,1V3.366C.593,4.175-2.455,10.513,2.593,11.4.4,10.011,4.47,7.879,8.717,8.1Z" transform="translate(543.868 313.581)" fill="#070606"/>
    <path id="_12" data-name="12" d="M24,8H0v7H24ZM2,13l.863-3H4.138l-.863,3Zm2.066,0,.863-3H6.2l-.863,3Zm2.067,0L7,10H8.271l-.864,3ZM8.2,13l.863-3h1.274l-.863,3Zm3.341,0H10.266l.863-3H12.4l-.864,3ZM21,12.5a1,1,0,1,1,1-1A1,1,0,0,1,21,12.5ZM24,17H0v7H24ZM2,22l.863-3H4.138l-.863,3Zm2.066,0,.863-3H6.2l-.863,3Zm2.067,0L7,19H8.271l-.864,3ZM8.2,22l.863-3h1.274l-.863,3Zm3.341,0H10.266l.863-3H12.4l-.864,3ZM21,21.5a1,1,0,1,1,1-1A1,1,0,0,1,21,21.5ZM22,6H2L6,0H18Z" transform="translate(515 313)"/>
  </g>
</svg>
