<svg xmlns="http://www.w3.org/2000/svg" width="400" height="323.466" viewBox="0 0 400 323.466">
  <g id="Grupo_393" data-name="Grupo 393" transform="translate(-1400.377 12226.42)">
    <g id="Grupo_392" data-name="Grupo 392" transform="translate(-2421.926 -1939.039)">
      <g id="Grupo_390" data-name="Grupo 390" transform="translate(3822.303 -10287.381)">
        <path id="Trazado_711" data-name="Trazado 711" d="M445.947,540.2l-3.173,3.328c-.2-.324-1.31-1.829-1.31-1.829a4.56,4.56,0,0,1,.455-.421l.921,1.289,2.736-2.87a3.356,3.356,0,0,1,.372.5Z" transform="translate(-416.005 -242.971)" fill="#fff"/>
        <path id="Trazado_719" data-name="Trazado 719" d="M445.947,540.2l-3.173,3.328c-.2-.324-1.31-1.829-1.31-1.829a4.56,4.56,0,0,1,.455-.421l.921,1.289,2.736-2.87a3.356,3.356,0,0,1,.372.5Z" transform="translate(-416.005 -242.971)" fill="#fff"/>
        <path id="Trazado_770" data-name="Trazado 770" d="M50.825,0c28.07,0,50.825,24.444,50.825,54.6s-22.755,54.6-50.825,54.6S0,84.75,0,54.6,22.755,0,50.825,0Z" transform="translate(390.226 170.636) rotate(180)" fill="rgba(206,246,222,0.6)"/>
        <path id="Trazado_764" data-name="Trazado 764" d="M50.825,0c28.07,0,50.825,24.444,50.825,54.6s-22.755,54.6-50.825,54.6S0,84.75,0,54.6,22.755,0,50.825,0Z" transform="translate(101.651 188.527) rotate(180)" fill="rgba(206,246,222,0.6)"/>
        <ellipse id="Elipse_155" data-name="Elipse 155" cx="41.752" cy="5.938" rx="41.752" ry="5.938" transform="translate(297.621 142.721)" fill="#3f3d56"/>
        <path id="Trazado_430" data-name="Trazado 430" d="M785.282,661.177l-1.162,7.757s-5.722,3.177-1.7,3.271,22.976,0,22.976,0,3.665,0-2.146-3.365l-1.162-8.131Z" transform="translate(-454.453 -527.519)" fill="#2f2e41"/>
        <path id="Trazado_431" data-name="Trazado 431" d="M781.619,672.121a15.762,15.762,0,0,1,2.508-1.735l1.162-7.757,16.807.017,1.162,7.647a15.242,15.242,0,0,1,2.686,1.847c.746-.178,1.562-.839-2.686-3.3L802.1,660.71l-16.807.467-1.162,7.757S779.319,671.6,781.619,672.121Z" transform="translate(-454.459 -527.519)" opacity="0.1"/>
        <rect id="Rectángulo_64" data-name="Rectángulo 64" width="75.722" height="55.14" rx="18.046" transform="translate(301.283 79.593)" fill="#2f2e41"/>
        <path id="Trazado_753" data-name="Trazado 753" d="M0,0H75.722V47.811H0Z" transform="translate(301.283 79.678)" fill="#2b2a3e"/>
        <path id="Trazado_432" data-name="Trazado 432" d="M685.546,621.322v4.834a2.725,2.725,0,0,1-2.663,2.783h-70.4a2.724,2.724,0,0,1-2.662-2.784v-4.833Z" transform="translate(-308.541 -494.206)" fill="#2f2e41"/>
        <path id="Trazado_433" data-name="Trazado 433" d="M691.066,649.016v.935h-48.1V649.2l.066-.187,1.185-3.364h45.862Z" transform="translate(-332.164 -499.283)" fill="#2f2e41"/>
        <path id="Trazado_434" data-name="Trazado 434" d="M1047.806,744.387c-.088.392-.418.8-1.166,1.2-2.682,1.4-8.135-.374-8.135-.374s-4.2-.748-4.2-2.71a3.289,3.289,0,0,1,.368-.229c1.128-.624,4.867-2.163,11.5.065a2.758,2.758,0,0,1,1.26.863A1.417,1.417,0,0,1,1047.806,744.387Z" transform="translate(-670.395 -595.569)" fill="#2f2e41"/>
        <path id="Trazado_435" data-name="Trazado 435" d="M1049.934,744.387c-3.283,1.315-6.209,1.413-9.212-.767a6.4,6.4,0,0,0-3.923-1.35c1.128-.624,4.866-2.163,11.5.065a2.755,2.755,0,0,1,1.26.863A1.418,1.418,0,0,1,1049.934,744.387Z" transform="translate(-672.523 -595.569)" opacity="0.1"/>
        <ellipse id="Elipse_158" data-name="Elipse 158" cx="1.162" cy="0.374" rx="1.162" ry="0.374" transform="translate(372.133 147.303)" fill="#f2f2f2"/>
        <ellipse id="Elipse_159" data-name="Elipse 159" cx="1.699" cy="1.776" rx="1.699" ry="1.776" transform="translate(337.445 129.172)" fill="#f2f2f2"/>
        <path id="Trazado_436" data-name="Trazado 436" d="M691.066,667.466v.934h-48.1v-.748l.066-.187Z" transform="translate(-332.164 -517.733)" opacity="0.1"/>
        <path id="Trazado_754" data-name="Trazado 754" d="M13.364,0c7.381,0,13.364,6.658,13.364,14.87s-5.983,14.87-13.364,14.87S0,23.083,0,14.87,5.983,0,13.364,0Z" transform="translate(346.434 117.736) rotate(180)" fill="rgba(255,255,255,0.97)"/>
        <path id="Trazado_666" data-name="Trazado 666" d="M58.54,0c32.331,0,58.54,27.53,58.54,61.49s-26.209,61.49-58.54,61.49S0,95.45,0,61.49,26.209,0,58.54,0Z" transform="translate(250.365 122.979) rotate(180)" fill="rgba(206,246,222,0.6)"/>
        <path id="Trazado_703" data-name="Trazado 703" d="M50.825,0c28.07,0,50.825,24.444,50.825,54.6s-22.755,54.6-50.825,54.6S0,84.75,0,54.6,22.755,0,50.825,0Z" transform="translate(272.347 269.806) rotate(180)" fill="rgba(206,246,222,0.6)"/>
        <g id="Grupo_87" data-name="Grupo 87" transform="translate(131.113 31.149)">
          <ellipse id="Elipse_177" data-name="Elipse 177" cx="62.702" cy="5.09" rx="62.702" ry="5.09" transform="translate(0 79.59)" fill="#387aa4" opacity="0.1"/>
          <path id="Trazado_609" data-name="Trazado 609" d="M359.909,600.1l-26.289-.352.077-.7,1.272-11.627h23.086l1.7,11.627.13.881Z" transform="translate(-284.4 -515.271)" fill="#d0d2d5"/>
          <path id="Trazado_610" data-name="Trazado 610" d="M359.884,663.691h-13.12l-13.144-.176.077-.7h26.057Z" transform="translate(-284.4 -579.034)" opacity="0.1"/>
          <path id="Trazado_611" data-name="Trazado 611" d="M303.92,663.95H338.8v.881H303.92Z" transform="translate(-259.082 -579.998)" fill="#d0d2d5"/>
          <path id="Trazado_612" data-name="Trazado 612" d="M177.826,121.933a2.349,2.349,0,0,0-.632-1.631,2.148,2.148,0,0,0-1.551-.683H78.223a2.149,2.149,0,0,0-1.551.683,2.35,2.35,0,0,0-.633,1.63v61.732H177.826Z" transform="translate(-64.821 -119.62)" fill="#3f3d56"/>
          <path id="Trazado_613" data-name="Trazado 613" d="M76.04,530.88v7.232a2.235,2.235,0,0,0,2.183,2.283h97.419a2.235,2.235,0,0,0,2.184-2.283V530.88Z" transform="translate(-64.822 -467.452)" fill="#d0d2d5"/>
          <path id="Trazado_614" data-name="Trazado 614" d="M104.6,144.8h93.865v55.493H104.6Z" transform="translate(-89.168 -140.917)" fill="#2f2e41"/>
          <path id="Trazado_615" data-name="Trazado 615" d="M450.338,592.56,439.85,603.57l1.61-11.01Z" transform="translate(-391.039 -519.619)" opacity="0.1"/>
        </g>
        <path id="Trazado_704" data-name="Trazado 704" d="M125.686,285.794a8.013,8.013,0,0,1-2.96-.583c-.685-.51-3.5-1.12-3.669-.3s-3.418,4.07-.85,4.091,5.966-.418,6.65-.854S125.686,285.794,125.686,285.794Z" transform="translate(95.876 -72.23)" fill="#a8a8a8"/>
        <path id="Trazado_705" data-name="Trazado 705" d="M118.162,295.744c2.568.022,5.966-.418,6.65-.854.521-.332.729-1.522.8-2.071l.076,0s-.144,1.917-.828,2.353-4.083.875-6.65.854c-.741-.006-1-.282-.983-.69C117.327,295.585,117.61,295.739,118.162,295.744Z" transform="translate(95.877 -79.258)" opacity="0.2"/>
        <rect id="Rectángulo_216" data-name="Rectángulo 216" width="30.687" height="37.323" transform="translate(187.515 208.422)" fill="#2f2e41"/>
        <rect id="Rectángulo_217" data-name="Rectángulo 217" width="36.883" height="13.264" transform="translate(184.417 204.721)" fill="#3f3d56"/>
        <rect id="Rectángulo_218" data-name="Rectángulo 218" width="36.883" height="13.264" transform="translate(184.417 220.452)" fill="#3f3d56"/>
        <rect id="Rectángulo_219" data-name="Rectángulo 219" width="36.883" height="13.264" transform="translate(184.417 236.184)" fill="#3f3d56"/>
        <rect id="Rectángulo_220" data-name="Rectángulo 220" width="2.361" height="2.468" transform="translate(191.794 207.034)" fill="#6c63ff" opacity="0.4"/>
        <rect id="Rectángulo_221" data-name="Rectángulo 221" width="2.361" height="2.468" transform="translate(191.794 222.612)" fill="#6c63ff" opacity="0.4"/>
        <path id="Trazado_706" data-name="Trazado 706" d="M125.686,285.794a8.013,8.013,0,0,1-2.96-.583c-.685-.51-3.5-1.12-3.669-.3s-3.418,4.07-.85,4.091,5.966-.418,6.65-.854S125.686,285.794,125.686,285.794Z" transform="translate(139.251 -81.329)" fill="#a8a8a8"/>
        <path id="Trazado_707" data-name="Trazado 707" d="M118.162,295.744c2.568.022,5.966-.418,6.65-.854.521-.332.729-1.522.8-2.071l.076,0s-.144,1.917-.828,2.353-4.083.875-6.65.854c-.741-.006-1-.282-.983-.69C117.327,295.585,117.61,295.739,118.162,295.744Z" transform="translate(139.251 -88.357)" opacity="0.2"/>
        <rect id="Rectángulo_222" data-name="Rectángulo 222" width="30.687" height="37.323" transform="translate(230.89 199.323)" fill="#2f2e41"/>
        <rect id="Rectángulo_223" data-name="Rectángulo 223" width="36.883" height="13.264" transform="translate(227.792 195.621)" fill="#3f3d56"/>
        <rect id="Rectángulo_224" data-name="Rectángulo 224" width="36.883" height="13.264" transform="translate(227.792 211.353)" fill="#3f3d56"/>
        <rect id="Rectángulo_225" data-name="Rectángulo 225" width="36.883" height="13.264" transform="translate(227.792 227.084)" fill="#3f3d56"/>
        <rect id="Rectángulo_226" data-name="Rectángulo 226" width="2.361" height="2.468" transform="translate(235.169 197.935)" fill="#6c63ff" opacity="0.4"/>
        <rect id="Rectángulo_227" data-name="Rectángulo 227" width="2.361" height="2.468" transform="translate(235.169 213.512)" fill="#6c63ff" opacity="0.4"/>
        <rect id="Rectángulo_228" data-name="Rectángulo 228" width="2.361" height="2.468" transform="translate(235.169 229.089)" fill="#6c63ff" opacity="0.4"/>
        <g id="Grupo_88" data-name="Grupo 88" transform="translate(191.794 188.532)">
          <path id="_1" data-name="1" d="M11.239,3.056,6.121,0,1,3.087,6.118,6.073ZM5.655,6.966v5.261L1,9.5V4.235Zm.931,0,4.655-2.757V9.5L6.586,12.228Z" transform="translate(9.561)" fill="#a2e2f5"/>
          <path id="_1-2" data-name="1" d="M11.239,3.056,6.121,0,1,3.087,6.118,6.073ZM5.655,6.966v5.261L1,9.5V4.235Zm.931,0,4.655-2.757V9.5L6.586,12.228Z" transform="translate(-1 0.302)" fill="#00c3e0"/>
        </g>
        <g id="_304729-607d8b" data-name="304729-607d8b" transform="matrix(-0.94, -0.342, 0.342, -0.94, 146.022, 179.092)">
          <path id="Trazado_42" data-name="Trazado 42" d="M.574.023A2.868,2.868,0,0,0,.1.09L0,.118.058.21Q1.287,2.162,9.466,2.778c.73.055,1.954.125,2.786.16,3.923.165,8.546.143,13.943-.067,1.234-.048,3.365-.153,4.653-.229l.582-.034a.427.427,0,0,1-.035.087,4.8,4.8,0,0,0-.375.991,2.466,2.466,0,0,0,.649.037,5.94,5.94,0,0,0,.733-.064c.479-.072,12.742-2.086,12.8-2.1.088-.026.1-.047.041-.063C45.15,1.47,34.051.124,33.853.113A5.252,5.252,0,0,0,32.572.2c-.053.016-.079.072-.454.982a.4.4,0,0,1-.075.135c-.038.006-1.052.072-1.709.111-.856.051-2.594.136-3.587.176-1.215.048-2.572.089-3.726.111-.487.009-1.438.024-1.607.024l-.562,0c-3.549.028-7.023-.074-9.911-.289A51.225,51.225,0,0,1,1.824.095C1.676.055,1.51.018,1.462.012A5.458,5.458,0,0,0,.845.005C.77.009.649.017.574.023Z" transform="translate(0 0)" fill="#0092d8"/>
        </g>
        <g id="Grupo_89" data-name="Grupo 89" transform="translate(235.169 179.124)">
          <path id="_1-3" data-name="1" d="M11.239,3.056,6.121,0,1,3.087,6.118,6.073ZM5.655,6.966v5.261L1,9.5V4.235Zm.931,0,4.655-2.757V9.5L6.586,12.228Z" transform="translate(9.561)" fill="#a2e2f5"/>
          <path id="_1-4" data-name="1" d="M11.239,3.056,6.121,0,1,3.087,6.118,6.073ZM5.655,6.966v5.261L1,9.5V4.235Zm.931,0,4.655-2.757V9.5L6.586,12.228Z" transform="translate(-1 0.302)" fill="#00c3e0"/>
        </g>
        <ellipse id="Elipse_193" data-name="Elipse 193" cx="0.447" cy="0.467" rx="0.447" ry="0.467" transform="translate(15.973 294.677)" fill="#f2f2f2"/>
        <path id="Trazado_709" data-name="Trazado 709" d="M445.947,540.2l-3.173,3.328c-.2-.324-1.31-1.829-1.31-1.829a4.56,4.56,0,0,1,.455-.421l.921,1.289,2.736-2.87a3.356,3.356,0,0,1,.372.5Z" transform="translate(-365.991 -383.782)" fill="#fff"/>
        <ellipse id="Elipse_194" data-name="Elipse 194" cx="29.728" cy="5.09" rx="29.728" ry="5.09" transform="translate(216.535 235.511)" fill="#387aa4" opacity="0.1"/>
        <path id="Trazado_712" data-name="Trazado 712" d="M427.33,528.639a3.324,3.324,0,0,1-2.765,3.336,3.216,3.216,0,0,1-3.537-2.4,3.426,3.426,0,0,1,1.768-4.012,3.134,3.134,0,0,1,4.036,1.272A3.5,3.5,0,0,1,427.33,528.639Z" transform="translate(-332.713 -267.7)" fill="#00c6e2"/>
        <path id="Trazado_713" data-name="Trazado 713" d="M445.947,540.2l-3.173,3.328c-.2-.324-1.31-1.829-1.31-1.829a4.56,4.56,0,0,1,.455-.421l.921,1.289,2.736-2.87a3.356,3.356,0,0,1,.372.5Z" transform="translate(-351.828 -281.066)" fill="#fff"/>
        <g id="Grupo_93" data-name="Grupo 93" transform="translate(160.915 252.838)">
          <rect id="Rectángulo_197" data-name="Rectángulo 197" width="9.87" height="14.123" transform="translate(0 1.172)" fill="#3f3d56"/>
          <rect id="Rectángulo_198" data-name="Rectángulo 198" width="9.87" height="14.123" transform="translate(0 1.172)" opacity="0.1"/>
          <rect id="Rectángulo_199" data-name="Rectángulo 199" width="6.821" height="0.26" transform="translate(1.525 3.858)" fill="#00c6e2" opacity="0.3"/>
          <rect id="Rectángulo_200" data-name="Rectángulo 200" width="6.821" height="0.26" transform="translate(1.525 5.071)" fill="#00c6e2" opacity="0.3"/>
          <rect id="Rectángulo_201" data-name="Rectángulo 201" width="6.821" height="0.26" transform="translate(1.525 6.284)" fill="#00c6e2" opacity="0.3"/>
          <rect id="Rectángulo_202" data-name="Rectángulo 202" width="6.821" height="0.26" transform="translate(1.525 7.497)" fill="#00c6e2" opacity="0.3"/>
          <rect id="Rectángulo_203" data-name="Rectángulo 203" width="6.821" height="0.26" transform="translate(1.525 8.71)" fill="#00c6e2" opacity="0.3"/>
          <rect id="Rectángulo_204" data-name="Rectángulo 204" width="6.821" height="0.26" transform="translate(1.525 9.923)" fill="#00c6e2" opacity="0.3"/>
          <rect id="Rectángulo_205" data-name="Rectángulo 205" width="6.821" height="0.26" transform="translate(1.525 11.136)" fill="#00c6e2" opacity="0.3"/>
          <rect id="Rectángulo_206" data-name="Rectángulo 206" width="6.821" height="0.26" transform="translate(1.525 12.349)" fill="#00c6e2" opacity="0.3"/>
          <rect id="Rectángulo_207" data-name="Rectángulo 207" width="9.87" height="14.123" transform="translate(2.187 2.845)" fill="#3f3d56"/>
          <rect id="Rectángulo_208" data-name="Rectángulo 208" width="6.821" height="0.26" transform="translate(3.711 5.531)" fill="#00c6e2"/>
          <rect id="Rectángulo_209" data-name="Rectángulo 209" width="6.821" height="0.26" transform="translate(3.711 6.744)" fill="#00c6e2"/>
          <rect id="Rectángulo_210" data-name="Rectángulo 210" width="6.821" height="0.26" transform="translate(3.711 7.957)" fill="#00c6e2"/>
          <rect id="Rectángulo_211" data-name="Rectángulo 211" width="6.821" height="0.26" transform="translate(3.711 9.17)" fill="#00c6e2"/>
          <rect id="Rectángulo_212" data-name="Rectángulo 212" width="6.821" height="0.26" transform="translate(3.711 10.383)" fill="#00c6e2"/>
          <rect id="Rectángulo_213" data-name="Rectángulo 213" width="6.821" height="0.26" transform="translate(3.711 11.596)" fill="#00c6e2"/>
          <rect id="Rectángulo_214" data-name="Rectángulo 214" width="6.821" height="0.26" transform="translate(3.711 12.809)" fill="#00c6e2"/>
          <rect id="Rectángulo_215" data-name="Rectángulo 215" width="6.821" height="0.26" transform="translate(3.711 14.022)" fill="#00c6e2"/>
          <path id="Trazado_699" data-name="Trazado 699" d="M531.613,144.681a3.816,3.816,0,0,0-2.713-1.773" transform="translate(-518.964 -142.606)" fill="none" stroke="#3f3d56" stroke-miterlimit="10" stroke-width="2"/>
          <path id="Trazado_700" data-name="Trazado 700" d="M245.9,29.331l.045.072-.329.237.243.337-.063.053-.3-.411Z" transform="translate(-235.65 -29.331)" fill="#3f3d56"/>
        </g>
        <path id="Trazado_715" data-name="Trazado 715" d="M50.825,0c28.07,0,50.825,24.444,50.825,54.6s-22.755,54.6-50.825,54.6S0,84.75,0,54.6,22.755,0,50.825,0Z" transform="translate(147.928 323.466) rotate(180)" fill="rgba(206,246,222,0.6)"/>
        <ellipse id="Elipse_195" data-name="Elipse 195" cx="0.447" cy="0.467" rx="0.447" ry="0.467" transform="translate(15.973 294.677)" fill="#f2f2f2"/>
        <path id="Trazado_717" data-name="Trazado 717" d="M445.947,540.2l-3.173,3.328c-.2-.324-1.31-1.829-1.31-1.829a4.56,4.56,0,0,1,.455-.421l.921,1.289,2.736-2.87a3.356,3.356,0,0,1,.372.5Z" transform="translate(-365.991 -383.782)" fill="#fff"/>
        <path id="Trazado_721" data-name="Trazado 721" d="M445.947,540.2l-3.173,3.328c-.2-.324-1.31-1.829-1.31-1.829a4.56,4.56,0,0,1,.455-.421l.921,1.289,2.736-2.87a3.356,3.356,0,0,1,.372.5Z" transform="translate(-351.828 -281.066)" fill="#fff"/>
        <g id="undraw_cloud_files_wmo8" transform="translate(62.913 248.918)">
          <path id="Trazado_727" data-name="Trazado 727" d="M393.806,280.956H370.34v-.133a.376.376,0,0,0-.361-.39H360.06a.376.376,0,0,0-.361.39v.133H336.136a1.654,1.654,0,0,0-1.587,1.714v34.7a1.654,1.654,0,0,0,1.587,1.714h57.67a1.654,1.654,0,0,0,1.587-1.714v-34.7a1.654,1.654,0,0,0-1.587-1.714Z" transform="translate(-330.751 -280.434)" fill="#3f3d56"/>
          <path id="Trazado_728" data-name="Trazado 728" d="M358.262,314.131a.15.15,0,0,0-.144.154v31.589a.15.15,0,0,0,.144.154h53.6a.149.149,0,0,0,.144-.154V314.285a.149.149,0,0,0-.144-.154Z" transform="translate(-350.842 -308.934)" fill="#00c6e2"/>
          <ellipse id="Elipse_196" data-name="Elipse 196" cx="0.747" cy="0.781" rx="0.747" ry="0.781" transform="translate(33.424 1.692)" fill="#00c6e2"/>
          <path id="Trazado_729" data-name="Trazado 729" d="M375.3,569.205h-5.663v-.768a.079.079,0,0,0-.081-.076h-1.942a.079.079,0,0,0-.081.076v.768h-1.213v-.768a.079.079,0,0,0-.081-.076H364.3a.079.079,0,0,0-.081.076v.768h-1.214v-.768a.079.079,0,0,0-.081-.076h-1.942a.079.079,0,0,0-.081.076v.768h-1.213v-.768a.079.079,0,0,0-.081-.076h-1.942a.079.079,0,0,0-.081.076v.768h-1.214v-.768a.079.079,0,0,0-.081-.076h-1.942a.079.079,0,0,0-.081.076v.768h-1.214v-.768a.079.079,0,0,0-.081-.076h-1.942a.079.079,0,0,0-.081.076v.768h-1.213v-.768a.079.079,0,0,0-.081-.076H334.451a.079.079,0,0,0-.081.076v.768h-1.213v-.768a.079.079,0,0,0-.081-.076h-1.942a.079.079,0,0,0-.081.076v.768h-1.213v-.768a.079.079,0,0,0-.081-.076h-1.942a.079.079,0,0,0-.081.076v.768h-1.213v-.768a.079.079,0,0,0-.081-.076H324.5a.079.079,0,0,0-.081.076v.768h-1.213v-.768a.079.079,0,0,0-.081-.076h-1.942a.079.079,0,0,0-.081.076v.768h-1.214v-.768a.079.079,0,0,0-.081-.076h-1.942a.079.079,0,0,0-.081.076v.768h-1.214v-.768a.079.079,0,0,0-.081-.076h-1.942a.079.079,0,0,0-.081.076v.768h-3.721a1.889,1.889,0,0,0-1.942,1.832v.828a1.889,1.889,0,0,0,1.942,1.832H375.3a1.889,1.889,0,0,0,1.942-1.832v-.828A1.889,1.889,0,0,0,375.3,569.205Z" transform="translate(-308.805 -533.473)" fill="#3f3d56"/>
          <path id="Trazado_730" data-name="Trazado 730" d="M421.783,424.123H400.8a.173.173,0,0,1,0-.345h20.983a.173.173,0,0,1,0,.345Z" transform="translate(-390.752 -405.929)" fill="#f2f2f2"/>
          <path id="Trazado_731" data-name="Trazado 731" d="M421.783,448.76H400.8a.173.173,0,0,1,0-.345h20.983a.173.173,0,0,1,0,.345Z" transform="translate(-390.752 -427.499)" fill="#f2f2f2"/>
          <path id="Trazado_732" data-name="Trazado 732" d="M421.783,473.4H400.8a.173.173,0,0,1,0-.345h20.983a.173.173,0,0,1,0,.345Z" transform="translate(-390.752 -449.069)" fill="#f2f2f2"/>
          <path id="Trazado_733" data-name="Trazado 733" d="M642.64,418.756a6.815,6.815,0,0,1,5.92-6.51,6.656,6.656,0,0,1,7.108,5.046c.081,0,.161-.006.242-.006a2.5,2.5,0,0,1,.814.145c3.3,1.134,2.433,6.289-1.043,6.289h-8.543a4.4,4.4,0,0,1-3.24-1.43,4.815,4.815,0,0,1-1.261-3.432C642.636,418.825,642.638,418.791,642.64,418.756Z" transform="translate(-605.723 -396.944)" fill="#00c6e2"/>
          <path id="Trazado_734" data-name="Trazado 734" d="M447.191,339.49v-2.841h-1.463v2.841h-1.168l.95,1.72.95,1.72.95-1.72.95-1.72Z" transform="translate(-401.728 -317.965)" fill="#fff"/>
        </g>
        <g id="_304729-607d8b-2" data-name="304729-607d8b" transform="translate(130.257 247.662) rotate(-7)">
          <path id="Trazado_42-2" data-name="Trazado 42" d="M.535,7.836a1.674,1.674,0,0,1-.44-.065L0,7.738.061,7.6q1.279-3,9.02-4.528c.691-.136,1.848-.332,2.634-.447a105.376,105.376,0,0,1,13.126-.942C26,1.658,28,1.655,29.209,1.673l.546.007a.821.821,0,0,0-.028-.127A9.444,9.444,0,0,1,29.436.105a1.57,1.57,0,0,1,.613-.1,3.471,3.471,0,0,1,.687.041c.447.071,11.87,2.154,11.919,2.174.081.032.091.062.035.091-.085.041-10.622,2.876-10.808,2.907a3.089,3.089,0,0,1-1.2-.041c-.049-.02-.07-.1-.366-1.43a.646.646,0,0,0-.062-.2c-.035-.006-.986-.028-1.6-.037-.8-.012-2.434-.009-3.368.006-1.141.019-2.417.06-3.5.113-.458.023-1.353.072-1.512.084l-.529.036a76.655,76.655,0,0,0-9.352,1.172A35.252,35.252,0,0,0,1.716,7.636a3.037,3.037,0,0,1-.346.15,3.322,3.322,0,0,1-.582.057C.718,7.843.605,7.84.535,7.836Z" transform="translate(0 0)" fill="#00c3e0"/>
        </g>
        <g id="Grupo_98" data-name="Grupo 98" transform="translate(141.799 217.985)">
          <rect id="Rectángulo_197-2" data-name="Rectángulo 197" width="9.87" height="14.123" transform="translate(0 1.172)" fill="#3f3d56"/>
          <rect id="Rectángulo_198-2" data-name="Rectángulo 198" width="9.87" height="14.123" transform="translate(0 1.172)" opacity="0.1"/>
          <rect id="Rectángulo_199-2" data-name="Rectángulo 199" width="6.821" height="0.26" transform="translate(1.525 3.858)" fill="#00c6e2" opacity="0.3"/>
          <rect id="Rectángulo_200-2" data-name="Rectángulo 200" width="6.821" height="0.26" transform="translate(1.525 5.071)" fill="#00c6e2" opacity="0.3"/>
          <rect id="Rectángulo_201-2" data-name="Rectángulo 201" width="6.821" height="0.26" transform="translate(1.525 6.284)" fill="#00c6e2" opacity="0.3"/>
          <rect id="Rectángulo_202-2" data-name="Rectángulo 202" width="6.821" height="0.26" transform="translate(1.525 7.497)" fill="#00c6e2" opacity="0.3"/>
          <rect id="Rectángulo_203-2" data-name="Rectángulo 203" width="6.821" height="0.26" transform="translate(1.525 8.71)" fill="#00c6e2" opacity="0.3"/>
          <rect id="Rectángulo_204-2" data-name="Rectángulo 204" width="6.821" height="0.26" transform="translate(1.525 9.923)" fill="#00c6e2" opacity="0.3"/>
          <rect id="Rectángulo_205-2" data-name="Rectángulo 205" width="6.821" height="0.26" transform="translate(1.525 11.136)" fill="#00c6e2" opacity="0.3"/>
          <rect id="Rectángulo_206-2" data-name="Rectángulo 206" width="6.821" height="0.26" transform="translate(1.525 12.349)" fill="#00c6e2" opacity="0.3"/>
          <rect id="Rectángulo_207-2" data-name="Rectángulo 207" width="9.87" height="14.123" transform="translate(2.187 2.845)" fill="#3f3d56"/>
          <rect id="Rectángulo_208-2" data-name="Rectángulo 208" width="6.821" height="0.26" transform="translate(3.711 5.531)" fill="#00c6e2"/>
          <rect id="Rectángulo_209-2" data-name="Rectángulo 209" width="6.821" height="0.26" transform="translate(3.711 6.744)" fill="#00c6e2"/>
          <rect id="Rectángulo_210-2" data-name="Rectángulo 210" width="6.821" height="0.26" transform="translate(3.711 7.957)" fill="#00c6e2"/>
          <rect id="Rectángulo_211-2" data-name="Rectángulo 211" width="6.821" height="0.26" transform="translate(3.711 9.17)" fill="#00c6e2"/>
          <rect id="Rectángulo_212-2" data-name="Rectángulo 212" width="6.821" height="0.26" transform="translate(3.711 10.383)" fill="#00c6e2"/>
          <rect id="Rectángulo_213-2" data-name="Rectángulo 213" width="6.821" height="0.26" transform="translate(3.711 11.596)" fill="#00c6e2"/>
          <rect id="Rectángulo_214-2" data-name="Rectángulo 214" width="6.821" height="0.26" transform="translate(3.711 12.809)" fill="#00c6e2"/>
          <rect id="Rectángulo_215-2" data-name="Rectángulo 215" width="6.821" height="0.26" transform="translate(3.711 14.022)" fill="#00c6e2"/>
          <path id="Trazado_699-2" data-name="Trazado 699" d="M531.613,144.681a3.816,3.816,0,0,0-2.713-1.773" transform="translate(-518.964 -142.606)" fill="none" stroke="#3f3d56" stroke-miterlimit="10" stroke-width="2"/>
          <path id="Trazado_700-2" data-name="Trazado 700" d="M245.9,29.331l.045.072-.329.237.243.337-.063.053-.3-.411Z" transform="translate(-235.65 -29.331)" fill="#3f3d56"/>
        </g>
        <g id="Grupo_101" data-name="Grupo 101" transform="translate(349.175 101.169)">
          <g id="Grupo_99" data-name="Grupo 99" transform="translate(0 0)">
            <path id="Trazado_741" data-name="Trazado 741" d="M170.753,135.381h0l-7.9,4.636-8.652-4.559-.149-.079.449-9.463,7.813-5.867.086.057,8.086,5.337Z" transform="translate(-154.049 -120.05)" fill="#00c6e2"/>
            <path id="Trazado_742" data-name="Trazado 742" d="M173.332,295.008l-7.9,4.636-8.652-4.559,7.664-5.662Z" transform="translate(-156.63 -279.677)" opacity="0.3"/>
            <path id="Trazado_743" data-name="Trazado 743" d="M306,136.311l-8.891-5.583.535-9.691,8.086,5.337Z" transform="translate(-289.299 -120.98)" opacity="0.1"/>
            <path id="Trazado_744" data-name="Trazado 744" d="M159.4,175.442l-.044-.066,7.9-5.876,8.346,5.514-.04.068-8.3-5.485Z" transform="translate(-159.071 -166.654)" fill="#f2f2f2"/>
            <path id="Trazado_745" data-name="Trazado 745" d="M156.622,235.433l-.043-.066,7.86-5.623.021.012,8.524,5.091-.038.07-8.5-5.079Z" transform="translate(-156.441 -223.43)" fill="#f2f2f2"/>
            <path id="Trazado_746" data-name="Trazado 746" d="M211.582,167.751l-.04-.068,7.922-5.173v-9.916h.076v9.961Z" transform="translate(-208.402 -150.721)" fill="#f2f2f2"/>
            <path id="Trazado_747" data-name="Trazado 747" d="M268.509,199.816l-.04-.068,7.628-5.041v-9.827h.076v9.872Z" transform="translate(-262.22 -181.148)" fill="#f2f2f2"/>
            <path id="Trazado_748" data-name="Trazado 748" d="M254.047,171.227l-8.871-5.194v-.025l.467-9.727.076,0-.466,9.7,8.83,5.17Z" transform="translate(-240.199 -154.196)" fill="#f2f2f2"/>
            <path id="Trazado_749" data-name="Trazado 749" d="M204.667,205.343,195.9,200.5v-.026l.517-9.731.076,0-.516,9.706,8.728,4.82Z" transform="translate(-193.61 -186.674)" fill="#f2f2f2"/>
          </g>
        </g>
        <g id="_25719" data-name="25719" transform="translate(324.016 91.485)">
          <g id="Grupo_100" data-name="Grupo 100" transform="translate(0 0)">
            <path id="Trazado_750" data-name="Trazado 750" d="M56.409,18.216a1.546,1.546,0,0,0-.366-.3c-.024-.016-.089-.054-.195-.115s-.191-.113-.254-.158a1.825,1.825,0,0,1-.248-.231,1.412,1.412,0,0,1-.242-.346,2.818,2.818,0,0,1-.171-.492,3.033,3.033,0,0,1-.094-.686.807.807,0,0,0-.183.577,1.989,1.989,0,0,0,.177.88.986.986,0,0,0,.585.583,2.854,2.854,0,0,1,.608.285.691.691,0,0,1,.3.346q.065.195-.219.419a3.248,3.248,0,0,1-.909.444,7.657,7.657,0,0,0-1.223.516,8.625,8.625,0,0,0-1.057.807,1.685,1.685,0,0,1-1,.431.961.961,0,0,1-.862-.4,1.567,1.567,0,0,1-.213-1.22,5.981,5.981,0,0,0-.011-2.367,2.476,2.476,0,0,1-.083-1.178q.106-.509.331-.594t.484.364c.015.04.051.119.106.237a1.6,1.6,0,0,0,.136.249,2.282,2.282,0,0,0,.159.188.588.588,0,0,0,.266.164,1.594,1.594,0,0,0,.372.061,1.344,1.344,0,0,0,.72-.17,1.461,1.461,0,0,0,.478-.407q.159-.225.319-.431a.564.564,0,0,1,.278-.231q.13-.024.236-.267a2.174,2.174,0,0,0,.142-.674,4.367,4.367,0,0,0-.059-1.026,10.73,10.73,0,0,0-.7-2.319A6.864,6.864,0,0,0,52.83,9.179a6.747,6.747,0,0,1-1.571-2.646,8.044,8.044,0,0,1-.354-2.6,3.9,3.9,0,0,0-.348-1.791A3.506,3.506,0,0,0,49.476.669a3.063,3.063,0,0,0-1.051-.5A4.3,4.3,0,0,0,47.173,0a2.536,2.536,0,0,0-1.228.255,2.658,2.658,0,0,0-1.252,1.269,4.58,4.58,0,0,0-.284,1.839q.047,2.4.189,3.763a9.4,9.4,0,0,1-1.465,2.367,2.983,2.983,0,0,0-.461.656,6.935,6.935,0,0,0-.354.74q-.13.328-.348.947t-.313.874a3.192,3.192,0,0,1-.26.51,3.485,3.485,0,0,0-.284.57,1.954,1.954,0,0,0-.118.631,2.087,2.087,0,0,0,.024.461q.047.292.177.182.532-.413,1.335.486a25.734,25.734,0,0,1,2,2.938q.118.206.236.443a3.451,3.451,0,0,1,.224.631,2.266,2.266,0,0,1,.089.71.908.908,0,0,1-.272.583,1.265,1.265,0,0,1-.762.34,1.908,1.908,0,0,1-.656-.049q-.384-.085-.974-.279t-.874-.267q-.413-.1-1.175-.249t-1-.225q-.4-.109-.437-.316a1.091,1.091,0,0,1,.165-.582,1.621,1.621,0,0,0,.2-.595,1.015,1.015,0,0,0-.012-.267,1.061,1.061,0,0,0-.053-.206q-.03-.073-.1-.219a1.909,1.909,0,0,1-.094-.218q-.212-.51-.059-.692.106-.158.508-.121a1.5,1.5,0,0,0,.98-.182,1.039,1.039,0,0,0,.378-1.287,1.1,1.1,0,0,1-.142.619,1.377,1.377,0,0,1-1.2.571,1.167,1.167,0,0,0-.673.17.443.443,0,0,0-.124.328,1.573,1.573,0,0,0,.053.443q.059.225.118.516a1.937,1.937,0,0,1,.047.486,3.7,3.7,0,0,1-.213.661,1.133,1.133,0,0,0-.083.807.59.59,0,0,0,.2.237,1.278,1.278,0,0,0,.4.176q.254.073.467.115t.59.109q.378.067.6.115a11.928,11.928,0,0,1,1.724.522,5.26,5.26,0,0,0,1.311.376,1.279,1.279,0,0,0,.632-.14,2.265,2.265,0,0,0,.514-.346,2.125,2.125,0,0,1,.632-.364,2.647,2.647,0,0,1,.939-.182q.236-.012.685-.03t.673-.018q1.016,0,1.535.012a1.336,1.336,0,0,1,.555.115.531.531,0,0,1,.26.237,1.565,1.565,0,0,0,.2.31,1.021,1.021,0,0,0,.348.285,2.038,2.038,0,0,0,1.051.176,1.331,1.331,0,0,0,.8-.237,11.568,11.568,0,0,1,.892-.777,6.238,6.238,0,0,1,1.01-.68q.094-.049.319-.158t.378-.188q.154-.079.372-.2a3.029,3.029,0,0,0,.354-.225,3.439,3.439,0,0,0,.277-.237.64.64,0,0,0,.183-.267.719.719,0,0,0,.029-.273A.529.529,0,0,0,56.409,18.216ZM50.078,6.484c.023-.016.039-.022.047-.018a.244.244,0,0,1,.047.049l.065.079c.02.024.047.057.082.1a.5.5,0,0,0,.112.1.44.44,0,0,0,.171.067.344.344,0,0,1,.154.061.244.244,0,0,1,.077.14.344.344,0,0,1-.041.243.169.169,0,0,1-.172.1.908.908,0,0,1-.461-.382Q49.913,6.678,50.078,6.484ZM48.613,1.768a.393.393,0,0,0,.071-.127.284.284,0,0,0,.006-.152.272.272,0,0,1,.012-.158.148.148,0,0,1,.136-.091q.106,0,.283.182l.112.073a.453.453,0,0,1,.106.085.106.106,0,0,1,.029.061.149.149,0,0,1-.106.085.629.629,0,0,1-.177.024.233.233,0,0,0-.106.012.59.59,0,0,0-.177.109q-.083.073-.13.109a.071.071,0,0,1-.095,0c-.031-.049-.043-.083-.035-.1A.615.615,0,0,1,48.613,1.768ZM42.9,10.854a1.192,1.192,0,0,0,.118-.158.734.734,0,0,0,.065-.164,1.006,1.006,0,0,1,.053-.152.057.057,0,0,1,.071-.037c.016,0,.027,0,.036.024l.012.03v.036a.27.27,0,0,1-.006.049.222.222,0,0,1-.018.055.377.377,0,0,0-.024.073c-.008.032-.016.061-.024.085a.61.61,0,0,1-.148.219q-.1.1-.148.085C42.837,10.984,42.841,10.935,42.9,10.854Zm7.724,7.49a9.108,9.108,0,0,1-.16,1.093q-.136.7-.171.935-.248-.012-.283-.188a.856.856,0,0,1,.071-.455,5.2,5.2,0,0,0,.272-1.117q.024-.559-.118-.631-.13-.1-.4.364A2.61,2.61,0,0,1,47.739,19.4a2.1,2.1,0,0,1-1.961-.437.222.222,0,0,0-.236-.03.336.336,0,0,0-.154.115c-.008.016,0,.04.024.073s.061.081.112.146a1.067,1.067,0,0,1,.124.195q.461.825-.083,1.117a3.384,3.384,0,0,0-.083-.856,2.239,2.239,0,0,0-.331-.656,5.591,5.591,0,0,1-.342-.54.731.731,0,0,0,.537-.279.766.766,0,0,0,.165-.522.676.676,0,0,0-.207-.461q-.106-.109-1.1-.929a12.369,12.369,0,0,1-1.228-1.1q-.047-.049-.284-.243a.977.977,0,0,1-.3-.34,2.253,2.253,0,0,1-.118-2.015l.047-.061q.059-.012.012.219a2.479,2.479,0,0,0-.047.68,1.7,1.7,0,0,0,.425,1.141q.248.255.343-.036a1.846,1.846,0,0,0,.065-.716q-.006-.619.018-.838a6.393,6.393,0,0,1,.561-1.711q.466-1.02.738-1.093a1.057,1.057,0,0,1-.136-.765,2.16,2.16,0,0,1,.248-.7q.171-.291.348-.674a1.66,1.66,0,0,0,.177-.686.437.437,0,0,1,.012-.121q.035-.109.3.267a3,3,0,0,0,.744.886.591.591,0,0,0,.579-.012,4.875,4.875,0,0,0,.785-.522,5.294,5.294,0,0,1,.8-.534.834.834,0,0,0,.112-.055c.051-.028.09-.049.118-.061s.063-.03.106-.055.076-.045.1-.061a.831.831,0,0,0,.071-.055.164.164,0,0,0,.047-.061.152.152,0,0,0,.012-.055.159.159,0,0,0-.1-.134.312.312,0,0,0-.207.03A2.723,2.723,0,0,0,48.264,7q-.159.091-.354.206t-.4.212a3.345,3.345,0,0,1-.425.17,1.72,1.72,0,0,1-.425.085,1.063,1.063,0,0,1-.791-.267.9.9,0,0,1-.2-.231q-.012-.048.106-.024a3.1,3.1,0,0,0,.933.024,3.572,3.572,0,0,0,.827-.279q.106-.048.538-.237a6.922,6.922,0,0,1,.667-.261.32.32,0,0,0,.2-.115.177.177,0,0,0,.035-.146.167.167,0,0,0-.077-.1q-.13-.073-.236.1a.6.6,0,0,1-.248.212,2.263,2.263,0,0,1-.348.158q-.159.055-.408.127t-.272.085a3.487,3.487,0,0,1-1.2.182,1.252,1.252,0,0,1-.419-.079.464.464,0,0,1-.219-.158,1.833,1.833,0,0,0-.189-.231,1.307,1.307,0,0,0-.3-.237.181.181,0,0,1-.089-.218.7.7,0,0,1,.183-.328q.012-.012.242-.152a.994.994,0,0,0,.325-.285,1.314,1.314,0,0,1,.366-.352A1.875,1.875,0,0,0,46.1,4.59a1.065,1.065,0,0,0-.112-.473q-.118-.255-.319-.255a.418.418,0,0,0-.4.17.745.745,0,0,0-.106.449.905.905,0,0,0,.112.407q.1.176.183.176.13-.012.083.1a.323.323,0,0,1-.189.17q-.083.024-.183-.164a1.648,1.648,0,0,1-.154-.455,1.775,1.775,0,0,1-.041-.449,1.875,1.875,0,0,1,.195-.722.51.51,0,0,1,.49-.334.63.63,0,0,1,.532.413,2.374,2.374,0,0,1,.189,1.093q.035.085.183.061a1.7,1.7,0,0,1,.39-.006.529.529,0,0,1,.348.127.532.532,0,0,0,.012-.182Q47.1,3.182,48.365,3.085a1.635,1.635,0,0,1,.319.091,1.073,1.073,0,0,1,.278.182.964.964,0,0,1,.248.37,2.77,2.77,0,0,1,.16.607v.449q0,.388-.154.437-.248.085-.354-.006t.023-.322a.93.93,0,0,0-.047-.7.546.546,0,0,0-.6-.364.464.464,0,0,0-.425.328,1.233,1.233,0,0,0-.094.619q.035.3.13.316a2.514,2.514,0,0,1,.419.194,2.29,2.29,0,0,0,.526.218q.461.1.526.3a1.088,1.088,0,0,1-.053.6,1.288,1.288,0,0,0,.107,1.135,3.352,3.352,0,0,0,.277.4A2.921,2.921,0,0,1,50,8.62a8,8,0,0,1,.366,1.25l.089.085a1.213,1.213,0,0,1,.154.182q.077.109.183.3a3.424,3.424,0,0,1,.23.552,8.218,8.218,0,0,1,.23.838,5.986,5.986,0,0,1,.136,1.3,3.93,3.93,0,0,0,.095,1.014q.089.273.455.225a.608.608,0,0,0,.59-.51,4.675,4.675,0,0,0-.638-3.375,3.515,3.515,0,0,0-.673-1.008,2.832,2.832,0,0,1,.851.91,3.654,3.654,0,0,1,.555,1.25q.011.061.065.322c.035.174.055.275.059.3s.02.111.047.249a1.794,1.794,0,0,1,.041.267c0,.041,0,.119.012.237a1.157,1.157,0,0,1-.006.273q-.018.1-.035.261a2.037,2.037,0,0,1-.059.316q-.041.152-.088.334.649.291.65.51a1.4,1.4,0,0,0-.709-.273,1.431,1.431,0,0,0-.856.127.687.687,0,0,0-.408.643.733.733,0,0,0-.6.219,1.355,1.355,0,0,0-.272.856,6.656,6.656,0,0,0,.088,1.177A4.187,4.187,0,0,1,50.621,18.344ZM45.672,4.274a.112.112,0,0,1-.059-.073c0-.073.035-.1.106-.085q.071.024.136.182a.653.653,0,0,1,.03.364.032.032,0,0,1-.036.036q-.13,0-.094-.243Q45.79,4.274,45.672,4.274Zm3.059.194-.023.036c-.063.04-.094.049-.094.024q-.048-.328-.213-.376l-.047-.024q-.083-.073.082-.085.035-.012.106.036a.451.451,0,0,1,.13.152A.47.47,0,0,1,48.731,4.469Z" transform="translate(-38.578 -0.001)"/>
            <path id="Trazado_751" data-name="Trazado 751" d="M217.484,117.824c0,.127.05.18.149.159.079,0,.163-.1.253-.3a.531.531,0,0,1,.462-.332h-.3Q217.484,117.444,217.484,117.824Z" transform="translate(-210.302 -112.451)"/>
            <path id="Trazado_752" data-name="Trazado 752" d="M242.326,116.929a.472.472,0,0,1,.522.143c.149.158.263.227.343.206a.193.193,0,0,0,.089-.285Q243.042,116.58,242.326,116.929Z" transform="translate(-234.182 -111.877)"/>
          </g>
        </g>
        <path id="path4" d="M0,1.913l5.265-.75,0,5.309L0,6.5ZM5.263,7.084l0,5.314L0,11.641V7.048ZM5.9,1.065,12.882,0V6.4L5.9,6.463Zm6.983,6.069,0,6.376L5.9,12.48l-.01-5.358Z" transform="translate(164.603 64.835)" fill="#0078d6"/>
        <path id="Trazado_755" data-name="Trazado 755" d="M13.364,0c7.381,0,13.364,6.658,13.364,14.87s-5.983,14.87-13.364,14.87S0,23.083,0,14.87,5.983,0,13.364,0Z" transform="translate(184.442 86.427) rotate(180)" fill="rgba(188,188,180,0.18)"/>
        <g id="Grupo_102" data-name="Grupo 102" transform="translate(203.868 42.768)">
          <g id="Grupo_99-2" data-name="Grupo 99" transform="translate(0 0)">
            <path id="Trazado_741-2" data-name="Trazado 741" d="M182.689,145.642l0,0-13.547,7.739-14.835-7.61-.256-.131.77-15.8,13.4-9.795.148.095,13.864,8.91Z" transform="translate(-154.049 -120.05)" fill="#00c6e2"/>
            <path id="Trazado_742-2" data-name="Trazado 742" d="M185.161,298.746l-13.547,7.739-14.834-7.61,13.141-9.452Z" transform="translate(-156.523 -273.152)" opacity="0.3"/>
            <path id="Trazado_743-2" data-name="Trazado 743" d="M312.356,146.534l-15.244-9.321.918-16.177,13.864,8.91Z" transform="translate(-283.716 -120.942)" opacity="0.1"/>
            <path id="Trazado_744-2" data-name="Trazado 744" d="M159.436,179.419l-.075-.109,13.546-9.809,14.309,9.2-.069.113-14.236-9.157Z" transform="translate(-158.864 -164.749)" fill="#f2f2f2"/>
            <path id="Trazado_745-2" data-name="Trazado 745" d="M156.652,239.241l-.073-.111,13.477-9.387.035.021,14.615,8.5-.064.116-14.58-8.478Z" transform="translate(-156.342 -219.205)" fill="#f2f2f2"/>
            <path id="Trazado_746-2" data-name="Trazado 746" d="M211.611,177.9l-.069-.114,13.583-8.635V152.594h.13v16.628Z" transform="translate(-206.158 -149.467)" fill="#f2f2f2"/>
            <path id="Trazado_747-2" data-name="Trazado 747" d="M268.538,209.814l-.069-.113,13.078-8.416V184.879h.13v16.479Z" transform="translate(-257.755 -178.651)" fill="#f2f2f2"/>
            <path id="Trazado_748-2" data-name="Trazado 748" d="M260.386,181.23l-15.21-8.67,0-.042.8-16.237.13.007-.8,16.2,15.139,8.63Z" transform="translate(-236.643 -152.8)" fill="#f2f2f2"/>
            <path id="Trazado_749-2" data-name="Trazado 749" d="M210.935,215.116l-15.04-8.086,0-.043.887-16.245.13.008-.884,16.2L211,215Z" transform="translate(-191.977 -183.951)" fill="#f2f2f2"/>
          </g>
        </g>
        <ellipse id="Elipse_197" data-name="Elipse 197" cx="41.752" cy="5.938" rx="41.752" ry="5.938" transform="translate(9.045 162.616)" fill="#3f3d56"/>
        <path id="Trazado_757" data-name="Trazado 757" d="M785.282,661.177l-1.162,7.757s-5.722,3.177-1.7,3.271,22.976,0,22.976,0,3.665,0-2.146-3.365l-1.162-8.131Z" transform="translate(-743.028 -507.624)" fill="#2f2e41"/>
        <path id="Trazado_758" data-name="Trazado 758" d="M781.619,672.121a15.762,15.762,0,0,1,2.508-1.735l1.162-7.757,16.807.017,1.162,7.647a15.242,15.242,0,0,1,2.686,1.847c.746-.178,1.562-.839-2.686-3.3L802.1,660.71l-16.807.467-1.162,7.757S779.319,671.6,781.619,672.121Z" transform="translate(-743.035 -507.624)" opacity="0.1"/>
        <rect id="Rectángulo_230" data-name="Rectángulo 230" width="75.722" height="55.14" rx="18.046" transform="translate(12.707 99.489)" fill="#2f2e41"/>
        <path id="Trazado_759" data-name="Trazado 759" d="M0,0H76.622V49.112H0Z" transform="translate(12.624 99.488)" fill="#2b2a3e"/>
        <path id="Trazado_760" data-name="Trazado 760" d="M685.546,621.322v4.834a2.725,2.725,0,0,1-2.663,2.783h-70.4a2.724,2.724,0,0,1-2.662-2.784v-4.833Z" transform="translate(-597.117 -474.311)" fill="#2f2e41"/>
        <path id="Trazado_761" data-name="Trazado 761" d="M691.066,649.016v.935h-48.1V649.2l.066-.187,1.185-3.364h45.862Z" transform="translate(-620.74 -479.387)" fill="#2f2e41"/>
        <ellipse id="Elipse_198" data-name="Elipse 198" cx="1.699" cy="1.776" rx="1.699" ry="1.776" transform="translate(48.869 149.068)" fill="#f2f2f2"/>
        <path id="Trazado_762" data-name="Trazado 762" d="M691.066,667.466v.934h-48.1v-.748l.066-.187Z" transform="translate(-620.74 -497.838)" opacity="0.1"/>
        <path id="Trazado_763" data-name="Trazado 763" d="M13.364,0c7.381,0,13.364,6.658,13.364,14.87s-5.983,14.87-13.364,14.87S0,23.083,0,14.87,5.983,0,13.364,0Z" transform="translate(57.858 141.95) rotate(180)" fill="rgba(188,188,180,0.18)"/>
        <g id="Grupo_103" data-name="Grupo 103" transform="translate(61.927 119.213)">
          <g id="Grupo_99-3" data-name="Grupo 99" transform="translate(0 0)">
            <path id="Trazado_741-3" data-name="Trazado 741" d="M170.753,135.381h0l-7.9,4.636-8.652-4.559-.149-.079.449-9.463,7.813-5.867.086.057,8.086,5.337Z" transform="translate(-154.049 -120.05)" fill="#00c6e2"/>
            <path id="Trazado_742-3" data-name="Trazado 742" d="M173.332,295.008l-7.9,4.636-8.652-4.559,7.664-5.662Z" transform="translate(-156.63 -279.677)" opacity="0.3"/>
            <path id="Trazado_743-3" data-name="Trazado 743" d="M306,136.311l-8.891-5.583.535-9.691,8.086,5.337Z" transform="translate(-289.299 -120.98)" opacity="0.1"/>
            <path id="Trazado_744-3" data-name="Trazado 744" d="M159.4,175.442l-.044-.066,7.9-5.876,8.346,5.514-.04.068-8.3-5.485Z" transform="translate(-159.071 -166.654)" fill="#f2f2f2"/>
            <path id="Trazado_745-3" data-name="Trazado 745" d="M156.622,235.433l-.043-.066,7.86-5.623.021.012,8.524,5.091-.038.07-8.5-5.079Z" transform="translate(-156.441 -223.43)" fill="#f2f2f2"/>
            <path id="Trazado_746-3" data-name="Trazado 746" d="M211.582,167.751l-.04-.068,7.922-5.173v-9.916h.076v9.961Z" transform="translate(-208.402 -150.721)" fill="#f2f2f2"/>
            <path id="Trazado_747-3" data-name="Trazado 747" d="M268.509,199.816l-.04-.068,7.628-5.041v-9.827h.076v9.872Z" transform="translate(-262.22 -181.148)" fill="#f2f2f2"/>
            <path id="Trazado_748-3" data-name="Trazado 748" d="M254.047,171.227l-8.871-5.194v-.025l.467-9.727.076,0-.466,9.7,8.83,5.17Z" transform="translate(-240.199 -154.196)" fill="#f2f2f2"/>
            <path id="Trazado_749-3" data-name="Trazado 749" d="M204.667,205.343,195.9,200.5v-.026l.517-9.731.076,0-.516,9.706,8.728,4.82Z" transform="translate(-193.61 -186.674)" fill="#f2f2f2"/>
          </g>
        </g>
        <path id="path4-2" data-name="path4" d="M12.5,11.338a7.824,7.824,0,0,1-.815,1.406,7.224,7.224,0,0,1-1.05,1.218,2.078,2.078,0,0,1-1.349.57,3.5,3.5,0,0,1-1.246-.286A3.7,3.7,0,0,0,6.7,13.962a3.831,3.831,0,0,0-1.38.285,3.839,3.839,0,0,1-1.192.3,1.957,1.957,0,0,1-1.38-.585,7.59,7.59,0,0,1-1.1-1.261A8.59,8.59,0,0,1,.488,10.487,7.813,7.813,0,0,1,0,7.849,4.666,4.666,0,0,1,.659,5.329,3.79,3.79,0,0,1,2.04,3.989a3.832,3.832,0,0,1,1.867-.505,4.551,4.551,0,0,1,1.444.322A4.793,4.793,0,0,0,6.5,4.129a7.069,7.069,0,0,0,1.27-.381,4.355,4.355,0,0,1,1.726-.294A3.709,3.709,0,0,1,12.361,4.9a3.045,3.045,0,0,0-1.694,2.784A3.016,3.016,0,0,0,11.719,10a3.47,3.47,0,0,0,1.05.661q-.126.352-.268.674ZM9.576.292a3.034,3.034,0,0,1-.829,2.036A2.869,2.869,0,0,1,6.4,3.439a2.175,2.175,0,0,1-.018-.276,3.122,3.122,0,0,1,.879-2.057A3.377,3.377,0,0,1,8.334.334,3.3,3.3,0,0,1,9.56,0a2.537,2.537,0,0,1,.016.291Z" transform="translate(38.167 119.257)" fill="#fff"/>
        <g id="_304729-607d8b-3" data-name="304729-607d8b" transform="matrix(0.94, 0.342, -0.342, 0.94, 113.062, 181.881)">
          <path id="Trazado_42-3" data-name="Trazado 42" d="M.574.023A2.868,2.868,0,0,0,.1.09L0,.118.058.21Q1.287,2.162,9.466,2.778c.73.055,1.954.125,2.786.16,3.923.165,8.546.143,13.943-.067,1.234-.048,3.365-.153,4.653-.229l.582-.034a.426.426,0,0,1-.035.087,4.8,4.8,0,0,0-.375.991,2.466,2.466,0,0,0,.649.037,5.94,5.94,0,0,0,.733-.064c.479-.072,12.742-2.086,12.8-2.1.088-.026.1-.047.041-.063C45.15,1.47,34.051.124,33.853.113A5.252,5.252,0,0,0,32.572.2c-.053.016-.079.072-.454.982a.4.4,0,0,1-.075.135c-.038.006-1.052.072-1.709.111-.856.051-2.594.136-3.587.176-1.215.048-2.572.089-3.726.111-.487.009-1.438.024-1.607.024l-.562,0c-3.549.028-7.023-.074-9.911-.289A51.225,51.225,0,0,1,1.824.095C1.676.055,1.51.018,1.462.012A5.458,5.458,0,0,0,.845.005C.77.009.649.017.574.023Z" transform="translate(0 0)" fill="#0092d8"/>
        </g>
        <g id="_304729-607d8b-4" data-name="304729-607d8b" transform="matrix(-0.891, 0.454, -0.454, -0.891, 314.351, 171.215)">
          <path id="Trazado_42-4" data-name="Trazado 42" d="M.58,1A2.99,2.99,0,0,0,.1,1.083l-.1.03.056.09Q1.228,3.109,9.424,3.455c.732.031,1.958.061,2.793.069C16.153,3.56,20.8,3.387,26.225,3c1.241-.088,3.385-.262,4.681-.381l.586-.053a.452.452,0,0,1-.038.088,5.068,5.068,0,0,0-.409,1,2.47,2.47,0,0,0,.651.015,6.13,6.13,0,0,0,.739-.088c.484-.087,12.866-2.5,12.92-2.513.089-.029.1-.05.043-.064C45.31.984,34.2.005,34.005,0a5.406,5.406,0,0,0-1.29.133c-.054.018-.082.074-.487.994a.43.43,0,0,1-.08.137c-.038.007-1.059.106-1.72.166-.862.079-2.609.22-3.609.292-1.222.088-2.586.173-3.746.233-.489.025-1.445.071-1.615.077l-.564.022c-3.566.144-7.052.156-9.946.036A50.5,50.5,0,0,1,1.833,1.031C1.686,1,1.52.965,1.472.961a5.526,5.526,0,0,0-.62.013C.777.98.656.992.58,1Z" transform="translate(0 0)" fill="#0092d8"/>
        </g>
        <g id="_304729-607d8b-5" data-name="304729-607d8b" transform="matrix(0.891, -0.454, 0.454, 0.891, 292.912, 196.544)">
          <path id="Trazado_42-5" data-name="Trazado 42" d="M.58,1A2.99,2.99,0,0,0,.1,1.083l-.1.03.056.09Q1.228,3.109,9.424,3.455c.732.031,1.958.061,2.793.069C16.153,3.56,20.8,3.387,26.225,3c1.241-.088,3.385-.262,4.681-.381l.586-.053a.451.451,0,0,1-.038.088,5.068,5.068,0,0,0-.409,1,2.47,2.47,0,0,0,.651.015,6.13,6.13,0,0,0,.739-.088c.484-.087,12.866-2.5,12.92-2.513.089-.029.1-.05.043-.064C45.31.984,34.2.005,34.005,0a5.406,5.406,0,0,0-1.29.133c-.054.018-.082.074-.487.994a.43.43,0,0,1-.08.137c-.038.007-1.059.106-1.72.166-.862.079-2.609.22-3.609.292-1.222.088-2.586.173-3.746.233-.489.025-1.445.071-1.615.077l-.564.022c-3.566.144-7.052.156-9.946.036A50.5,50.5,0,0,1,1.833,1.031C1.686,1,1.52.965,1.472.961a5.526,5.526,0,0,0-.62.013C.777.98.656.992.58,1Z" transform="translate(0 0)" fill="#0092d8"/>
        </g>
        <g id="_304729-607d8b-6" data-name="304729-607d8b" transform="matrix(-0.94, -0.342, 0.342, -0.94, 146.022, 179.092)">
          <path id="Trazado_42-6" data-name="Trazado 42" d="M.574.023A2.868,2.868,0,0,0,.1.09L0,.118.058.21Q1.287,2.162,9.466,2.778c.73.055,1.954.125,2.786.16,3.923.165,8.546.143,13.943-.067,1.234-.048,3.365-.153,4.653-.229l.582-.034a.427.427,0,0,1-.035.087,4.8,4.8,0,0,0-.375.991,2.466,2.466,0,0,0,.649.037,5.94,5.94,0,0,0,.733-.064c.479-.072,12.742-2.086,12.8-2.1.088-.026.1-.047.041-.063C45.15,1.47,34.051.124,33.853.113A5.252,5.252,0,0,0,32.572.2c-.053.016-.079.072-.454.982a.4.4,0,0,1-.075.135c-.038.006-1.052.072-1.709.111-.856.051-2.594.136-3.587.176-1.215.048-2.572.089-3.726.111-.487.009-1.438.024-1.607.024l-.562,0c-3.549.028-7.023-.074-9.911-.289A51.225,51.225,0,0,1,1.824.095C1.676.055,1.51.018,1.462.012A5.458,5.458,0,0,0,.845.005C.77.009.649.017.574.023Z" transform="translate(0 0)" fill="#0092d8"/>
        </g>
        <g id="_304729-607d8b-7" data-name="304729-607d8b" transform="matrix(0.94, 0.342, -0.342, 0.94, 113.062, 181.881)">
          <path id="Trazado_42-7" data-name="Trazado 42" d="M.574.023A2.868,2.868,0,0,0,.1.09L0,.118.058.21Q1.287,2.162,9.466,2.778c.73.055,1.954.125,2.786.16,3.923.165,8.546.143,13.943-.067,1.234-.048,3.365-.153,4.653-.229l.582-.034a.426.426,0,0,1-.035.087,4.8,4.8,0,0,0-.375.991,2.466,2.466,0,0,0,.649.037,5.94,5.94,0,0,0,.733-.064c.479-.072,12.742-2.086,12.8-2.1.088-.026.1-.047.041-.063C45.15,1.47,34.051.124,33.853.113A5.252,5.252,0,0,0,32.572.2c-.053.016-.079.072-.454.982a.4.4,0,0,1-.075.135c-.038.006-1.052.072-1.709.111-.856.051-2.594.136-3.587.176-1.215.048-2.572.089-3.726.111-.487.009-1.438.024-1.607.024l-.562,0c-3.549.028-7.023-.074-9.911-.289A51.225,51.225,0,0,1,1.824.095C1.676.055,1.51.018,1.462.012A5.458,5.458,0,0,0,.845.005C.77.009.649.017.574.023Z" transform="translate(0 0)" fill="#0092d8"/>
        </g>
        <g id="_304729-607d8b-8" data-name="304729-607d8b" transform="translate(213.794 151.77) rotate(-93)">
          <path id="Trazado_42-8" data-name="Trazado 42" d="M.363.538A1.594,1.594,0,0,0,.065.6L0,.618.035.686q.743,1.43,5.889,1.74c.459.028,1.229.058,1.753.069,2.47.052,5.384-.049,8.789-.3.778-.058,2.124-.175,2.937-.255L19.77,1.9a.371.371,0,0,1-.023.065,4.187,4.187,0,0,0-.252.744,1.309,1.309,0,0,0,.408.015,3.243,3.243,0,0,0,.463-.061c.3-.062,8.064-1.783,8.1-1.8.056-.021.064-.036.027-.048C28.436.806,21.462.006,21.337,0a2.86,2.86,0,0,0-.809.092c-.034.013-.051.055-.3.739a.33.33,0,0,1-.05.1c-.024.005-.664.072-1.079.113-.54.053-1.637.148-2.264.2-.767.058-1.623.113-2.35.15-.307.016-.907.044-1.013.047l-.354.013c-2.237.085-4.425.072-6.242-.036A27.069,27.069,0,0,1,1.15.568,2.156,2.156,0,0,0,.923.514,2.914,2.914,0,0,0,.534.519Z" transform="translate(0 0)" fill="#0092d8"/>
        </g>
        <g id="_304729-607d8b-9" data-name="304729-607d8b" transform="translate(202.987 133.165) rotate(87)">
          <path id="Trazado_42-9" data-name="Trazado 42" d="M.363.538A1.594,1.594,0,0,0,.065.6L0,.618.035.686q.743,1.43,5.889,1.74c.459.028,1.229.058,1.753.069,2.47.052,5.384-.049,8.789-.3.778-.058,2.124-.175,2.937-.255L19.77,1.9a.37.37,0,0,1-.023.065,4.187,4.187,0,0,0-.252.744,1.309,1.309,0,0,0,.408.015,3.243,3.243,0,0,0,.463-.061c.3-.062,8.064-1.783,8.1-1.8.056-.021.064-.036.027-.048C28.436.806,21.462.006,21.337,0a2.86,2.86,0,0,0-.809.092c-.034.013-.051.055-.3.739a.331.331,0,0,1-.05.1c-.024.005-.664.072-1.079.113-.54.053-1.637.148-2.264.2-.767.058-1.623.113-2.35.15-.307.016-.907.044-1.013.047l-.354.013c-2.237.085-4.425.072-6.242-.036A27.068,27.068,0,0,1,1.15.568,2.156,2.156,0,0,0,.923.514,2.914,2.914,0,0,0,.534.519Z" transform="translate(0 0)" fill="#0092d8"/>
        </g>
        <g id="_304729-607d8b-10" data-name="304729-607d8b" transform="translate(213.794 151.77) rotate(-93)">
          <path id="Trazado_42-10" data-name="Trazado 42" d="M.363.538A1.594,1.594,0,0,0,.065.6L0,.618.035.686q.743,1.43,5.889,1.74c.459.028,1.229.058,1.753.069,2.47.052,5.384-.049,8.789-.3.778-.058,2.124-.175,2.937-.255L19.77,1.9a.371.371,0,0,1-.023.065,4.187,4.187,0,0,0-.252.744,1.309,1.309,0,0,0,.408.015,3.243,3.243,0,0,0,.463-.061c.3-.062,8.064-1.783,8.1-1.8.056-.021.064-.036.027-.048C28.436.806,21.462.006,21.337,0a2.86,2.86,0,0,0-.809.092c-.034.013-.051.055-.3.739a.33.33,0,0,1-.05.1c-.024.005-.664.072-1.079.113-.54.053-1.637.148-2.264.2-.767.058-1.623.113-2.35.15-.307.016-.907.044-1.013.047l-.354.013c-2.237.085-4.425.072-6.242-.036A27.069,27.069,0,0,1,1.15.568,2.156,2.156,0,0,0,.923.514,2.914,2.914,0,0,0,.534.519Z" transform="translate(0 0)" fill="#0092d8"/>
        </g>
        <g id="_304729-607d8b-11" data-name="304729-607d8b" transform="translate(202.987 133.165) rotate(87)">
          <path id="Trazado_42-11" data-name="Trazado 42" d="M.363.538A1.594,1.594,0,0,0,.065.6L0,.618.035.686q.743,1.43,5.889,1.74c.459.028,1.229.058,1.753.069,2.47.052,5.384-.049,8.789-.3.778-.058,2.124-.175,2.937-.255L19.77,1.9a.37.37,0,0,1-.023.065,4.187,4.187,0,0,0-.252.744,1.309,1.309,0,0,0,.408.015,3.243,3.243,0,0,0,.463-.061c.3-.062,8.064-1.783,8.1-1.8.056-.021.064-.036.027-.048C28.436.806,21.462.006,21.337,0a2.86,2.86,0,0,0-.809.092c-.034.013-.051.055-.3.739a.331.331,0,0,1-.05.1c-.024.005-.664.072-1.079.113-.54.053-1.637.148-2.264.2-.767.058-1.623.113-2.35.15-.307.016-.907.044-1.013.047l-.354.013c-2.237.085-4.425.072-6.242-.036A27.068,27.068,0,0,1,1.15.568,2.156,2.156,0,0,0,.923.514,2.914,2.914,0,0,0,.534.519Z" transform="translate(0 0)" fill="#0092d8"/>
        </g>
        <path id="Trazado_1015" data-name="Trazado 1015" d="M13.364,0c7.381,0,13.364,6.658,13.364,14.87s-5.983,14.87-13.364,14.87S0,23.083,0,14.87,5.983,0,13.364,0Z" transform="translate(184.442 86.427) rotate(180)" fill="rgba(188,188,180,0.18)"/>
        <path id="path4-3" data-name="path4" d="M12.5,11.338a7.824,7.824,0,0,1-.815,1.406,7.224,7.224,0,0,1-1.05,1.218,2.078,2.078,0,0,1-1.349.57,3.5,3.5,0,0,1-1.246-.286A3.7,3.7,0,0,0,6.7,13.962a3.831,3.831,0,0,0-1.38.285,3.839,3.839,0,0,1-1.192.3,1.957,1.957,0,0,1-1.38-.585,7.59,7.59,0,0,1-1.1-1.261A8.59,8.59,0,0,1,.488,10.487,7.813,7.813,0,0,1,0,7.849,4.666,4.666,0,0,1,.659,5.329,3.79,3.79,0,0,1,2.04,3.989a3.832,3.832,0,0,1,1.867-.505,4.551,4.551,0,0,1,1.444.322A4.793,4.793,0,0,0,6.5,4.129a7.069,7.069,0,0,0,1.27-.381,4.355,4.355,0,0,1,1.726-.294A3.709,3.709,0,0,1,12.361,4.9a3.045,3.045,0,0,0-1.694,2.784A3.016,3.016,0,0,0,11.719,10a3.47,3.47,0,0,0,1.05.661q-.126.352-.268.674ZM9.576.292a3.034,3.034,0,0,1-.829,2.036A2.869,2.869,0,0,1,6.4,3.439a2.175,2.175,0,0,1-.018-.276,3.122,3.122,0,0,1,.879-2.057A3.377,3.377,0,0,1,8.334.334,3.3,3.3,0,0,1,9.56,0a2.537,2.537,0,0,1,.016.291Z" transform="translate(38.167 119.257)" fill="#fff"/>
        <path id="path4-4" data-name="path4" d="M12.5,11.338a7.824,7.824,0,0,1-.815,1.406,7.224,7.224,0,0,1-1.05,1.218,2.078,2.078,0,0,1-1.349.57,3.5,3.5,0,0,1-1.246-.286A3.7,3.7,0,0,0,6.7,13.962a3.831,3.831,0,0,0-1.38.285,3.839,3.839,0,0,1-1.192.3,1.957,1.957,0,0,1-1.38-.585,7.59,7.59,0,0,1-1.1-1.261A8.59,8.59,0,0,1,.488,10.487,7.813,7.813,0,0,1,0,7.849,4.666,4.666,0,0,1,.659,5.329,3.79,3.79,0,0,1,2.04,3.989a3.832,3.832,0,0,1,1.867-.505,4.551,4.551,0,0,1,1.444.322A4.793,4.793,0,0,0,6.5,4.129a7.069,7.069,0,0,0,1.27-.381,4.355,4.355,0,0,1,1.726-.294A3.709,3.709,0,0,1,12.361,4.9a3.045,3.045,0,0,0-1.694,2.784A3.016,3.016,0,0,0,11.719,10a3.47,3.47,0,0,0,1.05.661q-.126.352-.268.674ZM9.576.292a3.034,3.034,0,0,1-.829,2.036A2.869,2.869,0,0,1,6.4,3.439a2.175,2.175,0,0,1-.018-.276,3.122,3.122,0,0,1,.879-2.057A3.377,3.377,0,0,1,8.334.334,3.3,3.3,0,0,1,9.56,0a2.537,2.537,0,0,1,.016.291Z" transform="translate(38.167 119.257)" fill="#fff"/>
        <path id="Trazado_1141" data-name="Trazado 1141" d="M50.825,0c28.07,0,50.825,24.444,50.825,54.6s-22.755,54.6-50.825,54.6S0,84.75,0,54.6,22.755,0,50.825,0Z" transform="translate(400 315.532) rotate(180)" fill="rgba(206,246,222,0.6)"/>
        <g id="Grupo_389" data-name="Grupo 389" transform="translate(316.048 236.181)">
          <g id="undraw_cloud_files_wmo8-2" data-name="undraw_cloud_files_wmo8" transform="translate(0 0)">
            <g id="Grupo_85" data-name="Grupo 85" transform="translate(0 0)">
              <path id="Trazado_690" data-name="Trazado 690" d="M397.414,281.081h-24.9v-.165a.442.442,0,0,0-.383-.483H361.613a.442.442,0,0,0-.383.483v.165h-25a1.944,1.944,0,0,0-1.684,2.126v43.038a1.944,1.944,0,0,0,1.684,2.126h61.182a1.944,1.944,0,0,0,1.684-2.126V283.207A1.944,1.944,0,0,0,397.414,281.081Z" transform="translate(-331.419 -280.434)" fill="#3f3d56"/>
              <path id="Trazado_691" data-name="Trazado 691" d="M358.275,314.131a.182.182,0,0,0-.157.2v40.822a.182.182,0,0,0,.157.2h58.5a.182.182,0,0,0,.157-.2V314.33a.182.182,0,0,0-.157-.2Z" transform="translate(-352.122 -308.958)" fill="#e2e4e5"/>
              <ellipse id="Elipse_192" data-name="Elipse 192" cx="0.616" cy="0.777" rx="0.616" ry="0.777" transform="translate(34.738 1.684)" fill="#00c6e2"/>
              <path id="Trazado_692" data-name="Trazado 692" d="M377.606,569.2h-5.859v-.764a.08.08,0,0,0-.084-.076h-2.009a.08.08,0,0,0-.084.076v.764h-1.255v-.764a.08.08,0,0,0-.084-.076h-2.009a.08.08,0,0,0-.084.076v.764h-1.255v-.764a.08.08,0,0,0-.084-.076h-2.009a.08.08,0,0,0-.084.076v.764h-1.255v-.764a.08.08,0,0,0-.084-.076H359.36a.08.08,0,0,0-.084.076v.764h-1.255v-.764a.08.08,0,0,0-.084-.076h-2.009a.08.08,0,0,0-.084.076v.764h-1.255v-.764a.08.08,0,0,0-.084-.076H352.5a.08.08,0,0,0-.084.076v.764h-1.255v-.764a.08.08,0,0,0-.084-.076H335.338a.08.08,0,0,0-.084.076v.764H334v-.764a.08.08,0,0,0-.084-.076h-2.009a.08.08,0,0,0-.084.076v.764h-1.255v-.764a.08.08,0,0,0-.084-.076h-2.009a.08.08,0,0,0-.084.076v.764h-1.255v-.764a.08.08,0,0,0-.084-.076h-2.009a.08.08,0,0,0-.084.076v.764H323.7v-.764a.08.08,0,0,0-.084-.076h-2.009a.08.08,0,0,0-.084.076v.764h-1.255v-.764a.08.08,0,0,0-.084-.076H318.18a.08.08,0,0,0-.084.076v.764H316.84v-.764a.08.08,0,0,0-.084-.076h-2.009a.08.08,0,0,0-.084.076v.764h-3.85a1.923,1.923,0,0,0-2.009,1.823v.824a1.923,1.923,0,0,0,2.009,1.823h66.792a1.923,1.923,0,0,0,2.009-1.823v-.824A1.923,1.923,0,0,0,377.606,569.2Z" transform="translate(-308.805 -524.164)" fill="#3f3d56"/>
              <path id="Trazado_701" data-name="Trazado 701" d="M-186.483-.7h21.377a.472.472,0,0,1,.408.516V25.775a.472.472,0,0,1-.408.516h-21.377c-.226,0-26.277.285-26.277,0V-.7C-212.76-.983-186.709-.7-186.483-.7Z" transform="translate(224.137 11.165)" fill="#fff"/>
            </g>
          </g>
          <g id="Grupo_107" data-name="Grupo 107" transform="translate(15.733 14.806)" opacity="0.8">
            <path id="Trazado_265" data-name="Trazado 265" d="M330.04,240.63h41.25m-37.586,0s1.973.345.951-2.324,2.772-2.164,2.772-2.164m9.415,4.488s1.973-.345.951,2.325,2.772,2.164,2.772,2.164m15.193-4.489s-1.973-.345-.951,2.325-2.772,2.164-2.772,2.164m0,0H351.151" transform="translate(-328.017 -226.659)" fill="none" stroke="#3f3d56" stroke-miterlimit="10" stroke-width="3"/>
            <ellipse id="Elipse_98" data-name="Elipse 98" cx="1.204" cy="1.519" rx="1.204" ry="1.519" transform="translate(0.819 12.451)" fill="#24527a"/>
            <ellipse id="Elipse_99" data-name="Elipse 99" cx="1.204" cy="1.519" rx="1.204" ry="1.519" transform="translate(8.227 7.94)" fill="#3acc6c"/>
            <ellipse id="Elipse_100" data-name="Elipse 100" cx="1.204" cy="1.519" rx="1.204" ry="1.519" transform="translate(8.227 12.451)" fill="#24527a"/>
            <ellipse id="Elipse_101" data-name="Elipse 101" cx="1.204" cy="1.519" rx="1.204" ry="1.519" transform="translate(13.007 12.451)" fill="#24527a"/>
            <ellipse id="Elipse_102" data-name="Elipse 102" cx="1.204" cy="1.519" rx="1.204" ry="1.519" transform="translate(21.364 16.916)" fill="#ff6584"/>
            <ellipse id="Elipse_103" data-name="Elipse 103" cx="1.204" cy="1.519" rx="1.204" ry="1.519" transform="translate(27.678 16.916)" fill="#ff6584"/>
            <ellipse id="Elipse_104" data-name="Elipse 104" cx="1.204" cy="1.519" rx="1.204" ry="1.519" transform="translate(27.349 12.451)" fill="#24527a"/>
            <ellipse id="Elipse_105" data-name="Elipse 105" cx="1.204" cy="1.519" rx="1.204" ry="1.519" transform="translate(41.764 12.451)" fill="#24527a"/>
            <ellipse id="Elipse_106" data-name="Elipse 106" cx="1.204" cy="1.519" rx="1.204" ry="1.519" transform="translate(35.867 12.451)" fill="#24527a"/>
            <path id="Trazado_266" data-name="Trazado 266" d="M299.38,122.66h4.041v3.513H299.38Z" transform="translate(-299.38 -122.66)" fill="#24527a"/>
            <path id="Trazado_267" data-name="Trazado 267" d="M411.9,122.66h4.041v3.513H411.9Z" transform="translate(-404.474 -122.66)" fill="#3acc6c"/>
            <path id="Trazado_268" data-name="Trazado 268" d="M610.48,122.66h4.041v3.513H610.48Z" transform="translate(-589.949 -122.66)" fill="#ff6584"/>
          </g>
        </g>
        <g id="_304729-607d8b-12" data-name="304729-607d8b" transform="matrix(-0.995, -0.105, 0.105, -0.995, 308.123, 266.142)">
          <path id="Trazado_42-12" data-name="Trazado 42" d="M.6.007A2.177,2.177,0,0,0,.106.068L0,.1.068.234q1.424,2.849,10.07,4.3c.772.13,2.064.316,2.942.425a138.114,138.114,0,0,0,14.663.895c1.295.02,3.53.023,4.88.006l.61-.007a.68.68,0,0,1-.031.121,7.786,7.786,0,0,0-.328,1.375,2.028,2.028,0,0,0,.685.1,4.553,4.553,0,0,0,.767-.039c.5-.067,13.265-2.045,13.32-2.064.09-.03.1-.059.039-.086C47.59,5.219,35.823,2.526,35.614,2.5a4.048,4.048,0,0,0-1.342.039c-.055.019-.078.1-.411,1.357a.555.555,0,0,1-.07.186c-.039.006-1.1.027-1.79.036-.9.011-2.719.008-3.762-.006-1.275-.018-2.7-.057-3.912-.107-.512-.022-1.512-.069-1.689-.08l-.59-.034A100.017,100.017,0,0,1,11.6,2.773,44.487,44.487,0,0,1,1.917.2,3.731,3.731,0,0,0,1.531.054,4.344,4.344,0,0,0,.881,0C.8,0,.676,0,.6.007Z" transform="translate(0 0)" fill="#98edb9"/>
        </g>
      </g>
    </g>
  </g>
</svg>
