<svg xmlns="http://www.w3.org/2000/svg" width="2885.391" height="2601.381" viewBox="0 0 2885.391 2601.381">
  <g id="Grupo_108" data-name="Grupo 108" transform="translate(-3822.303 10287.381)">
    <path id="Trazado_770" data-name="Trazado 770" d="M344.5,0C534.762,0,689,158.491,689,354S534.762,708,344.5,708,0,549.509,0,354,154.238,0,344.5,0Z" transform="translate(6467.303 -9181) rotate(180)" fill="#e0f8fc"/>
    <path id="Trazado_764" data-name="Trazado 764" d="M344.5,0C534.762,0,689,158.491,689,354S534.762,708,344.5,708,0,549.509,0,354,154.238,0,344.5,0Z" transform="translate(4511.303 -9065) rotate(180)" fill="#e0f8fc"/>
    <ellipse id="Elipse_155" data-name="Elipse 155" cx="283" cy="38.5" rx="283" ry="38.5" transform="translate(5839.609 -9362)" fill="#3f3d56"/>
    <path id="Trazado_430" data-name="Trazado 430" d="M810.1,663.74l-7.878,50.3s-38.782,20.6-11.513,21.209,155.733,0,155.733,0,24.845,0-14.543-21.815l-7.878-52.719Z" transform="translate(5254.609 -10084.5)" fill="#2f2e41"/>
    <path id="Trazado_431" data-name="Trazado 431" d="M785.219,734.7c6.193-5.51,17-11.252,17-11.252l7.878-50.3,113.922.107,7.878,49.582c9.185,5.087,14.875,8.987,18.2,11.978,5.059-1.154,10.587-5.444-18.2-21.389l-7.878-52.719L810.1,663.74l-7.877,50.3S769.63,731.35,785.219,734.7Z" transform="translate(5254.609 -10084.5)" opacity="0.1"/>
    <rect id="Rectángulo_64" data-name="Rectángulo 64" width="513.253" height="357.52" rx="18.046" transform="translate(5864.433 -9771.312)" fill="#2f2e41"/>
    <path id="Trazado_753" data-name="Trazado 753" d="M0,0H478.713V267.837H0Z" transform="translate(5881.703 -9752.224)" fill="#2b2a3e"/>
    <path id="Trazado_432" data-name="Trazado 432" d="M1123.077,621.322v31.341a18.044,18.044,0,0,1-18.048,18.046H627.87a18.044,18.044,0,0,1-18.046-18.048V621.322Z" transform="translate(5254.609 -10084.5)" fill="#2f2e41"/>
    <path id="Trazado_433" data-name="Trazado 433" d="M968.978,667.466v6.06H642.968v-4.848l.449-1.212,8.035-21.815h310.86Z" transform="translate(5286 -9984)" fill="#2f2e41"/>
    <path id="Trazado_434" data-name="Trazado 434" d="M1125.828,762.034c-.594,2.539-2.836,5.217-7.9,7.75-18.179,9.089-55.143-2.424-55.143-2.424s-28.48-4.848-28.48-17.573a22.727,22.727,0,0,1,2.5-1.485c7.643-4.044,32.984-14.021,77.918.422a18.741,18.741,0,0,1,8.541,5.6C1125.079,756.454,1126.507,759.157,1125.828,762.034Z" transform="translate(5254.609 -10084.5)" fill="#2f2e41"/>
    <path id="Trazado_435" data-name="Trazado 435" d="M1125.828,762.034c-22.251,8.526-42.084,9.162-62.439-4.975-10.265-7.126-19.591-8.89-26.59-8.756,7.643-4.044,32.984-14.021,77.918.422a18.74,18.74,0,0,1,8.541,5.6C1125.079,756.454,1126.507,759.157,1125.828,762.034Z" transform="translate(5254.609 -10084.5)" opacity="0.1"/>
    <ellipse id="Elipse_158" data-name="Elipse 158" cx="7.878" cy="2.424" rx="7.878" ry="2.424" transform="translate(6344.661 -9332.289)" fill="#f2f2f2"/>
    <circle id="Elipse_159" data-name="Elipse 159" cx="11.513" cy="11.513" r="11.513" transform="translate(6109.546 -9449.847)" fill="#f2f2f2"/>
    <path id="Trazado_436" data-name="Trazado 436" d="M968.978,667.466v6.06H642.968v-4.848l.449-1.212Z" transform="translate(5286 -9984)" opacity="0.1"/>
    <path id="Trazado_754" data-name="Trazado 754" d="M90.584,0c50.028,0,90.584,43.168,90.584,96.418s-40.556,96.418-90.584,96.418S0,149.668,0,96.418,40.556,0,90.584,0Z" transform="translate(6170.471 -9524) rotate(180)" fill="rgba(255,255,255,0.97)"/>
    <path id="Trazado_666" data-name="Trazado 666" d="M396.793,0C615.936,0,793.586,178.5,793.586,398.69s-177.65,398.69-396.793,398.69S0,618.881,0,398.69,177.65,0,396.793,0Z" transform="translate(5519.303 -9490) rotate(180)" fill="rgba(0,195,224,0.11)"/>
    <path id="Trazado_702" data-name="Trazado 702" d="M344.5,0C534.762,0,689,158.491,689,354S534.762,708,344.5,708,0,549.509,0,354,154.238,0,344.5,0Z" transform="translate(4826.303 -8209) rotate(180)" fill="#e0f8fc"/>
    <path id="Trazado_703" data-name="Trazado 703" d="M344.5,0C534.762,0,689,158.491,689,354S534.762,708,344.5,708,0,549.509,0,354,154.238,0,344.5,0Z" transform="translate(5668.303 -8538) rotate(180)" fill="rgba(0,195,224,0.11)"/>
    <g id="Grupo_87" data-name="Grupo 87" transform="translate(-431 -6346)">
      <ellipse id="Elipse_177" data-name="Elipse 177" cx="425" cy="33" rx="425" ry="33" transform="translate(5142 -3223.364)" fill="#387aa4" opacity="0.1"/>
      <path id="Trazado_609" data-name="Trazado 609" d="M511.81,669.66l-178.19-2.28.52-4.57,8.62-75.39H499.24l11.52,75.39.88,5.71Z" transform="translate(5142 -3859.034)" fill="#d0d2d5"/>
      <path id="Trazado_610" data-name="Trazado 610" d="M511.64,668.52H422.71l-89.09-1.14.52-4.57H510.76Z" transform="translate(5142 -3859.034)" opacity="0.1"/>
      <path id="Trazado_611" data-name="Trazado 611" d="M303.92,663.95H540.37v5.71H303.92Z" transform="translate(5142 -3859.034)" fill="#d0d2d5"/>
      <path id="Trazado_612" data-name="Trazado 612" d="M765.96,134.62a14.87,14.87,0,0,0-14.8-15H90.84a14.88,14.88,0,0,0-14.8,15V534.88H765.96Z" transform="translate(5142 -3859.034)" fill="#3f3d56"/>
      <path id="Trazado_613" data-name="Trazado 613" d="M76.04,530.88v46.89a14.8,14.8,0,0,0,14.8,14.8H751.16a14.8,14.8,0,0,0,14.8-14.8V530.88Z" transform="translate(5142 -3859.034)" fill="#d0d2d5"/>
      <path id="Trazado_614" data-name="Trazado 614" d="M104.6,144.8H740.83V504.61H104.6Z" transform="translate(5142 -3859.034)" fill="#2f2e41"/>
      <path id="Trazado_615" data-name="Trazado 615" d="M510.94,592.56l-71.09,71.39,10.91-71.39Z" transform="translate(5033 -3859.034)" opacity="0.1"/>
    </g>
    <path id="Trazado_704" data-name="Trazado 704" d="M174.585,292.839s-15.416-.475-20.061-3.783-23.713-7.259-24.866-1.953-23.167,26.388-5.763,26.529,40.439-2.711,45.076-5.535S174.585,292.839,174.585,292.839Z" transform="translate(5149.494 -9195.5)" fill="#a8a8a8"/>
    <path id="Trazado_705" data-name="Trazado 705" d="M123.581,311.785c17.4.14,40.439-2.711,45.076-5.535,3.531-2.151,4.938-9.869,5.409-13.43.326.014.515.02.515.02s-.976,12.433-5.613,15.257-27.672,5.676-45.076,5.535c-5.024-.041-6.759-1.828-6.664-4.475C117.926,310.756,119.842,311.755,123.581,311.785Z" transform="translate(5149.498 -9195.5)" opacity="0.2"/>
    <rect id="Rectángulo_216" data-name="Rectángulo 216" width="208" height="242" transform="translate(5093.303 -8936)" fill="#2f2e41"/>
    <rect id="Rectángulo_217" data-name="Rectángulo 217" width="250" height="86" transform="translate(5072.303 -8960)" fill="#3f3d56"/>
    <rect id="Rectángulo_218" data-name="Rectángulo 218" width="250" height="86" transform="translate(5072.303 -8858)" fill="#3f3d56"/>
    <rect id="Rectángulo_219" data-name="Rectángulo 219" width="250" height="86" transform="translate(5072.303 -8756)" fill="#3f3d56"/>
    <rect id="Rectángulo_220" data-name="Rectángulo 220" width="16" height="16" transform="translate(5122.303 -8945)" fill="#6c63ff" opacity="0.4"/>
    <rect id="Rectángulo_221" data-name="Rectángulo 221" width="16" height="16" transform="translate(5122.303 -8844)" fill="#6c63ff" opacity="0.4"/>
    <path id="Trazado_706" data-name="Trazado 706" d="M174.585,292.839s-15.416-.475-20.061-3.783-23.713-7.259-24.866-1.953-23.167,26.388-5.763,26.529,40.439-2.711,45.076-5.535S174.585,292.839,174.585,292.839Z" transform="translate(5443.494 -9254.5)" fill="#a8a8a8"/>
    <path id="Trazado_707" data-name="Trazado 707" d="M123.581,311.785c17.4.14,40.439-2.711,45.076-5.535,3.531-2.151,4.938-9.869,5.409-13.43.326.014.515.02.515.02s-.976,12.433-5.613,15.257-27.672,5.676-45.076,5.535c-5.024-.041-6.759-1.828-6.664-4.475C117.926,310.756,119.842,311.755,123.581,311.785Z" transform="translate(5443.498 -9254.5)" opacity="0.2"/>
    <rect id="Rectángulo_222" data-name="Rectángulo 222" width="208" height="242" transform="translate(5387.303 -8995)" fill="#2f2e41"/>
    <rect id="Rectángulo_223" data-name="Rectángulo 223" width="250" height="86" transform="translate(5366.303 -9019)" fill="#3f3d56"/>
    <rect id="Rectángulo_224" data-name="Rectángulo 224" width="250" height="86" transform="translate(5366.303 -8917)" fill="#3f3d56"/>
    <rect id="Rectángulo_225" data-name="Rectángulo 225" width="250" height="86" transform="translate(5366.303 -8815)" fill="#3f3d56"/>
    <rect id="Rectángulo_226" data-name="Rectángulo 226" width="16" height="16" transform="translate(5416.303 -9004)" fill="#6c63ff" opacity="0.4"/>
    <rect id="Rectángulo_227" data-name="Rectángulo 227" width="16" height="16" transform="translate(5416.303 -8903)" fill="#6c63ff" opacity="0.4"/>
    <rect id="Rectángulo_228" data-name="Rectángulo 228" width="16" height="16" transform="translate(5416.303 -8802)" fill="#6c63ff" opacity="0.4"/>
    <g id="Grupo_88" data-name="Grupo 88" transform="translate(5122.303 -9064.967)">
      <path id="_1" data-name="1" d="M70.4,19.814,35.708,0,1.032,20.019l34.66,19.358ZM32.552,45.168V79.282L1,61.569V27.458Zm6.31,0L70.415,27.293V61.569L38.863,79.282Z" transform="translate(70.585)" fill="#a2e2f5"/>
      <path id="_1-2" data-name="1" d="M70.4,19.814,35.708,0,1.032,20.019l34.66,19.358ZM32.552,45.168V79.282L1,61.569V27.458Zm6.31,0L70.415,27.293V61.569L38.863,79.282Z" transform="translate(-1 1.96)" fill="#00c3e0"/>
    </g>
    <g id="_304729-607d8b" data-name="304729-607d8b" transform="matrix(-0.94, -0.342, 0.342, -0.94, 4812.131, -9126.452)">
      <path id="Trazado_42" data-name="Trazado 42" d="M3.846-.191A20.212,20.212,0,0,0,.659.292L-.036.478l.384.6q8.1,12.609,63.2,15.848c4.919.289,13.162.631,18.772.782,26.441.7,57.616.123,94.031-1.758,8.325-.429,22.709-1.314,31.4-1.935,2.154-.154,3.928-.277,3.928-.277a2.806,2.806,0,0,1-.244.571c-2.057,4.61-2.8,6.4-2.626,6.493a17.1,17.1,0,0,0,4.373.177,41.731,41.731,0,0,0,4.952-.489c3.239-.512,86.127-14.8,86.488-14.908.593-.176.679-.313.283-.416-.594-.143-75.316-7.868-76.648-7.922a36.855,36.855,0,0,0-8.649.72c-.361.109-.54.478-3.151,6.446a2.67,2.67,0,0,1-.52.889c-.255.042-7.1.567-11.535.885-5.778.412-17.5,1.132-24.209,1.484-8.2.429-17.354.821-25.137,1.076-3.285.105-9.7.29-10.837.311l-3.787.079c-23.936.516-47.354.182-66.806-.949C48.68,6.732,28.733,4.124,12.265.156c-.99-.243-2.108-.468-2.433-.5a38.052,38.052,0,0,0-4.16.01C5.165-.3,4.354-.239,3.846-.191Z" transform="translate(0 0)" fill="#0092d8"/>
    </g>
    <g id="Grupo_89" data-name="Grupo 89" transform="translate(5416.303 -9125.967)">
      <path id="_1-3" data-name="1" d="M70.4,19.814,35.708,0,1.032,20.019l34.66,19.358ZM32.552,45.168V79.282L1,61.569V27.458Zm6.31,0L70.415,27.293V61.569L38.863,79.282Z" transform="translate(70.585)" fill="#a2e2f5"/>
      <path id="_1-4" data-name="1" d="M70.4,19.814,35.708,0,1.032,20.019l34.66,19.358ZM32.552,45.168V79.282L1,61.569V27.458Zm6.31,0L70.415,27.293V61.569L38.863,79.282Z" transform="translate(-1 1.96)" fill="#00c3e0"/>
    </g>
    <g id="Grupo_90" data-name="Grupo 90" transform="translate(-1799.892 -4923.047)">
      <rect id="Rectángulo_155" data-name="Rectángulo 155" width="183.442" height="239.319" transform="translate(6394.593 -3780.953)" fill="#e6e6e6"/>
      <rect id="Rectángulo_156" data-name="Rectángulo 156" width="39.309" height="27.351" transform="translate(6407.368 -3760.782)" fill="#fff"/>
      <rect id="Rectángulo_157" data-name="Rectángulo 157" width="151.995" height="9.573" transform="translate(6407.696 -3707.448)" fill="#ceacab"/>
      <rect id="Rectángulo_158" data-name="Rectángulo 158" width="151.995" height="9.573" transform="translate(6407.696 -3682.149)" fill="#ceacab"/>
      <rect id="Rectángulo_159" data-name="Rectángulo 159" width="151.995" height="9.573" transform="translate(6407.696 -3656.849)" fill="#ceacab"/>
      <rect id="Rectángulo_160" data-name="Rectángulo 160" width="151.995" height="9.573" transform="translate(6407.696 -3631.55)" fill="#ceacab"/>
      <rect id="Rectángulo_161" data-name="Rectángulo 161" width="151.995" height="9.573" transform="translate(6407.696 -3606.25)" fill="#ceacab"/>
    </g>
    <circle id="Elipse_193" data-name="Elipse 193" cx="3.03" cy="3.03" r="3.03" transform="translate(3930.57 -8376.736)" fill="#f2f2f2"/>
    <path id="Trazado_709" data-name="Trazado 709" d="M471.853,542.959l-21.508,21.58c-1.352-2.1-8.883-11.86-8.883-11.86a30.5,30.5,0,0,1,3.083-2.731l6.245,8.356,18.544-18.61a21.827,21.827,0,0,1,2.519,3.265Z" transform="translate(3892.399 -9816.164)" fill="#fff"/>
    <g id="Grupo_91" data-name="Grupo 91" transform="translate(-2005.892 -4705.047)">
      <rect id="Rectángulo_155-2" data-name="Rectángulo 155" width="183.442" height="239.319" transform="translate(6394.593 -3780.953)" fill="#e6e6e6"/>
      <rect id="Rectángulo_156-2" data-name="Rectángulo 156" width="39.309" height="27.351" transform="translate(6407.368 -3760.782)" fill="#fff"/>
      <rect id="Rectángulo_157-2" data-name="Rectángulo 157" width="151.995" height="9.573" transform="translate(6407.696 -3707.448)" fill="#ceacab"/>
      <rect id="Rectángulo_158-2" data-name="Rectángulo 158" width="151.995" height="9.573" transform="translate(6407.696 -3682.149)" fill="#ceacab"/>
      <rect id="Rectángulo_159-2" data-name="Rectángulo 159" width="151.995" height="9.573" transform="translate(6407.696 -3656.849)" fill="#ceacab"/>
      <rect id="Rectángulo_160-2" data-name="Rectángulo 160" width="151.995" height="9.573" transform="translate(6407.696 -3631.55)" fill="#ceacab"/>
      <rect id="Rectángulo_161-2" data-name="Rectángulo 161" width="151.995" height="9.573" transform="translate(6407.696 -3606.25)" fill="#ceacab"/>
    </g>
    <path id="Trazado_711" data-name="Trazado 711" d="M471.853,542.959l-21.508,21.58c-1.352-2.1-8.883-11.86-8.883-11.86a30.5,30.5,0,0,1,3.083-2.731l6.245,8.356,18.544-18.61a21.827,21.827,0,0,1,2.519,3.265Z" transform="translate(3553.399 -8903.164)" fill="#fff"/>
    <ellipse id="Elipse_194" data-name="Elipse 194" cx="201.5" cy="33" rx="201.5" ry="33" transform="translate(5290 -8760.364)" fill="#387aa4" opacity="0.1"/>
    <g id="Grupo_92" data-name="Grupo 92" transform="translate(-2108.892 -5054.047)">
      <rect id="Rectángulo_155-3" data-name="Rectángulo 155" width="183.442" height="239.319" transform="translate(6394.593 -3780.953)" fill="#e6e6e6"/>
      <rect id="Rectángulo_156-3" data-name="Rectángulo 156" width="39.309" height="27.351" transform="translate(6407.368 -3760.782)" fill="#fff"/>
      <rect id="Rectángulo_157-3" data-name="Rectángulo 157" width="151.995" height="9.573" transform="translate(6407.696 -3707.448)" fill="#ceacab"/>
      <rect id="Rectángulo_158-3" data-name="Rectángulo 158" width="151.995" height="9.573" transform="translate(6407.696 -3682.149)" fill="#ceacab"/>
      <rect id="Rectángulo_159-3" data-name="Rectángulo 159" width="151.995" height="9.573" transform="translate(6407.696 -3656.849)" fill="#ceacab"/>
      <rect id="Rectángulo_160-3" data-name="Rectángulo 160" width="151.995" height="9.573" transform="translate(6407.696 -3631.55)" fill="#ceacab"/>
      <rect id="Rectángulo_161-3" data-name="Rectángulo 161" width="151.995" height="9.573" transform="translate(6407.696 -3606.25)" fill="#ceacab"/>
    </g>
    <path id="Trazado_712" data-name="Trazado 712" d="M464.48,547.152a21.811,21.811,0,1,1-3.377-11.713A21.84,21.84,0,0,1,464.48,547.152Z" transform="translate(3999.15 -9142.645)" fill="#00c6e2"/>
    <path id="Trazado_713" data-name="Trazado 713" d="M471.853,542.959l-21.508,21.58c-1.352-2.1-8.883-11.86-8.883-11.86a30.5,30.5,0,0,1,3.083-2.731l6.245,8.356,18.544-18.61a21.827,21.827,0,0,1,2.519,3.265Z" transform="translate(3988.399 -9150.164)" fill="#fff"/>
    <g id="Grupo_93" data-name="Grupo 93" transform="translate(-1112 -2733.049)">
      <rect id="Rectángulo_197" data-name="Rectángulo 197" width="66.902" height="91.57" transform="translate(6025 -5907.367)" fill="#3f3d56"/>
      <rect id="Rectángulo_198" data-name="Rectángulo 198" width="66.902" height="91.57" transform="translate(6025 -5907.367)" opacity="0.1"/>
      <rect id="Rectángulo_199" data-name="Rectángulo 199" width="46.233" height="1.685" transform="translate(6035.334 -5889.952)" fill="#00c6e2" opacity="0.3"/>
      <rect id="Rectángulo_200" data-name="Rectángulo 200" width="46.233" height="1.685" transform="translate(6035.334 -5882.087)" fill="#00c6e2" opacity="0.3"/>
      <rect id="Rectángulo_201" data-name="Rectángulo 201" width="46.233" height="1.685" transform="translate(6035.334 -5874.223)" fill="#00c6e2" opacity="0.3"/>
      <rect id="Rectángulo_202" data-name="Rectángulo 202" width="46.233" height="1.685" transform="translate(6035.334 -5866.357)" fill="#00c6e2" opacity="0.3"/>
      <rect id="Rectángulo_203" data-name="Rectángulo 203" width="46.233" height="1.685" transform="translate(6035.334 -5858.493)" fill="#00c6e2" opacity="0.3"/>
      <rect id="Rectángulo_204" data-name="Rectángulo 204" width="46.233" height="1.685" transform="translate(6035.334 -5850.628)" fill="#00c6e2" opacity="0.3"/>
      <rect id="Rectángulo_205" data-name="Rectángulo 205" width="46.233" height="1.685" transform="translate(6035.334 -5842.763)" fill="#00c6e2" opacity="0.3"/>
      <rect id="Rectángulo_206" data-name="Rectángulo 206" width="46.233" height="1.685" transform="translate(6035.334 -5834.898)" fill="#00c6e2" opacity="0.3"/>
      <rect id="Rectángulo_207" data-name="Rectángulo 207" width="66.902" height="91.57" transform="translate(6039.822 -5896.521)" fill="#3f3d56"/>
      <rect id="Rectángulo_208" data-name="Rectángulo 208" width="46.233" height="1.685" transform="translate(6050.156 -5879.106)" fill="#00c6e2"/>
      <rect id="Rectángulo_209" data-name="Rectángulo 209" width="46.233" height="1.685" transform="translate(6050.156 -5871.241)" fill="#00c6e2"/>
      <rect id="Rectángulo_210" data-name="Rectángulo 210" width="46.233" height="1.685" transform="translate(6050.156 -5863.376)" fill="#00c6e2"/>
      <rect id="Rectángulo_211" data-name="Rectángulo 211" width="46.233" height="1.685" transform="translate(6050.156 -5855.512)" fill="#00c6e2"/>
      <rect id="Rectángulo_212" data-name="Rectángulo 212" width="46.233" height="1.685" transform="translate(6050.156 -5847.646)" fill="#00c6e2"/>
      <rect id="Rectángulo_213" data-name="Rectángulo 213" width="46.233" height="1.685" transform="translate(6050.156 -5839.782)" fill="#00c6e2"/>
      <rect id="Rectángulo_214" data-name="Rectángulo 214" width="46.233" height="1.685" transform="translate(6050.156 -5831.916)" fill="#00c6e2"/>
      <rect id="Rectángulo_215" data-name="Rectángulo 215" width="46.233" height="1.685" transform="translate(6050.156 -5824.051)" fill="#00c6e2"/>
      <path id="Trazado_699" data-name="Trazado 699" d="M547.29,154.4a25.968,25.968,0,0,0-18.39-11.493" transform="translate(5563.451 -6055.919)" fill="none" stroke="#3f3d56" stroke-miterlimit="10" stroke-width="2"/>
      <path id="Trazado_700" data-name="Trazado 700" d="M248.217,29.331l.3.467-2.231,1.537,1.648,2.186-.43.345L245.5,31.2Z" transform="translate(5846.266 -5944.298)" fill="#3f3d56"/>
    </g>
    <path id="Trazado_715" data-name="Trazado 715" d="M344.5,0C534.762,0,689,158.491,689,354S534.762,708,344.5,708,0,549.509,0,354,154.238,0,344.5,0Z" transform="translate(4826.303 -8209) rotate(180)" fill="#e0f8fc"/>
    <circle id="Elipse_195" data-name="Elipse 195" cx="3.03" cy="3.03" r="3.03" transform="translate(3930.57 -8376.736)" fill="#f2f2f2"/>
    <path id="Trazado_717" data-name="Trazado 717" d="M471.853,542.959l-21.508,21.58c-1.352-2.1-8.883-11.86-8.883-11.86a30.5,30.5,0,0,1,3.083-2.731l6.245,8.356,18.544-18.61a21.827,21.827,0,0,1,2.519,3.265Z" transform="translate(3892.399 -9816.164)" fill="#fff"/>
    <path id="Trazado_719" data-name="Trazado 719" d="M471.853,542.959l-21.508,21.58c-1.352-2.1-8.883-11.86-8.883-11.86a30.5,30.5,0,0,1,3.083-2.731l6.245,8.356,18.544-18.61a21.827,21.827,0,0,1,2.519,3.265Z" transform="translate(3553.399 -8903.164)" fill="#fff"/>
    <path id="Trazado_721" data-name="Trazado 721" d="M471.853,542.959l-21.508,21.58c-1.352-2.1-8.883-11.86-8.883-11.86a30.5,30.5,0,0,1,3.083-2.731l6.245,8.356,18.544-18.61a21.827,21.827,0,0,1,2.519,3.265Z" transform="translate(3988.399 -9150.164)" fill="#fff"/>
    <g id="undraw_cloud_files_wmo8" transform="translate(6152 -9030.531)">
      <g id="Grupo_85" data-name="Grupo 85" transform="translate(75.737 181.531)">
        <path id="Trazado_690" data-name="Trazado 690" d="M760.66,284.634H591.917v-1.067a2.9,2.9,0,0,0-2.594-3.133H518a2.9,2.9,0,0,0-2.594,3.133v1.067H345.963c-6.3,0-11.414,6.172-11.414,13.785V577.469c0,7.613,5.11,13.785,11.414,13.785h414.7c6.3,0,11.414-6.172,11.414-13.785V298.419c0-7.613-5.11-13.785-11.414-13.785Z" transform="translate(-313.333 -280.434)" fill="#3f3d56"/>
        <path id="Trazado_691" data-name="Trazado 691" d="M359.186,314.131a1.2,1.2,0,0,0-1.068,1.29V580.107a1.2,1.2,0,0,0,1.068,1.29H755.728a1.2,1.2,0,0,0,1.068-1.29V315.421a1.2,1.2,0,0,0-1.068-1.29Z" transform="translate(-317.478 -280.593)" fill="#e2e4e5"/>
        <ellipse id="Elipse_192" data-name="Elipse 192" cx="4.174" cy="5.04" rx="4.174" ry="5.04" transform="translate(235.457 10.921)" fill="#00c6e2"/>
        <path id="Trazado_692" data-name="Trazado 692" d="M775.146,573.807H735.434v-4.953a.534.534,0,0,0-.567-.493H721.25a.534.534,0,0,0-.567.493v4.953h-8.51v-4.953a.534.534,0,0,0-.567-.493H697.99a.534.534,0,0,0-.567.493v4.953h-8.51v-4.953a.534.534,0,0,0-.567-.493H674.73a.534.534,0,0,0-.567.493v4.953h-8.51v-4.953a.534.534,0,0,0-.567-.493H651.469a.534.534,0,0,0-.567.493v4.953h-8.51v-4.953a.534.534,0,0,0-.567-.493H628.209a.534.534,0,0,0-.567.493v4.953h-8.51v-4.953a.534.534,0,0,0-.567-.493H604.949a.534.534,0,0,0-.567.493v4.953h-8.51v-4.953a.534.534,0,0,0-.567-.493H488.647a.534.534,0,0,0-.567.493v4.953h-8.51v-4.953a.534.534,0,0,0-.567-.493H465.387a.534.534,0,0,0-.567.493v4.953h-8.51v-4.953a.534.534,0,0,0-.567-.493H442.127a.534.534,0,0,0-.567.493v4.953h-8.51v-4.953a.534.534,0,0,0-.567-.493H418.866a.534.534,0,0,0-.567.493v4.953h-8.51v-4.953a.534.534,0,0,0-.567-.493H395.606a.534.534,0,0,0-.567.493v4.953h-8.51v-4.953a.534.534,0,0,0-.567-.493H372.346a.534.534,0,0,0-.567.493v4.953h-8.51v-4.953a.534.534,0,0,0-.567-.493H349.085a.534.534,0,0,0-.567.493v4.953h-26.1c-7.52,0-13.616,5.292-13.616,11.821v5.345c0,6.528,6.1,11.821,13.616,11.821H775.146c7.52,0,13.616-5.292,13.616-11.821v-5.345C788.762,579.1,782.666,573.807,775.146,573.807Z" transform="translate(-308.805 -281.793)" fill="#3f3d56"/>
        <path id="Trazado_701" data-name="Trazado 701" d="M-34.652,0h144.9a3.1,3.1,0,0,1,2.769,3.344v168.3a3.1,3.1,0,0,1-2.769,3.344h-144.9c-1.529,0-178.108,1.847-178.108,0V0C-212.76-1.851-36.181,0-34.652,0Z" transform="translate(289.869 67.873)" fill="#fff"/>
      </g>
    </g>
    <g id="undraw_cloud_files_wmo8-2" data-name="undraw_cloud_files_wmo8" transform="translate(4173 -8854.961)">
      <path id="Trazado_727" data-name="Trazado 727" d="M736.2,283.82H577.146v-.86a2.487,2.487,0,0,0-2.445-2.526H507.468a2.487,2.487,0,0,0-2.445,2.526v.86H345.308a10.94,10.94,0,0,0-10.759,11.113V519.9a10.94,10.94,0,0,0,10.759,11.113H736.2A10.94,10.94,0,0,0,746.964,519.9V294.933A10.94,10.94,0,0,0,736.2,283.82Z" transform="translate(-233.069 -98.903)" fill="#3f3d56"/>
      <path id="Trazado_728" data-name="Trazado 728" d="M359.1,314.131a.99.99,0,0,0-.978,1V519.949a.99.99,0,0,0,.978,1h363.32a.989.989,0,0,0,.979-1V315.129a.99.99,0,0,0-.978-1Z" transform="translate(-233.069 -98.903)" fill="#00c6e2"/>
      <circle id="Elipse_196" data-name="Elipse 196" cx="5.064" cy="5.064" r="5.064" transform="translate(302.289 192.504)" fill="#00c6e2"/>
      <path id="Trazado_729" data-name="Trazado 729" d="M759.547,573.833H721.163v-4.977a.524.524,0,0,0-.548-.495h-13.16a.524.524,0,0,0-.548.495v4.977h-8.225v-4.977a.524.524,0,0,0-.548-.495h-13.16a.524.524,0,0,0-.548.495v4.977H676.2v-4.977a.524.524,0,0,0-.548-.495H662.49a.524.524,0,0,0-.548.495v4.977h-8.225v-4.977a.524.524,0,0,0-.548-.495h-13.16a.524.524,0,0,0-.548.495v4.977h-8.225v-4.977a.524.524,0,0,0-.548-.495h-13.16a.524.524,0,0,0-.548.495v4.977h-8.225v-4.977a.524.524,0,0,0-.548-.495h-13.16a.524.524,0,0,0-.548.495v4.977h-8.225v-4.977a.524.524,0,0,0-.548-.495H482.632a.524.524,0,0,0-.548.495v4.977h-8.225v-4.977a.524.524,0,0,0-.548-.495h-13.16a.524.524,0,0,0-.548.495v4.977h-8.225v-4.977a.524.524,0,0,0-.548-.495h-13.16a.524.524,0,0,0-.548.495v4.977h-8.225v-4.977a.524.524,0,0,0-.548-.495h-13.16a.524.524,0,0,0-.548.495v4.977h-8.225v-4.977a.524.524,0,0,0-.548-.495H392.7a.524.524,0,0,0-.548.495v4.977h-8.225v-4.977a.524.524,0,0,0-.548-.495H370.22a.524.524,0,0,0-.548.495v4.977h-8.225v-4.977a.524.524,0,0,0-.548-.495h-13.16a.524.524,0,0,0-.548.495v4.977H321.966c-7.268,0-13.16,5.317-13.16,11.877v5.37c0,6.559,5.892,11.877,13.16,11.877H759.547c7.268,0,13.16-5.317,13.16-11.877v-5.37C772.707,579.15,766.815,573.833,759.547,573.833Z" transform="translate(-233.069 -160.621)" fill="#3f3d56"/>
      <path id="Trazado_730" data-name="Trazado 730" d="M543.978,426.017H401.754a1.12,1.12,0,1,1,0-2.24H543.978a1.12,1.12,0,0,1,0,2.24Z" transform="translate(-257.914 -126.525)" fill="#f2f2f2"/>
      <path id="Trazado_731" data-name="Trazado 731" d="M543.978,450.654H401.754a1.12,1.12,0,1,1,0-2.24H543.978a1.12,1.12,0,0,1,0,2.24Z" transform="translate(-257.914 -131.272)" fill="#f2f2f2"/>
      <path id="Trazado_732" data-name="Trazado 732" d="M543.978,475.291H401.754a1.12,1.12,0,0,1,0-2.24H543.978a1.12,1.12,0,0,1,0,2.24Z" transform="translate(-257.914 -136.02)" fill="#f2f2f2"/>
      <path id="Trazado_733" data-name="Trazado 733" d="M642.683,454.674a45.006,45.006,0,0,1,88.3-9.489c.545-.02,1.09-.041,1.64-.041a17.667,17.667,0,0,1,5.515.938c22.387,7.351,16.492,40.775-7.071,40.775H673.16a30.442,30.442,0,0,1-30.509-31.519Q642.665,455.006,642.683,454.674Z" transform="translate(-316.72 -131.713)" fill="#00c6e2"/>
      <path id="Trazado_734" data-name="Trazado 734" d="M462.4,355.07V336.649h-9.919V355.07h-7.919L451,366.224l6.44,11.153,6.439-11.153,6.439-11.154Z" transform="translate(-78.509 -33.974)" fill="#fff"/>
    </g>
    <g id="_304729-607d8b-2" data-name="304729-607d8b" transform="translate(4686.173 -8687.877) rotate(-7)">
      <path id="Trazado_42-2" data-name="Trazado 42" d="M3.627,49.787A11.854,11.854,0,0,1,.644,49.35L0,49.135l.406-.922Q8.96,28.795,61.346,19.153c4.677-.86,12.5-2.091,17.824-2.807,25.078-3.364,54.546-5.238,88.882-5.642,7.85-.094,21.4-.043,29.588.116,2.028.039,3.7.066,3.7.066a5.172,5.172,0,0,0-.191-.825c-1.623-6.66-2.2-9.254-2.028-9.4a10.991,10.991,0,0,1,4.152-.647A24.575,24.575,0,0,1,207.924.3c3.03.475,80.483,14.4,80.817,14.531.549.21.62.4.239.592-.573.264-71.845,18.283-73.11,18.479-2.649.4-6.609.256-8.137-.309-.334-.13-.477-.661-2.529-9.288a4.116,4.116,0,0,0-.429-1.273c-.239-.04-6.681-.218-10.857-.3-5.44-.1-16.488-.143-22.811-.078-7.731.082-16.369.3-23.718.608-3.1.132-9.163.42-10.236.489l-3.579.215a538.963,538.963,0,0,0-63.3,7.27C46.553,35.58,27.488,41.2,11.62,48.532a20.829,20.829,0,0,1-2.338.958,23.393,23.393,0,0,1-3.937.35C4.868,49.837,4.1,49.814,3.627,49.787Z" transform="translate(0 0)" fill="#00c3e0"/>
    </g>
    <g id="Grupo_98" data-name="Grupo 98" transform="translate(-538 -2534.049)">
      <rect id="Rectángulo_197-2" data-name="Rectángulo 197" width="66.902" height="91.57" transform="translate(6025 -5907.367)" fill="#3f3d56"/>
      <rect id="Rectángulo_198-2" data-name="Rectángulo 198" width="66.902" height="91.57" transform="translate(6025 -5907.367)" opacity="0.1"/>
      <rect id="Rectángulo_199-2" data-name="Rectángulo 199" width="46.233" height="1.685" transform="translate(6035.334 -5889.952)" fill="#00c6e2" opacity="0.3"/>
      <rect id="Rectángulo_200-2" data-name="Rectángulo 200" width="46.233" height="1.685" transform="translate(6035.334 -5882.087)" fill="#00c6e2" opacity="0.3"/>
      <rect id="Rectángulo_201-2" data-name="Rectángulo 201" width="46.233" height="1.685" transform="translate(6035.334 -5874.223)" fill="#00c6e2" opacity="0.3"/>
      <rect id="Rectángulo_202-2" data-name="Rectángulo 202" width="46.233" height="1.685" transform="translate(6035.334 -5866.357)" fill="#00c6e2" opacity="0.3"/>
      <rect id="Rectángulo_203-2" data-name="Rectángulo 203" width="46.233" height="1.685" transform="translate(6035.334 -5858.493)" fill="#00c6e2" opacity="0.3"/>
      <rect id="Rectángulo_204-2" data-name="Rectángulo 204" width="46.233" height="1.685" transform="translate(6035.334 -5850.628)" fill="#00c6e2" opacity="0.3"/>
      <rect id="Rectángulo_205-2" data-name="Rectángulo 205" width="46.233" height="1.685" transform="translate(6035.334 -5842.763)" fill="#00c6e2" opacity="0.3"/>
      <rect id="Rectángulo_206-2" data-name="Rectángulo 206" width="46.233" height="1.685" transform="translate(6035.334 -5834.898)" fill="#00c6e2" opacity="0.3"/>
      <rect id="Rectángulo_207-2" data-name="Rectángulo 207" width="66.902" height="91.57" transform="translate(6039.822 -5896.521)" fill="#3f3d56"/>
      <rect id="Rectángulo_208-2" data-name="Rectángulo 208" width="46.233" height="1.685" transform="translate(6050.156 -5879.106)" fill="#00c6e2"/>
      <rect id="Rectángulo_209-2" data-name="Rectángulo 209" width="46.233" height="1.685" transform="translate(6050.156 -5871.241)" fill="#00c6e2"/>
      <rect id="Rectángulo_210-2" data-name="Rectángulo 210" width="46.233" height="1.685" transform="translate(6050.156 -5863.376)" fill="#00c6e2"/>
      <rect id="Rectángulo_211-2" data-name="Rectángulo 211" width="46.233" height="1.685" transform="translate(6050.156 -5855.512)" fill="#00c6e2"/>
      <rect id="Rectángulo_212-2" data-name="Rectángulo 212" width="46.233" height="1.685" transform="translate(6050.156 -5847.646)" fill="#00c6e2"/>
      <rect id="Rectángulo_213-2" data-name="Rectángulo 213" width="46.233" height="1.685" transform="translate(6050.156 -5839.782)" fill="#00c6e2"/>
      <rect id="Rectángulo_214-2" data-name="Rectángulo 214" width="46.233" height="1.685" transform="translate(6050.156 -5831.916)" fill="#00c6e2"/>
      <rect id="Rectángulo_215-2" data-name="Rectángulo 215" width="46.233" height="1.685" transform="translate(6050.156 -5824.051)" fill="#00c6e2"/>
      <path id="Trazado_699-2" data-name="Trazado 699" d="M547.29,154.4a25.968,25.968,0,0,0-18.39-11.493" transform="translate(5563.451 -6055.919)" fill="none" stroke="#3f3d56" stroke-miterlimit="10" stroke-width="2"/>
      <path id="Trazado_700-2" data-name="Trazado 700" d="M248.217,29.331l.3.467-2.231,1.537,1.648,2.186-.43.345L245.5,31.2Z" transform="translate(5846.266 -5944.298)" fill="#3f3d56"/>
    </g>
    <g id="Grupo_101" data-name="Grupo 101" transform="translate(-996 -2414.499)">
      <g id="Grupo_99" data-name="Grupo 99" transform="translate(7185.049 -7216.919)">
        <path id="Trazado_741" data-name="Trazado 741" d="M267.271,219.452l-.012.006L213.7,249.518,155.06,219.961l-1.011-.509,3.044-61.359,52.958-38.043.585.368,54.809,34.607Z" transform="translate(-154.049 -120.05)" fill="#00c6e2"/>
        <path id="Trazado_742" data-name="Trazado 742" d="M268.978,325.632l-53.555,30.06-58.644-29.557,51.948-36.711Z" transform="translate(-155.768 -226.224)" opacity="0.3"/>
        <path id="Trazado_743" data-name="Trazado 743" d="M357.375,220.071l-60.263-36.2,3.628-62.832,54.809,34.607Z" transform="translate(-244.154 -120.669)" opacity="0.1"/>
        <path id="Trazado_744" data-name="Trazado 744" d="M159.659,208.025l-.3-.425,53.55-38.1,56.568,35.75-.274.441-56.277-35.567Z" transform="translate(-157.395 -151.048)" fill="#f2f2f2"/>
        <path id="Trazado_745" data-name="Trazado 745" d="M156.868,266.634l-.289-.43,53.278-36.461.14.08,57.777,33.008-.255.452-57.638-32.929Z" transform="translate(-155.642 -188.812)" fill="#f2f2f2"/>
        <path id="Trazado_746" data-name="Trazado 746" d="M211.814,250.868l-.272-.442,53.7-33.538V152.594h.516v64.584Z" transform="translate(-190.259 -140.451)" fill="#f2f2f2"/>
        <path id="Trazado_747" data-name="Trazado 747" d="M268.743,281.727l-.274-.44,51.7-32.688v-63.72h.516v64.007Z" transform="translate(-226.113 -160.689)" fill="#f2f2f2"/>
        <path id="Trazado_748" data-name="Trazado 748" d="M305.306,253.186l-60.13-33.677.009-.162,3.165-63.066.515.026-3.157,62.9,59.849,33.52Z" transform="translate(-211.443 -142.762)" fill="#f2f2f2"/>
        <path id="Trazado_749" data-name="Trazado 749" d="M255.35,285.413l-59.455-31.406.009-.167,3.5-63.1.515.029-3.5,62.931,59.16,31.251Z" transform="translate(-180.405 -164.364)" fill="#f2f2f2"/>
      </g>
    </g>
    <g id="_25719" data-name="25719" transform="translate(6018.519 -9694.207)">
      <g id="Grupo_100" data-name="Grupo 100" transform="translate(0 0)">
        <path id="Trazado_750" data-name="Trazado 750" d="M159.437,118.107a10.4,10.4,0,0,0-2.481-1.928c-.161-.1-.6-.353-1.318-.744s-1.294-.735-1.723-1.024a12.178,12.178,0,0,1-1.681-1.5,9.164,9.164,0,0,1-1.641-2.244,17.755,17.755,0,0,1-1.161-3.187,18.865,18.865,0,0,1-.64-4.448q-1.121.941-1.241,3.738a12.417,12.417,0,0,0,1.2,5.705,6.554,6.554,0,0,0,3.962,3.779,19.746,19.746,0,0,1,4.123,1.849,4.537,4.537,0,0,1,2,2.243q.44,1.263-1.482,2.716a22.424,22.424,0,0,1-6.165,2.876,53.189,53.189,0,0,0-8.287,3.344,58.306,58.306,0,0,0-7.165,5.234,11.69,11.69,0,0,1-6.806,2.8,6.63,6.63,0,0,1-5.843-2.6q-2.243-2.793-1.442-7.911,1.521-9.838-.078-15.348a15.387,15.387,0,0,1-.56-7.635q.72-3.3,2.242-3.855t3.282,2.36c.1.262.346.774.719,1.535a10.283,10.283,0,0,0,.922,1.613,14.977,14.977,0,0,0,1.081,1.221,4.013,4.013,0,0,0,1.8,1.064,11.252,11.252,0,0,0,2.522.393,9.445,9.445,0,0,0,4.883-1.1,9.8,9.8,0,0,0,3.242-2.637q1.079-1.458,2.161-2.795a3.8,3.8,0,0,1,1.882-1.5q.88-.154,1.6-1.731a13.578,13.578,0,0,0,.961-4.367,27.109,27.109,0,0,0-.4-6.65,67.332,67.332,0,0,0-4.764-15.035,44.168,44.168,0,0,0-7.966-12.83q-7.925-8.264-10.648-17.158a50.042,50.042,0,0,1-2.4-16.844A24.32,24.32,0,0,0,119.774,13.9a22.838,22.838,0,0,0-7.326-9.563,21.172,21.172,0,0,0-7.124-3.266A30.37,30.37,0,0,0,96.837.006a17.844,17.844,0,0,0-8.325,1.653q-6.4,3.385-8.486,8.225A28.534,28.534,0,0,0,78.1,21.809q.322,15.585,1.281,24.4Q78.263,50.3,69.457,61.556a19.372,19.372,0,0,0-3.123,4.251,44.135,44.135,0,0,0-2.4,4.8q-.882,2.124-2.362,6.139t-2.122,5.666a20.361,20.361,0,0,1-1.761,3.308,22.222,22.222,0,0,0-1.922,3.7,12.184,12.184,0,0,0-.8,4.093,12.952,12.952,0,0,0,.16,2.991q.319,1.892,1.2,1.182,3.6-2.676,9.047,3.149,3.843,4.093,13.53,19.048.8,1.337,1.6,2.875a21.754,21.754,0,0,1,1.522,4.091,14.085,14.085,0,0,1,.6,4.606,5.779,5.779,0,0,1-1.841,3.777,8.75,8.75,0,0,1-5.164,2.2,13.5,13.5,0,0,1-4.443-.315q-2.6-.551-6.6-1.81t-5.924-1.732q-2.8-.631-7.965-1.613t-6.766-1.457q-2.722-.708-2.961-2.046-.241-1.1,1.121-3.777a10.193,10.193,0,0,0,1.361-3.857,6.3,6.3,0,0,0-.081-1.732,6.641,6.641,0,0,0-.36-1.339q-.2-.471-.681-1.417a12.089,12.089,0,0,1-.64-1.416q-1.44-3.307-.4-4.488.72-1.023,3.442-.786a10.537,10.537,0,0,0,6.645-1.182q4.242-2.6,2.562-8.344a6.886,6.886,0,0,1-.961,4.014,11.021,11.021,0,0,1-3.362,2.756,11.464,11.464,0,0,1-4.8.946q-3.442.157-4.563,1.1a2.806,2.806,0,0,0-.84,2.126,9.784,9.784,0,0,0,.361,2.874q.4,1.456.8,3.345a12.032,12.032,0,0,1,.321,3.149,23.2,23.2,0,0,1-1.442,4.288q-1.36,3.425-.56,5.234a3.874,3.874,0,0,0,1.361,1.536,8.857,8.857,0,0,0,2.682,1.143q1.72.473,3.162.747t4,.707q2.562.431,4.083.747a83.619,83.619,0,0,1,11.689,3.385q6.565,2.362,8.886,2.439a9,9,0,0,0,4.283-.906,15.414,15.414,0,0,0,3.482-2.243,14.561,14.561,0,0,1,4.282-2.361,18.658,18.658,0,0,1,6.366-1.181q1.6-.078,4.643-.2t4.563-.118q6.885,0,10.407.078a9.4,9.4,0,0,1,3.763.748,3.541,3.541,0,0,1,1.761,1.534,10.089,10.089,0,0,0,1.323,2.008,6.863,6.863,0,0,0,2.359,1.849,14.365,14.365,0,0,0,7.126,1.142q4.082-.275,5.444-1.535a77.47,77.47,0,0,1,6.044-5.037,42.465,42.465,0,0,1,6.846-4.408q.639-.317,2.161-1.025t2.56-1.221q1.041-.512,2.521-1.3a20.674,20.674,0,0,0,2.4-1.457,23.073,23.073,0,0,0,1.881-1.535,4.149,4.149,0,0,0,1.242-1.731,4.471,4.471,0,0,0,.2-1.771A3.374,3.374,0,0,0,159.437,118.107Zm-42.91-76.073c.159-.1.267-.144.32-.118a1.62,1.62,0,0,1,.32.315c.161.184.306.355.441.512s.319.367.559.629a3.332,3.332,0,0,0,.759.63,3.059,3.059,0,0,0,1.162.433,2.39,2.39,0,0,1,1.042.393,1.566,1.566,0,0,1,.519.905,2.146,2.146,0,0,1-.277,1.574,1.16,1.16,0,0,1-1.163.63,6.112,6.112,0,0,1-3.122-2.479Q115.408,43.293,116.527,42.034ZM106.6,11.457a2.513,2.513,0,0,0,.479-.826,1.765,1.765,0,0,0,.04-.984,1.694,1.694,0,0,1,.08-1.023,1,1,0,0,1,.922-.59,3.3,3.3,0,0,1,1.921,1.181c.159.105.413.263.758.472a3.046,3.046,0,0,1,.721.551.677.677,0,0,1,.2.393,1,1,0,0,1-.719.551,4.447,4.447,0,0,1-1.2.158,1.645,1.645,0,0,0-.72.078,4.033,4.033,0,0,0-1.2.708q-.56.473-.88.709a.5.5,0,0,1-.641,0q-.32-.473-.24-.669A3.975,3.975,0,0,1,106.6,11.457ZM67.851,70.371a7.764,7.764,0,0,0,.8-1.023,4.643,4.643,0,0,0,.44-1.062,6.32,6.32,0,0,1,.36-.984.391.391,0,0,1,.481-.237c.106-.026.186.026.241.157l.08.2v.236a1.674,1.674,0,0,1-.04.315,1.4,1.4,0,0,1-.12.354,2.372,2.372,0,0,0-.16.473c-.053.21-.106.393-.16.551a3.95,3.95,0,0,1-1,1.417q-.681.629-1,.551C67.45,71.212,67.478,70.9,67.851,70.371Zm52.356,48.563a56.652,56.652,0,0,1-1.081,7.084q-.921,4.564-1.162,6.06-1.681-.081-1.921-1.221a5.335,5.335,0,0,1,.481-2.952,32.487,32.487,0,0,0,1.841-7.241q.163-3.621-.8-4.093-.884-.629-2.723,2.36-3.525,5.668-14.171,6.849-9.605,1.26-13.289-2.835a1.557,1.557,0,0,0-1.6-.2,2.269,2.269,0,0,0-1.041.745c-.053.106,0,.262.16.473s.414.524.76.945a6.888,6.888,0,0,1,.84,1.261q3.124,5.351-.56,7.24a21.025,21.025,0,0,0-.56-5.547,14.282,14.282,0,0,0-2.242-4.251,36.043,36.043,0,0,1-2.321-3.5,5.023,5.023,0,0,0,3.643-1.81,4.82,4.82,0,0,0,1.121-3.384,4.3,4.3,0,0,0-1.4-2.992q-.721-.708-7.446-6.021a82.66,82.66,0,0,1-8.325-7.123q-.322-.316-1.922-1.575a6.417,6.417,0,0,1-2-2.2q-3.683-7.946-.8-13.064l.32-.393q.4-.078.08,1.417a15.392,15.392,0,0,0-.32,4.408q.32,4.96,2.882,7.4,1.682,1.656,2.322-.235.481-.631.44-4.646t.121-5.43a40.185,40.185,0,0,1,3.8-11.1q3.162-6.612,5-7.084a6.607,6.607,0,0,1-.921-4.959A13.618,13.618,0,0,1,79.1,56.753q1.16-1.889,2.361-4.368a10.39,10.39,0,0,0,1.2-4.447,2.716,2.716,0,0,1,.081-.787q.24-.708,2,1.731,3.362,4.881,5.044,5.747a4.164,4.164,0,0,0,3.922-.079,33.217,33.217,0,0,0,5.324-3.384,36.056,36.056,0,0,1,5.4-3.462,5.765,5.765,0,0,0,.762-.355c.345-.183.612-.315.8-.394s.426-.2.721-.354.518-.289.679-.394a5.622,5.622,0,0,0,.48-.355,1.072,1.072,0,0,0,.321-.393.949.949,0,0,0,.08-.354,1.042,1.042,0,0,0-.681-.866,2.2,2.2,0,0,0-1.4.2,18.791,18.791,0,0,0-1.961.945q-1.079.59-2.4,1.338T99.15,48.1a23.281,23.281,0,0,1-2.882,1.1,12.124,12.124,0,0,1-2.882.551,7.412,7.412,0,0,1-5.363-1.731,5.92,5.92,0,0,1-1.361-1.5q-.081-.314.72-.157a21.935,21.935,0,0,0,6.325.157,24.987,24.987,0,0,0,5.6-1.81q.721-.314,3.644-1.535a48.224,48.224,0,0,1,4.523-1.692,2.187,2.187,0,0,0,1.322-.748,1.112,1.112,0,0,0,.239-.945,1.092,1.092,0,0,0-.519-.668q-.883-.473-1.6.63a4.011,4.011,0,0,1-1.682,1.378,15.693,15.693,0,0,1-2.362,1.023q-1.081.354-2.762.826t-1.841.551a24.624,24.624,0,0,1-8.166,1.18,8.823,8.823,0,0,1-2.841-.512,3.137,3.137,0,0,1-1.481-1.023,12,12,0,0,0-1.281-1.5,8.8,8.8,0,0,0-2-1.536,1.156,1.156,0,0,1-.6-1.416A4.457,4.457,0,0,1,83.141,36.6q.08-.079,1.641-.984a6.646,6.646,0,0,0,2.2-1.85,8.734,8.734,0,0,1,2.481-2.283,11.646,11.646,0,0,0,.12-1.731,6.657,6.657,0,0,0-.76-3.069,2.426,2.426,0,0,0-2.162-1.653,2.891,2.891,0,0,0-2.722,1.1,4.67,4.67,0,0,0-.72,2.912,5.677,5.677,0,0,0,.76,2.636q.681,1.142,1.241,1.142.88-.08.56.629a2.158,2.158,0,0,1-1.281,1.1q-.562.156-1.241-1.063a10.374,10.374,0,0,1-1.041-2.951,11.023,11.023,0,0,1-.28-2.913,11.751,11.751,0,0,1,1.32-4.683,3.462,3.462,0,0,1,3.322-2.165q2.242.08,3.6,2.677a14.8,14.8,0,0,1,1.281,7.084q.241.551,1.241.393a12.046,12.046,0,0,1,2.641-.04,3.677,3.677,0,0,1,2.361.826,3.308,3.308,0,0,0,.081-1.181Q96.35,20.626,104.917,20a11.467,11.467,0,0,1,2.159.59,7.315,7.315,0,0,1,1.882,1.181,6.245,6.245,0,0,1,1.681,2.4A17.34,17.34,0,0,1,111.72,28.1v2.912q0,2.518-1.042,2.834-1.68.55-2.4-.04t.159-2.086a5.792,5.792,0,0,0-.321-4.566,3.716,3.716,0,0,0-4.082-2.361,3.13,3.13,0,0,0-2.883,2.125,7.679,7.679,0,0,0-.64,4.015q.24,1.968.881,2.046a17.428,17.428,0,0,1,2.843,1.26,15.926,15.926,0,0,0,3.563,1.416q3.122.629,3.562,1.968a6.768,6.768,0,0,1-.36,3.9,8.852,8.852,0,0,0-.479,4.211,8.984,8.984,0,0,0,1.2,3.148,21.739,21.739,0,0,0,1.881,2.6,18.662,18.662,0,0,1,2.362,4.407,50.162,50.162,0,0,1,2.48,8.107q.079.079.6.551a7.973,7.973,0,0,1,1.041,1.18q.522.709,1.242,1.928a21.686,21.686,0,0,1,1.562,3.582,51.467,51.467,0,0,1,1.56,5.43,37.2,37.2,0,0,1,.921,8.423,24.419,24.419,0,0,0,.641,6.572q.6,1.773,3.082,1.457a4.072,4.072,0,0,0,4-3.306q2.643-9.131-4.322-21.881-2.643-4.959-4.564-6.533a18.743,18.743,0,0,1,5.766,5.9,23.186,23.186,0,0,1,3.762,8.107q.078.395.439,2.086t.4,1.968c.026.184.134.722.32,1.614a11.166,11.166,0,0,1,.28,1.732c0,.263.026.775.08,1.535a7.183,7.183,0,0,1-.04,1.771c-.08.421-.159.985-.24,1.692a12.692,12.692,0,0,1-.4,2.047q-.276.983-.6,2.164,4.4,1.889,4.4,3.306a9.764,9.764,0,0,0-4.8-1.768,10.093,10.093,0,0,0-5.8.825,4.446,4.446,0,0,0-2.764,4.17q-2.882,0-4.082,1.418a8.532,8.532,0,0,0-1.84,5.548,41.325,41.325,0,0,0,.6,7.633A26,26,0,0,1,120.207,118.935ZM86.664,27.709a.738.738,0,0,1-.4-.472c0-.471.239-.656.72-.551q.481.156.921,1.18a4.064,4.064,0,0,1,.2,2.362.21.21,0,0,1-.241.235q-.882,0-.64-1.574Q87.464,27.709,86.664,27.709Zm20.735,1.26-.159.236c-.426.262-.638.315-.638.158q-.323-2.126-1.442-2.441l-.321-.157q-.562-.473.558-.551.24-.079.721.236a3.087,3.087,0,0,1,1.28,2.52Z" transform="translate(-38.578 -0.001)"/>
        <path id="Trazado_751" data-name="Trazado 751" d="M217.484,120.43c0,.822.339,1.165,1.013,1.029.538,0,1.108-.651,1.715-1.952a3.594,3.594,0,0,1,3.132-2.156v0h-2.021Q217.485,117.965,217.484,120.43Z" transform="translate(-168.802 -85.59)"/>
        <path id="Trazado_752" data-name="Trazado 752" d="M242.326,117.8a3.294,3.294,0,0,1,3.537.926c1.008,1.025,1.785,1.472,2.324,1.333a1.226,1.226,0,0,0,.6-1.848Q247.176,115.545,242.326,117.8Z" transform="translate(-187.122 -85.049)"/>
      </g>
    </g>
    <path id="path4" d="M0,12.4l35.687-4.86L35.7,41.965l-35.67.2ZM35.67,45.931,35.7,80.384.028,75.48l0-29.78ZM40,6.906,87.314,0V41.527L40,41.9ZM87.325,46.255,87.314,87.6,40,80.917,39.93,46.178Z" transform="translate(4938 -9867)" fill="#0078d6"/>
    <path id="Trazado_755" data-name="Trazado 755" d="M90.584,0c50.028,0,90.584,43.168,90.584,96.418s-40.556,96.418-90.584,96.418S0,149.668,0,96.418,40.556,0,90.584,0Z" transform="translate(5072.471 -9727) rotate(180)" fill="rgba(188,188,180,0.18)"/>
    <g id="Grupo_102" data-name="Grupo 102" transform="translate(-1980.906 -2793.158)">
      <g id="Grupo_99-2" data-name="Grupo 99" transform="translate(7185.049 -7216.919)">
        <path id="Trazado_741-2" data-name="Trazado 741" d="M348.177,285.986l-.021.011-91.824,50.18-100.55-49.341-1.733-.85,5.218-102.43,90.8-63.507,1,.615,93.974,57.77Z" transform="translate(-154.049 -120.05)" fill="#00c6e2"/>
        <path id="Trazado_742-2" data-name="Trazado 742" d="M349.153,349.868l-91.824,50.18-100.55-49.341,89.069-61.283Z" transform="translate(-155.046 -183.921)" opacity="0.3"/>
        <path id="Trazado_743-2" data-name="Trazado 743" d="M400.438,286.359,297.112,225.925l6.221-104.888,93.974,57.77Z" transform="translate(-206.31 -120.422)" opacity="0.1"/>
        <path id="Trazado_744-2" data-name="Trazado 744" d="M159.871,233.811l-.51-.709,91.815-63.6,96.99,59.68-.47.736L251.2,170.542Z" transform="translate(-155.99 -138.698)" fill="#f2f2f2"/>
        <path id="Trazado_745-2" data-name="Trazado 745" d="M157.075,291.327l-.5-.718,91.349-60.867.239.133,99.064,55.1-.437.755L247.97,230.764Z" transform="translate(-154.973 -161.415)" fill="#f2f2f2"/>
        <path id="Trazado_746-2" data-name="Trazado 746" d="M212.008,316.648l-.466-.737,92.065-55.987V152.594h.884V260.407Z" transform="translate(-175.051 -132.322)" fill="#f2f2f2"/>
        <path id="Trazado_747-2" data-name="Trazado 747" d="M268.939,346.552l-.47-.735,88.647-54.568V184.879H358V291.73Z" transform="translate(-195.847 -144.497)" fill="#f2f2f2"/>
        <path id="Trazado_748-2" data-name="Trazado 748" d="M348.274,318.049l-103.1-56.218.015-.27,5.427-105.28.883.044-5.413,105.009L348.7,317.29Z" transform="translate(-187.338 -133.713)" fill="#f2f2f2"/>
        <path id="Trazado_749-2" data-name="Trazado 749" d="M297.835,348.78l-101.94-52.428.016-.278,6.009-105.332.883.049L196.81,295.843l101.435,52.168Z" transform="translate(-169.335 -146.708)" fill="#f2f2f2"/>
      </g>
    </g>
    <ellipse id="Elipse_197" data-name="Elipse 197" cx="283" cy="38.5" rx="283" ry="38.5" transform="translate(3883.609 -9233)" fill="#3f3d56"/>
    <path id="Trazado_757" data-name="Trazado 757" d="M810.1,663.74l-7.878,50.3s-38.782,20.6-11.513,21.209,155.733,0,155.733,0,24.845,0-14.543-21.815l-7.878-52.719Z" transform="translate(3298.609 -9955.5)" fill="#2f2e41"/>
    <path id="Trazado_758" data-name="Trazado 758" d="M785.219,734.7c6.193-5.51,17-11.252,17-11.252l7.878-50.3,113.922.107,7.878,49.582c9.185,5.087,14.875,8.987,18.2,11.978,5.059-1.154,10.587-5.444-18.2-21.389l-7.878-52.719L810.1,663.74l-7.877,50.3S769.63,731.35,785.219,734.7Z" transform="translate(3298.609 -9955.5)" opacity="0.1"/>
    <rect id="Rectángulo_230" data-name="Rectángulo 230" width="513.253" height="357.52" rx="18.046" transform="translate(3908.433 -9642.312)" fill="#2f2e41"/>
    <path id="Trazado_759" data-name="Trazado 759" d="M0,0H478.713V267.837H0Z" transform="translate(3925.703 -9623.224)" fill="#2b2a3e"/>
    <path id="Trazado_760" data-name="Trazado 760" d="M1123.077,621.322v31.341a18.044,18.044,0,0,1-18.048,18.046H627.87a18.044,18.044,0,0,1-18.046-18.048V621.322Z" transform="translate(3298.609 -9955.5)" fill="#2f2e41"/>
    <path id="Trazado_761" data-name="Trazado 761" d="M968.978,667.466v6.06H642.968v-4.848l.449-1.212,8.035-21.815h310.86Z" transform="translate(3330 -9855)" fill="#2f2e41"/>
    <circle id="Elipse_198" data-name="Elipse 198" cx="11.513" cy="11.513" r="11.513" transform="translate(4153.546 -9320.847)" fill="#f2f2f2"/>
    <path id="Trazado_762" data-name="Trazado 762" d="M968.978,667.466v6.06H642.968v-4.848l.449-1.212Z" transform="translate(3330 -9855)" opacity="0.1"/>
    <path id="Trazado_763" data-name="Trazado 763" d="M90.584,0c50.028,0,90.584,43.168,90.584,96.418s-40.556,96.418-90.584,96.418S0,149.668,0,96.418,40.556,0,90.584,0Z" transform="translate(4214.471 -9367) rotate(180)" fill="rgba(188,188,180,0.18)"/>
    <g id="Grupo_103" data-name="Grupo 103" transform="translate(-2943 -2297.499)">
      <g id="Grupo_99-3" data-name="Grupo 99" transform="translate(7185.049 -7216.919)">
        <path id="Trazado_741-3" data-name="Trazado 741" d="M267.271,219.452l-.012.006L213.7,249.518,155.06,219.961l-1.011-.509,3.044-61.359,52.958-38.043.585.368,54.809,34.607Z" transform="translate(-154.049 -120.05)" fill="#00c6e2"/>
        <path id="Trazado_742-3" data-name="Trazado 742" d="M268.978,325.632l-53.555,30.06-58.644-29.557,51.948-36.711Z" transform="translate(-155.768 -226.224)" opacity="0.3"/>
        <path id="Trazado_743-3" data-name="Trazado 743" d="M357.375,220.071l-60.263-36.2,3.628-62.832,54.809,34.607Z" transform="translate(-244.154 -120.669)" opacity="0.1"/>
        <path id="Trazado_744-3" data-name="Trazado 744" d="M159.659,208.025l-.3-.425,53.55-38.1,56.568,35.75-.274.441-56.277-35.567Z" transform="translate(-157.395 -151.048)" fill="#f2f2f2"/>
        <path id="Trazado_745-3" data-name="Trazado 745" d="M156.868,266.634l-.289-.43,53.278-36.461.14.08,57.777,33.008-.255.452-57.638-32.929Z" transform="translate(-155.642 -188.812)" fill="#f2f2f2"/>
        <path id="Trazado_746-3" data-name="Trazado 746" d="M211.814,250.868l-.272-.442,53.7-33.538V152.594h.516v64.584Z" transform="translate(-190.259 -140.451)" fill="#f2f2f2"/>
        <path id="Trazado_747-3" data-name="Trazado 747" d="M268.743,281.727l-.274-.44,51.7-32.688v-63.72h.516v64.007Z" transform="translate(-226.113 -160.689)" fill="#f2f2f2"/>
        <path id="Trazado_748-3" data-name="Trazado 748" d="M305.306,253.186l-60.13-33.677.009-.162,3.165-63.066.515.026-3.157,62.9,59.849,33.52Z" transform="translate(-211.443 -142.762)" fill="#f2f2f2"/>
        <path id="Trazado_749-3" data-name="Trazado 749" d="M255.35,285.413l-59.455-31.406.009-.167,3.5-63.1.515.029-3.5,62.931,59.16,31.251Z" transform="translate(-180.405 -164.364)" fill="#f2f2f2"/>
      </g>
    </g>
    <path id="path4-2" data-name="path4" d="M84.732,73.51a50.243,50.243,0,0,1-5.524,9.118,47.537,47.537,0,0,1-7.116,7.9,14.421,14.421,0,0,1-9.145,3.7A24.637,24.637,0,0,1,54.5,92.369,26.089,26.089,0,0,0,45.4,90.524a26.988,26.988,0,0,0-9.352,1.846A26.991,26.991,0,0,1,27.97,94.32q-4.689.183-9.352-3.8a49.973,49.973,0,0,1-7.443-8.175A54.913,54.913,0,0,1,3.3,68,48.709,48.709,0,0,1,0,50.891,29.255,29.255,0,0,1,4.468,34.548a25.212,25.212,0,0,1,9.358-8.69,26.88,26.88,0,0,1,12.651-3.277,32.048,32.048,0,0,1,9.785,2.091c4.035,1.39,6.626,2.1,7.762,2.1.849,0,3.727-.824,8.606-2.468a30.731,30.731,0,0,1,11.7-1.907Q77.3,23.353,83.787,31.8q-11.6,6.451-11.479,18.051a19.2,19.2,0,0,0,7.122,15,23.694,23.694,0,0,0,7.116,4.285q-.856,2.28-1.814,4.373ZM64.906,1.888q0,7.076-5.619,13.2c-4.516,4.847-9.978,7.647-15.9,7.205a13.5,13.5,0,0,1-.119-1.788c0-4.529,2.147-9.375,5.961-13.338A22.88,22.88,0,0,1,56.49,2.161,23.152,23.152,0,0,1,64.8,0a15.744,15.744,0,0,1,.108,1.887Z" transform="translate(4081 -9514.13)" fill="#fff"/>
    <path id="Trazado_765" data-name="Trazado 765" d="M344.5,0C534.762,0,689,158.491,689,354S534.762,708,344.5,708,0,549.509,0,354,154.238,0,344.5,0Z" transform="translate(6141.303 -7686) rotate(180)" fill="#e0f8fc"/>
    <g id="Grupo_104" data-name="Grupo 104" transform="translate(-484.892 -4400.047)">
      <rect id="Rectángulo_155-4" data-name="Rectángulo 155" width="183.442" height="239.319" transform="translate(6394.593 -3780.953)" fill="#e6e6e6"/>
      <rect id="Rectángulo_156-4" data-name="Rectángulo 156" width="39.309" height="27.351" transform="translate(6407.368 -3760.782)" fill="#fff"/>
      <rect id="Rectángulo_157-4" data-name="Rectángulo 157" width="151.995" height="9.573" transform="translate(6407.696 -3707.448)" fill="#ceacab"/>
      <rect id="Rectángulo_158-4" data-name="Rectángulo 158" width="151.995" height="9.573" transform="translate(6407.696 -3682.149)" fill="#ceacab"/>
      <rect id="Rectángulo_159-4" data-name="Rectángulo 159" width="151.995" height="9.573" transform="translate(6407.696 -3656.849)" fill="#ceacab"/>
      <rect id="Rectángulo_160-4" data-name="Rectángulo 160" width="151.995" height="9.573" transform="translate(6407.696 -3631.55)" fill="#ceacab"/>
      <rect id="Rectángulo_161-4" data-name="Rectángulo 161" width="151.995" height="9.573" transform="translate(6407.696 -3606.25)" fill="#ceacab"/>
    </g>
    <g id="Grupo_105" data-name="Grupo 105" transform="translate(-690.892 -4182.047)">
      <rect id="Rectángulo_155-5" data-name="Rectángulo 155" width="183.442" height="239.319" transform="translate(6394.593 -3780.953)" fill="#e6e6e6"/>
      <rect id="Rectángulo_156-5" data-name="Rectángulo 156" width="39.309" height="27.351" transform="translate(6407.368 -3760.782)" fill="#fff"/>
      <rect id="Rectángulo_157-5" data-name="Rectángulo 157" width="151.995" height="9.573" transform="translate(6407.696 -3707.448)" fill="#ceacab"/>
      <rect id="Rectángulo_158-5" data-name="Rectángulo 158" width="151.995" height="9.573" transform="translate(6407.696 -3682.149)" fill="#ceacab"/>
      <rect id="Rectángulo_159-5" data-name="Rectángulo 159" width="151.995" height="9.573" transform="translate(6407.696 -3656.849)" fill="#ceacab"/>
      <rect id="Rectángulo_160-5" data-name="Rectángulo 160" width="151.995" height="9.573" transform="translate(6407.696 -3631.55)" fill="#ceacab"/>
      <rect id="Rectángulo_161-5" data-name="Rectángulo 161" width="151.995" height="9.573" transform="translate(6407.696 -3606.25)" fill="#ceacab"/>
    </g>
    <g id="Grupo_106" data-name="Grupo 106" transform="translate(-793.892 -4531.047)">
      <rect id="Rectángulo_155-6" data-name="Rectángulo 155" width="183.442" height="239.319" transform="translate(6394.593 -3780.953)" fill="#e6e6e6"/>
      <rect id="Rectángulo_156-6" data-name="Rectángulo 156" width="39.309" height="27.351" transform="translate(6407.368 -3760.782)" fill="#fff"/>
      <rect id="Rectángulo_157-6" data-name="Rectángulo 157" width="151.995" height="9.573" transform="translate(6407.696 -3707.448)" fill="#ceacab"/>
      <rect id="Rectángulo_158-6" data-name="Rectángulo 158" width="151.995" height="9.573" transform="translate(6407.696 -3682.149)" fill="#ceacab"/>
      <rect id="Rectángulo_159-6" data-name="Rectángulo 159" width="151.995" height="9.573" transform="translate(6407.696 -3656.849)" fill="#ceacab"/>
      <rect id="Rectángulo_160-6" data-name="Rectángulo 160" width="151.995" height="9.573" transform="translate(6407.696 -3631.55)" fill="#ceacab"/>
      <rect id="Rectángulo_161-6" data-name="Rectángulo 161" width="151.995" height="9.573" transform="translate(6407.696 -3606.25)" fill="#ceacab"/>
    </g>
    <path id="Trazado_766" data-name="Trazado 766" d="M464.48,547.152a21.811,21.811,0,1,1-3.377-11.713A21.84,21.84,0,0,1,464.48,547.152Z" transform="translate(5314.15 -8619.645)" fill="#00c6e2"/>
    <path id="Trazado_767" data-name="Trazado 767" d="M471.853,542.959l-21.508,21.58c-1.352-2.1-8.883-11.86-8.883-11.86a30.5,30.5,0,0,1,3.083-2.731l6.245,8.356,18.544-18.61a21.827,21.827,0,0,1,2.519,3.265Z" transform="translate(5303.399 -8627.164)" fill="#fff"/>
    <path id="Trazado_768" data-name="Trazado 768" d="M344.5,0C534.762,0,689,158.491,689,354S534.762,708,344.5,708,0,549.509,0,354,154.238,0,344.5,0Z" transform="translate(6141.303 -7686) rotate(180)" fill="#e0f8fc"/>
    <path id="Trazado_769" data-name="Trazado 769" d="M471.853,542.959l-21.508,21.58c-1.352-2.1-8.883-11.86-8.883-11.86a30.5,30.5,0,0,1,3.083-2.731l6.245,8.356,18.544-18.61a21.827,21.827,0,0,1,2.519,3.265Z" transform="translate(5303.399 -8627.164)" fill="#fff"/>
    <g id="undraw_cloud_files_wmo8-3" data-name="undraw_cloud_files_wmo8" transform="translate(5488 -8331.961)">
      <path id="Trazado_727-2" data-name="Trazado 727" d="M736.2,283.82H577.146v-.86a2.487,2.487,0,0,0-2.445-2.526H507.468a2.487,2.487,0,0,0-2.445,2.526v.86H345.308a10.94,10.94,0,0,0-10.759,11.113V519.9a10.94,10.94,0,0,0,10.759,11.113H736.2A10.94,10.94,0,0,0,746.964,519.9V294.933A10.94,10.94,0,0,0,736.2,283.82Z" transform="translate(-233.069 -98.903)" fill="#3f3d56"/>
      <path id="Trazado_728-2" data-name="Trazado 728" d="M359.1,314.131a.99.99,0,0,0-.978,1V519.949a.99.99,0,0,0,.978,1h363.32a.989.989,0,0,0,.979-1V315.129a.99.99,0,0,0-.978-1Z" transform="translate(-233.069 -98.903)" fill="#00c6e2"/>
      <circle id="Elipse_196-2" data-name="Elipse 196" cx="5.064" cy="5.064" r="5.064" transform="translate(302.289 192.504)" fill="#00c6e2"/>
      <path id="Trazado_729-2" data-name="Trazado 729" d="M759.547,573.833H721.163v-4.977a.524.524,0,0,0-.548-.495h-13.16a.524.524,0,0,0-.548.495v4.977h-8.225v-4.977a.524.524,0,0,0-.548-.495h-13.16a.524.524,0,0,0-.548.495v4.977H676.2v-4.977a.524.524,0,0,0-.548-.495H662.49a.524.524,0,0,0-.548.495v4.977h-8.225v-4.977a.524.524,0,0,0-.548-.495h-13.16a.524.524,0,0,0-.548.495v4.977h-8.225v-4.977a.524.524,0,0,0-.548-.495h-13.16a.524.524,0,0,0-.548.495v4.977h-8.225v-4.977a.524.524,0,0,0-.548-.495h-13.16a.524.524,0,0,0-.548.495v4.977h-8.225v-4.977a.524.524,0,0,0-.548-.495H482.632a.524.524,0,0,0-.548.495v4.977h-8.225v-4.977a.524.524,0,0,0-.548-.495h-13.16a.524.524,0,0,0-.548.495v4.977h-8.225v-4.977a.524.524,0,0,0-.548-.495h-13.16a.524.524,0,0,0-.548.495v4.977h-8.225v-4.977a.524.524,0,0,0-.548-.495h-13.16a.524.524,0,0,0-.548.495v4.977h-8.225v-4.977a.524.524,0,0,0-.548-.495H392.7a.524.524,0,0,0-.548.495v4.977h-8.225v-4.977a.524.524,0,0,0-.548-.495H370.22a.524.524,0,0,0-.548.495v4.977h-8.225v-4.977a.524.524,0,0,0-.548-.495h-13.16a.524.524,0,0,0-.548.495v4.977H321.966c-7.268,0-13.16,5.317-13.16,11.877v5.37c0,6.559,5.892,11.877,13.16,11.877H759.547c7.268,0,13.16-5.317,13.16-11.877v-5.37C772.707,579.15,766.815,573.833,759.547,573.833Z" transform="translate(-233.069 -160.621)" fill="#3f3d56"/>
      <path id="Trazado_730-2" data-name="Trazado 730" d="M543.978,426.017H401.754a1.12,1.12,0,1,1,0-2.24H543.978a1.12,1.12,0,0,1,0,2.24Z" transform="translate(-257.914 -126.525)" fill="#f2f2f2"/>
      <path id="Trazado_731-2" data-name="Trazado 731" d="M543.978,450.654H401.754a1.12,1.12,0,1,1,0-2.24H543.978a1.12,1.12,0,0,1,0,2.24Z" transform="translate(-257.914 -131.272)" fill="#f2f2f2"/>
      <path id="Trazado_732-2" data-name="Trazado 732" d="M543.978,475.291H401.754a1.12,1.12,0,0,1,0-2.24H543.978a1.12,1.12,0,0,1,0,2.24Z" transform="translate(-257.914 -136.02)" fill="#f2f2f2"/>
      <path id="Trazado_733-2" data-name="Trazado 733" d="M642.683,454.674a45.006,45.006,0,0,1,88.3-9.489c.545-.02,1.09-.041,1.64-.041a17.667,17.667,0,0,1,5.515.938c22.387,7.351,16.492,40.775-7.071,40.775H673.16a30.442,30.442,0,0,1-30.509-31.519Q642.665,455.006,642.683,454.674Z" transform="translate(-316.72 -131.713)" fill="#00c6e2"/>
      <path id="Trazado_734-2" data-name="Trazado 734" d="M462.4,355.07V336.649h-9.919V355.07h-7.919L451,366.224l6.44,11.153,6.439-11.153,6.439-11.154Z" transform="translate(-78.509 -33.974)" fill="#fff"/>
    </g>
    <g id="_304729-607d8b-3" data-name="304729-607d8b" transform="matrix(-0.616, -0.788, 0.788, -0.616, 5735.135, -8347.469)">
      <path id="Trazado_42-3" data-name="Trazado 42" d="M3.627.054A11.854,11.854,0,0,0,.644.491L0,.706l.406.922Q8.96,21.046,61.346,30.687c4.677.86,12.5,2.091,17.824,2.807,25.078,3.364,54.546,5.238,88.882,5.642,7.85.094,21.4.043,29.588-.116,2.028-.039,3.7-.066,3.7-.066a5.172,5.172,0,0,1-.191.825c-1.623,6.66-2.2,9.254-2.028,9.4a10.991,10.991,0,0,0,4.152.647,24.575,24.575,0,0,0,4.653-.291c3.03-.475,80.483-14.4,80.817-14.531.549-.21.62-.4.239-.592-.573-.264-71.845-18.283-73.11-18.479-2.649-.4-6.609-.256-8.137.309-.334.13-.477.661-2.529,9.288a4.116,4.116,0,0,1-.429,1.273c-.239.04-6.681.218-10.857.3-5.44.1-16.488.143-22.811.078-7.731-.082-16.369-.3-23.718-.608-3.1-.132-9.163-.42-10.236-.489l-3.579-.215a538.962,538.962,0,0,1-63.3-7.27C46.553,14.26,27.488,8.641,11.62,1.308A20.828,20.828,0,0,0,9.282.35,23.392,23.392,0,0,0,5.345,0C4.868,0,4.1.027,3.627.054Z" transform="translate(0 0)" fill="#00c3e0"/>
    </g>
    <g id="Grupo_107" data-name="Grupo 107" transform="translate(6034.997 -8875.66)" opacity="0.8">
      <path id="Trazado_265" data-name="Trazado 265" d="M330.04,265.456h279.6m-254.76-.005s13.37,2.24,6.446-15.069,18.787-14.033,18.787-14.033m63.814,29.1s13.37-2.234,6.446,15.074,18.787,14.033,18.787,14.033M572.14,265.451s-13.375-2.234-6.446,15.074-18.787,14.033-18.787,14.033m0-.005H473.132" transform="translate(-16.945 -52.215)" fill="none" stroke="#3f3d56" stroke-miterlimit="10" stroke-width="3"/>
      <ellipse id="Elipse_98" data-name="Elipse 98" cx="8.164" cy="9.85" rx="8.164" ry="9.85" transform="translate(304.931 203.391)" fill="#24527a"/>
      <ellipse id="Elipse_99" data-name="Elipse 99" cx="8.164" cy="9.85" rx="8.164" ry="9.85" transform="translate(355.142 174.144)" fill="#3acc6c"/>
      <ellipse id="Elipse_100" data-name="Elipse 100" cx="8.164" cy="9.85" rx="8.164" ry="9.85" transform="translate(355.142 203.391)" fill="#24527a"/>
      <ellipse id="Elipse_101" data-name="Elipse 101" cx="8.164" cy="9.85" rx="8.164" ry="9.85" transform="translate(387.546 203.391)" fill="#24527a"/>
      <ellipse id="Elipse_102" data-name="Elipse 102" cx="8.164" cy="9.85" rx="8.164" ry="9.85" transform="translate(444.185 232.342)" fill="#ff6584"/>
      <ellipse id="Elipse_103" data-name="Elipse 103" cx="8.164" cy="9.85" rx="8.164" ry="9.85" transform="translate(486.984 232.342)" fill="#ff6584"/>
      <ellipse id="Elipse_104" data-name="Elipse 104" cx="8.164" cy="9.85" rx="8.164" ry="9.85" transform="translate(484.752 203.391)" fill="#24527a"/>
      <ellipse id="Elipse_105" data-name="Elipse 105" cx="8.164" cy="9.85" rx="8.164" ry="9.85" transform="translate(582.464 203.391)" fill="#24527a"/>
      <ellipse id="Elipse_106" data-name="Elipse 106" cx="8.164" cy="9.85" rx="8.164" ry="9.85" transform="translate(542.491 203.391)" fill="#24527a"/>
      <path id="Trazado_266" data-name="Trazado 266" d="M299.38,122.66h27.389v22.776H299.38Z" fill="#24527a"/>
      <path id="Trazado_267" data-name="Trazado 267" d="M411.9,122.66h27.389v22.776H411.9Z" transform="translate(-62.188)" fill="#3acc6c"/>
      <path id="Trazado_268" data-name="Trazado 268" d="M610.48,122.66h27.389v22.776H610.48Z" transform="translate(-171.94)" fill="#ff6584"/>
    </g>
    <g id="_304729-607d8b-4" data-name="304729-607d8b" transform="matrix(0.94, 0.342, -0.342, 0.94, 4588.576, -9107.814)">
      <path id="Trazado_42-4" data-name="Trazado 42" d="M3.846-.191A20.212,20.212,0,0,0,.659.292L-.036.478l.384.6q8.1,12.609,63.2,15.848c4.919.289,13.162.631,18.772.782,26.441.7,57.616.123,94.03-1.758,8.325-.429,22.709-1.314,31.4-1.935,2.154-.154,3.928-.277,3.928-.277a2.8,2.8,0,0,1-.244.571c-2.057,4.61-2.8,6.4-2.626,6.493a17.1,17.1,0,0,0,4.373.177,41.73,41.73,0,0,0,4.952-.489c3.239-.512,86.127-14.8,86.488-14.908.593-.176.679-.313.283-.416-.594-.143-75.316-7.868-76.648-7.922a36.855,36.855,0,0,0-8.649.72c-.361.109-.54.478-3.151,6.446a2.671,2.671,0,0,1-.52.889c-.255.042-7.1.567-11.535.885-5.778.412-17.5,1.132-24.209,1.484-8.2.429-17.354.821-25.137,1.076-3.285.105-9.7.29-10.837.311l-3.787.079c-23.935.516-47.354.182-66.806-.949C48.68,6.732,28.733,4.124,12.265.156c-.99-.243-2.108-.468-2.433-.5a38.052,38.052,0,0,0-4.16.01C5.165-.3,4.354-.239,3.846-.191Z" transform="translate(0 0)" fill="#0092d8"/>
    </g>
    <g id="_304729-607d8b-5" data-name="304729-607d8b" transform="matrix(-0.891, 0.454, -0.454, -0.891, 5949.771, -9183.237)">
      <path id="Trazado_42-5" data-name="Trazado 42" d="M3.846-.191A20.212,20.212,0,0,0,.659.292L-.036.478l.384.6q8.1,12.609,63.2,15.848c4.919.289,13.162.631,18.772.782,26.441.7,57.616.123,94.031-1.758,8.325-.429,22.709-1.314,31.4-1.935,2.154-.154,3.928-.277,3.928-.277a2.806,2.806,0,0,1-.244.571c-2.057,4.61-2.8,6.4-2.626,6.493a17.1,17.1,0,0,0,4.373.177,41.731,41.731,0,0,0,4.952-.489c3.239-.512,86.127-14.8,86.488-14.908.593-.176.679-.313.283-.416-.594-.143-75.316-7.868-76.648-7.922a36.855,36.855,0,0,0-8.649.72c-.361.109-.54.478-3.151,6.446a2.67,2.67,0,0,1-.52.889c-.255.042-7.1.567-11.535.885-5.778.412-17.5,1.132-24.209,1.484-8.2.429-17.354.821-25.137,1.076-3.285.105-9.7.29-10.837.311l-3.787.079c-23.936.516-47.354.182-66.806-.949C48.68,6.732,28.733,4.124,12.265.156c-.99-.243-2.108-.468-2.433-.5a38.052,38.052,0,0,0-4.16.01C5.165-.3,4.354-.239,3.846-.191Z" transform="translate(0 0)" fill="#0092d8"/>
    </g>
    <g id="_304729-607d8b-6" data-name="304729-607d8b" transform="matrix(0.891, -0.454, 0.454, 0.891, 5810.937, -9007.029)">
      <path id="Trazado_42-6" data-name="Trazado 42" d="M3.846-.191A20.212,20.212,0,0,0,.659.292L-.036.478l.384.6q8.1,12.609,63.2,15.848c4.919.289,13.162.631,18.772.782,26.441.7,57.616.123,94.03-1.758,8.325-.429,22.709-1.314,31.4-1.935,2.154-.154,3.928-.277,3.928-.277a2.8,2.8,0,0,1-.244.571c-2.057,4.61-2.8,6.4-2.626,6.493a17.1,17.1,0,0,0,4.373.177,41.73,41.73,0,0,0,4.952-.489c3.239-.512,86.127-14.8,86.488-14.908.593-.176.679-.313.283-.416-.594-.143-75.316-7.868-76.648-7.922a36.855,36.855,0,0,0-8.649.72c-.361.109-.54.478-3.151,6.446a2.671,2.671,0,0,1-.52.889c-.255.042-7.1.567-11.535.885-5.778.412-17.5,1.132-24.209,1.484-8.2.429-17.354.821-25.137,1.076-3.285.105-9.7.29-10.837.311l-3.787.079c-23.935.516-47.354.182-66.806-.949C48.68,6.732,28.733,4.124,12.265.156c-.99-.243-2.108-.468-2.433-.5a38.052,38.052,0,0,0-4.16.01C5.165-.3,4.354-.239,3.846-.191Z" transform="translate(0 0)" fill="#0092d8"/>
    </g>
    <g id="_304729-607d8b-7" data-name="304729-607d8b" transform="matrix(-0.94, -0.342, 0.342, -0.94, 4812.131, -9126.452)">
      <path id="Trazado_42-7" data-name="Trazado 42" d="M3.846-.191A20.212,20.212,0,0,0,.659.292L-.036.478l.384.6q8.1,12.609,63.2,15.848c4.919.289,13.162.631,18.772.782,26.441.7,57.616.123,94.031-1.758,8.325-.429,22.709-1.314,31.4-1.935,2.154-.154,3.928-.277,3.928-.277a2.806,2.806,0,0,1-.244.571c-2.057,4.61-2.8,6.4-2.626,6.493a17.1,17.1,0,0,0,4.373.177,41.731,41.731,0,0,0,4.952-.489c3.239-.512,86.127-14.8,86.488-14.908.593-.176.679-.313.283-.416-.594-.143-75.316-7.868-76.648-7.922a36.855,36.855,0,0,0-8.649.72c-.361.109-.54.478-3.151,6.446a2.67,2.67,0,0,1-.52.889c-.255.042-7.1.567-11.535.885-5.778.412-17.5,1.132-24.209,1.484-8.2.429-17.354.821-25.137,1.076-3.285.105-9.7.29-10.837.311l-3.787.079c-23.936.516-47.354.182-66.806-.949C48.68,6.732,28.733,4.124,12.265.156c-.99-.243-2.108-.468-2.433-.5a38.052,38.052,0,0,0-4.16.01C5.165-.3,4.354-.239,3.846-.191Z" transform="translate(0 0)" fill="#0092d8"/>
    </g>
    <g id="_304729-607d8b-8" data-name="304729-607d8b" transform="matrix(0.94, 0.342, -0.342, 0.94, 4588.576, -9107.814)">
      <path id="Trazado_42-8" data-name="Trazado 42" d="M3.846-.191A20.212,20.212,0,0,0,.659.292L-.036.478l.384.6q8.1,12.609,63.2,15.848c4.919.289,13.162.631,18.772.782,26.441.7,57.616.123,94.03-1.758,8.325-.429,22.709-1.314,31.4-1.935,2.154-.154,3.928-.277,3.928-.277a2.8,2.8,0,0,1-.244.571c-2.057,4.61-2.8,6.4-2.626,6.493a17.1,17.1,0,0,0,4.373.177,41.73,41.73,0,0,0,4.952-.489c3.239-.512,86.127-14.8,86.488-14.908.593-.176.679-.313.283-.416-.594-.143-75.316-7.868-76.648-7.922a36.855,36.855,0,0,0-8.649.72c-.361.109-.54.478-3.151,6.446a2.671,2.671,0,0,1-.52.889c-.255.042-7.1.567-11.535.885-5.778.412-17.5,1.132-24.209,1.484-8.2.429-17.354.821-25.137,1.076-3.285.105-9.7.29-10.837.311l-3.787.079c-23.935.516-47.354.182-66.806-.949C48.68,6.732,28.733,4.124,12.265.156c-.99-.243-2.108-.468-2.433-.5a38.052,38.052,0,0,0-4.16.01C5.165-.3,4.354-.239,3.846-.191Z" transform="translate(0 0)" fill="#0092d8"/>
    </g>
    <g id="_304729-607d8b-9" data-name="304729-607d8b" transform="translate(5273.093 -9303.434) rotate(-93)">
      <path id="Trazado_42-9" data-name="Trazado 42" d="M2.329,1.965a9.973,9.973,0,0,0-1.935.4l-.422.15L.2,2.976Q5,12.657,38.36,14.678c2.979.18,7.971.372,11.369.44,16.017.312,34.914-.412,57-2.187,5.049-.405,13.773-1.216,19.046-1.773,1.307-.138,2.383-.248,2.383-.248a2.6,2.6,0,0,1-.153.444c-1.287,3.584-1.75,4.976-1.648,5.046a8.125,8.125,0,0,0,2.648.1,20.209,20.209,0,0,0,3.005-.422c1.968-.425,52.323-12.2,52.543-12.292.361-.142.414-.248.175-.324-.359-.105-45.572-5.423-46.379-5.453a17.817,17.817,0,0,0-5.248.633c-.22.087-.331.374-1.966,5.014a2.291,2.291,0,0,1-.323.692c-.155.035-4.308.5-7,.786-3.505.37-10.617,1.029-14.684,1.361-4.973.4-10.523.788-15.242,1.054-1.992.11-5.882.31-6.57.336l-2.3.094c-14.509.61-28.7.557-40.476-.146C29.438,6.926,17.373,5.084,7.428,2.16a13.434,13.434,0,0,0-1.47-.367,18.085,18.085,0,0,0-2.521.045C3.13,1.867,2.637,1.923,2.329,1.965Z" transform="translate(0 0)" fill="#0092d8"/>
    </g>
    <g id="_304729-607d8b-10" data-name="304729-607d8b" transform="translate(5196.5 -9423.852) rotate(87)">
      <path id="Trazado_42-10" data-name="Trazado 42" d="M2.329,1.965a9.973,9.973,0,0,0-1.935.4l-.422.15L.2,2.976Q5,12.657,38.36,14.678c2.979.18,7.971.372,11.369.44,16.017.312,34.914-.412,57-2.187,5.049-.405,13.773-1.216,19.046-1.773,1.307-.138,2.383-.248,2.383-.248a2.6,2.6,0,0,1-.153.444c-1.287,3.584-1.75,4.976-1.648,5.046a8.124,8.124,0,0,0,2.648.1,20.209,20.209,0,0,0,3.005-.422c1.968-.425,52.323-12.2,52.543-12.292.361-.142.414-.248.175-.324-.359-.105-45.572-5.423-46.379-5.453a17.817,17.817,0,0,0-5.248.633c-.22.087-.331.374-1.966,5.014a2.292,2.292,0,0,1-.323.692c-.155.035-4.308.5-7,.786-3.505.37-10.617,1.029-14.684,1.361-4.973.4-10.523.788-15.242,1.054-1.992.11-5.882.31-6.57.336l-2.3.094c-14.509.61-28.7.557-40.476-.146C29.438,6.926,17.373,5.084,7.428,2.16a13.433,13.433,0,0,0-1.47-.367,18.085,18.085,0,0,0-2.521.045C3.13,1.867,2.637,1.923,2.329,1.965Z" transform="translate(0 0)" fill="#0092d8"/>
    </g>
    <g id="_304729-607d8b-11" data-name="304729-607d8b" transform="translate(5273.093 -9303.434) rotate(-93)">
      <path id="Trazado_42-11" data-name="Trazado 42" d="M2.329,1.965a9.973,9.973,0,0,0-1.935.4l-.422.15L.2,2.976Q5,12.657,38.36,14.678c2.979.18,7.971.372,11.369.44,16.017.312,34.914-.412,57-2.187,5.049-.405,13.773-1.216,19.046-1.773,1.307-.138,2.383-.248,2.383-.248a2.6,2.6,0,0,1-.153.444c-1.287,3.584-1.75,4.976-1.648,5.046a8.125,8.125,0,0,0,2.648.1,20.209,20.209,0,0,0,3.005-.422c1.968-.425,52.323-12.2,52.543-12.292.361-.142.414-.248.175-.324-.359-.105-45.572-5.423-46.379-5.453a17.817,17.817,0,0,0-5.248.633c-.22.087-.331.374-1.966,5.014a2.291,2.291,0,0,1-.323.692c-.155.035-4.308.5-7,.786-3.505.37-10.617,1.029-14.684,1.361-4.973.4-10.523.788-15.242,1.054-1.992.11-5.882.31-6.57.336l-2.3.094c-14.509.61-28.7.557-40.476-.146C29.438,6.926,17.373,5.084,7.428,2.16a13.434,13.434,0,0,0-1.47-.367,18.085,18.085,0,0,0-2.521.045C3.13,1.867,2.637,1.923,2.329,1.965Z" transform="translate(0 0)" fill="#0092d8"/>
    </g>
    <g id="_304729-607d8b-12" data-name="304729-607d8b" transform="translate(5196.5 -9423.852) rotate(87)">
      <path id="Trazado_42-12" data-name="Trazado 42" d="M2.329,1.965a9.973,9.973,0,0,0-1.935.4l-.422.15L.2,2.976Q5,12.657,38.36,14.678c2.979.18,7.971.372,11.369.44,16.017.312,34.914-.412,57-2.187,5.049-.405,13.773-1.216,19.046-1.773,1.307-.138,2.383-.248,2.383-.248a2.6,2.6,0,0,1-.153.444c-1.287,3.584-1.75,4.976-1.648,5.046a8.124,8.124,0,0,0,2.648.1,20.209,20.209,0,0,0,3.005-.422c1.968-.425,52.323-12.2,52.543-12.292.361-.142.414-.248.175-.324-.359-.105-45.572-5.423-46.379-5.453a17.817,17.817,0,0,0-5.248.633c-.22.087-.331.374-1.966,5.014a2.292,2.292,0,0,1-.323.692c-.155.035-4.308.5-7,.786-3.505.37-10.617,1.029-14.684,1.361-4.973.4-10.523.788-15.242,1.054-1.992.11-5.882.31-6.57.336l-2.3.094c-14.509.61-28.7.557-40.476-.146C29.438,6.926,17.373,5.084,7.428,2.16a13.433,13.433,0,0,0-1.47-.367,18.085,18.085,0,0,0-2.521.045C3.13,1.867,2.637,1.923,2.329,1.965Z" transform="translate(0 0)" fill="#0092d8"/>
    </g>
    <g id="_304729-607d8b-13" data-name="304729-607d8b" transform="matrix(-0.995, -0.105, 0.105, -0.995, 6126.954, -8657.865)">
      <path id="Trazado_42-13" data-name="Trazado 42" d="M5.208.054A23.956,23.956,0,0,0,.925.491L0,.706l.582.922q12.283,19.419,87.506,29.06c6.715.86,17.953,2.091,25.594,2.807,36.01,3.364,78.324,5.238,127.627,5.642,11.272.094,30.733.043,42.485-.116,2.912-.039,5.311-.066,5.311-.066a3.873,3.873,0,0,1-.274.825c-2.33,6.66-3.152,9.254-2.912,9.4.514.308,3.152.6,5.962.647a50.455,50.455,0,0,0,6.681-.291c4.351-.475,115.567-14.4,116.047-14.531.788-.21.891-.4.343-.592-.822-.264-103.164-18.283-104.98-18.479-3.8-.4-9.491-.256-11.683.309-.48.13-.685.661-3.632,9.288a3.42,3.42,0,0,1-.617,1.273c-.343.04-9.593.218-15.589.3-7.812.1-23.675.143-32.755.078-11.1-.082-23.5-.3-34.057-.608-4.454-.132-13.157-.42-14.7-.489l-5.139-.215c-32.481-1.335-64.345-3.885-90.9-7.27C66.846,14.26,39.47,8.641,16.686,1.308,15.315.86,13.773.428,13.328.35A47.879,47.879,0,0,0,7.675,0C6.99,0,5.893.027,5.208.054Z" transform="translate(0 0)" fill="#98edb9"/>
    </g>
  </g>
</svg>
