<svg xmlns="http://www.w3.org/2000/svg" width="3514.483" height="2149.887" viewBox="0 0 3514.483 2149.887">
  <path id="Trazado_1144" data-name="Trazado 1144" d="M3470.323,2043.61c-77.794,58.992-188.5,83.406-295.555,98.826l-18.019,2.511c-187.122,25.524-378.014,30.722-568.012,35.862-529.929,14.339-1061.231,28.649-1589.755-4.41-233.735-14.6-473.252-40.185-678.106-127.621l-5.335-2.307c-2.652-1.139-5.3-2.278-7.955-3.475a734.329,734.329,0,0,1-104.152-55.75c-58.5-38.14-106.8-84.691-132.331-139.916-40-86.618-18.85-183.984,26.837-268.676s114.375-160.972,173.608-240.727c17.38-23.363,33.865-47.6,49.2-72.455,95.845-155.861,143.385-336.224,42.907-486.42a671.184,671.184,0,0,0-42.907-55.487c-24.5-29.2-49.424-58.408-66.261-90.737C215.223,557.6,223.658,473,237.97,392.628c19.169-106.857,54.472-221.949,164.151-288.709,113.96-69.33,275.715-65.826,417.151-40.885,219.9,38.52,422.87,119.152,627.755,191.869s419.643,138.952,644.911,146.078c198.911,6.337,430.953-40.885,563.028-163.775,128.273-119.3,369.324-128.322,543.124-56.276,165.845,68.746,273.1,214.24,265.172,359.558-10.1,181.356-175.493,326.587-306.386,480.988-21.757,25.67-42.587,51.633-61.6,78.033-62.044,86.239-105.909,189.825-63.194,282.927,23.962,52.129,69.68,91.9,124.791,126.628,123.481,77.77,293.926,130.1,370.6,238.975,66.037,93.919,41.565,220.664-57.156,295.572Z" transform="translate(-49.963 -46.681)" fill="#4805ff" opacity="0.1"/>
</svg>
